<svg width="1320" height="209" viewBox="0 0 1320 209" fill="none" xmlns="http://www.w3.org/2000/svg">
<path d="M1192.56 4.75L1270.21 203.63H1240.89L1218.82 142.737H1135.3L1112.67 203.63H1084.74L1162.95 4.75H1192.56ZM1211 121.788L1177.2 29.8893L1142.84 121.788H1211Z" fill="#020202"/>
<path d="M919.391 4.75H1006.82C1051.23 4.75 1073.58 23.1855 1073.58 59.7772C1073.58 71.5089 1070.23 81.5646 1064.08 90.503C1057.94 99.4414 1049.56 105.307 1039.5 108.101C1046.2 109.776 1051.51 111.732 1055.7 114.525C1059.61 117.318 1062.68 121.229 1064.64 126.257C1066.32 131.285 1067.71 135.754 1068.27 139.664C1068.83 143.575 1069.11 149.441 1069.67 156.983C1069.67 157.821 1069.67 159.776 1069.95 162.569C1069.95 165.362 1070.23 167.318 1070.23 168.435C1070.23 169.552 1070.23 171.228 1070.51 173.742C1070.79 176.535 1071.06 178.491 1071.34 179.608C1071.34 181.005 1071.62 182.681 1072.18 184.915C1072.46 187.15 1073.02 189.105 1073.58 190.502C1074.14 191.898 1074.7 193.574 1075.53 195.25C1076.09 196.926 1076.93 198.602 1078.05 199.999C1078.89 201.395 1080 202.513 1081.12 203.63H1050.95C1049.56 201.954 1048.44 199.44 1047.6 196.647C1046.76 193.854 1046.2 190.781 1045.93 186.87C1045.37 182.96 1045.09 179.887 1045.09 177.653C1044.81 175.418 1044.53 171.787 1044.53 167.318C1044.25 162.848 1044.25 160.334 1044.25 159.776C1043.13 143.016 1039.78 131.564 1033.63 125.977C1027.49 120.391 1015.76 117.598 997.881 117.598H945.647V203.63H919.391V4.75ZM945.647 27.0961V96.6482H995.088C1001.23 96.6482 1006.26 96.6482 1010.45 96.0895C1014.64 95.8102 1019.39 94.9722 1024.42 93.5756C1029.44 92.4583 1033.36 90.503 1036.43 87.9891C1039.5 85.7545 1042.01 82.1232 1044.25 77.654C1046.2 73.1848 1047.32 67.8776 1047.32 61.4531C1047.32 48.0455 1043.13 39.1071 1035.03 34.3585C1026.93 29.61 1016.04 27.0961 1002.07 27.0961H945.647Z" fill="#020202"/>
<path d="M792.525 0C822.693 0 846.156 9.49707 862.915 28.4912C879.675 47.4854 888.055 72.0661 888.055 102.513C888.055 133.238 879.675 158.657 863.195 178.489C846.435 198.601 822.972 208.377 792.805 208.377C777.162 208.377 763.476 205.584 751.185 199.997C738.895 194.411 728.839 186.869 721.018 176.813C713.197 167.037 707.331 155.864 703.421 143.015C699.51 130.445 697.555 116.758 697.555 101.954C697.555 70.9488 705.934 46.0888 723.253 27.6532C740.571 9.21775 763.476 0 792.525 0ZM792.525 22.9047C770.179 22.9047 753.141 30.7258 741.409 46.3681C729.677 62.0103 723.532 81.0045 723.532 103.909C723.532 129.049 729.956 148.881 742.526 163.685C755.096 178.489 771.855 185.752 792.805 185.752C813.754 185.752 830.514 178.489 843.083 163.406C855.374 148.601 861.798 128.769 861.798 103.909C861.798 79.3285 855.374 59.7757 842.804 44.9715C830.234 30.4465 813.475 22.9047 792.525 22.9047Z" fill="#020202"/>
<path d="M687.884 4.75V27.6547H621.125V203.63H594.868V27.6547H528.109V4.75H687.884Z" fill="#020202"/>
<path d="M511.115 63.1256L485.417 63.4049C482.624 36.3103 466.144 22.9027 435.977 22.9027C421.731 22.9027 410.558 25.6959 402.737 31.5618C394.916 37.1483 391.005 45.2487 391.005 55.8631C391.005 59.4943 391.564 62.8463 392.681 65.6395C393.799 68.4328 395.754 70.6674 398.547 72.902C401.34 75.1366 403.854 76.8125 406.089 78.4885C408.603 79.8851 412.513 81.2818 417.541 82.6784C422.848 84.3543 427.038 85.4717 430.111 86.0303C433.463 86.589 438.211 87.7063 444.915 89.1029C453.295 90.7788 459.999 92.4548 465.306 93.8514C470.892 95.2481 477.317 97.4827 484.579 100.555C492.121 103.907 497.987 107.259 502.456 111.17C506.925 115.08 510.557 120.108 513.909 126.253C517.26 132.678 518.657 139.94 518.657 147.761C518.657 161.728 514.746 173.459 506.925 182.956C499.104 192.453 489.607 198.878 478.434 202.509C467.261 206.42 454.971 208.096 441.284 208.096C416.424 208.096 396.592 202.23 381.508 190.498C366.425 178.766 358.883 161.169 358.883 137.985H384.301C384.86 155.024 390.726 167.314 401.34 175.135C412.234 182.956 426.2 186.867 443.518 186.867C457.205 186.867 468.937 183.794 478.714 178.208C488.211 172.621 493.238 163.404 493.238 150.555C493.238 144.409 491.842 139.382 489.328 135.192C486.535 131.002 482.624 127.65 477.038 124.857C471.451 122.063 465.865 120.108 460.278 118.432C454.691 116.756 447.15 114.801 438.211 112.846C436.815 112.566 435.977 112.287 435.418 112.008C414.748 107.538 401.34 103.628 395.195 100.835C375.642 92.4548 366.145 78.2092 366.145 57.5391C366.145 38.5449 373.128 24.5786 387.095 15.0816C401.061 5.58446 418.1 0.835938 437.932 0.835938C459.719 0.835938 477.317 6.14312 490.166 16.4782C503.294 27.0926 510.277 42.4555 511.115 63.1256Z" fill="#020202"/>
<path d="M338.848 4.75V27.6547H227.397V89.9444H331.586V112.011H227.397V180.725H340.245V203.63H201.141V4.75H338.848Z" fill="#020202"/>
<path d="M0 4.75H28.7705L133.797 166.2V4.75H159.216V203.63H129.607L25.1393 44.1349V203.63H0V4.75Z" fill="#020202"/>
<path d="M1291.89 54.6497V32.7311H1270.31V26.8796H1291.89V4.96094H1298.42V26.8796H1320V32.7311H1298.42V54.6497H1291.89Z" fill="#020202"/>
</svg>
