<svg width="157" height="25" viewBox="0 0 157 25" fill="none" xmlns="http://www.w3.org/2000/svg">
<path d="M140.826 0.5625L149.996 24.0483H146.533L143.927 16.8574H134.064L131.392 24.0483H128.094L137.33 0.5625H140.826ZM143.003 14.3835L139.012 3.53121L134.955 14.3835H143.003Z" fill="white"/>
<path d="M108.57 0.5625H118.895C124.14 0.5625 126.778 2.73955 126.778 7.06067C126.778 8.44607 126.383 9.63355 125.657 10.6891C124.931 11.7446 123.942 12.4373 122.754 12.7672C123.546 12.9651 124.173 13.196 124.667 13.5259C125.129 13.8557 125.492 14.3175 125.723 14.9113C125.921 15.505 126.086 16.0328 126.152 16.4946C126.218 16.9564 126.251 17.6491 126.317 18.5397C126.317 18.6386 126.317 18.8695 126.35 19.1994C126.35 19.5292 126.383 19.7601 126.383 19.8921C126.383 20.024 126.383 20.2219 126.416 20.5188C126.449 20.8487 126.482 21.0796 126.514 21.2115C126.514 21.3764 126.547 21.5744 126.613 21.8382C126.646 22.1021 126.712 22.333 126.778 22.4979C126.844 22.6629 126.91 22.8608 127.009 23.0587C127.075 23.2566 127.174 23.4545 127.306 23.6195C127.405 23.7844 127.537 23.9163 127.669 24.0483H124.107C123.942 23.8504 123.81 23.5535 123.711 23.2236C123.612 22.8938 123.546 22.5309 123.513 22.0691C123.447 21.6073 123.414 21.2445 123.414 20.9806C123.381 20.7167 123.348 20.2879 123.348 19.7601C123.315 19.2324 123.315 18.9355 123.315 18.8695C123.183 16.8904 122.787 15.538 122.061 14.8783C121.336 14.2186 119.95 13.8887 117.839 13.8887H111.671V24.0483H108.57V0.5625ZM111.671 3.20135V11.4148H117.509C118.235 11.4148 118.829 11.4148 119.324 11.3488C119.818 11.3158 120.379 11.2169 120.973 11.0519C121.567 10.92 122.028 10.6891 122.391 10.3922C122.754 10.1283 123.051 9.69952 123.315 9.17175C123.546 8.64398 123.678 8.01725 123.678 7.25858C123.678 5.67527 123.183 4.61973 122.226 4.05898C121.27 3.49822 119.983 3.20135 118.334 3.20135H111.671Z" fill="white"/>
<path d="M93.5901 0C97.1526 0 99.9234 1.12151 101.902 3.36454C103.882 5.60756 104.871 8.51029 104.871 12.1057C104.871 15.7342 103.882 18.7358 101.935 21.0778C99.9563 23.4528 97.1856 24.6073 93.6231 24.6073C91.7759 24.6073 90.1596 24.2774 88.7082 23.6177C87.2569 22.958 86.0694 22.0674 85.1458 20.8799C84.2222 19.7254 83.5295 18.406 83.0677 16.8886C82.6059 15.4043 82.375 13.788 82.375 12.0398C82.375 8.37835 83.3646 5.44263 85.4097 3.26558C87.4548 1.08853 90.1596 0 93.5901 0ZM93.5901 2.70482C90.9513 2.70482 88.9391 3.62842 87.5537 5.47562C86.1684 7.32281 85.4427 9.56584 85.4427 12.2707C85.4427 15.2394 86.2013 17.5813 87.6857 19.3296C89.17 21.0778 91.1492 21.9354 93.6231 21.9354C96.097 21.9354 98.0762 21.0778 99.5605 19.2966C101.012 17.5484 101.771 15.2064 101.771 12.2707C101.771 9.36792 101.012 7.05893 99.5275 5.31069C98.0432 3.59544 96.064 2.70482 93.5901 2.70482Z" fill="white"/>
<path d="M81.235 0.5625V3.26732H73.3514V24.0483H70.2508V3.26732H62.3672V0.5625H81.235Z" fill="white"/>
<path d="M60.36 7.45736L57.3253 7.49035C56.9955 4.29074 55.0493 2.70743 51.4868 2.70743C49.8046 2.70743 48.4852 3.03728 47.5616 3.72998C46.638 4.3897 46.1762 5.34628 46.1762 6.59973C46.1762 7.02855 46.2421 7.42437 46.3741 7.75423C46.506 8.08409 46.7369 8.34797 47.0668 8.61186C47.3966 8.87574 47.6935 9.07366 47.9574 9.27157C48.2543 9.4365 48.7161 9.60143 49.3098 9.76635C49.9365 9.96427 50.4313 10.0962 50.7941 10.1622C51.19 10.2282 51.7507 10.3601 52.5424 10.525C53.532 10.7229 54.3236 10.9209 54.9503 11.0858C55.6101 11.2507 56.3687 11.5146 57.2263 11.8774C58.117 12.2733 58.8097 12.6691 59.3374 13.1309C59.8652 13.5927 60.294 14.1864 60.6898 14.9121C61.0857 15.6708 61.2506 16.5284 61.2506 17.452C61.2506 19.1013 60.7888 20.4867 59.8652 21.6082C58.9416 22.7297 57.8201 23.4884 56.5007 23.9172C55.1812 24.379 53.7299 24.5769 52.1136 24.5769C49.1779 24.5769 46.8359 23.8842 45.0546 22.4988C43.2734 21.1134 42.3828 19.0353 42.3828 16.2975H45.3845C45.4505 18.3096 46.1432 19.761 47.3966 20.6846C48.6831 21.6082 50.3323 22.07 52.3775 22.07C53.9938 22.07 55.3792 21.7072 56.5337 21.0474C57.6552 20.3877 58.2489 19.2992 58.2489 17.7819C58.2489 17.0562 58.084 16.4624 57.7871 15.9677C57.4572 15.4729 56.9955 15.077 56.3357 14.7472C55.676 14.4173 55.0163 14.1864 54.3566 13.9885C53.6969 13.7906 52.8063 13.5597 51.7507 13.3288C51.5858 13.2958 51.4868 13.2628 51.4209 13.2298C48.9799 12.7021 47.3966 12.2403 46.6709 11.9104C44.3619 10.9209 43.2404 9.23858 43.2404 6.79765C43.2404 4.55462 44.0651 2.90534 45.7144 1.78383C47.3636 0.662317 49.3758 0.101562 51.7177 0.101562C54.2906 0.101562 56.3687 0.728289 57.8861 1.94876C59.4364 3.20221 60.261 5.01642 60.36 7.45736Z" fill="white"/>
<path d="M40.0119 0.5625V3.26732H26.8507V10.6231H39.1543V13.229H26.8507V21.3435H40.1768V24.0483H23.75V0.5625H40.0119Z" fill="white"/>
<path d="M0 0.5625H3.39752L15.8001 19.6282V0.5625H18.8018V24.0483H15.3053L2.96871 5.21347V24.0483H0V0.5625Z" fill="white"/>
<path d="M153.04 7V3.91218H150V3.08782H153.04V0H153.96V3.08782H157V3.91218H153.96V7H153.04Z" fill="white"/>
</svg>
