<svg width="120" height="32" viewBox="0 0 120 32" fill="none" xmlns="http://www.w3.org/2000/svg">
<path d="M0.47 21.172L6.434 19.87C6.798 22.222 7.4 23.902 8.24 24.91C9.108 25.89 10.452 26.38 12.272 26.38C13.896 26.38 15.17 26.086 16.094 25.498C17.046 24.91 17.522 24.07 17.522 22.978C17.522 21.802 17.06 20.906 16.136 20.29C15.24 19.646 13.168 18.82 9.92 17.812C6.924 16.888 4.768 15.754 3.452 14.41C2.164 13.066 1.52 11.372 1.52 9.328C1.52 7.032 2.402 5.072 4.166 3.448C5.986 1.796 8.408 0.969999 11.432 0.969999C14.288 0.969999 16.696 1.656 18.656 3.028C20.616 4.4 21.848 6.388 22.352 8.992L16.85 10.378C15.982 7.606 14.176 6.22 11.432 6.22C10.004 6.22 8.926 6.5 8.198 7.06C7.47 7.592 7.106 8.334 7.106 9.286C7.106 10.154 7.512 10.826 8.324 11.302C9.108 11.75 11.194 12.548 14.582 13.696C17.802 14.816 20.028 16.034 21.26 17.35C22.464 18.638 23.066 20.388 23.066 22.6C23.066 25.204 22.086 27.36 20.126 29.068C18.166 30.776 15.548 31.63 12.272 31.63C8.884 31.63 6.168 30.748 4.124 28.984C2.108 27.192 0.89 24.588 0.47 21.172ZM66.2026 31H60.9106V8.74H65.9086V10.882H65.9926C66.5246 10.07 67.2666 9.412 68.2186 8.908C69.1986 8.376 70.2486 8.11 71.3686 8.11C72.5446 8.11 73.6506 8.39 74.6866 8.95C75.7226 9.482 76.5066 10.182 77.0386 11.05H77.1226C77.7106 10.182 78.5226 9.482 79.5586 8.95C80.5946 8.39 81.7146 8.11 82.9186 8.11C85.5786 8.11 87.6786 8.81 89.2186 10.21C90.7866 11.61 91.5706 13.458 91.5706 15.754V31H86.5726V16.888C86.5726 15.74 86.2506 14.83 85.6066 14.158C84.9626 13.486 83.9966 13.15 82.7086 13.15C81.5046 13.15 80.5666 13.472 79.8946 14.116C79.2226 14.732 78.8866 15.558 78.8866 16.594V31H73.8886V16.888C73.8886 15.796 73.5386 14.9 72.8386 14.2C72.1666 13.5 71.2286 13.15 70.0246 13.15C68.7926 13.15 67.8406 13.472 67.1686 14.116C66.5246 14.732 66.2026 15.558 66.2026 16.594V31ZM119.552 31H114.974V28.858H114.89C114.89 28.886 114.82 28.998 114.68 29.194C114.568 29.362 114.358 29.586 114.05 29.866C113.742 30.146 113.364 30.412 112.916 30.664C112.496 30.916 111.922 31.14 111.194 31.336C110.466 31.532 109.682 31.63 108.842 31.63C106.266 31.63 104.278 31.014 102.878 29.782C101.506 28.55 100.82 26.968 100.82 25.036C100.82 23.132 101.38 21.676 102.5 20.668C103.648 19.632 105.608 18.778 108.38 18.106C111.012 17.462 112.608 16.972 113.168 16.636C113.812 16.244 114.134 15.726 114.134 15.082C114.134 14.382 113.812 13.822 113.168 13.402C112.524 12.954 111.586 12.73 110.354 12.73C108.954 12.73 107.918 13.038 107.246 13.654C106.574 14.242 106.042 15.152 105.65 16.384L101.114 14.494C101.674 12.562 102.738 11.022 104.306 9.874C105.874 8.698 107.862 8.11 110.27 8.11C113.014 8.11 115.24 8.824 116.948 10.252C118.684 11.68 119.552 13.892 119.552 16.888V31ZM109.472 21.886C108.156 22.194 107.26 22.572 106.784 23.02C106.308 23.468 106.07 24.014 106.07 24.658C106.07 26.17 107.162 26.926 109.346 26.926C110.942 26.926 112.16 26.632 113 26.044C113.868 25.428 114.302 24.63 114.302 23.65V19.786H114.218C114.05 20.066 113.924 20.248 113.84 20.332C113.42 20.752 111.964 21.27 109.472 21.886Z" fill="#2B2B2B"/>
<path d="M37.3316 24.952C38.1996 26.128 39.4316 26.716 41.0276 26.716C42.6236 26.716 43.8556 26.128 44.7236 24.952C45.6196 23.72 46.0676 22.026 46.0676 19.87C46.0676 17.686 45.6056 16.006 44.6816 14.83C43.8136 13.626 42.5956 13.024 41.0276 13.024C39.4876 13.024 38.2556 13.612 37.3316 14.788C36.4356 15.992 35.9876 17.686 35.9876 19.87C35.9876 22.054 36.4356 23.748 37.3316 24.952ZM30.6116 19.87C30.6116 16.23 31.6196 13.36 33.6356 11.26C35.6516 9.16 38.1156 8.11 41.0276 8.11C43.9396 8.11 46.4036 9.16 48.4196 11.26C50.4356 13.36 51.4436 16.23 51.4436 19.87C51.4436 23.594 50.4636 26.478 48.5036 28.522C46.5156 30.594 44.0236 31.63 41.0276 31.63C38.0316 31.63 35.5396 30.594 33.5516 28.522C31.5916 26.478 30.6116 23.594 30.6116 19.87ZM39.8516 6.01H34.7276V1.18H39.8516V6.01ZM48.2096 6.01H43.0856V1.18H48.2096V6.01Z" fill="#A68A64"/>
</svg>
