<svg width="631" height="163" viewBox="0 0 631 163" fill="none" xmlns="http://www.w3.org/2000/svg">
<path d="M0.436523 106.947L32.0092 100.054C33.9361 112.505 37.123 121.399 41.5699 126.735C46.165 131.923 53.2799 134.517 62.9148 134.517C71.512 134.517 78.2564 132.961 83.1479 129.848C88.1877 126.735 90.7076 122.288 90.7076 116.507C90.7076 110.282 88.2618 105.539 83.3703 102.278C78.627 98.8683 67.6581 94.4956 50.4636 89.1593C34.6032 84.2678 23.1896 78.2646 16.2228 71.1496C9.40434 64.0346 5.99509 55.0668 5.99509 44.2462C5.99509 32.0914 10.6643 21.7155 20.0027 13.1182C29.6375 4.37274 42.4593 0 58.4679 0C73.5872 0 86.3348 3.6316 96.7108 10.8948C107.087 18.158 113.609 28.6822 116.277 42.4674L87.1501 49.8047C82.555 35.1301 72.9943 27.7928 58.4679 27.7928C50.9083 27.7928 45.2015 29.2751 41.3475 32.2397C37.4936 35.056 35.5666 38.9841 35.5666 44.0238C35.5666 48.6189 37.716 52.1764 42.0146 54.6963C46.165 57.0679 57.208 61.2924 75.1436 67.3698C92.1899 73.2989 103.974 79.7468 110.496 86.7136C116.87 93.5321 120.057 102.796 120.057 114.506C120.057 128.292 114.869 139.705 104.493 148.747C94.1168 157.789 80.2575 162.31 62.9148 162.31C44.9791 162.31 30.601 157.641 19.7803 148.302C9.10788 138.816 2.65995 125.031 0.436523 106.947Z" fill="#2B2B2B"/>
<path d="M195.577 126.958C200.172 133.183 206.694 136.296 215.143 136.296C223.592 136.296 230.114 133.183 234.709 126.958C239.452 120.436 241.824 111.468 241.824 100.054C241.824 88.4923 239.378 79.5986 234.487 73.373C229.892 66.9992 223.444 63.8123 215.143 63.8123C206.99 63.8123 200.468 66.9251 195.577 73.1507C190.834 79.5245 188.462 88.4923 188.462 100.054C188.462 111.616 190.834 120.584 195.577 126.958ZM160.002 100.054C160.002 80.7844 165.338 65.591 176.011 54.4739C186.683 43.3568 199.727 37.7982 215.143 37.7982C230.559 37.7982 243.603 43.3568 254.275 54.4739C264.948 65.591 270.284 80.7844 270.284 100.054C270.284 119.769 265.096 135.036 254.72 145.857C244.196 156.826 231.003 162.31 215.143 162.31C199.283 162.31 186.09 156.826 175.566 145.857C165.19 135.036 160.002 119.769 160.002 100.054ZM208.917 26.6811H181.792V1.11171H208.917V26.6811ZM253.164 26.6811H226.038V1.11171H253.164V26.6811Z" fill="white"/>
<path d="M348.416 158.975H320.401V41.1334H346.86V52.4728H347.305C350.121 48.1742 354.049 44.6908 359.089 42.0227C364.277 39.2064 369.835 37.7982 375.765 37.7982C381.99 37.7982 387.845 39.2805 393.33 42.2451C398.814 45.0614 402.964 48.7671 405.781 53.3622H406.226C409.338 48.7671 413.637 45.0614 419.121 42.2451C424.606 39.2805 430.535 37.7982 436.909 37.7982C450.99 37.7982 462.108 41.5039 470.26 48.9154C478.561 56.3268 482.711 66.1098 482.711 78.2646V158.975H456.253V84.2678C456.253 78.1905 454.548 73.373 451.139 69.8156C447.729 66.2581 442.616 64.4793 435.797 64.4793C429.423 64.4793 424.458 66.184 420.9 69.5932C417.343 72.8542 415.564 77.227 415.564 82.7114V158.975H389.105V84.2678C389.105 78.4869 387.252 73.7436 383.547 70.0379C379.989 66.3322 375.023 64.4793 368.65 64.4793C362.128 64.4793 357.088 66.184 353.53 69.5932C350.121 72.8542 348.416 77.227 348.416 82.7114V158.975Z" fill="#2B2B2B"/>
<path d="M630.844 158.975H606.608V147.635H606.164C606.164 147.784 605.793 148.377 605.052 149.414C604.459 150.304 603.347 151.489 601.717 152.972C600.086 154.454 598.085 155.862 595.714 157.196C593.49 158.53 590.451 159.716 586.597 160.754C582.743 161.791 578.593 162.31 574.146 162.31C560.509 162.31 549.985 159.049 542.574 152.527C535.31 146.005 531.679 137.63 531.679 127.402C531.679 117.323 534.643 109.615 540.573 104.279C546.65 98.7942 557.026 94.2732 571.701 90.7158C585.634 87.3065 594.083 84.7125 597.048 82.9338C600.457 80.8586 602.161 78.1163 602.161 74.7071C602.161 71.0014 600.457 68.0368 597.048 65.8134C593.638 63.4417 588.673 62.2559 582.151 62.2559C574.739 62.2559 569.255 63.8864 565.697 67.1474C562.14 70.2602 559.323 75.0777 557.248 81.5997L533.235 71.5943C536.2 61.3665 541.832 53.214 550.133 47.1366C558.434 40.911 568.958 37.7982 581.706 37.7982C596.232 37.7982 608.016 41.5781 617.058 49.1377C626.249 56.6973 630.844 68.4074 630.844 84.2678V158.975ZM577.481 110.727C570.515 112.357 565.771 114.358 563.251 116.73C560.732 119.101 559.472 121.992 559.472 125.401C559.472 133.406 565.253 137.408 576.814 137.408C585.263 137.408 591.711 135.851 596.158 132.738C600.753 129.477 603.051 125.253 603.051 120.065V99.6094H602.606C601.717 101.092 601.05 102.055 600.605 102.5C598.382 104.723 590.674 107.466 577.481 110.727Z" fill="#2B2B2B"/>
</svg>
