<svg width="50" height="50" viewBox="0 0 50 50" fill="none" xmlns="http://www.w3.org/2000/svg">
<path d="M19.9162 42.4423C1.00992 33.3815 5.22844 5.18093 26.0923 2.15584C13.4498 0.308735 1.7865 10.4264 1.89133 23.2213C1.89123 33.7521 9.54572 42.4939 19.5942 44.1898C19.6997 43.6071 19.8109 43.0251 19.9162 42.4423Z" fill="#CAD5E2"/>
<path d="M19.3964 46.1172C19.2823 46.1172 19.5128 46.138 19.3964 46.1172V46.1172ZM23.1588 3.91379C32.5865 3.91379 40.5972 10.6344 42.2063 19.8938C42.3912 20.9578 43.4042 21.6709 44.4679 21.4857C45.532 21.3008 46.2447 20.2881 46.0598 19.2241C44.3389 8.3754 34.1629 -0.174003 23.1586 0.00269006C-5.31828 0.96653 -8.64493 40.4306 19.3964 46.1172C20.3258 46.1172 21.1501 45.4521 21.3193 44.5051C21.5092 43.4418 20.8012 42.4259 19.7379 42.236C-3.24148 37.5595 -0.286112 4.4865 23.1588 3.91379ZM48.0444 38.8402C47.0283 38.4741 45.9077 39.0007 45.5414 40.0168C41.905 49.701 27.6468 47.2296 27.5101 36.8662C27.5101 31.7442 31.6772 27.5771 36.7994 27.5771C38.078 27.5771 39.3822 27.8788 40.6758 28.4738C41.657 28.925 42.8185 28.4956 43.2696 27.5143C43.721 26.5331 43.2915 25.3717 42.3102 24.9205C40.5004 24.0879 38.6463 23.6659 36.7995 23.6659C29.5207 23.6659 23.5989 29.5877 23.5989 36.8665C23.7951 51.5928 44.0536 55.1061 49.2212 41.3429C49.5872 40.327 49.0604 39.2064 48.0444 38.8402Z" fill="#1D293D"/>
<path d="M49.4313 31.6894L41.7993 39.3932C40.8603 40.3465 39.6045 40.8735 38.267 40.8735C36.9295 40.8735 35.6737 40.3464 34.7307 39.3893L31.9756 36.5686C31.2209 35.796 31.2355 34.5578 32.0082 33.8031C32.7808 33.0485 34.0191 33.063 34.7737 33.8356L37.523 36.6503C37.9158 37.0643 38.6229 37.0635 39.0169 36.6443L46.6526 28.9366C47.4128 28.1693 48.6511 28.1636 49.4183 28.9236C50.1857 29.6838 50.1915 30.922 49.4313 31.6894ZM25.0632 20.989V10.6588C25.0632 9.57867 24.1876 8.70312 23.1075 8.70312C22.0274 8.70312 21.1519 9.57867 21.1519 10.6588V20.989C20.4948 21.5689 20.1004 22.4848 20.1848 23.4165L14.5971 28.9197C13.3484 30.1311 14.2519 32.2875 15.9696 32.2687C16.4651 32.2687 16.9608 32.0815 17.3418 31.7064L23.0277 26.1064C25.7563 26.1858 27.0779 22.7743 25.0632 20.989Z" fill="#31ABF1"/>
</svg>
