<svg width="88" height="22" viewBox="0 0 88 22" fill="none" xmlns="http://www.w3.org/2000/svg">
<path fill-rule="evenodd" clip-rule="evenodd" d="M6.08963 2.2041V21.8916H0.934082V2.2041H6.08963Z" fill="white"/>
<path fill-rule="evenodd" clip-rule="evenodd" d="M8.66748 2.2041H19.623C23.1822 2.2041 26.0675 5.14223 26.0675 8.7666C26.0675 12.391 23.1822 15.3291 19.623 15.3291H13.823V21.8916H8.66748V2.2041ZM13.823 10.0791H19.623C20.3349 10.0791 20.9119 9.49147 20.9119 8.7666C20.9119 8.04173 20.3349 7.4541 19.623 7.4541H13.823V10.0791Z" fill="white"/>
<path fill-rule="evenodd" clip-rule="evenodd" d="M45.4007 2.2041V12.376C45.4007 14.7318 47.2761 16.6416 49.5895 16.6416C51.903 16.6416 53.7785 14.7318 53.7785 12.376V2.2041H58.9342V12.376C58.9342 17.6313 54.7504 21.8916 49.5895 21.8916C44.4287 21.8916 40.2451 17.6313 40.2451 12.376V2.2041H45.4007Z" fill="white"/>
<path fill-rule="evenodd" clip-rule="evenodd" d="M28.0008 11.3916C28.0008 6.31748 32.0401 2.2041 37.023 2.2041H38.3119V7.4541H37.023C34.8875 7.4541 33.1563 9.217 33.1563 11.3916V12.0479C33.1563 17.4844 28.8284 21.8916 23.4896 21.8916H22.8452V16.6416H23.4896C25.9811 16.6416 28.0008 14.5849 28.0008 12.0479V11.3916Z" fill="white"/>
<path d="M87.934 2.86035C87.934 3.94766 87.0686 4.8291 86.0004 4.8291C84.9328 4.8291 84.0674 3.94766 84.0674 2.86035C84.0674 1.77304 84.9328 0.891602 86.0004 0.891602C87.0686 0.891602 87.934 1.77304 87.934 2.86035Z" fill="white"/>
<path d="M64.4697 21.8918L66.9299 11.4013L68.759 17.7124C69.8493 21.4766 75.0853 21.4766 76.1761 17.7124L78.0047 11.4013L80.4649 21.8918H85.7652L81.897 5.39604C80.9771 1.47322 75.5486 1.32797 74.4274 5.19624L72.4676 11.9605L70.5072 5.19624C69.3865 1.32799 63.9575 1.47319 63.0376 5.39604L59.1694 21.8918H64.4697Z" fill="white"/>
</svg>
