<svg width="155" height="29" viewBox="0 0 155 29" fill="none" xmlns="http://www.w3.org/2000/svg">
<g style="mix-blend-mode:luminosity">
<path d="M14.4838 28.3916C22.216 28.3916 28.4838 22.1238 28.4838 14.3916V4.5916C28.4838 3.47769 28.0413 2.40941 27.2537 1.62175C26.466 0.8341 25.3977 0.391602 24.2838 0.391602L15.1838 0.391602V6.5334C15.1838 7.9348 15.2692 9.3866 16.0042 10.5794C16.5304 11.4342 17.2343 12.1659 18.0682 12.7248C18.902 13.2836 19.8463 13.6566 20.837 13.8183L21.1051 13.8617C21.2156 13.8995 21.3116 13.9709 21.3795 14.0659C21.4475 14.1609 21.484 14.2748 21.484 14.3916C21.484 14.5084 21.4475 14.6223 21.3795 14.7173C21.3116 14.8123 21.2156 14.8837 21.1051 14.9215L20.837 14.9649C19.3895 15.2014 18.0529 15.8865 17.0158 16.9236C15.9787 17.9607 15.2936 19.2973 15.0571 20.7448L15.0137 21.0129C14.9759 21.1234 14.9045 21.2194 14.8095 21.2873C14.7145 21.3553 14.6006 21.3918 14.4838 21.3918C14.367 21.3918 14.2531 21.3553 14.1581 21.2873C14.0631 21.2194 13.9917 21.1234 13.9539 21.0129L13.9105 20.7448C13.7487 19.7541 13.3758 18.8098 12.8169 17.976C12.2581 17.1421 11.5264 16.4382 10.6716 15.912C9.47881 15.177 8.02701 15.0916 6.62561 15.0916H0.50061C0.86671 22.4983 6.98681 28.3916 14.4838 28.3916Z" fill="white"/>
<path d="M0.483887 13.6916H6.62569C8.02709 13.6916 9.47889 13.6062 10.6717 12.8712C11.6041 12.2967 12.389 11.5118 12.9635 10.5794C13.6985 9.3866 13.7839 7.9348 13.7839 6.5334V0.391602H4.68389C3.56998 0.391602 2.50169 0.8341 1.71404 1.62175C0.926385 2.40941 0.483887 3.47769 0.483887 4.5916L0.483887 13.6916ZM33.0024 1.7916C33.0024 2.1629 32.8549 2.519 32.5923 2.78155C32.3298 3.0441 31.9737 3.1916 31.6024 3.1916C31.2311 3.1916 30.875 3.0441 30.6124 2.78155C30.3499 2.519 30.2024 2.1629 30.2024 1.7916C30.2024 1.4203 30.3499 1.0642 30.6124 0.801652C30.875 0.539101 31.2311 0.391602 31.6024 0.391602C31.9737 0.391602 32.3298 0.539101 32.5923 0.801652C32.8549 1.0642 33.0024 1.4203 33.0024 1.7916ZM148.682 8.8644C152.595 8.8644 154.484 11.5979 154.484 14.764V20.7105H150.388V15.4696C150.388 14.0346 149.865 12.8502 148.363 12.8502C146.862 12.8502 146.361 14.0346 146.361 15.4696V20.7098H142.265V15.4696C142.265 14.0346 141.765 12.8502 140.263 12.8502C138.761 12.8502 138.238 14.0346 138.238 15.4696V20.7098H134.143V14.7633C134.143 11.5972 136.03 8.8637 139.944 8.8637C142.083 8.8637 143.63 9.7065 144.336 11.096C145.086 9.7065 146.725 8.863 148.682 8.863V8.8644ZM126.783 17.0656C128.102 17.0656 128.671 15.8581 128.671 14.4224V9.3194H132.766V14.9236C132.766 18.2724 130.81 21.0521 126.783 21.0521C122.755 21.0521 120.798 18.2731 120.798 14.9236V9.3194H124.894V14.4224C124.894 15.8574 125.463 17.0656 126.783 17.0656ZM114.776 21.0745C112.205 21.0745 110.544 20.1862 109.566 18.4551L112.524 16.7919C112.933 17.5206 113.547 17.8853 114.571 17.8853C115.413 17.8853 115.8 17.5892 115.8 17.2245C115.8 15.835 109.793 17.2476 109.793 12.8285C109.793 10.6865 111.613 8.9554 114.708 8.9554C117.415 8.9554 118.894 10.2763 119.555 11.5524L116.596 13.238C116.346 12.5548 115.572 12.1446 114.799 12.1446C114.207 12.1446 113.889 12.3952 113.889 12.7368C113.889 14.1494 119.895 12.8509 119.895 17.1335C119.895 19.5254 117.552 21.0745 114.776 21.0745ZM100.467 25.95H96.3713V14.9922C96.3713 11.5062 98.9879 8.9778 102.629 8.9778C106.178 8.9778 108.886 11.6889 108.886 14.9922C108.886 18.6371 106.474 21.0521 102.856 21.0521C102.014 21.0521 101.173 20.8015 100.467 20.4137V25.95ZM102.629 17.2021C103.926 17.2021 104.79 16.1997 104.79 15.0146C104.79 13.8078 103.926 12.8278 102.629 12.8278C101.331 12.8278 100.467 13.8078 100.467 15.0153C100.467 16.1997 101.331 17.2021 102.629 17.2021ZM92.2686 8.1126C90.926 8.1126 89.8116 6.9961 89.8116 5.6521C89.8116 4.3081 90.926 3.1916 92.2686 3.1916C93.6112 3.1916 94.7263 4.3081 94.7263 5.6521C94.7263 6.9961 93.6112 8.1126 92.2686 8.1126ZM90.2211 9.3194H94.3168V20.7105H90.2211V9.3194ZM82.3629 21.0521C78.8132 21.0521 76.1056 18.3186 76.1056 14.9922C76.1056 11.6889 78.8132 8.9554 82.3629 8.9554C85.9126 8.9554 88.6202 11.6889 88.6202 14.9922C88.6202 18.3186 85.9126 21.0521 82.3629 21.0521ZM82.3629 17.2021C83.66 17.2021 84.5245 16.1997 84.5245 15.0146C84.5245 13.8078 83.66 12.8054 82.3629 12.8054C81.0658 12.8054 80.2013 13.8078 80.2013 15.0146C80.2013 16.1997 81.0658 17.2021 82.3629 17.2021ZM68.372 26.2916C65.551 26.2916 63.5028 25.0386 62.4563 22.8056L65.8464 20.9835C66.2104 21.7584 66.8929 22.5557 68.3034 22.5557C69.7832 22.5557 70.7611 21.6212 70.8752 19.9811C70.3292 20.4599 69.464 20.8239 68.1676 20.8239C65.0043 20.8239 62.4556 18.3865 62.4556 14.9691C62.4556 11.6665 65.1639 8.9778 68.7136 8.9778C72.3543 8.9778 74.9709 11.5069 74.9709 14.9922V19.503C74.9709 23.6036 72.1261 26.2916 68.372 26.2916ZM68.645 16.9746C69.8735 16.9746 70.8066 16.1311 70.8066 14.8781C70.8066 13.6482 69.8742 12.8278 68.645 12.8278C67.4389 12.8278 66.4834 13.6482 66.4834 14.8788C66.4834 16.1318 67.4389 16.9739 68.645 16.9739V16.9746ZM55.5088 21.0521C51.9591 21.0521 49.2508 18.3186 49.2508 14.9922C49.2508 11.6889 51.9591 8.9554 55.5088 8.9554C59.0578 8.9554 61.7661 11.6889 61.7661 14.9922C61.7661 18.3186 59.0585 21.0521 55.5088 21.0521ZM55.5088 17.2021C56.8059 17.2021 57.6704 16.1997 57.6704 15.0146C57.6704 13.8078 56.8059 12.8054 55.5088 12.8054C54.2117 12.8054 53.3472 13.8078 53.3472 15.0146C53.3472 16.1997 54.2117 17.2021 55.5088 17.2021ZM41.793 5.3336V16.8374H48.5739V20.7105H41.2239C38.6304 20.7105 37.5839 19.3434 37.5839 17.179V5.3336H41.793Z" fill="white"/>
</g>
</svg>
