<svg width="288" height="173" viewBox="0 0 288 173" fill="none" xmlns="http://www.w3.org/2000/svg">
<path d="M194.196 169.133L185.208 162.784L146.889 135.353C144.996 133.993 142.631 133.993 140.739 135.353L129.858 143.061L93.4317 169.133C87.2815 173.44 79.0026 173.667 72.3801 169.813L9.69797 131.499C3.54804 127.644 -9.81071e-06 121.297 -9.5035e-06 114.269L-8.62152e-07 -83.4225C-3.86481e-07 -94.3046 9.22491 -103.146 20.5787 -103.146L267.05 -103.146C278.404 -103.146 287.628 -94.3046 287.628 -83.4225L287.628 114.042C287.628 121.07 284.08 127.418 277.694 131.499L215.248 170.039C208.625 173.894 200.583 173.44 194.196 169.133ZM208.389 150.543L264.447 116.31C265.867 115.402 266.813 113.816 266.813 112.228L266.813 -78.2081C266.813 -80.9286 264.447 -83.1958 261.609 -83.1958L26.019 -83.1958C23.1806 -83.1958 20.8152 -80.9287 20.8152 -78.2081L20.8152 112.228C20.8152 113.816 21.7613 115.402 23.1806 116.31L79.4763 150.543C81.368 151.676 83.4973 151.449 85.3898 150.316L123.472 123.11L123.472 118.577L90.3566 94.7718C85.1529 90.9181 82.0778 85.2503 82.0778 78.9019L82.0778 -4.52752C82.0778 -15.4095 91.3032 -24.2511 102.656 -24.2511L184.735 -24.2511C196.088 -24.2511 205.314 -15.4094 205.314 -4.52752L205.314 80.0354C205.314 86.3831 202.238 92.2778 196.798 96.1315L178.822 108.601L163.919 97.9456L163.919 94.0912L182.133 81.169C183.552 80.2623 184.262 78.675 184.262 77.3153L184.262 0.460467C184.262 -2.26039 181.897 -4.52752 179.058 -4.52752L108.097 -4.52752C105.259 -4.52752 102.893 -2.26039 102.893 0.460463L102.893 76.4079C102.893 77.9952 103.603 79.3556 105.022 80.2623L202.711 150.089C204.367 151.449 206.732 151.449 208.389 150.543Z" fill="white" fill-opacity="0.12"/>
</svg>
