<svg width="160" height="39" viewBox="0 0 160 39" fill="none" xmlns="http://www.w3.org/2000/svg">
<g clip-path="url(#clip0_136_1097)">
<mask id="mask0_136_1097" style="mask-type:luminance" maskUnits="userSpaceOnUse" x="0" y="0" width="160" height="39">
<path d="M160 0H0V38.895H160V0Z" fill="white"/>
</mask>
<g mask="url(#mask0_136_1097)">
<path d="M36.7261 26.2389L35.8698 25.0245L32.1697 19.847C31.9863 19.5913 31.9863 19.2717 32.1697 19.016L33.2094 17.5459L36.7261 12.6241C37.3071 11.7931 37.3377 10.6745 36.8179 9.77969L31.6499 1.31035C31.13 0.479397 30.2738 0 29.3258 0H2.66042C1.1926 0 0 1.24643 0 2.7805V36.0826C0 37.6167 1.1926 38.8631 2.66042 38.8631H29.2952C30.2432 38.8631 31.0994 38.3837 31.6499 37.5208L36.8484 29.0834C37.3683 28.1885 37.3071 27.1019 36.7261 26.2389ZM34.2186 28.1566L29.6011 35.731C29.4787 35.9228 29.2647 36.0506 29.0506 36.0506H3.36376C2.9968 36.0506 2.691 35.731 2.691 35.3475V3.51557C2.691 3.13206 2.9968 2.81246 3.36376 2.81246H29.0506C29.2647 2.81246 29.4787 2.9403 29.6011 3.13206L34.2186 10.7385C34.3715 10.9941 34.3409 11.2818 34.188 11.5375L30.5184 16.683H29.9069L26.696 12.2086C26.1762 11.5055 25.4117 11.09 24.5554 11.09H13.3021C11.8343 11.09 10.6417 12.3365 10.6417 13.8705V24.9606C10.6417 26.4946 11.8343 27.7411 13.3021 27.7411H24.7083C25.5645 27.7411 26.3596 27.3256 26.8794 26.5905L28.5614 24.1616L27.1241 22.1481H26.6042L24.8612 24.609C24.7389 24.8007 24.5248 24.8967 24.3414 24.8967H13.9749C13.6079 24.8967 13.3021 24.5771 13.3021 24.1935V14.6056C13.3021 14.2221 13.6079 13.9025 13.9749 13.9025H24.219C24.4331 13.9025 24.6166 13.9984 24.7389 14.1901L34.1574 27.3895C34.3409 27.6132 34.3409 27.9328 34.2186 28.1566Z" fill="white"/>
<path d="M50.6699 30.0422V10.5786H57.5504C61.0363 10.5786 63.2994 12.4004 63.2994 15.5964C63.2994 17.418 62.1067 18.8562 60.9139 19.3996C62.7487 20.1026 64.1556 21.6687 64.1556 24.3533C64.1556 27.8689 61.7701 30.0422 57.9171 30.0422H50.6699ZM53.3914 18.4408H57.3974C59.4769 18.4408 60.5779 17.5139 60.5779 15.7242C60.5779 13.9344 59.4463 13.0076 57.3668 13.0076H53.3608V18.4408H53.3914ZM53.3914 27.4854H57.5198C60.1189 27.4854 61.4035 26.3348 61.4035 24.2255C61.4035 22.1161 60.1189 20.9656 57.5198 20.9656H53.3914V27.4854Z" fill="white"/>
<path d="M78.069 16.0437V30.0421H75.5005V27.5812C74.7973 29.339 73.1767 30.2658 71.189 30.2658C68.1615 30.2658 66.1738 27.9967 66.1738 24.6409V16.0117H68.7424V24.0976C68.7424 26.3348 69.9963 27.8369 71.8922 27.8369C74.0023 27.8369 75.4699 26.0471 75.4699 23.6182V16.0437H78.069Z" fill="white"/>
<path d="M80.5166 10.1311H83.4523V13.6467H80.5166V10.1311ZM80.7002 30.0421V16.0437H83.2687V30.0421H80.7002Z" fill="white"/>
<path d="M86.0205 30.0423V10.1633H88.589V30.0423H86.0205Z" fill="white"/>
<path d="M90.5469 23.0431C90.5469 18.8564 92.8706 15.8202 96.9684 15.8202C98.8032 15.8202 100.424 16.747 101.219 18.0893V10.1633H103.788V30.0423H101.219V27.9649C100.424 29.3711 98.7726 30.266 96.999 30.266C92.8706 30.266 90.5469 27.1979 90.5469 23.0431ZM101.402 23.0431C101.402 20.1347 99.7817 18.1852 97.2739 18.1852C94.7972 18.1852 93.1766 20.1347 93.1766 23.0431C93.1766 25.9514 94.7972 27.901 97.2739 27.901C99.7817 27.901 101.402 25.9514 101.402 23.0431Z" fill="white"/>
<path d="M109.261 27.9649V30.0423H106.692V10.1633H109.261V18.0893C110.025 16.715 111.646 15.8202 113.481 15.8202C117.578 15.8202 119.903 18.8883 119.903 23.0431C119.903 27.1979 117.578 30.266 113.451 30.266C111.676 30.266 110.025 29.3392 109.261 27.9649ZM117.303 23.0431C117.303 20.1347 115.652 18.1852 113.175 18.1852C110.667 18.1852 109.047 20.1347 109.047 23.0431C109.047 25.9514 110.667 27.901 113.175 27.901C115.652 27.901 117.303 25.9514 117.303 23.0431Z" fill="white"/>
<path d="M121.615 10.1311H124.551V13.6467H121.615V10.1311ZM121.799 30.0421V16.0437H124.367V30.0421H121.799Z" fill="white"/>
<path d="M128.527 11.6333H131.095V16.0118H135.07V18.3448H131.095V25.2481C131.095 26.7503 131.859 27.5812 133.175 27.5812H135.07V30.0421H132.96C130.239 30.0421 128.527 28.3163 128.527 25.4399V18.3768H125.774V16.0437H128.527V11.6333Z" fill="white"/>
<path d="M148.464 25.4719C147.975 28.3483 145.559 30.2658 142.256 30.2658C138.098 30.2658 135.529 26.8461 135.529 22.9471C135.529 19.016 137.884 15.7881 141.981 15.7881C146.14 15.7881 148.342 18.8882 148.342 22.4357C148.342 22.7873 148.311 23.2347 148.281 23.4904H138.037C138.251 26.1431 139.902 27.9328 142.226 27.9328C144.183 27.9328 145.467 27.0379 145.834 25.4719H148.464ZM138.128 21.5409H145.743C145.59 19.3995 144.213 17.9933 141.981 17.9933C139.871 17.9933 138.526 19.2078 138.128 21.5409Z" fill="white"/>
<path d="M156.18 7.9141C155.538 7.9141 154.96 7.77213 154.447 7.4883C153.944 7.19352 153.542 6.78952 153.243 6.27641C152.954 5.76326 152.81 5.17369 152.81 4.5077C152.81 3.84171 152.954 3.25214 153.243 2.739C153.542 2.22586 153.944 1.82736 154.447 1.54349C154.96 1.24871 155.538 1.10132 156.18 1.10132C156.822 1.10132 157.394 1.24871 157.897 1.54349C158.411 1.82736 158.812 2.22586 159.101 2.739C159.401 3.25214 159.551 3.84171 159.551 4.5077C159.551 5.17369 159.401 5.76326 159.101 6.27641C158.812 6.78952 158.411 7.19352 157.897 7.4883C157.394 7.77213 156.822 7.9141 156.18 7.9141ZM156.18 7.24265C156.993 7.24265 157.641 6.997 158.122 6.50569C158.614 6.00343 158.86 5.33746 158.86 4.5077C158.86 3.67794 158.614 3.01741 158.122 2.5261C157.641 2.02388 156.993 1.77277 156.18 1.77277C155.367 1.77277 154.714 2.02388 154.222 2.5261C153.73 3.01741 153.484 3.67794 153.484 4.5077C153.484 5.33746 153.73 6.00343 154.222 6.50569C154.714 6.997 155.367 7.24265 156.18 7.24265ZM155.024 6.29279V2.65712H156.389C156.784 2.65712 157.084 2.75538 157.288 2.9519C157.491 3.14843 157.593 3.38316 157.593 3.65611C157.593 3.86355 157.539 4.04915 157.432 4.21292C157.336 4.36577 157.175 4.48587 156.951 4.57321V4.70423C157.133 4.71514 157.261 4.78065 157.336 4.90075C157.421 5.00993 157.464 5.14641 157.464 5.31018V6.29279H156.806V5.2938C156.806 5.06452 156.694 4.94988 156.469 4.94988H155.666V6.29279H155.024ZM155.666 4.36031H156.405C156.587 4.36031 156.72 4.30572 156.806 4.19654C156.892 4.07645 156.934 3.94543 156.934 3.8035C156.934 3.65065 156.892 3.52509 156.806 3.42683C156.72 3.31765 156.587 3.26306 156.405 3.26306H155.666V4.36031Z" fill="white"/>
</g>
</g>
<defs>
<clipPath id="clip0_136_1097">
<rect width="160" height="39" fill="white"/>
</clipPath>
</defs>
</svg>
