<svg width="24" height="24" viewBox="0 0 24 24" fill="none" xmlns="http://www.w3.org/2000/svg">
<path d="M12.3685 18.8312L6.76769 22.8344C6.18809 23.2484 5.41529 22.6868 5.63009 22.008L7.70649 15.444C7.80209 15.1416 7.69529 14.8128 7.44009 14.6244L1.90209 10.5344C1.32929 10.1112 1.62449 9.20321 2.33649 9.19721L9.22129 9.14401C9.53809 9.14161 9.81809 8.93801 9.91849 8.63761L12.0965 2.10601C12.3217 1.43081 13.2765 1.43081 13.5021 2.10601L15.6805 8.63761C15.7809 8.93801 16.0605 9.14161 16.3773 9.14401L23.2621 9.19721C23.9741 9.20321 24.2693 10.1112 23.6969 10.5344L18.1585 14.6244C17.9033 14.8128 17.7969 15.1416 17.8921 15.444L19.9685 22.008C20.1837 22.6868 19.4101 23.2488 18.8313 22.8344L13.2305 18.8312C12.9725 18.6468 12.6265 18.6468 12.3685 18.8312Z" fill="#AA3C28"/>
</svg>
