<svg width="607" height="633" viewBox="0 0 607 633" fill="none" xmlns="http://www.w3.org/2000/svg">
<path d="M599.22 427.378L585.248 407.598L524.878 323.267C521.886 319.102 521.886 313.896 524.878 309.732L541.842 285.787L599.22 205.621C608.699 192.085 609.199 173.866 600.718 159.291L516.397 21.3429C507.914 7.80839 493.945 0 478.477 0H43.4072C19.4584 0 0 20.3018 0 45.2886V587.711C0 612.699 19.4584 633 43.4072 633H477.978C493.445 633 507.415 625.192 516.397 611.137L601.215 473.709C609.698 459.133 608.699 441.434 599.22 427.378ZM558.308 458.613L482.969 581.985C480.972 585.109 477.48 587.19 473.987 587.19H54.8828C48.8955 587.19 43.9061 581.985 43.9061 575.738V57.2614C43.9061 51.0148 48.8955 45.8092 54.8828 45.8092H473.987C477.48 45.8092 480.972 47.8914 482.969 51.0148L558.308 174.908C560.802 179.071 560.303 183.757 557.808 187.922L497.935 271.732H487.958L435.57 198.853C427.089 187.401 414.615 180.633 400.644 180.633H217.036C193.087 180.633 173.629 200.936 173.629 225.922V406.557C173.629 431.543 193.087 451.846 217.036 451.846H403.138C417.108 451.846 430.081 445.078 438.562 433.105L466.005 393.543L442.554 360.747H434.072L405.633 400.83C403.638 403.952 400.144 405.516 397.152 405.516H228.013C222.025 405.516 217.036 400.31 217.036 394.062V237.895C217.036 231.649 222.025 226.443 228.013 226.443H395.155C398.648 226.443 401.642 228.005 403.638 231.128L557.309 446.119C560.303 449.762 560.303 454.968 558.308 458.613Z" fill="white" fill-opacity="0.08"/>
</svg>
