<svg width="16" height="16" viewBox="0 0 16 16" fill="none" xmlns="http://www.w3.org/2000/svg">
<path fill-rule="evenodd" clip-rule="evenodd" d="M7.55696 0.201143C7.66857 0.0731428 7.8301 0 8 0C8.16991 0 8.33143 0.0731428 8.44305 0.201143L9.14857 1.008C9.31276 1.19581 9.52914 1.33029 9.7699 1.39505C10.0107 1.45943 10.2651 1.45105 10.501 1.37067L11.5158 1.02438C11.6766 0.969522 11.853 0.987049 12 1.07162C12.147 1.15657 12.2503 1.30095 12.283 1.46743L12.4907 2.51924C12.539 2.76381 12.659 2.98857 12.835 3.16495C13.0114 3.34095 13.2362 3.46095 13.4808 3.50934L14.5326 3.71695C14.699 3.74972 14.8434 3.85295 14.9284 4C15.013 4.14705 15.0305 4.32343 14.9756 4.48419L14.6293 5.49905C14.549 5.73486 14.5406 5.98934 14.605 6.2301C14.6697 6.47086 14.8042 6.68723 14.992 6.85142L15.7989 7.55696C15.9269 7.66857 16 7.8301 16 8C16 8.16991 15.9269 8.33143 15.7989 8.44305L14.992 9.14858C14.8042 9.31277 14.6697 9.52914 14.605 9.7699C14.5406 10.0107 14.549 10.2651 14.6293 10.501L14.9756 11.5158C15.0305 11.6766 15.013 11.853 14.9284 12C14.8434 12.147 14.699 12.2503 14.5326 12.2831L13.4808 12.4907C13.2362 12.539 13.0114 12.659 12.835 12.835C12.659 13.0114 12.539 13.2362 12.4907 13.4808L12.283 14.5326C12.2503 14.6991 12.147 14.8434 12 14.9284C11.853 15.013 11.6766 15.0305 11.5158 14.9756L10.501 14.6293C10.2651 14.549 10.0107 14.5406 9.7699 14.605C9.52914 14.6697 9.31276 14.8042 9.14857 14.992L8.44305 15.7989C8.33143 15.9269 8.16991 16 8 16C7.8301 16 7.66857 15.9269 7.55696 15.7989L6.85143 14.992C6.68724 14.8042 6.47086 14.6697 6.2301 14.605C5.98934 14.5406 5.73486 14.549 5.49905 14.6293L4.48419 14.9756C4.32343 15.0305 4.14705 15.013 4 14.9284C3.85295 14.8434 3.74972 14.6991 3.71695 14.5326L3.50934 13.4808C3.46095 13.2362 3.34095 13.0114 3.16495 12.835C2.98857 12.659 2.76381 12.539 2.51924 12.4907L1.46743 12.2831C1.30095 12.2503 1.15657 12.147 1.07162 12C0.987049 11.853 0.969522 11.6766 1.02438 11.5158L1.37067 10.501C1.45105 10.2651 1.45943 10.0107 1.39505 9.7699C1.33029 9.52914 1.19581 9.31277 1.008 9.14858L0.201143 8.44305C0.0731428 8.33143 0 8.16991 0 8C0 7.8301 0.0731428 7.66857 0.201143 7.55696L1.008 6.85142C1.19581 6.68723 1.33029 6.47086 1.39505 6.2301C1.45943 5.98934 1.45105 5.73486 1.37067 5.49905L1.02438 4.48419C0.969522 4.32343 0.987049 4.14705 1.07162 4C1.15657 3.85295 1.30095 3.74972 1.46743 3.71695L2.51924 3.50934C2.76381 3.46095 2.98857 3.34095 3.16495 3.16495C3.34095 2.98857 3.46095 2.76381 3.50934 2.51924L3.71695 1.46743C3.74972 1.30095 3.85295 1.15657 4 1.07162C4.14705 0.987049 4.32343 0.969522 4.48419 1.02438L5.49905 1.37067C5.73486 1.45105 5.98934 1.45943 6.2301 1.39505C6.47086 1.33029 6.68724 1.19581 6.85143 1.008L7.55696 0.201143ZM4.49829 8.26933L6.65295 10.4244C6.80191 10.573 7.04305 10.573 7.192 10.4244L11.5017 6.11428C11.6507 5.96571 11.6507 5.72419 11.5017 5.57561C11.3531 5.42704 11.1116 5.42704 10.963 5.57561L6.92267 9.61639L5.03695 7.73067C4.88838 7.5821 4.64686 7.5821 4.49829 7.73067C4.34933 7.87924 4.34933 8.12076 4.49829 8.26933Z" fill="#AA3C28"/>
</svg>
