<svg width="153" height="41" viewBox="0 0 153 41" fill="none" xmlns="http://www.w3.org/2000/svg">
<path d="M13.8375 0V2.98125H8.4375V39.375H5.45625V2.98125H0V0H13.8375Z" fill="black"/>
<path d="M13.7693 39.375L16.9755 2.98125H16.2443L16.8068 0H23.7255L27.2131 39.375H24.6255L23.8943 31.4438H17.088L16.3568 39.375H13.7693ZM17.313 28.4625H23.6693L21.363 2.98125H19.6193L17.313 28.4625Z" fill="black"/>
<path d="M41.1173 39.375L33.9735 19.9688V39.375H30.9923V2.98125H29.9798L30.5423 0H33.9735V14.6813L40.5548 0H43.3673L35.7173 17.0438L43.9298 39.375H41.1173Z" fill="black"/>
<path d="M107.5 3.20625L108.063 0.225001H114.813C118.75 0.225001 120.719 2.175 120.719 6.07501V21.8813C120.719 24.1313 119.856 25.6688 118.131 26.4938L121.9 39.6H118.863L115.319 27.1125C115.169 27.1125 115 27.1125 114.813 27.1125H111.494V39.6H108.513V3.20625H107.5ZM114.813 3.20625H111.494V24.1313H114.813C116.763 24.1313 117.738 23.3813 117.738 21.8813V6.07501C117.738 4.1625 116.763 3.20625 114.813 3.20625Z" fill="black"/>
<path d="M136.659 34.1438C136.659 38.0438 134.559 39.9938 130.359 39.9938H130.134C125.934 39.9938 123.834 38.0438 123.834 34.1438V5.85001C123.834 1.95 125.934 0 130.134 0H130.359C134.559 0 136.659 1.95 136.659 5.85001V34.1438ZM130.134 2.98125C128.971 2.98125 128.127 3.225 127.602 3.7125C127.077 4.20001 126.815 4.91251 126.815 5.85001V34.1438C126.815 35.0813 127.077 35.7938 127.602 36.2813C128.127 36.7688 128.971 37.0125 130.134 37.0125H130.359C131.559 37.0125 132.402 36.7688 132.89 36.2813C133.415 35.7938 133.677 35.0813 133.677 34.1438V5.85001C133.677 4.875 133.415 4.1625 132.89 3.7125C132.402 3.225 131.559 2.98125 130.359 2.98125H130.134Z" fill="black"/>
<path d="M139.385 3.20625L139.947 0.225001H146.697C150.635 0.225001 152.604 2.175 152.604 6.07501V21.8813C152.604 25.3688 150.635 27.1125 146.697 27.1125H143.379V39.6H140.397V3.20625H139.385ZM146.697 3.20625H143.379V24.1313H146.697C148.647 24.1313 149.622 23.3813 149.622 21.8813V6.07501C149.622 4.1625 148.647 3.20625 146.697 3.20625Z" fill="black"/>
<path d="M73.4192 5.01689H66.0849C64.7906 4.89414 61.8784 5.38514 60.5841 8.33108C59.2898 11.277 58.0315 13.9775 57.5641 14.9595M57.5641 14.9595H53.2498C52.8184 14.7958 51.9771 14.1739 52.0634 12.9955C52.1712 11.5225 53.6812 10.4178 54.6519 11.0315C55.4285 11.5225 56.917 13.8547 57.5641 14.9595ZM57.5641 14.9595C56.5215 15.5323 54.1989 16.9725 53.2498 18.1509C52.0634 19.6239 51.3083 20.2376 51.0926 24.6565C50.9201 28.1917 51.0207 31.3668 51.0926 32.5124C51.1932 33.153 51.5994 34.1364 52.4961 34.8446M57.5641 14.9595H73.4192M57.5641 14.9595C58.427 16.8825 60.5842 21.1214 62.3099 22.6926M60.7999 32.5124C60.4044 33.4944 58.8153 35.5075 55.6227 35.7038C54.2152 35.7904 53.2032 35.403 52.4961 34.8446M60.7999 32.5124H73.4192M60.7999 32.5124V35.8481C60.7999 38.1412 58.941 40 56.648 40V40C54.355 40 52.4961 38.1412 52.4961 35.8481V34.8446M73.4192 27.4797H65.2221M73.4192 23.1047H67.677H65.2221M60.7999 29.4437H56.4416C55.0958 29.4437 54.0048 28.3527 54.0048 27.0069V25.7232C54.0048 25.128 54.476 24.6395 55.0708 24.618L55.7705 24.5927C58.5183 24.4935 60.7999 26.6941 60.7999 29.4437V29.4437Z" stroke="#B19F70" stroke-width="1.21935"/>
<path d="M77.2474 5.01689H84.5817C85.876 4.89414 88.7882 5.38514 90.0825 8.33108C91.3768 11.277 92.6351 13.9775 93.1025 14.9595M93.1025 14.9595H97.4168C97.8483 14.7958 98.6896 14.1739 98.6033 12.9955C98.4954 11.5225 96.9854 10.4178 96.0147 11.0315C95.2381 11.5225 93.7497 13.8547 93.1025 14.9595ZM93.1025 14.9595C94.1451 15.5323 96.4677 16.9725 97.4168 18.1509C98.6033 19.6239 99.3583 20.2376 99.574 24.6565C99.7466 28.1917 99.6459 31.3668 99.574 32.5124C99.4735 33.153 99.0672 34.1364 98.1705 34.8446M89.8667 32.5124C90.2622 33.4944 91.8513 35.5075 95.0439 35.7038C96.4514 35.7904 97.4634 35.403 98.1705 34.8446M89.8667 32.5124H77.2474M89.8667 32.5124V35.8481C89.8667 38.1412 91.7256 40 94.0186 40V40C96.3116 40 98.1705 38.1412 98.1705 35.8481V34.8446M89.8667 29.4437H94.225C95.5708 29.4437 96.6618 28.3527 96.6618 27.0069V25.7232C96.6618 25.128 96.1907 24.6395 95.5958 24.618L94.8961 24.5927C92.1483 24.4935 89.8667 26.6941 89.8667 29.4437V29.4437Z" stroke="#B19F70" stroke-width="1.21935"/>
</svg>
