<svg width="39" height="26" viewBox="0 0 39 26" fill="none" xmlns="http://www.w3.org/2000/svg">
<path d="M5.85394 1.39697H20.6397V24.3941H7.4968C7.06109 24.3941 6.64322 24.221 6.33512 23.913C6.02703 23.6049 5.85394 23.1871 5.85394 22.7514V1.39697Z" stroke="#EA8541" stroke-width="1.5" stroke-linecap="round" stroke-linejoin="round"/>
<path d="M20.6371 1.39697H33.78" stroke="#EA8541" stroke-width="1.5" stroke-linecap="round" stroke-linejoin="round"/>
<path d="M33.78 11.252V22.7505C33.78 23.1862 33.6069 23.604 33.2988 23.912C32.9907 24.2201 32.5729 24.3932 32.1371 24.3932H20.6371" stroke="#EA8541" stroke-width="1.5" stroke-linecap="round" stroke-linejoin="round"/>
<path d="M20.6371 1.39697L24.3303 10.2426C24.4551 10.5419 24.6657 10.7974 24.9356 10.9772C25.2054 11.157 25.5224 11.2529 25.8466 11.2529H36.6517C36.787 11.2528 36.9202 11.2193 37.0394 11.1554C37.1586 11.0915 37.2602 10.9992 37.3351 10.8866C37.4098 10.7741 37.4557 10.645 37.4686 10.5106C37.4814 10.3762 37.461 10.2408 37.4091 10.1162L33.78 1.39697" stroke="#EA8541" stroke-width="1.5" stroke-linecap="round" stroke-linejoin="round"/>
<path d="M5.85279 1.39697L1.13286 9.84841C1.04813 9.98907 1.0023 10.1497 1.00008 10.3139C0.997866 10.4781 1.03933 10.6399 1.12023 10.7828C1.20113 10.9257 1.31856 11.0445 1.4605 11.1271C1.60244 11.2097 1.76378 11.2531 1.928 11.2529H5.85279" stroke="#EA8541" stroke-width="1.5" stroke-linecap="round" stroke-linejoin="round"/>
</svg>
