<svg width="29" height="37" viewBox="0 0 29 37" fill="none" xmlns="http://www.w3.org/2000/svg">
<path d="M14.529 18.7411V16.4868" stroke="#EA8541" stroke-width="1.57164" stroke-linecap="round" stroke-linejoin="round"/>
<path d="M18.2876 18.7412H12.7866C12.2524 18.7412 11.7401 18.9534 11.3624 19.331C10.9847 19.7087 10.7725 20.2209 10.7725 20.755C10.7694 21.1569 10.8884 21.5503 11.1139 21.8831C11.3393 22.2159 11.6606 22.4724 12.0351 22.6185L17.0251 23.8659C17.4658 24.0359 17.8327 24.3555 18.0617 24.7687C18.2906 25.182 18.3669 25.6625 18.2774 26.1263C18.1878 26.5901 17.9381 27.0077 17.5718 27.306C17.2055 27.6043 16.746 27.7644 16.2736 27.7582H10.7725" stroke="#EA8541" stroke-width="1.57164" stroke-linecap="round" stroke-linejoin="round"/>
<path d="M14.5295 30.0121V27.7578" stroke="#EA8541" stroke-width="1.57164" stroke-linecap="round" stroke-linejoin="round"/>
<path d="M9.26782 9.72314H19.789" stroke="#EA8541" stroke-width="1.57164" stroke-linecap="round" stroke-linejoin="round"/>
<path d="M17.5347 9.7231C17.7167 9.72077 17.8917 9.65245 18.0272 9.53083C18.1626 9.40922 18.2493 9.24257 18.2711 9.06185C18.596 7.09429 19.2088 5.18527 20.0898 3.39619C20.1624 3.2599 20.1913 3.10455 20.1725 2.95127C20.1536 2.798 20.088 2.65424 19.9846 2.53957C19.8799 2.42182 19.7401 2.34076 19.5859 2.3083C19.4317 2.27584 19.2712 2.29369 19.1279 2.35923L15.9715 3.71178L15.235 1.71302C15.1796 1.57286 15.0834 1.4526 14.9587 1.36786C14.8341 1.28311 14.6869 1.23779 14.5361 1.23779C14.3854 1.23779 14.2382 1.28311 14.1135 1.36786C13.9889 1.4526 13.8926 1.57286 13.8372 1.71302L13.0256 3.71178L9.8843 2.35923C9.74099 2.29369 9.58044 2.27584 9.42623 2.3083C9.27202 2.34076 9.1323 2.42182 9.02758 2.53957C8.92414 2.65424 8.85854 2.798 8.83971 2.95127C8.82089 3.10455 8.84975 3.2599 8.92237 3.39619C9.80337 5.18527 10.4162 7.09429 10.741 9.06185C10.7629 9.24257 10.8495 9.40922 10.985 9.53083C11.1205 9.65245 11.2955 9.72077 11.4775 9.7231" stroke="#EA8541" stroke-width="1.57164" stroke-linecap="round" stroke-linejoin="round"/>
<path d="M17.5333 9.72314C17.5333 9.72314 28.0544 17.9887 28.0544 25.2173C28.0544 32.7315 22.0423 35.2712 14.5272 35.2712C7.01214 35.2712 1.00006 32.6864 1.00006 25.2173C1.00006 17.9887 11.5212 9.72314 11.5212 9.72314" stroke="#EA8541" stroke-width="1.57164" stroke-linecap="round" stroke-linejoin="round"/>
</svg>
