<svg width="372" height="381" viewBox="0 0 372 381" fill="none" xmlns="http://www.w3.org/2000/svg">
<circle opacity="0.15" cx="187" cy="191" r="133" stroke="#302D27" stroke-width="8.13315" stroke-dasharray="2.22 25.14"/>
<path d="M186.372 177.408L186.027 177.848L186.053 179.79L186.505 180.184L186.96 179.788L186.983 177.852L186.628 177.408H186.372Z" fill="#EA8541"/>
<path d="M186.396 202.404L186.051 201.964L186.077 200.024L186.529 199.628L186.985 200.026L187.007 201.96L186.653 202.404H186.396Z" fill="#EA8541"/>
<path d="M195.21 180.967L194.655 181.035L193.3 182.426L193.341 183.023L193.943 183.065L195.326 181.711L195.392 181.149L195.21 180.967Z" fill="#EA8541"/>
<path d="M177.796 180.967L178.351 181.035L179.706 182.426L179.665 183.023L179.063 183.065L177.678 181.711L177.614 181.149L177.796 180.967Z" fill="#EA8541"/>
<path d="M195.219 198.776L194.664 198.706L193.309 197.315L193.35 196.719L193.952 196.676L195.337 198.03L195.401 198.594L195.219 198.776Z" fill="#EA8541"/>
<path d="M177.805 198.776L178.36 198.706L179.715 197.315L179.676 196.719L179.072 196.676L177.689 198.03L177.623 198.594L177.805 198.776Z" fill="#EA8541"/>
<path d="M174 190.015L174.441 190.36L176.382 190.334L176.776 189.882L176.381 189.426L174.444 189.404L174 189.758V190.015Z" fill="#EA8541"/>
<path d="M199 189.99L198.559 190.335L196.618 190.309L196.224 189.857L196.619 189.402L198.556 189.379L199 189.734V189.99Z" fill="#EA8541"/>
<path d="M190.552 194.072H189.744L189.512 193.956L186.738 191.229C186.67 191.139 186.535 191.139 186.465 191.229L183.691 193.956L183.459 194.072H182.652L182.536 193.956V192.795L185.416 189.947C185.468 189.882 185.466 189.79 185.413 189.728L182.553 187.221V186.06L182.669 185.943H183.477L183.708 186.06L186.469 188.455C186.537 188.537 186.664 188.537 186.732 188.455L189.511 186.06L189.742 185.943H190.55L190.665 186.06V187.221L187.789 189.728C187.736 189.79 187.734 189.882 187.785 189.947L190.665 192.795V193.956L190.55 194.072H190.552Z" fill="#EA8541"/>
<rect width="166" height="172" rx="10" fill="#F5F5F5"/>
<rect x="0.5" y="0.5" width="165" height="171" rx="9.5" stroke="#302D27" stroke-opacity="0.15"/>
<path d="M82.529 64.7411V62.4868" stroke="#EA8541" stroke-width="1.57164" stroke-linecap="round" stroke-linejoin="round"/>
<path d="M86.2876 64.7412H80.7866C80.2524 64.7412 79.7401 64.9534 79.3624 65.331C78.9847 65.7087 78.7725 66.2209 78.7725 66.755C78.7694 67.1569 78.8884 67.5503 79.1139 67.8831C79.3393 68.2159 79.6606 68.4724 80.0351 68.6185L85.0251 69.8659C85.4658 70.0359 85.8327 70.3555 86.0617 70.7687C86.2906 71.182 86.3669 71.6625 86.2774 72.1263C86.1878 72.5901 85.9381 73.0077 85.5718 73.306C85.2055 73.6043 84.746 73.7644 84.2736 73.7582H78.7725" stroke="#EA8541" stroke-width="1.57164" stroke-linecap="round" stroke-linejoin="round"/>
<path d="M82.5295 76.0121V73.7578" stroke="#EA8541" stroke-width="1.57164" stroke-linecap="round" stroke-linejoin="round"/>
<path d="M77.2679 55.7231H87.789" stroke="#EA8541" stroke-width="1.57164" stroke-linecap="round" stroke-linejoin="round"/>
<path d="M85.5346 55.7231C85.7167 55.7208 85.8917 55.6525 86.0271 55.5308C86.1626 55.4092 86.2493 55.2426 86.2711 55.0619C86.596 53.0943 87.2088 51.1853 88.0898 49.3962C88.1624 49.2599 88.1913 49.1045 88.1724 48.9513C88.1536 48.798 88.088 48.6542 87.9846 48.5396C87.8798 48.4218 87.7401 48.3408 87.5859 48.3083C87.4317 48.2758 87.2711 48.2937 87.1278 48.3592L83.9715 49.7118L83.235 47.713C83.1796 47.5729 83.0833 47.4526 82.9587 47.3679C82.8341 47.2831 82.6868 47.2378 82.5361 47.2378C82.3854 47.2378 82.2381 47.2831 82.1135 47.3679C81.9889 47.4526 81.8926 47.5729 81.8372 47.713L81.0256 49.7118L77.8843 48.3592C77.741 48.2937 77.5804 48.2758 77.4262 48.3083C77.272 48.3408 77.1323 48.4218 77.0276 48.5396C76.9241 48.6542 76.8585 48.798 76.8397 48.9513C76.8209 49.1045 76.8497 49.2599 76.9223 49.3962C77.8033 51.1853 78.4161 53.0943 78.741 55.0619C78.7628 55.2426 78.8495 55.4092 78.985 55.5308C79.1204 55.6525 79.2954 55.7208 79.4775 55.7231" stroke="#EA8541" stroke-width="1.57164" stroke-linecap="round" stroke-linejoin="round"/>
<path d="M85.5333 55.7231C85.5333 55.7231 96.0544 63.9887 96.0544 71.2173C96.0544 78.7315 90.0424 81.2712 82.5273 81.2712C75.0122 81.2712 69.0001 78.6864 69.0001 71.2173C69.0001 63.9887 79.5212 55.7231 79.5212 55.7231" stroke="#EA8541" stroke-width="1.57164" stroke-linecap="round" stroke-linejoin="round"/>
<path d="M51.1436 111.417L51.1436 110.249L52.4697 110.249L52.4697 102.743L51.1436 102.743L51.1436 101.574L55.2588 101.574L55.2588 102.743L53.9395 102.743L53.9395 110.249L55.2588 110.249L55.2588 111.417L51.1436 111.417ZM56.8584 111.417L56.8584 104.035L58.1777 104.035L58.1777 105.709L58.1299 105.409C58.335 104.967 58.6471 104.6 59.0664 104.308C59.4857 104.012 59.9961 103.864 60.5977 103.864C61.1354 103.864 61.5911 103.985 61.9648 104.226C62.3385 104.468 62.6234 104.807 62.8193 105.245C63.0199 105.682 63.1201 106.204 63.1201 106.81L63.1201 111.417L61.7324 111.417L61.7324 106.913C61.7324 106.325 61.6185 105.855 61.3906 105.504C61.1628 105.153 60.7822 104.978 60.249 104.978C59.6657 104.978 59.1849 105.208 58.8066 105.668C58.4329 106.129 58.2461 106.801 58.2461 107.685L58.2461 111.417L56.8584 111.417ZM66.8594 111.417L64.0771 104.035L65.6221 104.035L67.8232 110.549L67.6182 110.549L69.8057 104.035L71.3506 104.035L68.582 111.417L66.8594 111.417ZM75.5957 111.588C74.8848 111.588 74.265 111.431 73.7363 111.117C73.2077 110.798 72.7952 110.351 72.499 109.777C72.2074 109.198 72.0615 108.514 72.0615 107.726C72.0615 106.938 72.2074 106.256 72.499 105.682C72.7907 105.103 73.1986 104.657 73.7227 104.342C74.2467 104.023 74.8574 103.864 75.5547 103.864C75.9512 103.864 76.3499 103.928 76.751 104.055C77.152 104.178 77.5189 104.395 77.8516 104.705C78.1842 105.014 78.4508 105.441 78.6514 105.983C78.8519 106.521 78.9521 107.204 78.9521 108.034L72.957 108.034L72.957 107.042L77.7354 107.042L77.4346 107.453C77.4118 106.851 77.3115 106.368 77.1338 106.003C76.9606 105.634 76.7327 105.368 76.4502 105.204C76.1722 105.035 75.8646 104.951 75.5273 104.951C75.1126 104.951 74.7572 105.062 74.4609 105.286C74.1693 105.504 73.946 105.821 73.791 106.236C73.6361 106.651 73.5586 107.152 73.5586 107.74C73.5586 108.606 73.7318 109.28 74.0781 109.763C74.429 110.242 74.9326 110.481 75.5889 110.481C76.0537 110.481 76.4456 110.365 76.7646 110.132C77.0837 109.895 77.3206 109.551 77.4756 109.1L78.7949 109.503C78.6172 109.955 78.3734 110.335 78.0635 110.645C77.7536 110.955 77.389 111.19 76.9697 111.349C76.5505 111.509 76.0924 111.588 75.5957 111.588ZM80.6201 111.417L80.6201 104.035L81.9395 104.035L81.9395 105.709L81.8916 105.409C82.0967 104.967 82.4089 104.6 82.8281 104.308C83.2474 104.012 83.7578 103.864 84.3594 103.864C84.8971 103.864 85.3529 103.985 85.7266 104.226C86.1003 104.468 86.3851 104.807 86.5811 105.245C86.7816 105.682 86.8818 106.204 86.8818 106.81L86.8818 111.417L85.4941 111.417L85.4941 106.913C85.4941 106.325 85.3802 105.855 85.1523 105.504C84.9245 105.153 84.5439 104.978 84.0107 104.978C83.4274 104.978 82.9466 105.208 82.5684 105.668C82.1947 106.129 82.0078 106.801 82.0078 107.685L82.0078 111.417L80.6201 111.417ZM90.4502 111.417C90.0856 111.417 89.7848 111.31 89.5479 111.096C89.3109 110.882 89.1924 110.599 89.1924 110.249L89.1924 105.135L88.0371 105.135L88.0371 104.035L89.1924 104.035L89.1924 102.517L90.5801 102.203L90.5801 104.035L92.0156 104.035L92.0156 105.135L90.5801 105.135L90.5801 109.941C90.5801 110.091 90.6006 110.192 90.6416 110.242C90.6872 110.292 90.7806 110.317 90.9219 110.317L92.0498 110.317L92.0498 111.417L90.4502 111.417ZM96.4932 111.588C95.7868 111.588 95.1624 111.424 94.6201 111.096C94.0824 110.768 93.6631 110.315 93.3623 109.736C93.0615 109.157 92.9111 108.487 92.9111 107.726C92.9111 106.965 93.0615 106.295 93.3623 105.716C93.6631 105.138 94.0824 104.684 94.6201 104.356C95.1624 104.028 95.7868 103.864 96.4932 103.864C97.1995 103.864 97.8216 104.028 98.3594 104.356C98.9017 104.684 99.3232 105.138 99.624 105.716C99.9248 106.295 100.075 106.965 100.075 107.726C100.075 108.487 99.9248 109.157 99.624 109.736C99.3232 110.315 98.9017 110.768 98.3594 111.096C97.8216 111.424 97.1995 111.588 96.4932 111.588ZM96.4932 110.481C97.1403 110.481 97.6507 110.235 98.0244 109.743C98.3981 109.246 98.585 108.574 98.585 107.726C98.585 106.874 98.3981 106.202 98.0244 105.709C97.6507 105.217 97.1403 104.971 96.4932 104.971C95.846 104.971 95.3356 105.217 94.9619 105.709C94.5882 106.202 94.4014 106.874 94.4014 107.726C94.4014 108.574 94.5882 109.246 94.9619 109.743C95.3356 110.235 95.846 110.481 96.4932 110.481ZM101.702 111.417L101.702 104.035L103.021 104.035L103.021 105.627L102.974 105.436C103.197 104.917 103.525 104.525 103.958 104.26C104.396 103.996 104.847 103.864 105.312 103.864C105.444 103.864 105.576 103.875 105.708 103.898C105.84 103.921 105.965 103.959 106.084 104.014L105.927 105.279C105.667 105.197 105.41 105.156 105.154 105.156C104.981 105.156 104.776 105.19 104.539 105.258C104.307 105.322 104.081 105.447 103.862 105.634C103.644 105.821 103.459 106.097 103.309 106.461C103.163 106.821 103.09 107.295 103.09 107.883L103.09 111.417L101.702 111.417ZM107.978 114.083L107.978 112.983L109.133 112.983C109.219 112.983 109.285 112.958 109.331 112.908C109.377 112.858 109.42 112.778 109.461 112.668L109.953 111.274L109.837 111.862L106.802 104.035L108.354 104.035L110.589 110.611L110.35 110.556L112.571 104.035L114.116 104.035L110.616 113.147C110.502 113.457 110.318 113.689 110.063 113.844C109.812 114.004 109.538 114.083 109.242 114.083L107.978 114.083ZM45.4902 129.588C44.5013 129.588 43.6468 129.383 42.9268 128.973C42.2067 128.558 41.653 127.971 41.2656 127.209C40.8783 126.444 40.6846 125.539 40.6846 124.496C40.6846 123.447 40.8783 122.545 41.2656 121.789C41.653 121.028 42.2067 120.44 42.9268 120.025C43.6468 119.61 44.5013 119.403 45.4902 119.403C46.4746 119.403 47.3268 119.61 48.0469 120.025C48.7669 120.44 49.3206 121.028 49.708 121.789C50.0954 122.545 50.2891 123.447 50.2891 124.496C50.2891 125.539 50.0954 126.444 49.708 127.209C49.3206 127.971 48.7669 128.558 48.0469 128.973C47.3268 129.383 46.4746 129.588 45.4902 129.588ZM45.4834 128.365C46.1533 128.365 46.7298 128.21 47.2129 127.9C47.696 127.585 48.0674 127.139 48.3271 126.56C48.5869 125.977 48.7168 125.289 48.7168 124.496C48.7168 123.698 48.5869 123.01 48.3271 122.431C48.0674 121.852 47.696 121.408 47.2129 121.098C46.7298 120.784 46.1533 120.626 45.4834 120.626C44.8226 120.626 44.2484 120.784 43.7607 121.098C43.2777 121.408 42.9063 121.852 42.6465 122.431C42.3867 123.01 42.2568 123.698 42.2568 124.496C42.2568 125.289 42.3867 125.977 42.6465 126.56C42.9063 127.139 43.2777 127.585 43.7607 127.9C44.2484 128.21 44.8226 128.365 45.4834 128.365ZM54.1035 129.417L51.3213 122.035L52.8662 122.035L55.0674 128.549L54.8623 128.549L57.0498 122.035L58.5947 122.035L55.8262 129.417L54.1035 129.417ZM62.8398 129.588C62.1289 129.588 61.5091 129.431 60.9805 129.117C60.4518 128.798 60.0394 128.351 59.7432 127.777C59.4515 127.198 59.3057 126.514 59.3057 125.726C59.3057 124.938 59.4515 124.256 59.7432 123.682C60.0348 123.103 60.4427 122.657 60.9668 122.342C61.4909 122.023 62.1016 121.864 62.7988 121.864C63.1953 121.864 63.5941 121.928 63.9951 122.055C64.3962 122.178 64.763 122.395 65.0957 122.705C65.4284 123.014 65.695 123.441 65.8955 123.983C66.096 124.521 66.1963 125.204 66.1963 126.034L60.2012 126.034L60.2012 125.042L64.9795 125.042L64.6787 125.453C64.6559 124.851 64.5557 124.368 64.3779 124.003C64.2048 123.634 63.9769 123.368 63.6943 123.204C63.4163 123.035 63.1087 122.951 62.7715 122.951C62.3568 122.951 62.0013 123.062 61.7051 123.286C61.4134 123.504 61.1901 123.821 61.0352 124.236C60.8802 124.651 60.8027 125.152 60.8027 125.74C60.8027 126.606 60.9759 127.28 61.3223 127.763C61.6732 128.242 62.1768 128.481 62.833 128.481C63.2979 128.481 63.6898 128.365 64.0088 128.132C64.3278 127.895 64.5648 127.551 64.7197 127.1L66.0391 127.503C65.8613 127.955 65.6175 128.335 65.3076 128.645C64.9977 128.955 64.6331 129.19 64.2139 129.349C63.7946 129.509 63.3366 129.588 62.8398 129.588ZM67.8643 129.417L67.8643 122.035L69.1836 122.035L69.1836 123.627L69.1357 123.436C69.3591 122.917 69.6872 122.525 70.1201 122.26C70.5576 121.996 71.0088 121.864 71.4736 121.864C71.6058 121.864 71.738 121.875 71.8701 121.898C72.0023 121.921 72.1276 121.959 72.2461 122.014L72.0889 123.279C71.8291 123.197 71.5716 123.156 71.3164 123.156C71.1432 123.156 70.9382 123.19 70.7012 123.258C70.4688 123.322 70.2432 123.447 70.0244 123.634C69.8057 123.821 69.6211 124.097 69.4707 124.461C69.3249 124.821 69.252 125.295 69.252 125.883L69.252 129.417L67.8643 129.417ZM76.3613 129.588C75.6458 129.588 75.026 129.431 74.502 129.117C73.9779 128.802 73.5745 128.356 73.292 127.777C73.0094 127.198 72.8682 126.514 72.8682 125.726C72.8682 124.933 73.0094 124.25 73.292 123.675C73.5745 123.097 73.9756 122.65 74.4951 122.335C75.0192 122.021 75.639 121.864 76.3545 121.864C76.8923 121.864 77.3776 121.962 77.8105 122.158C78.2435 122.354 78.6104 122.639 78.9111 123.012C79.2165 123.381 79.4352 123.83 79.5674 124.359L78.1934 124.694C78.0703 124.133 77.8516 123.707 77.5371 123.416C77.2272 123.119 76.833 122.971 76.3545 122.971C75.7074 122.971 75.2129 123.215 74.8711 123.703C74.5339 124.186 74.3652 124.862 74.3652 125.733C74.3652 126.603 74.5339 127.28 74.8711 127.763C75.2129 128.242 75.7074 128.481 76.3545 128.481C76.8285 128.481 77.2204 128.342 77.5303 128.064C77.8447 127.781 78.0658 127.369 78.1934 126.827L79.5469 127.155C79.4421 127.551 79.2894 127.9 79.0889 128.201C78.8883 128.501 78.6491 128.754 78.3711 128.959C78.0977 129.165 77.79 129.319 77.4482 129.424C77.111 129.534 76.7487 129.588 76.3613 129.588ZM81.1328 129.417L81.1328 119.164L82.5205 119.164L82.5205 123.771L82.4043 123.47C82.6048 122.996 82.9147 122.611 83.334 122.315C83.7578 122.014 84.2751 121.864 84.8857 121.864C85.4189 121.864 85.8701 121.985 86.2393 122.226C86.613 122.468 86.8978 122.807 87.0938 123.245C87.2943 123.682 87.3945 124.204 87.3945 124.81L87.3945 129.417L86.0068 129.417L86.0068 124.94C86.0068 124.32 85.8997 123.839 85.6855 123.498C85.4714 123.151 85.0863 122.978 84.5303 122.978C83.9196 122.978 83.432 123.199 83.0674 123.641C82.7028 124.083 82.5205 124.746 82.5205 125.63L82.5205 129.417L81.1328 129.417ZM91.373 129.582C90.8854 129.582 90.4548 129.49 90.0811 129.308C89.7119 129.126 89.4225 128.871 89.2129 128.542C89.0078 128.214 88.9053 127.834 88.9053 127.401C88.9053 126.931 89.042 126.512 89.3154 126.143C89.5889 125.769 90.0013 125.475 90.5527 125.261C91.1087 125.042 91.8083 124.933 92.6514 124.933L93.834 124.933L93.7109 125.07L93.7109 124.66C93.7109 124.099 93.5993 123.671 93.376 123.375C93.1572 123.078 92.7904 122.93 92.2754 122.93C91.7832 122.93 91.4049 123.058 91.1406 123.313C90.8809 123.564 90.7396 123.908 90.7168 124.345L89.2129 124.031C89.263 123.634 89.4202 123.272 89.6846 122.944C89.9489 122.616 90.3066 122.354 90.7578 122.158C91.2135 121.962 91.749 121.864 92.3643 121.864C92.9749 121.864 93.4785 121.975 93.875 122.199C94.2715 122.417 94.5654 122.746 94.7568 123.183C94.9528 123.616 95.0508 124.156 95.0508 124.803L95.0508 127.941C95.0508 128.091 95.0713 128.192 95.1123 128.242C95.1579 128.292 95.2513 128.317 95.3926 128.317L95.7891 128.317L95.7891 129.417L94.9893 129.417C94.6201 129.417 94.3216 129.31 94.0938 129.096C93.8659 128.882 93.752 128.599 93.752 128.249L93.752 127.777L93.9707 127.811C93.9023 128.007 93.8021 128.208 93.6699 128.413C93.5423 128.618 93.3737 128.809 93.1641 128.987C92.959 129.165 92.7083 129.308 92.4121 129.417C92.1159 129.527 91.7695 129.582 91.373 129.582ZM91.7217 128.508C92.0817 128.508 92.4121 128.422 92.7129 128.249C93.0182 128.071 93.262 127.797 93.4443 127.428C93.6266 127.059 93.7178 126.583 93.7178 126L93.7178 125.911L92.6445 125.911C92.0703 125.911 91.6191 125.986 91.291 126.136C90.9629 126.287 90.7305 126.473 90.5938 126.697C90.4616 126.916 90.3955 127.132 90.3955 127.346C90.3955 127.556 90.4411 127.75 90.5322 127.927C90.6279 128.1 90.7738 128.242 90.9697 128.351C91.1657 128.456 91.4163 128.508 91.7217 128.508ZM97.3135 129.417L97.3135 122.035L98.6328 122.035L98.6328 123.627L98.585 123.436C98.8083 122.917 99.1364 122.525 99.5693 122.26C100.007 121.996 100.458 121.864 100.923 121.864C101.055 121.864 101.187 121.875 101.319 121.898C101.451 121.921 101.577 121.959 101.695 122.014L101.538 123.279C101.278 123.197 101.021 123.156 100.766 123.156C100.592 123.156 100.387 123.19 100.15 123.258C99.918 123.322 99.6924 123.447 99.4736 123.634C99.2549 123.821 99.0703 124.097 98.9199 124.461C98.7741 124.821 98.7012 125.295 98.7012 125.883L98.7012 129.417L97.3135 129.417ZM105.435 132.254C104.309 132.254 103.479 132.099 102.946 131.79C102.413 131.48 102.146 131.001 102.146 130.354C102.146 129.98 102.242 129.654 102.434 129.376C102.625 129.098 102.937 128.887 103.37 128.741C103.197 128.631 103.056 128.49 102.946 128.317C102.841 128.144 102.789 127.95 102.789 127.736C102.789 127.472 102.871 127.239 103.035 127.039C103.199 126.833 103.434 126.685 103.739 126.594C103.375 126.375 103.09 126.084 102.885 125.719C102.684 125.355 102.584 124.933 102.584 124.455C102.584 123.926 102.705 123.468 102.946 123.081C103.188 122.693 103.532 122.395 103.979 122.185C104.425 121.971 104.954 121.864 105.564 121.864C106.175 121.864 106.704 121.971 107.15 122.185C107.602 122.395 107.95 122.695 108.196 123.087C108.442 123.475 108.565 123.935 108.565 124.468C108.565 124.992 108.442 125.446 108.196 125.829C107.95 126.211 107.602 126.508 107.15 126.717C106.699 126.927 106.164 127.032 105.544 127.032L104.949 127.032C104.407 127.032 104.136 127.189 104.136 127.503C104.136 127.804 104.4 127.955 104.929 127.955L106.412 127.955C106.973 127.955 107.431 128.021 107.786 128.153C108.142 128.28 108.417 128.451 108.613 128.666C108.814 128.875 108.953 129.105 109.03 129.356C109.108 129.607 109.146 129.855 109.146 130.101C109.146 130.83 108.875 131.37 108.333 131.721C107.791 132.077 106.952 132.254 105.817 132.254L105.435 132.254ZM105.448 131.229L105.824 131.229C107.087 131.229 107.718 130.851 107.718 130.094C107.718 129.784 107.604 129.531 107.376 129.335C107.153 129.135 106.763 129.035 106.207 129.035L105.018 129.035C104.612 129.035 104.266 129.121 103.979 129.294C103.696 129.463 103.555 129.743 103.555 130.135C103.555 130.504 103.707 130.778 104.013 130.956C104.323 131.138 104.801 131.229 105.448 131.229ZM105.564 126.095C106.093 126.095 106.499 125.956 106.781 125.678C107.068 125.396 107.212 124.992 107.212 124.468C107.212 123.944 107.068 123.539 106.781 123.251C106.499 122.96 106.093 122.814 105.564 122.814C105.04 122.814 104.637 122.958 104.354 123.245C104.072 123.532 103.931 123.94 103.931 124.468C103.931 124.992 104.072 125.396 104.354 125.678C104.637 125.956 105.04 126.095 105.564 126.095ZM106.747 122.718L106.747 121.98C106.747 121.629 106.866 121.349 107.103 121.139C107.344 120.925 107.645 120.818 108.005 120.818L108.846 120.818L108.846 121.918L108.094 121.918C107.952 121.918 107.859 121.944 107.813 121.994C107.772 122.044 107.752 122.144 107.752 122.294L107.752 122.718L106.747 122.718ZM113.645 129.588C112.934 129.588 112.314 129.431 111.785 129.117C111.257 128.798 110.844 128.351 110.548 127.777C110.256 127.198 110.11 126.514 110.11 125.726C110.11 124.938 110.256 124.256 110.548 123.682C110.84 123.103 111.247 122.657 111.771 122.342C112.296 122.023 112.906 121.864 113.604 121.864C114 121.864 114.399 121.928 114.8 122.055C115.201 122.178 115.568 122.395 115.9 122.705C116.233 123.014 116.5 123.441 116.7 123.983C116.901 124.521 117.001 125.204 117.001 126.034L111.006 126.034L111.006 125.042L115.784 125.042L115.483 125.453C115.461 124.851 115.36 124.368 115.183 124.003C115.009 123.634 114.782 123.368 114.499 123.204C114.221 123.035 113.913 122.951 113.576 122.951C113.161 122.951 112.806 123.062 112.51 123.286C112.218 123.504 111.995 123.821 111.84 124.236C111.685 124.651 111.607 125.152 111.607 125.74C111.607 126.606 111.781 127.28 112.127 127.763C112.478 128.242 112.981 128.481 113.638 128.481C114.103 128.481 114.494 128.365 114.813 128.132C115.132 127.895 115.369 127.551 115.524 127.1L116.844 127.503C116.666 127.955 116.422 128.335 116.112 128.645C115.802 128.955 115.438 129.19 115.019 129.349C114.599 129.509 114.141 129.588 113.645 129.588ZM121.294 129.588C120.752 129.588 120.255 129.502 119.804 129.329C119.353 129.155 118.977 128.893 118.676 128.542C118.38 128.187 118.184 127.734 118.088 127.182L119.469 126.916C119.514 127.449 119.697 127.847 120.016 128.112C120.339 128.376 120.752 128.508 121.253 128.508C121.754 128.508 122.144 128.39 122.422 128.153C122.704 127.911 122.846 127.622 122.846 127.285C122.846 126.993 122.743 126.758 122.538 126.581C122.338 126.403 122.03 126.278 121.615 126.205L120.781 126.047C120.535 126.006 120.275 125.947 120.002 125.87C119.733 125.788 119.48 125.674 119.243 125.528C119.011 125.382 118.819 125.188 118.669 124.947C118.523 124.705 118.45 124.4 118.45 124.031C118.45 123.543 118.578 123.142 118.833 122.828C119.088 122.509 119.43 122.269 119.858 122.11C120.291 121.946 120.765 121.864 121.28 121.864C121.813 121.864 122.285 121.946 122.695 122.11C123.105 122.274 123.44 122.511 123.7 122.821C123.965 123.126 124.138 123.5 124.22 123.942L122.798 124.229C122.766 123.974 122.695 123.75 122.586 123.559C122.477 123.363 122.317 123.21 122.107 123.101C121.898 122.992 121.622 122.937 121.28 122.937C120.879 122.937 120.537 123.021 120.255 123.19C119.977 123.354 119.838 123.6 119.838 123.928C119.838 124.12 119.89 124.284 119.995 124.42C120.104 124.553 120.262 124.662 120.467 124.749C120.672 124.831 120.925 124.903 121.226 124.967L122.094 125.145C122.481 125.218 122.839 125.332 123.167 125.487C123.5 125.637 123.766 125.851 123.967 126.129C124.172 126.403 124.274 126.765 124.274 127.216C124.274 127.713 124.147 128.139 123.892 128.495C123.636 128.85 123.285 129.121 122.839 129.308C122.392 129.495 121.877 129.588 121.294 129.588Z" fill="#302D27"/>
<rect x="206" width="166" height="172" rx="10" fill="#F5F5F5"/>
<rect x="206.5" y="0.5" width="165" height="171" rx="9.5" stroke="#302D27" stroke-opacity="0.15"/>
<path d="M256.65 111.417L256.65 110.249L257.977 110.249L257.977 102.743L256.65 102.743L256.65 101.574L260.766 101.574L260.766 102.743L259.446 102.743L259.446 110.249L260.766 110.249L260.766 111.417L256.65 111.417ZM262.352 111.417L262.352 104.035L263.671 104.035L263.671 105.709L263.623 105.409C263.828 104.967 264.14 104.6 264.56 104.308C264.979 104.012 265.489 103.864 266.091 103.864C266.629 103.864 267.084 103.985 267.458 104.226C267.832 104.468 268.117 104.807 268.313 105.245C268.513 105.682 268.613 106.204 268.613 106.81L268.613 111.417L267.226 111.417L267.226 106.913C267.226 106.325 267.112 105.855 266.884 105.504C266.656 105.153 266.275 104.978 265.742 104.978C265.159 104.978 264.678 105.208 264.3 105.668C263.926 106.129 263.739 106.801 263.739 107.685L263.739 111.417L262.352 111.417ZM272.353 111.417L269.57 104.035L271.115 104.035L273.316 110.549L273.111 110.549L275.299 104.035L276.844 104.035L274.075 111.417L272.353 111.417ZM281.089 111.588C280.378 111.588 279.758 111.431 279.229 111.117C278.701 110.798 278.288 110.351 277.992 109.777C277.701 109.198 277.555 108.514 277.555 107.726C277.555 106.938 277.701 106.256 277.992 105.682C278.284 105.103 278.692 104.657 279.216 104.342C279.74 104.023 280.351 103.864 281.048 103.864C281.444 103.864 281.843 103.928 282.244 104.055C282.645 104.178 283.012 104.395 283.345 104.705C283.677 105.014 283.944 105.441 284.145 105.983C284.345 106.521 284.445 107.204 284.445 108.034L278.45 108.034L278.45 107.042L283.229 107.042L282.928 107.453C282.905 106.851 282.805 106.368 282.627 106.003C282.454 105.634 282.226 105.368 281.943 105.204C281.665 105.035 281.358 104.951 281.021 104.951C280.606 104.951 280.25 105.062 279.954 105.286C279.662 105.504 279.439 105.821 279.284 106.236C279.129 106.651 279.052 107.152 279.052 107.74C279.052 108.606 279.225 109.28 279.571 109.763C279.922 110.242 280.426 110.481 281.082 110.481C281.547 110.481 281.939 110.365 282.258 110.132C282.577 109.895 282.814 109.551 282.969 109.1L284.288 109.503C284.11 109.955 283.867 110.335 283.557 110.645C283.247 110.955 282.882 111.19 282.463 111.349C282.044 111.509 281.586 111.588 281.089 111.588ZM286.113 111.417L286.113 104.035L287.433 104.035L287.433 105.709L287.385 105.409C287.59 104.967 287.902 104.6 288.321 104.308C288.741 104.012 289.251 103.864 289.853 103.864C290.39 103.864 290.846 103.985 291.22 104.226C291.593 104.468 291.878 104.807 292.074 105.245C292.275 105.682 292.375 106.204 292.375 106.81L292.375 111.417L290.987 111.417L290.987 106.913C290.987 106.325 290.873 105.855 290.646 105.504C290.418 105.153 290.037 104.978 289.504 104.978C288.921 104.978 288.44 105.208 288.062 105.668C287.688 106.129 287.501 106.801 287.501 107.685L287.501 111.417L286.113 111.417ZM295.943 111.417C295.579 111.417 295.278 111.31 295.041 111.096C294.804 110.882 294.686 110.599 294.686 110.249L294.686 105.135L293.53 105.135L293.53 104.035L294.686 104.035L294.686 102.517L296.073 102.203L296.073 104.035L297.509 104.035L297.509 105.135L296.073 105.135L296.073 109.941C296.073 110.091 296.094 110.192 296.135 110.242C296.18 110.292 296.274 110.317 296.415 110.317L297.543 110.317L297.543 111.417L295.943 111.417ZM301.986 111.588C301.28 111.588 300.656 111.424 300.113 111.096C299.576 110.768 299.156 110.315 298.855 109.736C298.555 109.157 298.404 108.487 298.404 107.726C298.404 106.965 298.555 106.295 298.855 105.716C299.156 105.138 299.576 104.684 300.113 104.356C300.656 104.028 301.28 103.864 301.986 103.864C302.693 103.864 303.315 104.028 303.853 104.356C304.395 104.684 304.816 105.138 305.117 105.716C305.418 106.295 305.568 106.965 305.568 107.726C305.568 108.487 305.418 109.157 305.117 109.736C304.816 110.315 304.395 110.768 303.853 111.096C303.315 111.424 302.693 111.588 301.986 111.588ZM301.986 110.481C302.633 110.481 303.144 110.235 303.518 109.743C303.891 109.246 304.078 108.574 304.078 107.726C304.078 106.874 303.891 106.202 303.518 105.709C303.144 105.217 302.633 104.971 301.986 104.971C301.339 104.971 300.829 105.217 300.455 105.709C300.081 106.202 299.895 106.874 299.895 107.726C299.895 108.574 300.081 109.246 300.455 109.743C300.829 110.235 301.339 110.481 301.986 110.481ZM307.195 111.417L307.195 104.035L308.515 104.035L308.515 105.627L308.467 105.436C308.69 104.917 309.018 104.525 309.451 104.26C309.889 103.996 310.34 103.864 310.805 103.864C310.937 103.864 311.069 103.875 311.201 103.898C311.333 103.921 311.459 103.959 311.577 104.014L311.42 105.279C311.16 105.197 310.903 105.156 310.647 105.156C310.474 105.156 310.269 105.19 310.032 105.258C309.8 105.322 309.574 105.447 309.355 105.634C309.137 105.821 308.952 106.097 308.802 106.461C308.656 106.821 308.583 107.295 308.583 107.883L308.583 111.417L307.195 111.417ZM313.471 114.083L313.471 112.983L314.626 112.983C314.713 112.983 314.779 112.958 314.824 112.908C314.87 112.858 314.913 112.778 314.954 112.668L315.446 111.274L315.33 111.862L312.295 104.035L313.847 104.035L316.082 110.611L315.843 110.556L318.064 104.035L319.609 104.035L316.109 113.147C315.995 113.457 315.811 113.689 315.556 113.844C315.305 114.004 315.032 114.083 314.735 114.083L313.471 114.083ZM256.808 129.417L260.861 119.574L262.488 119.574L266.521 129.417L264.949 129.417L261.668 120.927L258.38 129.417L256.808 129.417ZM259.029 126.334L259.029 125.138L264.293 125.138L264.293 126.334L259.029 126.334ZM270.637 129.588C269.921 129.588 269.301 129.431 268.777 129.117C268.253 128.802 267.85 128.356 267.567 127.777C267.285 127.198 267.144 126.514 267.144 125.726C267.144 124.933 267.285 124.25 267.567 123.675C267.85 123.097 268.251 122.65 268.771 122.335C269.295 122.021 269.914 121.864 270.63 121.864C271.168 121.864 271.653 121.962 272.086 122.158C272.519 122.354 272.886 122.639 273.187 123.012C273.492 123.381 273.711 123.83 273.843 124.359L272.469 124.694C272.346 124.133 272.127 123.707 271.813 123.416C271.503 123.119 271.108 122.971 270.63 122.971C269.983 122.971 269.488 123.215 269.146 123.703C268.809 124.186 268.641 124.862 268.641 125.733C268.641 126.603 268.809 127.28 269.146 127.763C269.488 128.242 269.983 128.481 270.63 128.481C271.104 128.481 271.496 128.342 271.806 128.064C272.12 127.781 272.341 127.369 272.469 126.827L273.822 127.155C273.717 127.551 273.565 127.9 273.364 128.201C273.164 128.501 272.924 128.754 272.646 128.959C272.373 129.165 272.065 129.319 271.724 129.424C271.386 129.534 271.024 129.588 270.637 129.588ZM278.471 129.588C277.755 129.588 277.135 129.431 276.611 129.117C276.087 128.802 275.684 128.356 275.401 127.777C275.119 127.198 274.978 126.514 274.978 125.726C274.978 124.933 275.119 124.25 275.401 123.675C275.684 123.097 276.085 122.65 276.604 122.335C277.129 122.021 277.748 121.864 278.464 121.864C279.002 121.864 279.487 121.962 279.92 122.158C280.353 122.354 280.72 122.639 281.021 123.012C281.326 123.381 281.545 123.83 281.677 124.359L280.303 124.694C280.18 124.133 279.961 123.707 279.646 123.416C279.337 123.119 278.942 122.971 278.464 122.971C277.817 122.971 277.322 123.215 276.98 123.703C276.643 124.186 276.475 124.862 276.475 125.733C276.475 126.603 276.643 127.28 276.98 127.763C277.322 128.242 277.817 128.481 278.464 128.481C278.938 128.481 279.33 128.342 279.64 128.064C279.954 127.781 280.175 127.369 280.303 126.827L281.656 127.155C281.551 127.551 281.399 127.9 281.198 128.201C280.998 128.501 280.758 128.754 280.48 128.959C280.207 129.165 279.899 129.319 279.558 129.424C279.22 129.534 278.858 129.588 278.471 129.588ZM285.628 129.588C285.099 129.588 284.646 129.468 284.268 129.226C283.894 128.985 283.607 128.645 283.406 128.208C283.21 127.765 283.112 127.244 283.112 126.642L283.112 122.035L284.5 122.035L284.5 126.512C284.5 127.114 284.612 127.592 284.835 127.948C285.058 128.299 285.443 128.474 285.99 128.474C286.382 128.474 286.726 128.374 287.022 128.173C287.323 127.968 287.558 127.656 287.727 127.237C287.9 126.818 287.986 126.287 287.986 125.644L287.986 122.035L289.374 122.035L289.374 129.417L288.055 129.417L288.055 127.681L288.103 127.982C287.902 128.451 287.59 128.836 287.166 129.137C286.747 129.438 286.234 129.588 285.628 129.588ZM291.493 129.417L291.493 122.035L292.813 122.035L292.813 123.627L292.765 123.436C292.988 122.917 293.316 122.525 293.749 122.26C294.187 121.996 294.638 121.864 295.103 121.864C295.235 121.864 295.367 121.875 295.499 121.898C295.631 121.921 295.757 121.959 295.875 122.014L295.718 123.279C295.458 123.197 295.201 123.156 294.945 123.156C294.772 123.156 294.567 123.19 294.33 123.258C294.098 123.322 293.872 123.447 293.653 123.634C293.435 123.821 293.25 124.097 293.1 124.461C292.954 124.821 292.881 125.295 292.881 125.883L292.881 129.417L291.493 129.417ZM298.855 129.582C298.368 129.582 297.937 129.49 297.563 129.308C297.194 129.126 296.905 128.871 296.695 128.542C296.49 128.214 296.388 127.834 296.388 127.401C296.388 126.931 296.524 126.512 296.798 126.143C297.071 125.769 297.484 125.475 298.035 125.261C298.591 125.042 299.291 124.933 300.134 124.933L301.316 124.933L301.193 125.07L301.193 124.66C301.193 124.099 301.082 123.671 300.858 123.375C300.64 123.078 300.273 122.93 299.758 122.93C299.266 122.93 298.887 123.058 298.623 123.313C298.363 123.564 298.222 123.908 298.199 124.345L296.695 124.031C296.745 123.634 296.903 123.272 297.167 122.944C297.431 122.616 297.789 122.354 298.24 122.158C298.696 121.962 299.231 121.864 299.847 121.864C300.457 121.864 300.961 121.975 301.357 122.199C301.754 122.417 302.048 122.746 302.239 123.183C302.435 123.616 302.533 124.156 302.533 124.803L302.533 127.941C302.533 128.091 302.554 128.192 302.595 128.242C302.64 128.292 302.734 128.317 302.875 128.317L303.271 128.317L303.271 129.417L302.472 129.417C302.103 129.417 301.804 129.31 301.576 129.096C301.348 128.882 301.234 128.599 301.234 128.249L301.234 127.777L301.453 127.811C301.385 128.007 301.285 128.208 301.152 128.413C301.025 128.618 300.856 128.809 300.646 128.987C300.441 129.165 300.191 129.308 299.895 129.417C299.598 129.527 299.252 129.582 298.855 129.582ZM299.204 128.508C299.564 128.508 299.895 128.422 300.195 128.249C300.501 128.071 300.744 127.797 300.927 127.428C301.109 127.059 301.2 126.583 301.2 126L301.2 125.911L300.127 125.911C299.553 125.911 299.102 125.986 298.773 126.136C298.445 126.287 298.213 126.473 298.076 126.697C297.944 126.916 297.878 127.132 297.878 127.346C297.878 127.556 297.924 127.75 298.015 127.927C298.11 128.1 298.256 128.242 298.452 128.351C298.648 128.456 298.899 128.508 299.204 128.508ZM307.852 129.588C307.136 129.588 306.516 129.431 305.992 129.117C305.468 128.802 305.065 128.356 304.782 127.777C304.5 127.198 304.358 126.514 304.358 125.726C304.358 124.933 304.5 124.25 304.782 123.675C305.065 123.097 305.466 122.65 305.985 122.335C306.509 122.021 307.129 121.864 307.845 121.864C308.382 121.864 308.868 121.962 309.301 122.158C309.734 122.354 310.101 122.639 310.401 123.012C310.707 123.381 310.925 123.83 311.058 124.359L309.684 124.694C309.561 124.133 309.342 123.707 309.027 123.416C308.717 123.119 308.323 122.971 307.845 122.971C307.198 122.971 306.703 123.215 306.361 123.703C306.024 124.186 305.855 124.862 305.855 125.733C305.855 126.603 306.024 127.28 306.361 127.763C306.703 128.242 307.198 128.481 307.845 128.481C308.319 128.481 308.711 128.342 309.021 128.064C309.335 127.781 309.556 127.369 309.684 126.827L311.037 127.155C310.932 127.551 310.78 127.9 310.579 128.201C310.379 128.501 310.139 128.754 309.861 128.959C309.588 129.165 309.28 129.319 308.938 129.424C308.601 129.534 308.239 129.588 307.852 129.588ZM312.876 132.083L312.876 130.983L314.031 130.983C314.118 130.983 314.184 130.958 314.229 130.908C314.275 130.858 314.318 130.778 314.359 130.668L314.852 129.274L314.735 129.862L311.7 122.035L313.252 122.035L315.487 128.611L315.248 128.556L317.47 122.035L319.015 122.035L315.515 131.147C315.401 131.457 315.216 131.689 314.961 131.844C314.71 132.004 314.437 132.083 314.141 132.083L312.876 132.083Z" fill="#302D27"/>
<path d="M286.594 66.8789L293.679 59.7949" stroke="#EA8541" stroke-width="1.66849" stroke-linecap="round" stroke-linejoin="round"/>
<path d="M294.437 54.5274C294.196 54.767 294.005 55.052 293.874 55.3659C293.744 55.6798 293.677 56.0164 293.677 56.3563V59.7953H297.116C297.456 59.7955 297.793 59.7285 298.107 59.5981C298.421 59.4677 298.706 59.2764 298.946 59.0354L302.05 55.9313H297.541V51.4233L294.437 54.5274Z" stroke="#EA8541" stroke-width="1.66849" stroke-linecap="round" stroke-linejoin="round"/>
<path d="M292.723 64.9475C292.932 65.5878 293.037 66.2576 293.033 66.931C293.042 68.4199 292.535 69.8659 291.598 71.023C290.661 72.1801 289.352 72.9769 287.894 73.2778C286.435 73.5787 284.918 73.365 283.599 72.6732C282.281 71.9814 281.243 70.8541 280.662 69.4833C280.081 68.1124 279.993 66.5826 280.413 65.1542C280.833 63.7258 281.735 62.4871 282.965 61.6487C284.196 60.8104 285.679 60.4243 287.162 60.556C288.645 60.6878 290.037 61.3294 291.1 62.3716" stroke="#EA8541" stroke-width="1.66849" stroke-linecap="round" stroke-linejoin="round"/>
<path d="M297.542 63.0158C298.414 65.514 298.405 68.2353 297.517 70.7278C296.629 73.2203 294.914 75.3338 292.659 76.7174C290.403 78.101 287.742 78.6713 285.117 78.3336C282.492 77.9959 280.062 76.7706 278.23 74.8611C276.398 72.9516 275.275 70.4729 275.046 67.8367C274.818 65.2006 275.498 62.5657 276.975 60.3697C278.451 58.1737 280.634 56.5488 283.162 55.7649C285.69 54.9811 288.409 55.0854 290.869 56.0607" stroke="#EA8541" stroke-width="1.66849" stroke-linecap="round" stroke-linejoin="round"/>
<path d="M279.367 75.9463L275 81.0467" stroke="#EA8541" stroke-width="1.66849" stroke-linecap="round" stroke-linejoin="round"/>
<path d="M293.819 75.9463L298.186 81.0467" stroke="#EA8541" stroke-width="1.66849" stroke-linecap="round" stroke-linejoin="round"/>
<rect y="209" width="166" height="172" rx="10" fill="#F5F5F5"/>
<rect x="0.5" y="209.5" width="165" height="171" rx="9.5" stroke="#302D27" stroke-opacity="0.15"/>
<path d="M34.5801 320.391L38.6338 310.547L40.2607 310.547L44.2939 320.391L42.7217 320.391L39.4404 311.901L36.1523 320.391L34.5801 320.391ZM36.8018 317.308L36.8018 316.112L42.0654 316.112L42.0654 317.308L36.8018 317.308ZM46.6318 320.391L43.8496 313.008L45.3945 313.008L47.5957 319.523L47.3906 319.523L49.5781 313.008L51.123 313.008L48.3545 320.391L46.6318 320.391ZM55.3682 320.562C54.6572 320.562 54.0374 320.405 53.5088 320.09C52.9801 319.771 52.5677 319.325 52.2715 318.75C51.9798 318.172 51.834 317.488 51.834 316.7C51.834 315.911 51.9798 315.23 52.2715 314.656C52.5632 314.077 52.971 313.63 53.4951 313.316C54.0192 312.997 54.6299 312.837 55.3271 312.837C55.7236 312.837 56.1224 312.901 56.5234 313.029C56.9245 313.152 57.2913 313.368 57.624 313.678C57.9567 313.988 58.2233 314.414 58.4238 314.957C58.6243 315.494 58.7246 316.178 58.7246 317.007L52.7295 317.007L52.7295 316.016L57.5078 316.016L57.207 316.426C57.1842 315.825 57.084 315.342 56.9063 314.977C56.7331 314.608 56.5052 314.341 56.2227 314.177C55.9447 314.009 55.637 313.924 55.2998 313.924C54.8851 313.924 54.5296 314.036 54.2334 314.259C53.9417 314.478 53.7184 314.795 53.5635 315.209C53.4085 315.624 53.3311 316.125 53.3311 316.713C53.3311 317.579 53.5042 318.254 53.8506 318.737C54.2015 319.215 54.7051 319.455 55.3613 319.455C55.8262 319.455 56.2181 319.338 56.5371 319.106C56.8561 318.869 57.0931 318.525 57.248 318.074L58.5674 318.477C58.3896 318.928 58.1458 319.309 57.8359 319.619C57.526 319.929 57.1615 320.163 56.7422 320.323C56.3229 320.482 55.8649 320.562 55.3682 320.562ZM60.3926 320.391L60.3926 313.008L61.7119 313.008L61.7119 314.601L61.6641 314.41C61.8874 313.89 62.2155 313.498 62.6484 313.234C63.0859 312.97 63.5371 312.837 64.002 312.837C64.1341 312.837 64.2663 312.849 64.3984 312.872C64.5306 312.894 64.6559 312.933 64.7744 312.988L64.6172 314.252C64.3574 314.17 64.0999 314.129 63.8447 314.129C63.6715 314.129 63.4665 314.164 63.2295 314.232C62.9971 314.296 62.7715 314.421 62.5527 314.608C62.334 314.795 62.1494 315.07 61.999 315.435C61.8532 315.795 61.7803 316.269 61.7803 316.857L61.7803 320.391L60.3926 320.391ZM67.7549 320.555C67.2673 320.555 66.8366 320.464 66.4629 320.282C66.0938 320.099 65.8044 319.844 65.5947 319.516C65.3896 319.188 65.2871 318.807 65.2871 318.375C65.2871 317.905 65.4238 317.486 65.6973 317.117C65.9707 316.743 66.3831 316.449 66.9346 316.235C67.4906 316.016 68.1901 315.907 69.0332 315.907L70.2158 315.907L70.0928 316.043L70.0928 315.633C70.0928 315.073 69.9811 314.644 69.7578 314.348C69.5391 314.052 69.1722 313.904 68.6572 313.904C68.165 313.904 67.7868 314.031 67.5225 314.287C67.2627 314.537 67.1214 314.881 67.0986 315.319L65.5947 315.004C65.6449 314.608 65.8021 314.246 66.0664 313.917C66.3307 313.589 66.6885 313.327 67.1396 313.131C67.5954 312.935 68.1309 312.837 68.7461 312.837C69.3568 312.837 69.8604 312.949 70.2568 313.172C70.6533 313.391 70.9473 313.719 71.1387 314.157C71.3346 314.59 71.4326 315.13 71.4326 315.777L71.4326 318.915C71.4326 319.065 71.4531 319.165 71.4941 319.215C71.5397 319.265 71.6331 319.291 71.7744 319.291L72.1709 319.291L72.1709 320.391L71.3711 320.391C71.002 320.391 70.7035 320.284 70.4756 320.07C70.2477 319.856 70.1338 319.573 70.1338 319.222L70.1338 318.75L70.3525 318.785C70.2842 318.981 70.1839 319.181 70.0518 319.386C69.9242 319.591 69.7555 319.783 69.5459 319.96C69.3408 320.138 69.0902 320.282 68.7939 320.391C68.4977 320.5 68.1514 320.555 67.7549 320.555ZM68.1035 319.482C68.4635 319.482 68.7939 319.395 69.0947 319.222C69.4001 319.044 69.6439 318.771 69.8262 318.402C70.0085 318.033 70.0996 317.556 70.0996 316.973L70.0996 316.884L69.0264 316.884C68.4521 316.884 68.001 316.959 67.6729 317.11C67.3447 317.26 67.1123 317.447 66.9756 317.67C66.8434 317.889 66.7773 318.106 66.7773 318.32C66.7773 318.529 66.8229 318.723 66.9141 318.901C67.0098 319.074 67.1556 319.215 67.3516 319.325C67.5475 319.43 67.7982 319.482 68.1035 319.482ZM76.3613 323.228C75.2357 323.228 74.4063 323.073 73.873 322.763C73.3398 322.453 73.0732 321.975 73.0732 321.328C73.0732 320.954 73.1689 320.628 73.3604 320.35C73.5518 320.072 73.8639 319.86 74.2969 319.714C74.1237 319.605 73.9824 319.464 73.873 319.291C73.7682 319.117 73.7158 318.924 73.7158 318.709C73.7158 318.445 73.7979 318.213 73.9619 318.012C74.126 317.807 74.3607 317.659 74.666 317.568C74.3014 317.349 74.0166 317.057 73.8115 316.693C73.611 316.328 73.5107 315.907 73.5107 315.428C73.5107 314.9 73.6315 314.442 73.873 314.054C74.1146 313.667 74.4587 313.368 74.9053 313.159C75.3519 312.944 75.8805 312.837 76.4912 312.837C77.1019 312.837 77.6305 312.944 78.0771 313.159C78.5283 313.368 78.877 313.669 79.123 314.061C79.3691 314.448 79.4922 314.909 79.4922 315.442C79.4922 315.966 79.3691 316.419 79.123 316.802C78.877 317.185 78.5283 317.481 78.0771 317.691C77.626 317.901 77.0905 318.005 76.4707 318.005L75.876 318.005C75.3337 318.005 75.0625 318.163 75.0625 318.477C75.0625 318.778 75.3268 318.928 75.8555 318.928L77.3389 318.928C77.8994 318.928 78.3574 318.994 78.7129 319.126C79.0684 319.254 79.3441 319.425 79.54 319.639C79.7406 319.849 79.8796 320.079 79.957 320.33C80.0345 320.58 80.0732 320.829 80.0732 321.075C80.0732 321.804 79.8021 322.344 79.2598 322.695C78.7174 323.05 77.8789 323.228 76.7441 323.228L76.3613 323.228ZM76.375 322.203L76.751 322.203C78.0133 322.203 78.6445 321.824 78.6445 321.068C78.6445 320.758 78.5306 320.505 78.3027 320.309C78.0794 320.109 77.6898 320.008 77.1338 320.008L75.9443 320.008C75.5387 320.008 75.1924 320.095 74.9053 320.268C74.6227 320.437 74.4814 320.717 74.4814 321.109C74.4814 321.478 74.6341 321.751 74.9395 321.929C75.2493 322.111 75.7279 322.203 76.375 322.203ZM76.4912 317.069C77.0199 317.069 77.4255 316.93 77.708 316.652C77.9951 316.369 78.1387 315.966 78.1387 315.442C78.1387 314.918 77.9951 314.512 77.708 314.225C77.4255 313.933 77.0199 313.788 76.4912 313.788C75.9671 313.788 75.5638 313.931 75.2813 314.218C74.9987 314.505 74.8574 314.913 74.8574 315.442C74.8574 315.966 74.9987 316.369 75.2813 316.652C75.5638 316.93 75.9671 317.069 76.4912 317.069ZM77.6738 313.692L77.6738 312.954C77.6738 312.603 77.7923 312.322 78.0293 312.113C78.2708 311.899 78.5716 311.792 78.9316 311.792L79.7725 311.792L79.7725 312.892L79.0205 312.892C78.8792 312.892 78.7858 312.917 78.7402 312.967C78.6992 313.017 78.6787 313.118 78.6787 313.268L78.6787 313.692L77.6738 313.692ZM84.5713 320.562C83.8604 320.562 83.2406 320.405 82.7119 320.09C82.1833 319.771 81.7708 319.325 81.4746 318.75C81.1829 318.172 81.0371 317.488 81.0371 316.7C81.0371 315.911 81.1829 315.23 81.4746 314.656C81.7663 314.077 82.1742 313.63 82.6982 313.316C83.2223 312.997 83.833 312.837 84.5303 312.837C84.9268 312.837 85.3255 312.901 85.7266 313.029C86.1276 313.152 86.4945 313.368 86.8271 313.678C87.1598 313.988 87.4264 314.414 87.627 314.957C87.8275 315.494 87.9277 316.178 87.9277 317.007L81.9326 317.007L81.9326 316.016L86.7109 316.016L86.4102 316.426C86.3874 315.825 86.2871 315.342 86.1094 314.977C85.9362 314.608 85.7083 314.341 85.4258 314.177C85.1478 314.009 84.8402 313.924 84.5029 313.924C84.0882 313.924 83.7327 314.036 83.4365 314.259C83.1449 314.478 82.9215 314.795 82.7666 315.209C82.6117 315.624 82.5342 316.125 82.5342 316.713C82.5342 317.579 82.7074 318.254 83.0537 318.737C83.4046 319.215 83.9082 319.455 84.5645 319.455C85.0293 319.455 85.4212 319.338 85.7402 319.106C86.0592 318.869 86.2962 318.525 86.4512 318.074L87.7705 318.477C87.5928 318.928 87.349 319.309 87.0391 319.619C86.7292 319.929 86.3646 320.163 85.9453 320.323C85.526 320.482 85.068 320.562 84.5713 320.562ZM97.2998 320.562C96.3109 320.562 95.4564 320.357 94.7363 319.947C94.0163 319.532 93.4626 318.944 93.0752 318.183C92.6878 317.417 92.4941 316.513 92.4941 315.469C92.4941 314.421 92.6878 313.519 93.0752 312.762C93.4626 312.001 94.0163 311.413 94.7363 310.999C95.4564 310.584 96.3109 310.376 97.2998 310.376C98.2842 310.376 99.1364 310.584 99.8564 310.999C100.576 311.413 101.13 312.001 101.518 312.762C101.905 313.519 102.099 314.421 102.099 315.469C102.099 316.513 101.905 317.417 101.518 318.183C101.13 318.944 100.576 319.532 99.8564 319.947C99.1364 320.357 98.2842 320.562 97.2998 320.562ZM97.293 319.338C97.9629 319.338 98.5394 319.183 99.0225 318.874C99.5055 318.559 99.877 318.112 100.137 317.534C100.396 316.95 100.526 316.262 100.526 315.469C100.526 314.672 100.396 313.984 100.137 313.405C99.877 312.826 99.5055 312.382 99.0225 312.072C98.5394 311.757 97.9629 311.6 97.293 311.6C96.6322 311.6 96.0579 311.757 95.5703 312.072C95.0872 312.382 94.7158 312.826 94.4561 313.405C94.1963 313.984 94.0664 314.672 94.0664 315.469C94.0664 316.262 94.1963 316.95 94.4561 317.534C94.7158 318.112 95.0872 318.559 95.5703 318.874C96.0579 319.183 96.6322 319.338 97.293 319.338ZM103.76 320.391L103.76 313.008L105.079 313.008L105.079 314.601L105.031 314.41C105.255 313.89 105.583 313.498 106.016 313.234C106.453 312.97 106.904 312.837 107.369 312.837C107.501 312.837 107.633 312.849 107.766 312.872C107.898 312.894 108.023 312.933 108.142 312.988L107.984 314.252C107.725 314.17 107.467 314.129 107.212 314.129C107.039 314.129 106.834 314.164 106.597 314.232C106.364 314.296 106.139 314.421 105.92 314.608C105.701 314.795 105.517 315.07 105.366 315.435C105.22 315.795 105.147 316.269 105.147 316.857L105.147 320.391L103.76 320.391ZM111.792 320.562C111.19 320.562 110.66 320.405 110.199 320.09C109.743 319.776 109.39 319.329 109.14 318.75C108.889 318.172 108.764 317.486 108.764 316.693C108.764 315.895 108.889 315.209 109.14 314.635C109.395 314.056 109.75 313.612 110.206 313.302C110.666 312.992 111.2 312.837 111.806 312.837C112.302 312.837 112.781 312.96 113.241 313.207C113.706 313.453 114.062 313.861 114.308 314.43L114.157 314.478L114.157 310.137L115.545 310.137L115.545 320.391L114.232 320.391L114.232 318.867L114.267 318.976C114.052 319.514 113.717 319.913 113.262 320.172C112.811 320.432 112.321 320.562 111.792 320.562ZM112.216 319.441C112.585 319.441 112.92 319.345 113.221 319.154C113.521 318.962 113.761 318.666 113.938 318.265C114.121 317.86 114.212 317.345 114.212 316.72C114.212 315.781 114.018 315.086 113.631 314.635C113.243 314.18 112.776 313.952 112.229 313.952C111.651 313.952 111.177 314.193 110.808 314.676C110.443 315.155 110.261 315.836 110.261 316.72C110.261 317.582 110.436 318.251 110.787 318.73C111.143 319.204 111.619 319.441 112.216 319.441ZM120.747 320.562C120.036 320.562 119.416 320.405 118.888 320.09C118.359 319.771 117.947 319.325 117.65 318.75C117.359 318.172 117.213 317.488 117.213 316.7C117.213 315.911 117.359 315.23 117.65 314.656C117.942 314.077 118.35 313.63 118.874 313.316C119.398 312.997 120.009 312.837 120.706 312.837C121.103 312.837 121.501 312.901 121.902 313.029C122.303 313.152 122.67 313.368 123.003 313.678C123.336 313.988 123.602 314.414 123.803 314.957C124.003 315.494 124.104 316.178 124.104 317.007L118.108 317.007L118.108 316.016L122.887 316.016L122.586 316.426C122.563 315.825 122.463 315.342 122.285 314.977C122.112 314.608 121.884 314.341 121.602 314.177C121.324 314.009 121.016 313.924 120.679 313.924C120.264 313.924 119.909 314.036 119.612 314.259C119.321 314.478 119.097 314.795 118.942 315.209C118.787 315.624 118.71 316.125 118.71 316.713C118.71 317.579 118.883 318.254 119.229 318.737C119.58 319.215 120.084 319.455 120.74 319.455C121.205 319.455 121.597 319.338 121.916 319.106C122.235 318.869 122.472 318.525 122.627 318.074L123.946 318.477C123.769 318.928 123.525 319.309 123.215 319.619C122.905 319.929 122.54 320.163 122.121 320.323C121.702 320.482 121.244 320.562 120.747 320.562ZM125.771 320.391L125.771 313.008L127.091 313.008L127.091 314.601L127.043 314.41C127.266 313.89 127.594 313.498 128.027 313.234C128.465 312.97 128.916 312.837 129.381 312.837C129.513 312.837 129.645 312.849 129.777 312.872C129.91 312.894 130.035 312.933 130.153 312.988L129.996 314.252C129.736 314.17 129.479 314.129 129.224 314.129C129.05 314.129 128.845 314.164 128.608 314.232C128.376 314.296 128.15 314.421 127.932 314.608C127.713 314.795 127.528 315.07 127.378 315.435C127.232 315.795 127.159 316.269 127.159 316.857L127.159 320.391L125.771 320.391ZM45.4902 338.391L45.4902 328.547L51.9502 328.547L51.9502 329.771L46.96 329.771L46.96 332.553L51.4238 332.553L51.4238 333.777L46.96 333.777L46.96 338.391L45.4902 338.391ZM55.3818 338.562C54.8532 338.562 54.3997 338.441 54.0215 338.2C53.6478 337.958 53.3607 337.619 53.1602 337.181C52.9642 336.739 52.8662 336.217 52.8662 335.616L52.8662 331.008L54.2539 331.008L54.2539 335.486C54.2539 336.087 54.3656 336.566 54.5889 336.921C54.8122 337.272 55.1973 337.448 55.7441 337.448C56.1361 337.448 56.4801 337.347 56.7764 337.147C57.0771 336.942 57.3118 336.63 57.4805 336.21C57.6536 335.791 57.7402 335.26 57.7402 334.618L57.7402 331.008L59.1279 331.008L59.1279 338.391L57.8086 338.391L57.8086 336.655L57.8564 336.956C57.6559 337.425 57.3438 337.81 56.9199 338.111C56.5007 338.412 55.988 338.562 55.3818 338.562ZM62.4844 338.391C62.1243 338.391 61.8236 338.284 61.582 338.07C61.3451 337.856 61.2266 337.573 61.2266 337.222L61.2266 328.137L62.6211 328.137L62.6211 336.915C62.6211 337.065 62.6416 337.165 62.6826 337.215C62.7282 337.265 62.8216 337.291 62.9629 337.291L63.6396 337.291L63.6396 338.391L62.4844 338.391ZM65.417 338.391L65.417 329.737C65.417 329.167 65.5537 328.759 65.8271 328.513C66.1006 328.263 66.554 328.137 67.1875 328.137L68.2539 328.137L68.2539 329.238L67.1807 329.238C67.0439 329.238 66.946 329.267 66.8867 329.327C66.832 329.386 66.8047 329.484 66.8047 329.621L66.8047 338.391L65.417 338.391ZM64.3506 332.109L64.3506 331.008L68.3906 331.008L68.3906 332.109L64.3506 332.109ZM69.8057 338.391L69.8057 331.008L71.1934 331.008L71.1934 338.391L69.8057 338.391ZM70.5029 329.867C70.1976 329.867 69.9424 329.766 69.7373 329.566C69.5368 329.361 69.4365 329.108 69.4365 328.807C69.4365 328.497 69.5368 328.242 69.7373 328.042C69.9424 327.841 70.1976 327.741 70.5029 327.741C70.8083 327.741 71.0612 327.841 71.2617 328.042C71.4668 328.242 71.5693 328.497 71.5693 328.807C71.5693 329.108 71.4668 329.361 71.2617 329.566C71.0612 329.766 70.8083 329.867 70.5029 329.867ZM74.5703 338.391C74.2103 338.391 73.9095 338.284 73.668 338.07C73.431 337.856 73.3125 337.573 73.3125 337.222L73.3125 328.137L74.707 328.137L74.707 336.915C74.707 337.065 74.7275 337.165 74.7686 337.215C74.8141 337.265 74.9076 337.291 75.0488 337.291L75.7256 337.291L75.7256 338.391L74.5703 338.391ZM78.3438 338.391C77.9837 338.391 77.6829 338.284 77.4414 338.07C77.2044 337.856 77.0859 337.573 77.0859 337.222L77.0859 328.137L78.4805 328.137L78.4805 336.915C78.4805 337.065 78.501 337.165 78.542 337.215C78.5876 337.265 78.681 337.291 78.8223 337.291L79.499 337.291L79.499 338.391L78.3438 338.391ZM80.9482 338.391L80.9482 331.008L82.2676 331.008L82.2676 332.252C82.4544 331.856 82.7438 331.521 83.1357 331.248C83.5322 330.974 84.0016 330.837 84.5439 330.837C85.0407 330.837 85.4691 330.97 85.8291 331.234C86.1891 331.498 86.4557 331.874 86.6289 332.362C86.875 331.892 87.2008 331.521 87.6064 331.248C88.012 330.974 88.4769 330.837 89.001 330.837C89.7165 330.837 90.277 331.097 90.6826 331.617C91.0928 332.132 91.2979 332.854 91.2979 333.784L91.2979 338.391L89.9102 338.391L89.9102 333.838C89.9102 333.46 89.8714 333.13 89.7939 332.847C89.7165 332.565 89.5843 332.346 89.3975 332.191C89.2152 332.031 88.9645 331.952 88.6455 331.952C88.29 331.952 87.9733 332.059 87.6953 332.273C87.4219 332.483 87.2077 332.783 87.0527 333.175C86.8978 333.567 86.8203 334.039 86.8203 334.59L86.8203 338.391L85.4326 338.391L85.4326 333.838C85.4326 333.46 85.3916 333.13 85.3096 332.847C85.2321 332.565 85.1022 332.346 84.9199 332.191C84.7422 332.031 84.4938 331.952 84.1748 331.952C83.8193 331.952 83.5026 332.056 83.2246 332.266C82.9466 332.476 82.7279 332.777 82.5684 333.168C82.4134 333.56 82.3359 334.034 82.3359 334.59L82.3359 338.391L80.9482 338.391ZM96.418 338.562C95.707 338.562 95.0872 338.405 94.5586 338.09C94.0299 337.771 93.6175 337.325 93.3213 336.75C93.0296 336.172 92.8838 335.488 92.8838 334.7C92.8838 333.911 93.0296 333.23 93.3213 332.656C93.613 332.077 94.0208 331.63 94.5449 331.316C95.069 330.997 95.6797 330.837 96.377 330.837C96.7734 330.837 97.1722 330.901 97.5732 331.029C97.9743 331.152 98.3411 331.368 98.6738 331.678C99.0065 331.988 99.2731 332.414 99.4736 332.957C99.6742 333.494 99.7744 334.178 99.7744 335.007L93.7793 335.007L93.7793 334.016L98.5576 334.016L98.2568 334.426C98.2341 333.825 98.1338 333.342 97.9561 332.977C97.7829 332.608 97.555 332.341 97.2725 332.177C96.9945 332.009 96.6868 331.924 96.3496 331.924C95.9349 331.924 95.5794 332.036 95.2832 332.259C94.9915 332.478 94.7682 332.795 94.6133 333.209C94.4583 333.624 94.3809 334.125 94.3809 334.713C94.3809 335.579 94.554 336.254 94.9004 336.737C95.2513 337.215 95.7549 337.455 96.4111 337.455C96.876 337.455 97.2679 337.338 97.5869 337.106C97.9059 336.869 98.1429 336.525 98.2979 336.074L99.6172 336.477C99.4395 336.928 99.1956 337.309 98.8857 337.619C98.5758 337.929 98.2113 338.163 97.792 338.323C97.3727 338.482 96.9147 338.562 96.418 338.562ZM101.442 338.391L101.442 331.008L102.762 331.008L102.762 332.683L102.714 332.382C102.919 331.94 103.231 331.573 103.65 331.282C104.07 330.986 104.58 330.837 105.182 330.837C105.719 330.837 106.175 330.958 106.549 331.2C106.923 331.441 107.207 331.781 107.403 332.218C107.604 332.656 107.704 333.178 107.704 333.784L107.704 338.391L106.316 338.391L106.316 333.886C106.316 333.298 106.202 332.829 105.975 332.478C105.747 332.127 105.366 331.952 104.833 331.952C104.25 331.952 103.769 332.182 103.391 332.642C103.017 333.102 102.83 333.775 102.83 334.659L102.83 338.391L101.442 338.391ZM111.272 338.391C110.908 338.391 110.607 338.284 110.37 338.07C110.133 337.856 110.015 337.573 110.015 337.222L110.015 332.109L108.859 332.109L108.859 331.008L110.015 331.008L110.015 329.491L111.402 329.176L111.402 331.008L112.838 331.008L112.838 332.109L111.402 332.109L111.402 336.915C111.402 337.065 111.423 337.165 111.464 337.215C111.509 337.265 111.603 337.291 111.744 337.291L112.872 337.291L112.872 338.391L111.272 338.391ZM116.987 338.562C116.445 338.562 115.948 338.475 115.497 338.302C115.046 338.129 114.67 337.867 114.369 337.516C114.073 337.161 113.877 336.707 113.781 336.156L115.162 335.889C115.208 336.422 115.39 336.821 115.709 337.085C116.033 337.35 116.445 337.482 116.946 337.482C117.448 337.482 117.837 337.363 118.115 337.126C118.398 336.885 118.539 336.596 118.539 336.258C118.539 335.967 118.437 335.732 118.231 335.554C118.031 335.376 117.723 335.251 117.309 335.178L116.475 335.021C116.229 334.98 115.969 334.921 115.695 334.843C115.426 334.761 115.174 334.647 114.937 334.501C114.704 334.356 114.513 334.162 114.362 333.92C114.216 333.679 114.144 333.374 114.144 333.004C114.144 332.517 114.271 332.116 114.526 331.801C114.782 331.482 115.123 331.243 115.552 331.083C115.985 330.919 116.459 330.837 116.974 330.837C117.507 330.837 117.979 330.919 118.389 331.083C118.799 331.248 119.134 331.485 119.394 331.794C119.658 332.1 119.831 332.473 119.913 332.916L118.491 333.203C118.459 332.947 118.389 332.724 118.279 332.533C118.17 332.337 118.01 332.184 117.801 332.075C117.591 331.965 117.315 331.911 116.974 331.911C116.573 331.911 116.231 331.995 115.948 332.164C115.67 332.328 115.531 332.574 115.531 332.902C115.531 333.093 115.584 333.257 115.688 333.394C115.798 333.526 115.955 333.636 116.16 333.722C116.365 333.804 116.618 333.877 116.919 333.941L117.787 334.119C118.174 334.192 118.532 334.305 118.86 334.46C119.193 334.611 119.46 334.825 119.66 335.103C119.865 335.376 119.968 335.739 119.968 336.19C119.968 336.687 119.84 337.113 119.585 337.468C119.33 337.824 118.979 338.095 118.532 338.282C118.086 338.469 117.571 338.562 116.987 338.562ZM53.2969 358.702C52.5814 357.781 52.0413 356.792 51.6768 355.735C51.3122 354.678 51.1299 353.575 51.1299 352.426C51.1299 351.282 51.3122 350.18 51.6768 349.118C52.0459 348.056 52.5859 347.062 53.2969 346.137L54.7324 346.137C53.9349 347.19 53.3493 348.218 52.9756 349.22C52.6064 350.218 52.4219 351.287 52.4219 352.426C52.4219 353.584 52.6019 354.662 52.9619 355.66C53.3219 356.658 53.9121 357.672 54.7324 358.702L53.2969 358.702ZM58.5674 356.562C57.9339 356.562 57.3506 356.441 56.8174 356.2C56.2842 355.958 55.8467 355.61 55.5049 355.154C55.1676 354.694 54.9717 354.133 54.917 353.472L56.3799 353.028C56.4209 353.748 56.6283 354.322 57.002 354.75C57.3802 355.179 57.8929 355.393 58.54 355.393C59.1143 355.393 59.5928 355.229 59.9756 354.901C60.3584 354.568 60.5498 354.087 60.5498 353.458C60.5498 353.199 60.4951 352.93 60.3857 352.652C60.2764 352.369 60.0804 352.132 59.7979 351.941C59.5199 351.745 59.1234 351.647 58.6084 351.647L57.3984 351.647L57.3984 350.499L58.5674 350.499C59.1097 350.499 59.5267 350.355 59.8184 350.068C60.11 349.781 60.2559 349.453 60.2559 349.083C60.2559 348.66 60.1077 348.297 59.8115 347.997C59.5153 347.691 59.0915 347.539 58.54 347.539C57.8838 347.539 57.3984 347.725 57.084 348.099C56.7695 348.473 56.5872 349.001 56.5371 349.685L55.0879 349.254C55.1152 348.79 55.2747 348.338 55.5664 347.901C55.8626 347.459 56.2682 347.094 56.7832 346.807C57.3027 346.52 57.9134 346.376 58.6152 346.376C59.1895 346.376 59.7113 346.486 60.1807 346.705C60.6546 346.919 61.0283 347.217 61.3018 347.6C61.5798 347.983 61.7188 348.43 61.7188 348.94C61.7188 349.268 61.6504 349.573 61.5137 349.856C61.3815 350.139 61.1764 350.38 60.8984 350.581C60.625 350.777 60.2718 350.918 59.8389 351.004C60.5452 351.127 61.0967 351.417 61.4932 351.873C61.8896 352.328 62.0879 352.861 62.0879 353.472C62.0879 354.014 61.9876 354.482 61.7871 354.874C61.5911 355.261 61.3245 355.58 60.9873 355.831C60.6501 356.077 60.2718 356.261 59.8525 356.384C59.4378 356.503 59.0094 356.562 58.5674 356.562ZM64.5146 356.562C64.1865 356.562 63.9131 356.455 63.6943 356.241C63.4801 356.022 63.373 355.749 63.373 355.42C63.373 355.092 63.4801 354.821 63.6943 354.607C63.9131 354.388 64.1865 354.279 64.5146 354.279C64.8382 354.279 65.1071 354.388 65.3213 354.607C65.54 354.821 65.6494 355.092 65.6494 355.42C65.6494 355.749 65.54 356.022 65.3213 356.241C65.1071 356.455 64.8382 356.562 64.5146 356.562ZM67.0029 356.391L67.0029 355.461L70.4756 352.549C70.9222 352.171 71.2868 351.827 71.5693 351.517C71.8519 351.203 72.0592 350.884 72.1914 350.56C72.3236 350.236 72.3896 349.879 72.3896 349.487C72.3896 349.049 72.3145 348.687 72.1641 348.4C72.0182 348.113 71.8063 347.899 71.5283 347.757C71.2503 347.616 70.9154 347.545 70.5234 347.545C70.054 347.545 69.6758 347.641 69.3887 347.833C69.1061 348.019 68.8965 348.27 68.7598 348.584C68.6276 348.899 68.5501 349.245 68.5273 349.624L66.9893 349.166C67.0303 348.714 67.2012 348.275 67.502 347.846C67.8027 347.418 68.2106 347.067 68.7256 346.793C69.2406 346.515 69.8398 346.376 70.5234 346.376C70.9154 346.376 71.3096 346.433 71.7061 346.547C72.1071 346.657 72.474 346.832 72.8066 347.074C73.1439 347.311 73.415 347.623 73.6201 348.01C73.8252 348.398 73.9277 348.865 73.9277 349.412C73.9277 350.186 73.7067 350.884 73.2646 351.503C72.8271 352.123 72.2119 352.738 71.4189 353.349L68.8076 355.393L68.0488 355.167L74.0645 355.167L74.0645 356.391L67.0029 356.391ZM79.1025 356.391L79.1025 346.547L82.2881 346.547C83.4502 346.547 84.4027 346.743 85.1455 347.135C85.8929 347.523 86.4443 348.081 86.7998 348.81C87.1553 349.539 87.333 350.407 87.333 351.415C87.333 352.531 87.1279 353.458 86.7178 354.197C86.3076 354.935 85.7197 355.486 84.9541 355.851C84.1885 356.211 83.2747 356.391 82.2129 356.391L79.1025 356.391ZM80.5723 355.167L82.0625 355.167C84.528 355.167 85.7607 353.935 85.7607 351.469C85.7607 350.708 85.6354 350.052 85.3848 349.5C85.1387 348.944 84.749 348.518 84.2158 348.222C83.6872 347.921 82.9945 347.771 82.1377 347.771L80.5723 347.771L80.5723 355.167ZM90.9834 356.555C90.4958 356.555 90.0651 356.464 89.6914 356.282C89.3223 356.099 89.0329 355.844 88.8232 355.516C88.6182 355.188 88.5156 354.807 88.5156 354.375C88.5156 353.905 88.6523 353.486 88.9258 353.117C89.1992 352.743 89.6117 352.449 90.1631 352.235C90.7191 352.016 91.4186 351.907 92.2617 351.907L93.4443 351.907L93.3213 352.043L93.3213 351.633C93.3213 351.073 93.2096 350.644 92.9863 350.348C92.7676 350.052 92.4007 349.904 91.8857 349.904C91.3936 349.904 91.0153 350.031 90.751 350.287C90.4912 350.537 90.3499 350.881 90.3271 351.319L88.8232 351.004C88.8734 350.608 89.0306 350.246 89.2949 349.917C89.5592 349.589 89.917 349.327 90.3682 349.131C90.8239 348.935 91.3594 348.837 91.9746 348.837C92.5853 348.837 93.0889 348.949 93.4854 349.172C93.8818 349.391 94.1758 349.719 94.3672 350.157C94.5632 350.59 94.6611 351.13 94.6611 351.777L94.6611 354.915C94.6611 355.065 94.6816 355.165 94.7227 355.215C94.7682 355.265 94.8617 355.291 95.0029 355.291L95.3994 355.291L95.3994 356.391L94.5996 356.391C94.2305 356.391 93.932 356.284 93.7041 356.07C93.4762 355.856 93.3623 355.573 93.3623 355.222L93.3623 354.75L93.5811 354.785C93.5127 354.981 93.4124 355.181 93.2803 355.386C93.1527 355.591 92.9841 355.783 92.7744 355.96C92.5693 356.138 92.3187 356.282 92.0225 356.391C91.7262 356.5 91.3799 356.555 90.9834 356.555ZM91.332 355.482C91.6921 355.482 92.0225 355.395 92.3232 355.222C92.6286 355.044 92.8724 354.771 93.0547 354.402C93.237 354.033 93.3281 353.556 93.3281 352.973L93.3281 352.884L92.2549 352.884C91.6807 352.884 91.2295 352.959 90.9014 353.11C90.5732 353.26 90.3408 353.447 90.2041 353.67C90.0719 353.889 90.0059 354.106 90.0059 354.32C90.0059 354.529 90.0514 354.723 90.1426 354.901C90.2383 355.074 90.3841 355.215 90.5801 355.325C90.776 355.43 91.0267 355.482 91.332 355.482ZM96.8691 359.057L96.8691 357.957L98.0244 357.957C98.111 357.957 98.1771 357.931 98.2227 357.881C98.2682 357.831 98.3115 357.751 98.3525 357.642L98.8447 356.248L98.7285 356.835L95.6934 349.008L97.2451 349.008L99.4805 355.584L99.2412 355.53L101.463 349.008L103.008 349.008L99.5078 358.121C99.3939 358.43 99.2093 358.663 98.9541 358.818C98.7035 358.977 98.43 359.057 98.1338 359.057L96.8691 359.057ZM106.822 356.562C106.28 356.562 105.783 356.475 105.332 356.302C104.881 356.129 104.505 355.867 104.204 355.516C103.908 355.161 103.712 354.707 103.616 354.156L104.997 353.889C105.043 354.422 105.225 354.821 105.544 355.085C105.868 355.35 106.28 355.482 106.781 355.482C107.283 355.482 107.672 355.363 107.95 355.126C108.233 354.885 108.374 354.596 108.374 354.258C108.374 353.967 108.271 353.732 108.066 353.554C107.866 353.376 107.558 353.251 107.144 353.178L106.31 353.021C106.063 352.98 105.804 352.921 105.53 352.843C105.261 352.761 105.008 352.647 104.771 352.501C104.539 352.356 104.348 352.162 104.197 351.92C104.051 351.679 103.979 351.374 103.979 351.004C103.979 350.517 104.106 350.116 104.361 349.801C104.617 349.482 104.958 349.243 105.387 349.083C105.82 348.919 106.294 348.837 106.809 348.837C107.342 348.837 107.813 348.919 108.224 349.083C108.634 349.248 108.969 349.485 109.229 349.794C109.493 350.1 109.666 350.473 109.748 350.916L108.326 351.203C108.294 350.947 108.224 350.724 108.114 350.533C108.005 350.337 107.845 350.184 107.636 350.075C107.426 349.965 107.15 349.911 106.809 349.911C106.408 349.911 106.066 349.995 105.783 350.164C105.505 350.328 105.366 350.574 105.366 350.902C105.366 351.093 105.419 351.257 105.523 351.394C105.633 351.526 105.79 351.636 105.995 351.722C106.2 351.804 106.453 351.877 106.754 351.941L107.622 352.119C108.009 352.192 108.367 352.305 108.695 352.46C109.028 352.611 109.295 352.825 109.495 353.103C109.7 353.376 109.803 353.739 109.803 354.19C109.803 354.687 109.675 355.113 109.42 355.468C109.165 355.824 108.814 356.095 108.367 356.282C107.921 356.469 107.406 356.562 106.822 356.562ZM110.268 358.702C111.088 357.672 111.678 356.658 112.038 355.66C112.398 354.662 112.578 353.584 112.578 352.426C112.578 351.287 112.394 350.218 112.024 349.22C111.655 348.218 111.07 347.19 110.268 346.137L111.703 346.137C112.414 347.062 112.952 348.056 113.316 349.118C113.686 350.18 113.87 351.282 113.87 352.426C113.87 353.575 113.688 354.678 113.323 355.735C112.959 356.792 112.419 357.781 111.703 358.702L110.268 358.702Z" fill="#302D27"/>
<path d="M69.8539 261.397H84.6397V284.394H71.4968C71.0611 284.394 70.6432 284.221 70.3351 283.913C70.027 283.605 69.8539 283.187 69.8539 282.751V261.397Z" stroke="#EA8541" stroke-width="1.5" stroke-linecap="round" stroke-linejoin="round"/>
<path d="M84.6371 261.397H97.78" stroke="#EA8541" stroke-width="1.5" stroke-linecap="round" stroke-linejoin="round"/>
<path d="M97.78 271.252V282.751C97.78 283.186 97.6069 283.604 97.2988 283.912C96.9907 284.22 96.5729 284.393 96.1371 284.393H84.6371" stroke="#EA8541" stroke-width="1.5" stroke-linecap="round" stroke-linejoin="round"/>
<path d="M84.6371 261.397L88.3303 270.243C88.4551 270.542 88.6657 270.797 88.9356 270.977C89.2054 271.157 89.5224 271.253 89.8466 271.253H100.652C100.787 271.253 100.92 271.219 101.039 271.155C101.159 271.092 101.26 270.999 101.335 270.887C101.41 270.774 101.456 270.645 101.469 270.511C101.481 270.376 101.461 270.241 101.409 270.116L97.78 261.397" stroke="#EA8541" stroke-width="1.5" stroke-linecap="round" stroke-linejoin="round"/>
<path d="M69.8528 261.397L65.1329 269.848C65.0481 269.989 65.0023 270.15 65.0001 270.314C64.9979 270.478 65.0393 270.64 65.1202 270.783C65.2011 270.926 65.3186 271.045 65.4605 271.127C65.6024 271.21 65.7638 271.253 65.928 271.253H69.8528" stroke="#EA8541" stroke-width="1.5" stroke-linecap="round" stroke-linejoin="round"/>
<rect x="206" y="209" width="166" height="172" rx="10" fill="#F5F5F5"/>
<rect x="206.5" y="209.5" width="165" height="171" rx="9.5" stroke="#302D27" stroke-opacity="0.15"/>
<path d="M231.576 320.391L235.63 310.547L237.257 310.547L241.29 320.391L239.718 320.391L236.437 311.901L233.148 320.391L231.576 320.391ZM233.798 317.308L233.798 316.112L239.062 316.112L239.062 317.308L233.798 317.308ZM243.628 320.391L240.846 313.008L242.391 313.008L244.592 319.523L244.387 319.523L246.574 313.008L248.119 313.008L245.351 320.391L243.628 320.391ZM252.364 320.562C251.653 320.562 251.034 320.405 250.505 320.09C249.976 319.771 249.564 319.325 249.268 318.75C248.976 318.172 248.83 317.488 248.83 316.7C248.83 315.911 248.976 315.23 249.268 314.656C249.559 314.077 249.967 313.63 250.491 313.316C251.015 312.997 251.626 312.837 252.323 312.837C252.72 312.837 253.118 312.901 253.52 313.029C253.921 313.152 254.287 313.368 254.62 313.678C254.953 313.988 255.219 314.414 255.42 314.957C255.62 315.494 255.721 316.178 255.721 317.007L249.726 317.007L249.726 316.016L254.504 316.016L254.203 316.426C254.18 315.825 254.08 315.342 253.902 314.977C253.729 314.608 253.501 314.341 253.219 314.177C252.941 314.009 252.633 313.924 252.296 313.924C251.881 313.924 251.526 314.036 251.229 314.259C250.938 314.478 250.715 314.795 250.56 315.209C250.405 315.624 250.327 316.125 250.327 316.713C250.327 317.579 250.5 318.254 250.847 318.737C251.198 319.215 251.701 319.455 252.357 319.455C252.822 319.455 253.214 319.338 253.533 319.106C253.852 318.869 254.089 318.525 254.244 318.074L255.563 318.477C255.386 318.928 255.142 319.309 254.832 319.619C254.522 319.929 254.158 320.163 253.738 320.323C253.319 320.482 252.861 320.562 252.364 320.562ZM257.389 320.391L257.389 313.008L258.708 313.008L258.708 314.601L258.66 314.41C258.883 313.89 259.212 313.498 259.645 313.234C260.082 312.97 260.533 312.837 260.998 312.837C261.13 312.837 261.262 312.849 261.395 312.872C261.527 312.894 261.652 312.933 261.771 312.988L261.613 314.252C261.354 314.17 261.096 314.129 260.841 314.129C260.668 314.129 260.463 314.164 260.226 314.232C259.993 314.296 259.768 314.421 259.549 314.608C259.33 314.795 259.146 315.07 258.995 315.435C258.849 315.795 258.776 316.269 258.776 316.857L258.776 320.391L257.389 320.391ZM264.751 320.555C264.263 320.555 263.833 320.464 263.459 320.282C263.09 320.099 262.8 319.844 262.591 319.516C262.386 319.188 262.283 318.807 262.283 318.375C262.283 317.905 262.42 317.486 262.693 317.117C262.967 316.743 263.379 316.449 263.931 316.235C264.487 316.016 265.186 315.907 266.029 315.907L267.212 315.907L267.089 316.043L267.089 315.633C267.089 315.073 266.977 314.644 266.754 314.348C266.535 314.052 266.168 313.904 265.653 313.904C265.161 313.904 264.783 314.031 264.519 314.287C264.259 314.537 264.118 314.881 264.095 315.319L262.591 315.004C262.641 314.608 262.798 314.246 263.063 313.917C263.327 313.589 263.685 313.327 264.136 313.131C264.591 312.935 265.127 312.837 265.742 312.837C266.353 312.837 266.856 312.949 267.253 313.172C267.649 313.391 267.943 313.719 268.135 314.157C268.331 314.59 268.429 315.13 268.429 315.777L268.429 318.915C268.429 319.065 268.449 319.165 268.49 319.215C268.536 319.265 268.629 319.291 268.771 319.291L269.167 319.291L269.167 320.391L268.367 320.391C267.998 320.391 267.7 320.284 267.472 320.07C267.244 319.856 267.13 319.573 267.13 319.222L267.13 318.75L267.349 318.785C267.28 318.981 267.18 319.181 267.048 319.386C266.92 319.591 266.752 319.783 266.542 319.96C266.337 320.138 266.086 320.282 265.79 320.391C265.494 320.5 265.147 320.555 264.751 320.555ZM265.1 319.482C265.46 319.482 265.79 319.395 266.091 319.222C266.396 319.044 266.64 318.771 266.822 318.402C267.005 318.033 267.096 317.556 267.096 316.973L267.096 316.884L266.022 316.884C265.448 316.884 264.997 316.959 264.669 317.11C264.341 317.26 264.108 317.447 263.972 317.67C263.84 317.889 263.773 318.106 263.773 318.32C263.773 318.529 263.819 318.723 263.91 318.901C264.006 319.074 264.152 319.215 264.348 319.325C264.544 319.43 264.794 319.482 265.1 319.482ZM273.357 323.228C272.232 323.228 271.402 323.073 270.869 322.763C270.336 322.453 270.069 321.975 270.069 321.328C270.069 320.954 270.165 320.628 270.356 320.35C270.548 320.072 270.86 319.86 271.293 319.714C271.12 319.605 270.979 319.464 270.869 319.291C270.764 319.117 270.712 318.924 270.712 318.709C270.712 318.445 270.794 318.213 270.958 318.012C271.122 317.807 271.357 317.659 271.662 317.568C271.298 317.349 271.013 317.057 270.808 316.693C270.607 316.328 270.507 315.907 270.507 315.428C270.507 314.9 270.628 314.442 270.869 314.054C271.111 313.667 271.455 313.368 271.901 313.159C272.348 312.944 272.877 312.837 273.487 312.837C274.098 312.837 274.627 312.944 275.073 313.159C275.524 313.368 275.873 313.669 276.119 314.061C276.365 314.448 276.488 314.909 276.488 315.442C276.488 315.966 276.365 316.419 276.119 316.802C275.873 317.185 275.524 317.481 275.073 317.691C274.622 317.901 274.087 318.005 273.467 318.005L272.872 318.005C272.33 318.005 272.059 318.163 272.059 318.477C272.059 318.778 272.323 318.928 272.852 318.928L274.335 318.928C274.896 318.928 275.354 318.994 275.709 319.126C276.064 319.254 276.34 319.425 276.536 319.639C276.737 319.849 276.876 320.079 276.953 320.33C277.031 320.58 277.069 320.829 277.069 321.075C277.069 321.804 276.798 322.344 276.256 322.695C275.714 323.05 274.875 323.228 273.74 323.228L273.357 323.228ZM273.371 322.203L273.747 322.203C275.009 322.203 275.641 321.824 275.641 321.068C275.641 320.758 275.527 320.505 275.299 320.309C275.076 320.109 274.686 320.008 274.13 320.008L272.94 320.008C272.535 320.008 272.188 320.095 271.901 320.268C271.619 320.437 271.478 320.717 271.478 321.109C271.478 321.478 271.63 321.751 271.936 321.929C272.245 322.111 272.724 322.203 273.371 322.203ZM273.487 317.069C274.016 317.069 274.422 316.93 274.704 316.652C274.991 316.369 275.135 315.966 275.135 315.442C275.135 314.918 274.991 314.512 274.704 314.225C274.422 313.933 274.016 313.788 273.487 313.788C272.963 313.788 272.56 313.931 272.277 314.218C271.995 314.505 271.854 314.913 271.854 315.442C271.854 315.966 271.995 316.369 272.277 316.652C272.56 316.93 272.963 317.069 273.487 317.069ZM274.67 313.692L274.67 312.954C274.67 312.603 274.788 312.322 275.025 312.113C275.267 311.899 275.568 311.792 275.928 311.792L276.769 311.792L276.769 312.892L276.017 312.892C275.875 312.892 275.782 312.917 275.736 312.967C275.695 313.017 275.675 313.118 275.675 313.268L275.675 313.692L274.67 313.692ZM281.567 320.562C280.856 320.562 280.237 320.405 279.708 320.09C279.179 319.771 278.767 319.325 278.471 318.75C278.179 318.172 278.033 317.488 278.033 316.7C278.033 315.911 278.179 315.23 278.471 314.656C278.762 314.077 279.17 313.63 279.694 313.316C280.218 312.997 280.829 312.837 281.526 312.837C281.923 312.837 282.322 312.901 282.723 313.029C283.124 313.152 283.491 313.368 283.823 313.678C284.156 313.988 284.423 314.414 284.623 314.957C284.824 315.494 284.924 316.178 284.924 317.007L278.929 317.007L278.929 316.016L283.707 316.016L283.406 316.426C283.383 315.825 283.283 315.342 283.105 314.977C282.932 314.608 282.704 314.341 282.422 314.177C282.144 314.009 281.836 313.924 281.499 313.924C281.084 313.924 280.729 314.036 280.433 314.259C280.141 314.478 279.918 314.795 279.763 315.209C279.608 315.624 279.53 316.125 279.53 316.713C279.53 317.579 279.703 318.254 280.05 318.737C280.401 319.215 280.904 319.455 281.561 319.455C282.025 319.455 282.417 319.338 282.736 319.106C283.055 318.869 283.292 318.525 283.447 318.074L284.767 318.477C284.589 318.928 284.345 319.309 284.035 319.619C283.725 319.929 283.361 320.163 282.941 320.323C282.522 320.482 282.064 320.562 281.567 320.562ZM289.463 320.391L289.463 319.222L290.789 319.222L290.789 311.716L289.463 311.716L289.463 310.547L293.578 310.547L293.578 311.716L292.259 311.716L292.259 319.222L293.578 319.222L293.578 320.391L289.463 320.391ZM295.164 320.391L295.164 313.008L296.483 313.008L296.483 314.683L296.436 314.382C296.641 313.94 296.953 313.573 297.372 313.282C297.791 312.986 298.302 312.837 298.903 312.837C299.441 312.837 299.897 312.958 300.271 313.2C300.644 313.441 300.929 313.781 301.125 314.218C301.326 314.656 301.426 315.178 301.426 315.784L301.426 320.391L300.038 320.391L300.038 315.886C300.038 315.298 299.924 314.829 299.696 314.478C299.468 314.127 299.088 313.952 298.555 313.952C297.971 313.952 297.491 314.182 297.112 314.642C296.739 315.102 296.552 315.775 296.552 316.659L296.552 320.391L295.164 320.391ZM307.182 320.562C306.68 320.562 306.2 320.439 305.739 320.193C305.279 319.947 304.924 319.539 304.673 318.969L304.748 318.921L304.748 320.391L303.436 320.391L303.436 310.137L304.823 310.137L304.823 314.533L304.714 314.423C304.928 313.886 305.263 313.487 305.719 313.227C306.174 312.967 306.664 312.837 307.188 312.837C307.795 312.837 308.326 312.995 308.781 313.309C309.237 313.624 309.59 314.07 309.841 314.649C310.096 315.228 310.224 315.914 310.224 316.707C310.224 317.504 310.096 318.192 309.841 318.771C309.586 319.345 309.23 319.787 308.774 320.097C308.319 320.407 307.788 320.562 307.182 320.562ZM306.751 319.441C307.334 319.441 307.808 319.202 308.173 318.723C308.537 318.245 308.72 317.563 308.72 316.679C308.72 315.818 308.542 315.148 308.187 314.669C307.836 314.191 307.362 313.952 306.765 313.952C306.405 313.952 306.072 314.05 305.767 314.246C305.466 314.437 305.224 314.733 305.042 315.134C304.864 315.535 304.775 316.05 304.775 316.679C304.775 317.613 304.967 318.308 305.35 318.764C305.737 319.215 306.204 319.441 306.751 319.441ZM315.289 320.562C314.583 320.562 313.958 320.398 313.416 320.07C312.878 319.742 312.459 319.288 312.158 318.709C311.857 318.131 311.707 317.461 311.707 316.7C311.707 315.939 311.857 315.269 312.158 314.69C312.459 314.111 312.878 313.658 313.416 313.33C313.958 313.001 314.583 312.837 315.289 312.837C315.995 312.837 316.618 313.001 317.155 313.33C317.698 313.658 318.119 314.111 318.42 314.69C318.721 315.269 318.871 315.939 318.871 316.7C318.871 317.461 318.721 318.131 318.42 318.709C318.119 319.288 317.698 319.742 317.155 320.07C316.618 320.398 315.995 320.562 315.289 320.562ZM315.289 319.455C315.936 319.455 316.447 319.208 316.82 318.716C317.194 318.22 317.381 317.547 317.381 316.7C317.381 315.847 317.194 315.175 316.82 314.683C316.447 314.191 315.936 313.945 315.289 313.945C314.642 313.945 314.132 314.191 313.758 314.683C313.384 315.175 313.197 315.847 313.197 316.7C313.197 317.547 313.384 318.22 313.758 318.716C314.132 319.208 314.642 319.455 315.289 319.455ZM322.945 320.562C322.417 320.562 321.963 320.441 321.585 320.2C321.211 319.958 320.924 319.619 320.724 319.181C320.528 318.739 320.43 318.217 320.43 317.616L320.43 313.008L321.817 313.008L321.817 317.486C321.817 318.087 321.929 318.566 322.152 318.921C322.376 319.272 322.761 319.448 323.308 319.448C323.7 319.448 324.044 319.347 324.34 319.147C324.641 318.942 324.875 318.63 325.044 318.21C325.217 317.791 325.304 317.26 325.304 316.618L325.304 313.008L326.691 313.008L326.691 320.391L325.372 320.391L325.372 318.655L325.42 318.956C325.219 319.425 324.907 319.81 324.483 320.111C324.064 320.412 323.551 320.562 322.945 320.562ZM328.811 320.391L328.811 313.008L330.13 313.008L330.13 314.683L330.082 314.382C330.287 313.94 330.599 313.573 331.019 313.282C331.438 312.986 331.948 312.837 332.55 312.837C333.088 312.837 333.543 312.958 333.917 313.2C334.291 313.441 334.576 313.781 334.771 314.218C334.972 314.656 335.072 315.178 335.072 315.784L335.072 320.391L333.685 320.391L333.685 315.886C333.685 315.298 333.571 314.829 333.343 314.478C333.115 314.127 332.734 313.952 332.201 313.952C331.618 313.952 331.137 314.182 330.759 314.642C330.385 315.102 330.198 315.775 330.198 316.659L330.198 320.391L328.811 320.391ZM339.714 320.562C339.112 320.562 338.581 320.405 338.121 320.09C337.665 319.776 337.312 319.329 337.062 318.75C336.811 318.172 336.686 317.486 336.686 316.693C336.686 315.895 336.811 315.209 337.062 314.635C337.317 314.056 337.672 313.612 338.128 313.302C338.588 312.992 339.121 312.837 339.728 312.837C340.224 312.837 340.703 312.96 341.163 313.207C341.628 313.453 341.983 313.861 342.229 314.43L342.079 314.478L342.079 310.137L343.467 310.137L343.467 320.391L342.154 320.391L342.154 318.867L342.188 318.976C341.974 319.514 341.639 319.913 341.184 320.172C340.732 320.432 340.243 320.562 339.714 320.562ZM340.138 319.441C340.507 319.441 340.842 319.345 341.143 319.154C341.443 318.962 341.683 318.666 341.86 318.265C342.043 317.86 342.134 317.345 342.134 316.72C342.134 315.781 341.94 315.086 341.553 314.635C341.165 314.18 340.698 313.952 340.151 313.952C339.573 313.952 339.099 314.193 338.729 314.676C338.365 315.155 338.183 315.836 338.183 316.72C338.183 317.582 338.358 318.251 338.709 318.73C339.064 319.204 339.541 319.441 340.138 319.441ZM260.321 340.702C259.606 339.781 259.066 338.792 258.701 337.735C258.337 336.678 258.154 335.575 258.154 334.426C258.154 333.282 258.337 332.18 258.701 331.118C259.07 330.056 259.61 329.062 260.321 328.137L261.757 328.137C260.959 329.19 260.374 330.218 260 331.22C259.631 332.218 259.446 333.287 259.446 334.426C259.446 335.584 259.626 336.662 259.986 337.66C260.346 338.658 260.937 339.672 261.757 340.702L260.321 340.702ZM263.938 338.391L263.938 330.769C263.568 331.097 263.222 331.371 262.898 331.589C262.579 331.804 262.219 331.984 261.818 332.129L261.818 330.721C262.042 330.621 262.274 330.498 262.516 330.352C262.757 330.202 263.024 329.985 263.315 329.703C263.612 329.42 263.944 329.035 264.313 328.547L265.38 328.547L265.38 338.391L263.938 338.391ZM268.477 338.562C268.148 338.562 267.875 338.455 267.656 338.241C267.442 338.022 267.335 337.749 267.335 337.42C267.335 337.092 267.442 336.821 267.656 336.607C267.875 336.388 268.148 336.279 268.477 336.279C268.8 336.279 269.069 336.388 269.283 336.607C269.502 336.821 269.611 337.092 269.611 337.42C269.611 337.749 269.502 338.022 269.283 338.241C269.069 338.455 268.8 338.562 268.477 338.562ZM274.472 338.562C273.788 338.562 273.177 338.439 272.64 338.193C272.102 337.947 271.678 337.6 271.368 337.154C271.063 336.703 270.91 336.181 270.91 335.588C270.91 334.959 271.099 334.403 271.478 333.92C271.86 333.437 272.419 333.134 273.152 333.011C272.756 332.925 272.412 332.783 272.12 332.587C271.833 332.387 271.612 332.141 271.457 331.849C271.307 331.557 271.231 331.234 271.231 330.878C271.231 330.391 271.368 329.958 271.642 329.58C271.92 329.201 272.302 328.907 272.79 328.698C273.282 328.484 273.845 328.376 274.479 328.376C275.121 328.376 275.684 328.484 276.167 328.698C276.655 328.907 277.035 329.201 277.309 329.58C277.582 329.958 277.719 330.391 277.719 330.878C277.719 331.234 277.641 331.557 277.486 331.849C277.336 332.141 277.117 332.387 276.83 332.587C276.548 332.783 276.206 332.925 275.805 333.011C276.538 333.134 277.094 333.437 277.473 333.92C277.855 334.403 278.047 334.959 278.047 335.588C278.047 336.181 277.892 336.703 277.582 337.154C277.277 337.6 276.855 337.947 276.317 338.193C275.78 338.439 275.164 338.562 274.472 338.562ZM274.479 337.325C275.117 337.325 275.618 337.161 275.982 336.833C276.347 336.5 276.529 336.046 276.529 335.472C276.529 334.907 276.347 334.458 275.982 334.125C275.618 333.788 275.117 333.62 274.479 333.62C273.85 333.62 273.348 333.788 272.975 334.125C272.601 334.458 272.414 334.907 272.414 335.472C272.414 336.051 272.601 336.504 272.975 336.833C273.348 337.161 273.85 337.325 274.479 337.325ZM274.479 332.505C275.03 332.505 275.463 332.378 275.777 332.123C276.096 331.863 276.256 331.503 276.256 331.042C276.256 330.569 276.096 330.193 275.777 329.915C275.463 329.632 275.03 329.491 274.479 329.491C273.927 329.491 273.492 329.632 273.173 329.915C272.854 330.193 272.694 330.569 272.694 331.042C272.694 331.503 272.854 331.863 273.173 332.123C273.492 332.378 273.927 332.505 274.479 332.505ZM283.078 338.391L283.078 328.547L286.264 328.547C287.426 328.547 288.378 328.743 289.121 329.135C289.868 329.523 290.42 330.081 290.775 330.81C291.131 331.539 291.309 332.407 291.309 333.415C291.309 334.531 291.104 335.458 290.693 336.197C290.283 336.935 289.695 337.486 288.93 337.851C288.164 338.211 287.25 338.391 286.188 338.391L283.078 338.391ZM284.548 337.167L286.038 337.167C288.504 337.167 289.736 335.935 289.736 333.469C289.736 332.708 289.611 332.052 289.36 331.5C289.114 330.944 288.725 330.518 288.191 330.222C287.663 329.921 286.97 329.771 286.113 329.771L284.548 329.771L284.548 337.167ZM294.959 338.555C294.471 338.555 294.041 338.464 293.667 338.282C293.298 338.099 293.008 337.844 292.799 337.516C292.594 337.188 292.491 336.807 292.491 336.375C292.491 335.905 292.628 335.486 292.901 335.117C293.175 334.743 293.587 334.449 294.139 334.235C294.695 334.016 295.394 333.907 296.237 333.907L297.42 333.907L297.297 334.043L297.297 333.633C297.297 333.073 297.185 332.644 296.962 332.348C296.743 332.052 296.376 331.904 295.861 331.904C295.369 331.904 294.991 332.031 294.727 332.287C294.467 332.537 294.326 332.881 294.303 333.319L292.799 333.004C292.849 332.608 293.006 332.246 293.271 331.917C293.535 331.589 293.893 331.327 294.344 331.131C294.799 330.935 295.335 330.837 295.95 330.837C296.561 330.837 297.064 330.949 297.461 331.172C297.857 331.391 298.151 331.719 298.343 332.157C298.539 332.59 298.637 333.13 298.637 333.777L298.637 336.915C298.637 337.065 298.657 337.165 298.698 337.215C298.744 337.265 298.837 337.291 298.979 337.291L299.375 337.291L299.375 338.391L298.575 338.391C298.206 338.391 297.908 338.284 297.68 338.07C297.452 337.856 297.338 337.573 297.338 337.222L297.338 336.75L297.557 336.785C297.488 336.981 297.388 337.181 297.256 337.386C297.128 337.591 296.96 337.783 296.75 337.96C296.545 338.138 296.294 338.282 295.998 338.391C295.702 338.5 295.355 338.555 294.959 338.555ZM295.308 337.482C295.668 337.482 295.998 337.395 296.299 337.222C296.604 337.044 296.848 336.771 297.03 336.402C297.213 336.033 297.304 335.556 297.304 334.973L297.304 334.884L296.23 334.884C295.656 334.884 295.205 334.959 294.877 335.11C294.549 335.26 294.316 335.447 294.18 335.67C294.048 335.889 293.981 336.106 293.981 336.32C293.981 336.529 294.027 336.723 294.118 336.901C294.214 337.074 294.36 337.215 294.556 337.325C294.752 337.43 295.002 337.482 295.308 337.482ZM300.845 341.057L300.845 339.957L302 339.957C302.087 339.957 302.153 339.931 302.198 339.881C302.244 339.831 302.287 339.751 302.328 339.642L302.82 338.248L302.704 338.835L299.669 331.008L301.221 331.008L303.456 337.584L303.217 337.53L305.438 331.008L306.983 331.008L303.483 340.121C303.369 340.43 303.185 340.663 302.93 340.818C302.679 340.977 302.406 341.057 302.109 341.057L300.845 341.057ZM310.798 338.562C310.256 338.562 309.759 338.475 309.308 338.302C308.856 338.129 308.48 337.867 308.18 337.516C307.883 337.161 307.688 336.707 307.592 336.156L308.973 335.889C309.018 336.422 309.201 336.821 309.52 337.085C309.843 337.35 310.256 337.482 310.757 337.482C311.258 337.482 311.648 337.363 311.926 337.126C312.208 336.885 312.35 336.596 312.35 336.258C312.35 335.967 312.247 335.732 312.042 335.554C311.841 335.376 311.534 335.251 311.119 335.178L310.285 335.021C310.039 334.98 309.779 334.921 309.506 334.843C309.237 334.761 308.984 334.647 308.747 334.501C308.515 334.356 308.323 334.162 308.173 333.92C308.027 333.679 307.954 333.374 307.954 333.004C307.954 332.517 308.082 332.116 308.337 331.801C308.592 331.482 308.934 331.243 309.362 331.083C309.795 330.919 310.269 330.837 310.784 330.837C311.317 330.837 311.789 330.919 312.199 331.083C312.609 331.248 312.944 331.485 313.204 331.794C313.468 332.1 313.642 332.473 313.724 332.916L312.302 333.203C312.27 332.947 312.199 332.724 312.09 332.533C311.98 332.337 311.821 332.184 311.611 332.075C311.402 331.965 311.126 331.911 310.784 331.911C310.383 331.911 310.041 331.995 309.759 332.164C309.481 332.328 309.342 332.574 309.342 332.902C309.342 333.093 309.394 333.257 309.499 333.394C309.608 333.526 309.766 333.636 309.971 333.722C310.176 333.804 310.429 333.877 310.729 333.941L311.598 334.119C311.985 334.192 312.343 334.305 312.671 334.46C313.004 334.611 313.27 334.825 313.471 335.103C313.676 335.376 313.778 335.739 313.778 336.19C313.778 336.687 313.651 337.113 313.396 337.468C313.14 337.824 312.789 338.095 312.343 338.282C311.896 338.469 311.381 338.562 310.798 338.562ZM314.243 340.702C315.063 339.672 315.654 338.658 316.014 337.66C316.374 336.662 316.554 335.584 316.554 334.426C316.554 333.287 316.369 332.218 316 331.22C315.631 330.218 315.045 329.19 314.243 328.137L315.679 328.137C316.39 329.062 316.927 330.056 317.292 331.118C317.661 332.18 317.846 333.282 317.846 334.426C317.846 335.575 317.663 336.678 317.299 337.735C316.934 338.792 316.394 339.781 315.679 340.702L314.243 340.702Z" fill="#302D27"/>
<path d="M302.285 261.397L286.953 280.403C286.843 280.55 286.703 280.671 286.542 280.76C286.381 280.848 286.203 280.901 286.02 280.916C285.837 280.931 285.654 280.907 285.481 280.845C285.308 280.784 285.15 280.686 285.017 280.559L279.547 275.038" stroke="#EA8541" stroke-width="1.66706" stroke-linecap="round" stroke-linejoin="round"/>
<path d="M298.388 274.389V288.03C298.388 288.374 298.251 288.705 298.007 288.948C297.763 289.192 297.433 289.329 297.088 289.329H276.299C275.955 289.329 275.624 289.192 275.381 288.948C275.137 288.705 275 288.374 275 288.03V267.243C275 266.899 275.137 266.568 275.381 266.325C275.624 266.081 275.955 265.944 276.299 265.944H291.241" stroke="#EA8541" stroke-width="1.66706" stroke-linecap="round" stroke-linejoin="round"/>
</svg>
