<svg width="1438" height="177" viewBox="0 0 1438 177" fill="none" xmlns="http://www.w3.org/2000/svg">
<path opacity="0.3" d="M1 176L19.6623 166.574C38.3247 157.149 75.6494 138.297 112.974 122.165C150.299 106.032 187.623 92.6183 224.948 96.6721C262.273 100.726 299.597 122.247 336.922 117.791C374.247 113.336 411.571 82.9026 448.896 79.0404C486.221 75.1781 523.545 97.8864 560.87 96.2148C598.195 94.5433 651.874 43.7186 689.198 25.5826C726.523 7.44656 763.847 -2.77398 801.172 4.19861C838.497 11.1712 875.822 35.3369 913.146 41.2345C950.471 47.1321 987.796 34.7615 1025.12 33.1749C1062.44 31.5883 1083.42 65.5588 1120.74 69.2542C1158.06 72.9496 1195.39 71.1431 1232.71 54.9686C1270.04 38.794 1307.36 8.25149 1344.69 2.19647C1382.01 -3.85854 1419.34 14.574 1438 23.7902" stroke="white" stroke-dasharray="10 10"/>
</svg>
