<svg width="100" height="24" viewBox="0 0 100 24" fill="none" xmlns="http://www.w3.org/2000/svg">
<path d="M97.368 5.29849L99.7531 7.71501C99.8366 7.78177 99.8983 7.87187 99.9303 7.97393C99.9789 8.56871 99.5314 8.60126 99.0743 8.63449C98.8766 8.64887 98.6771 8.66342 98.5154 8.72368C97.7131 8.94212 96.9977 9.4035 96.4657 10.0452C95.9332 10.6869 95.6103 11.4779 95.54 12.3107C95.4886 12.4069 95.4109 12.4861 95.3154 12.5387C95.2206 12.5914 95.1126 12.6152 95.004 12.6074C94.8783 12.5962 94.7606 12.5408 94.6714 12.4509L93.8886 11.6578C93.8943 11.7121 93.8943 11.7658 93.8943 11.8091V12.3323C93.8943 12.3653 93.8954 12.3972 93.8914 12.429C93.8863 12.4646 93.8743 12.5002 93.8463 12.5372V12.5858C93.8463 12.6106 93.8491 12.6336 93.852 12.657C93.8577 12.7049 93.864 12.7543 93.8463 12.8231C93.8291 12.8874 93.8274 12.9623 93.8251 13.0292C93.8246 13.0689 93.8234 13.1058 93.8194 13.1359C93.8137 13.1777 93.8137 13.2224 93.8103 13.2669C93.8069 13.3087 93.8 13.3504 93.7817 13.3895C93.7566 13.4442 93.748 13.4965 93.7457 13.5496C93.744 13.575 93.744 13.6006 93.744 13.6268L93.712 13.794L92.4954 19.6303L92.3989 20.0672L92.3612 20.7037L91.8251 23.4601L91.7394 23.8916H48.357L48.1479 23.6812L48.1104 23.8646H43.4682L40.8845 21.2486L41.131 20.0672H39.673L38.7671 19.1449C37.6428 19.9687 36.2819 20.4005 34.8914 20.3747C33.3967 20.4339 31.9395 19.8947 30.8389 18.8752L29.4291 17.4458L29.1235 18.8805C29.0861 19.0855 29.0378 19.2798 28.9842 19.4685L28.9359 19.6465L28.8555 19.9054C28.8489 19.9279 28.8399 19.9496 28.8287 19.9702C28.7489 20.208 28.6541 20.4404 28.5446 20.666C28.5475 20.6747 28.5475 20.6842 28.5446 20.6929C28.5306 20.7228 28.5145 20.7516 28.4963 20.7792C28.4154 20.9404 28.326 21.097 28.2283 21.2486C28.2102 21.2761 28.1941 21.305 28.1801 21.3349L28.1211 21.3996C27.9901 21.5887 27.8469 21.7688 27.6923 21.939C27.6499 21.9816 27.6075 22.0217 27.5644 22.061C27.5204 22.1013 27.4757 22.1408 27.4296 22.1817L27.3117 22.2949C27.2374 22.3571 27.1613 22.4171 27.0837 22.4749C27.0196 22.5225 26.9545 22.5686 26.8882 22.6132C25.7835 23.2719 24.5091 23.5854 23.227 23.514C21.4581 23.514 20.0429 22.9962 19.1477 22.09L16.6282 19.5386C15.6219 20.1117 14.4824 20.4058 13.3262 20.3909C11.8359 20.4373 10.3875 19.8908 9.29509 18.8698L7.88531 17.4404L7.42966 19.6465L7.33851 20.0834H2.59449L0 17.4511L0.134012 16.8147L2.9858 3.033L3.07155 2.60149H7.83166L7.95497 2.72018V2.60149H40.0268L40.1447 2.72018V2.60149H44.7869L47.3814 5.23376L47.2527 5.86485L47.1134 6.55529H48.4481L48.6572 6.76569C49.2445 6.41933 49.9116 6.23338 50.5923 6.22627C51.0929 6.21633 51.59 6.312 52.0516 6.5071C52.5133 6.70221 52.9291 6.99235 53.2726 7.35897L53.2029 7.27807L54.4626 8.55647C55.2291 7.10551 56.9498 6.22627 59.2869 6.22627C61.0989 6.22627 62.4337 6.69013 63.2429 7.53159L64.1543 8.454L64.46 6.97062L64.5509 6.5391H69.1983L70.528 7.88222L70.7154 6.97602L70.8069 6.5445H79.952L80.1983 6.79265C80.8177 6.42486 81.5269 6.23806 82.2463 6.25323C82.6789 6.23624 83.1097 6.31595 83.5086 6.48662C83.9069 6.6573 84.2629 6.91473 84.5509 7.24035C84.536 7.22339 84.5217 7.20642 84.5074 7.18975C84.4817 7.15881 84.456 7.12863 84.4286 7.10068L84.8943 7.56936C85.3 7.14657 85.788 6.81174 86.3269 6.58545C86.8663 6.35914 87.4457 6.24606 88.0297 6.25323C88.34 6.23404 88.6497 6.26061 88.9503 6.33129L88.4429 5.81632C88.3737 5.74189 88.3269 5.64927 88.308 5.54922C88.2891 5.44917 88.2989 5.34573 88.3354 5.25095C88.3726 5.15613 88.4354 5.07382 88.5171 5.01351C88.5989 4.9532 88.6954 4.91734 88.7966 4.91013H89.204C89.3137 4.8996 89.4229 4.8834 89.5309 4.86157C90.1006 4.74108 90.6366 4.49469 91.1 4.14018C91.564 3.78571 91.9434 3.33201 92.2114 2.81187C92.2349 2.77163 92.256 2.73025 92.2754 2.68781V2.66085C92.46 2.26134 92.572 1.83219 92.608 1.39324C92.6171 1.25684 92.6783 1.12914 92.7777 1.03603C92.8771 0.942896 93.008 0.891274 93.144 0.891603H93.1869C93.268 0.899373 93.3469 0.925777 93.4166 0.968773C93.4863 1.0118 93.5452 1.07027 93.5891 1.13974C93.9749 1.51732 96.1189 3.71265 96.1189 3.71265C96.2977 3.90597 96.2846 4.15694 96.2709 4.41087C96.2623 4.56788 96.2537 4.72603 96.2903 4.87237C96.388 4.88998 96.4869 4.90332 96.5852 4.91234C96.68 4.92093 96.7749 4.92561 96.8697 4.9263C96.9806 4.92864 97.0886 4.96571 97.1777 5.03241C97.2669 5.09908 97.3337 5.19208 97.368 5.29849Z" fill="#0D0D0D"/>
<path d="M24.535 7.07296H27.9228L26.0252 16.1294C25.6768 17.8447 25.0121 18.8265 24.0043 19.5223C22.985 20.1175 21.8146 20.3988 20.638 20.3314C18.3973 20.3314 16.2477 19.3874 16.0333 17.095H19.4426C19.5498 17.6344 20.043 17.9418 20.7934 17.9418C21.8066 17.9418 22.2729 17.3269 22.482 16.3614L22.6856 15.3635H22.6106C22.3115 15.6944 21.9486 15.9606 21.5441 16.1461C21.1395 16.3315 20.7018 16.4323 20.2574 16.4423C18.2847 16.4423 16.7194 14.8618 16.7516 12.5478C16.7945 9.85084 18.542 6.78707 21.4742 6.78707C22.0299 6.7494 22.5846 6.87263 23.0729 7.14219C23.5612 7.41169 23.9625 7.81632 24.2295 8.30817H24.2884L24.535 7.07296ZM21.6243 13.9125C22.9269 13.9125 23.6506 12.4022 23.672 11.1023C23.672 10.2338 23.3343 9.3438 22.3372 9.3438C20.9756 9.3438 20.2842 10.8703 20.2627 12.181C20.2627 13.0657 20.6004 13.9125 21.5975 13.9125M59.6572 14.2038C59.6572 14.7809 59.1635 15.0129 58.515 15.0129C57.443 15.0129 57.0839 14.4735 57.0786 13.7183H53.7068C53.6479 16.534 56.1459 17.2298 58.3652 17.2298C61.2007 17.2298 63.0395 15.9946 63.0772 13.5296C63.0772 11.5607 61.4098 10.962 59.7698 10.579C58.5098 10.2878 57.9578 10.0774 57.963 9.59732C57.9687 9.11725 58.5315 8.92308 59.0835 8.92308C59.775 8.92308 60.2464 9.17119 60.295 9.80771H63.5704C63.5327 7.45591 61.4258 6.7655 59.2818 6.7655C56.6766 6.7655 54.6449 7.95754 54.6127 10.2122C54.6127 11.9868 55.8028 12.6395 57.5984 13.1034C58.751 13.4109 59.6675 13.508 59.6572 14.2038ZM84.7064 8.53472H84.6475C84.5018 8.00354 84.1795 7.53853 83.735 7.21671C83.2904 6.89494 82.7498 6.73572 82.203 6.7655C80.7452 6.7655 79.8555 7.49368 79.0138 8.59406H78.955L79.2658 7.07296H75.8561L73.8138 16.9008H77.379L78.451 11.5985C78.6972 10.4442 79.2818 9.6351 80.1664 9.6351C81.051 9.6351 81.1687 10.3471 80.9864 11.2155L79.807 16.9008H83.3715L84.4441 11.5985C84.6904 10.3687 85.275 9.6351 86.159 9.6351C87.0435 9.6351 87.1618 10.3093 86.9795 11.2155L85.8001 16.9008H89.3647L90.6407 11.0591C91.1767 8.59406 90.3567 6.74388 88.0035 6.74388C87.3487 6.74118 86.7041 6.90368 86.1281 7.21653C85.5521 7.52939 85.0635 7.98261 84.7064 8.53472ZM0.654053 16.9008H4.33671L7.18313 3.11914H3.50584L0.654053 16.9008ZM11.7395 6.78166C14.2268 6.78166 16.6015 8.15171 16.564 11.2533C16.5318 14.6461 14.2375 17.1867 10.7318 17.1867C8.31953 17.1867 5.90736 15.8382 5.95022 12.7528C6.00919 9.44092 8.2713 6.78166 11.7395 6.78166ZM10.8336 14.7809C12.4043 14.7809 12.9778 12.4885 12.9778 11.14C12.9778 10.1745 12.683 9.23053 11.6484 9.23053C10.0939 9.23053 9.56319 11.6578 9.56319 12.9093C9.56319 13.9125 9.84193 14.7809 10.8551 14.7809M8.41068 3.11914L7.87462 5.87547H38.7993L39.3354 3.11914H8.41068ZM33.2834 6.78166C35.7706 6.78166 38.1453 8.15171 38.1078 11.2533C38.0756 14.6461 35.776 17.1867 32.2702 17.1867C29.858 17.1867 27.4458 15.8382 27.494 12.7528C27.5691 9.44092 29.8312 6.78166 33.2834 6.78166ZM32.3935 14.7809C33.9642 14.7809 34.5377 12.4885 34.5377 11.14C34.5377 10.1745 34.2375 9.23053 33.203 9.23053C31.6538 9.23053 31.1177 11.6578 31.1177 12.9093C31.1177 13.9125 31.3964 14.7809 32.415 14.7809M40.6004 3.11914L40.0644 5.87547H43.6238L44.1598 3.11914H40.6004ZM37.7487 16.9008H41.3134L43.3557 7.07296H39.7695L37.7487 16.9008ZM49.1236 17.2298C48.5563 17.2704 47.9889 17.151 47.4851 16.8852C46.9814 16.6194 46.5612 16.2176 46.2718 15.7249H46.2128L45.1408 20.6982H41.5331L44.4278 7.07296H47.8156L47.5476 8.38367C47.9014 7.89952 48.3597 7.50237 48.888 7.22205C49.4163 6.9418 50.0008 6.78569 50.5978 6.7655C52.7419 6.7655 54.0016 8.61562 53.9642 11.0214C53.9159 14.0474 52.356 17.2298 49.1022 17.2298H49.1236ZM48.9842 9.54879C47.6066 9.54879 46.7596 11.3234 46.7382 12.6881C46.7382 13.6374 47.0706 14.6946 48.2016 14.6946C49.6758 14.6946 50.2815 12.7312 50.2975 11.4205C50.2975 10.5305 50.0403 9.54879 48.9842 9.54879ZM69.5955 15.3527H69.6544L69.3435 16.9116H72.731L74.7738 7.08371H71.2144L70.0778 12.5748C69.8475 13.7129 69.1504 14.3117 68.2715 14.3117C67.3921 14.3117 67.199 13.481 67.3761 12.6126L68.5287 7.08371H64.9692L63.7092 13.152C63.1732 15.795 64.3955 17.2191 66.4435 17.2191C67.0864 17.2127 67.7167 17.0359 68.2698 16.7063C68.823 16.3767 69.2807 15.9061 69.5955 15.3419V15.3527ZM88.7161 20.7467L89.2521 17.9904H46.9794L46.4434 20.7467H88.7161Z" fill="white"/>
<path d="M92.5487 9.76989C92.5138 9.76719 92.4795 9.75747 92.4481 9.74132C92.4161 9.72522 92.3881 9.70296 92.3652 9.67588C92.3424 9.6488 92.3252 9.61746 92.3144 9.58359C92.3035 9.54973 92.2995 9.51408 92.3024 9.4786C92.3469 8.99824 92.2904 8.51375 92.1361 8.05697C91.9818 7.60019 91.7332 7.1813 91.4064 6.82791C91.0801 6.47449 90.6829 6.19445 90.2418 6.00614C89.8001 5.81783 89.3241 5.7255 88.8447 5.73519C88.7738 5.73519 88.7058 5.70678 88.6555 5.6562C88.6052 5.60562 88.5767 5.53702 88.5767 5.46549C88.5767 5.39396 88.6052 5.32537 88.6555 5.27479C88.7058 5.22421 88.7738 5.19579 88.8447 5.19579C88.9732 5.20415 89.1024 5.20415 89.2309 5.19579C90.1829 5.09372 91.0698 4.66087 91.7389 3.97171C92.4087 3.28256 92.8178 2.38021 92.8972 1.42C92.9029 1.35227 92.9332 1.2891 92.9829 1.2431C93.0327 1.19709 93.0978 1.17166 93.1652 1.17188C93.2007 1.1746 93.2349 1.18431 93.2664 1.20044C93.2978 1.21658 93.3258 1.23882 93.3487 1.26589C93.3721 1.29297 93.3892 1.32433 93.4001 1.35818C93.4109 1.39204 93.4149 1.42771 93.4121 1.46315C93.3675 1.94308 93.4241 2.42709 93.5778 2.88351C93.7321 3.33993 93.9801 3.75849 94.3058 4.11182C94.6321 4.46516 95.0281 4.74531 95.4687 4.93396C95.9098 5.12261 96.3852 5.21551 96.8641 5.20658C96.9349 5.20658 97.0035 5.235 97.0538 5.28558C97.1041 5.33615 97.1321 5.40475 97.1321 5.47628C97.1321 5.54781 97.1041 5.61642 97.0538 5.66699C97.0035 5.71757 96.9349 5.74598 96.8641 5.74598C95.8458 5.76291 94.8692 6.15767 94.1224 6.85453C93.3755 7.55137 92.9104 8.50121 92.8172 9.52178C92.8115 9.58952 92.7812 9.65271 92.7315 9.69871C92.6818 9.74471 92.6167 9.77012 92.5487 9.76989Z" fill="white"/>
</svg>
