<svg width="30" height="31" viewBox="0 0 30 31" fill="none" xmlns="http://www.w3.org/2000/svg">
<path d="M28.2852 1.39697L12.9534 20.4034C12.8429 20.5499 12.7026 20.6713 12.5418 20.7596C12.381 20.848 12.2033 20.9012 12.0204 20.916C11.8375 20.9307 11.6536 20.9065 11.4807 20.8451C11.3078 20.7836 11.1499 20.6862 11.0174 20.5593L5.54736 15.0379" stroke="#EA8541" stroke-width="1.66706" stroke-linecap="round" stroke-linejoin="round"/>
<path d="M24.3876 14.3887V28.0297C24.3876 28.3743 24.2507 28.7047 24.007 28.9483C23.7634 29.192 23.4329 29.3289 23.0883 29.3289H2.29943C1.95483 29.3289 1.62435 29.192 1.38068 28.9483C1.13701 28.7047 1.00012 28.3743 1.00012 28.0297V7.24348C1.00012 6.89892 1.13701 6.56848 1.38068 6.32485C1.62435 6.08121 1.95483 5.94434 2.29943 5.94434H17.2414" stroke="#EA8541" stroke-width="1.66706" stroke-linecap="round" stroke-linejoin="round"/>
</svg>
