<svg width="29" height="32" viewBox="0 0 29 32" fill="none" xmlns="http://www.w3.org/2000/svg">
<path d="M12.5944 16.8789L19.6792 9.79492" stroke="#EA8541" stroke-width="1.66849" stroke-linecap="round" stroke-linejoin="round"/>
<path d="M20.437 4.52739C20.1959 4.76703 20.0046 5.05202 19.8742 5.36591C19.7437 5.67981 19.6767 6.01642 19.677 6.35634V9.79527H23.1164C23.4563 9.79554 23.793 9.72853 24.1069 9.59811C24.4209 9.46768 24.7059 9.27642 24.9455 9.03535L28.05 5.9313H23.5415V1.42334L20.437 4.52739Z" stroke="#EA8541" stroke-width="1.66849" stroke-linecap="round" stroke-linejoin="round"/>
<path d="M18.7235 14.9475C18.9324 15.5878 19.0368 16.2576 19.0326 16.931C19.0418 18.4199 18.5348 19.8659 17.5978 21.023C16.6609 22.1801 15.3518 22.9769 13.8935 23.2778C12.4352 23.5787 10.9177 23.365 9.59917 22.6732C8.28066 21.9814 7.24261 20.8541 6.66167 19.4833C6.08072 18.1124 5.99277 16.5826 6.41277 15.1542C6.83278 13.7258 7.7348 12.4871 8.96534 11.6487C10.1959 10.8104 11.6789 10.4243 13.1621 10.556C14.6453 10.6878 16.037 11.3294 17.1004 12.3716" stroke="#EA8541" stroke-width="1.66849" stroke-linecap="round" stroke-linejoin="round"/>
<path d="M23.5419 13.0158C24.4142 15.514 24.4054 18.2353 23.5171 20.7278C22.6287 23.2203 20.9143 25.3338 18.6585 26.7174C16.4028 28.101 13.7416 28.6713 11.1168 28.3336C8.49214 27.9959 6.06197 26.7706 4.23003 24.8611C2.39809 22.9516 1.27464 20.4729 1.0463 17.8367C0.817968 15.2006 1.49849 12.5657 2.97483 10.3697C4.45117 8.17368 6.63446 6.5488 9.16202 5.76495C11.6896 4.98109 14.4093 5.08545 16.8693 6.06067" stroke="#EA8541" stroke-width="1.66849" stroke-linecap="round" stroke-linejoin="round"/>
<path d="M5.36683 25.9463L1 31.0467" stroke="#EA8541" stroke-width="1.66849" stroke-linecap="round" stroke-linejoin="round"/>
<path d="M19.8188 25.9463L24.1857 31.0467" stroke="#EA8541" stroke-width="1.66849" stroke-linecap="round" stroke-linejoin="round"/>
</svg>
