<svg width="612" height="326" viewBox="0 0 612 326" fill="none" xmlns="http://www.w3.org/2000/svg">
<g opacity="0.1">
<path d="M132.979 111.065V289.162" stroke="#302D27" stroke-width="2.301" stroke-linecap="round"/>
<path d="M209.372 111.065V289.162" stroke="#302D27" stroke-width="2.301" stroke-linecap="round"/>
<path d="M285.765 111.065V289.162" stroke="#302D27" stroke-width="2.301" stroke-linecap="round"/>
<path d="M362.158 111.065V289.162" stroke="#302D27" stroke-width="2.301" stroke-linecap="round"/>
<path d="M438.551 111.065V289.162" stroke="#302D27" stroke-width="2.301" stroke-linecap="round"/>
<path d="M514.944 111.065V289.162" stroke="#302D27" stroke-width="2.301" stroke-linecap="round"/>
<path d="M591.337 111.065V289.162" stroke="#302D27" stroke-width="2.301" stroke-linecap="round"/>
</g>
<path opacity="0.5" d="M117.386 325.91C116.788 325.91 116.269 325.811 115.829 325.613C115.393 325.411 115.041 325.121 114.771 324.744C114.505 324.366 114.33 323.915 114.245 323.389L115.533 323.011C115.604 323.636 115.782 324.11 116.065 324.434C116.348 324.753 116.795 324.912 117.406 324.912C117.959 324.912 118.375 324.766 118.654 324.474C118.937 324.177 119.078 323.688 119.078 323.004V317.038H115.539V316.041H120.292V323.004C120.292 323.476 120.227 323.894 120.096 324.258C119.97 324.618 119.784 324.921 119.537 325.168C119.29 325.411 118.986 325.595 118.626 325.721C118.267 325.847 117.854 325.91 117.386 325.91ZM121.269 325.748L125.368 316.041H126.581L130.667 325.748H129.372L125.974 317.308L122.563 325.748H121.269ZM123.372 322.566V321.568H128.563V322.566H123.372ZM131.907 325.748V316.041H133.592L138.79 324.717L138.581 324.757V316.041H139.754V325.748H138.203L132.871 317.025L133.08 316.978V325.748H131.907ZM146.812 325.748V318.016C146.457 318.322 146.124 318.58 145.814 318.791C145.504 318.998 145.158 319.173 144.776 319.317V318.171C144.973 318.076 145.183 317.96 145.403 317.821C145.623 317.677 145.873 317.468 146.151 317.193C146.434 316.915 146.76 316.531 147.128 316.041H147.998V325.748H146.812Z" fill="#302D27"/>
<path opacity="0.5" d="M193.319 325.91C192.721 325.91 192.202 325.811 191.762 325.613C191.326 325.411 190.973 325.121 190.704 324.744C190.438 324.366 190.263 323.914 190.178 323.388L191.465 323.011C191.537 323.636 191.715 324.11 191.998 324.434C192.281 324.752 192.728 324.912 193.339 324.912C193.892 324.912 194.308 324.766 194.586 324.474C194.869 324.177 195.011 323.688 195.011 323.004V317.038H191.472V316.04H196.225V323.004C196.225 323.476 196.159 323.894 196.029 324.258C195.903 324.618 195.717 324.921 195.47 325.168C195.222 325.411 194.919 325.595 194.559 325.721C194.2 325.847 193.787 325.91 193.319 325.91ZM197.202 325.748L201.301 316.04H202.514L206.599 325.748H205.305L201.907 317.308L198.496 325.748H197.202ZM199.305 322.566V321.568H204.496V322.566H199.305ZM207.84 325.748V316.04H209.525L214.722 324.717L214.514 324.757V316.04H215.687V325.748H214.136L208.804 317.025L209.013 316.978V325.748H207.84ZM220.769 325.748V324.953L224.18 322.061C224.643 321.665 225.021 321.306 225.313 320.982C225.609 320.659 225.828 320.33 225.967 319.998C226.106 319.665 226.176 319.294 226.176 318.885C226.176 318.44 226.097 318.068 225.94 317.766C225.787 317.461 225.565 317.231 225.273 317.079C224.98 316.926 224.623 316.849 224.201 316.849C223.715 316.849 223.322 316.946 223.021 317.139C222.724 317.328 222.502 317.584 222.353 317.908C222.21 318.231 222.124 318.595 222.097 319L220.803 318.602C220.83 318.171 220.985 317.746 221.268 317.328C221.556 316.91 221.949 316.564 222.448 316.29C222.947 316.016 223.529 315.879 224.194 315.879C224.571 315.879 224.951 315.933 225.333 316.04C225.715 316.149 226.065 316.322 226.385 316.56C226.708 316.793 226.966 317.101 227.16 317.483C227.358 317.861 227.457 318.319 227.457 318.859C227.457 319.627 227.248 320.315 226.83 320.921C226.411 321.524 225.827 322.128 225.077 322.734L222.441 324.872L221.585 324.71H227.645V325.748H220.769Z" fill="#302D27"/>
<path opacity="0.5" d="M269.252 325.91C268.654 325.91 268.135 325.811 267.695 325.613C267.259 325.411 266.906 325.121 266.637 324.744C266.371 324.366 266.196 323.914 266.111 323.388L267.398 323.011C267.47 323.636 267.648 324.11 267.931 324.434C268.214 324.752 268.661 324.912 269.272 324.912C269.825 324.912 270.241 324.766 270.519 324.474C270.802 324.177 270.944 323.688 270.944 323.004V317.038H267.405V316.04H272.158V323.004C272.158 323.476 272.092 323.894 271.962 324.258C271.836 324.618 271.65 324.921 271.402 325.168C271.155 325.411 270.852 325.595 270.492 325.721C270.133 325.847 269.719 325.91 269.252 325.91ZM273.135 325.748L277.234 316.04H278.447L282.532 325.748H281.238L277.84 317.308L274.429 325.748H273.135ZM275.238 322.566V321.568H280.429V322.566H275.238ZM283.773 325.748V316.04H285.458L290.655 324.717L290.446 324.757V316.04H291.619V325.748H290.069L284.737 317.025L284.946 316.978V325.748H283.773ZM300.228 325.91C299.626 325.91 299.068 325.793 298.556 325.559C298.048 325.325 297.63 324.986 297.302 324.541C296.974 324.092 296.781 323.544 296.723 322.896L297.949 322.512C297.999 323.236 298.219 323.822 298.61 324.272C299.001 324.717 299.533 324.939 300.208 324.939C300.814 324.939 301.318 324.764 301.718 324.413C302.122 324.058 302.324 323.548 302.324 322.883C302.324 322.622 302.268 322.346 302.156 322.054C302.048 321.757 301.852 321.505 301.569 321.299C301.286 321.092 300.884 320.988 300.363 320.988H299.028V319.964H300.255C300.826 319.964 301.262 319.814 301.562 319.512C301.868 319.207 302.021 318.863 302.021 318.481C302.021 318.032 301.863 317.647 301.549 317.328C301.234 317.009 300.789 316.849 300.214 316.849C299.504 316.849 298.983 317.052 298.65 317.456C298.322 317.861 298.134 318.422 298.084 319.142L296.857 318.757C296.884 318.294 297.039 317.843 297.322 317.402C297.606 316.962 297.996 316.598 298.495 316.31C298.994 316.022 299.581 315.879 300.255 315.879C300.808 315.879 301.308 315.987 301.758 316.202C302.212 316.418 302.572 316.715 302.837 317.092C303.102 317.465 303.234 317.897 303.234 318.387C303.234 318.71 303.167 319.009 303.032 319.283C302.898 319.553 302.695 319.784 302.425 319.977C302.156 320.171 301.814 320.315 301.401 320.409C302.084 320.53 302.621 320.82 303.012 321.278C303.407 321.733 303.605 322.258 303.605 322.856C303.605 323.395 303.509 323.858 303.315 324.245C303.127 324.631 302.87 324.948 302.547 325.195C302.223 325.438 301.862 325.618 301.461 325.735C301.061 325.851 300.65 325.91 300.228 325.91Z" fill="#302D27"/>
<path opacity="0.5" d="M345.185 325.91C344.587 325.91 344.068 325.811 343.627 325.613C343.192 325.411 342.839 325.121 342.569 324.744C342.304 324.366 342.129 323.915 342.043 323.389L343.331 323.011C343.403 323.636 343.581 324.11 343.864 324.434C344.147 324.753 344.594 324.912 345.205 324.912C345.758 324.912 346.174 324.766 346.452 324.474C346.735 324.177 346.877 323.688 346.877 323.004V317.038H343.338V316.041H348.09V323.004C348.09 323.476 348.025 323.894 347.895 324.258C347.769 324.618 347.582 324.921 347.335 325.168C347.088 325.411 346.785 325.595 346.425 325.721C346.066 325.847 345.652 325.91 345.185 325.91ZM349.068 325.748L353.166 316.041H354.38L358.465 325.748H357.171L353.773 317.308L350.362 325.748H349.068ZM351.171 322.566V321.568H356.362V322.566H351.171ZM359.705 325.748V316.041H361.391L366.588 324.717L366.379 324.757V316.041H367.552V325.748H366.002L360.67 317.025L360.878 316.978V325.748H359.705ZM377.516 325.748V322.539H377.529V316.796L377.826 317.443L373.525 322.553L373.12 322.202H379.835V323.24H372.581V322.081L377.698 316.041H378.702V325.748H377.516Z" fill="#302D27"/>
<path opacity="0.5" d="M421.119 325.91C420.521 325.91 420.001 325.811 419.559 325.613C419.126 325.411 418.772 325.121 418.5 324.744C418.238 324.366 418.063 323.915 417.976 323.389L419.264 323.011C419.338 323.636 419.513 324.11 419.798 324.434C420.079 324.753 420.525 324.912 421.137 324.912C421.69 324.912 422.108 324.766 422.385 324.474C422.67 324.177 422.808 323.688 422.808 323.004V317.038H419.269V316.041H424.023V323.004C424.023 323.476 423.958 323.894 423.83 324.258C423.701 324.618 423.517 324.921 423.268 325.168C423.02 325.411 422.716 325.595 422.357 325.721C421.998 325.847 421.584 325.91 421.119 325.91ZM424.998 325.748L429.099 316.041H430.314L434.396 325.748H433.103L429.706 317.308L426.296 325.748H424.998ZM427.102 322.566V321.568H432.293V322.566H427.102ZM435.638 325.748V316.041H437.323L442.523 324.717L442.311 324.757V316.041H443.485V325.748H441.934L436.6 317.025L436.812 316.978V325.748H435.638ZM452.155 325.91C451.593 325.91 451.055 325.795 450.544 325.566C450.029 325.332 449.601 324.993 449.256 324.548C448.915 324.099 448.713 323.551 448.657 322.903L449.881 322.519C449.932 323.202 450.139 323.777 450.503 324.245C450.871 324.707 451.409 324.939 452.113 324.939C452.551 324.939 452.933 324.836 453.259 324.629C453.591 324.418 453.853 324.128 454.042 323.759C454.23 323.391 454.327 322.968 454.327 322.492C454.327 321.769 454.115 321.214 453.697 320.827C453.282 320.44 452.772 320.247 452.155 320.247C451.612 320.247 451.184 320.384 450.875 320.659C450.567 320.928 450.342 321.232 450.199 321.568L449.025 321.447L449.417 316.041H454.971V317.079H450.42L450.167 320.746L449.835 320.719C450.079 320.306 450.415 319.957 450.848 319.674C451.276 319.391 451.805 319.25 452.422 319.25C453.015 319.25 453.549 319.384 454.023 319.654C454.493 319.924 454.865 320.299 455.142 320.78C455.413 321.261 455.551 321.818 455.551 322.452C455.551 323.153 455.395 323.764 455.082 324.285C454.764 324.802 454.35 325.202 453.835 325.485C453.315 325.768 452.758 325.91 452.155 325.91Z" fill="#302D27"/>
<path opacity="0.5" d="M497.052 325.91C496.454 325.91 495.934 325.811 495.492 325.613C495.059 325.411 494.705 325.121 494.433 324.744C494.171 324.366 493.996 323.914 493.909 323.388L495.197 323.011C495.271 323.636 495.446 324.11 495.731 324.434C496.012 324.752 496.458 324.912 497.07 324.912C497.622 324.912 498.041 324.766 498.317 324.474C498.603 324.177 498.741 323.688 498.741 323.004V317.038H495.202V316.04H499.956V323.004C499.956 323.476 499.891 323.894 499.762 324.258C499.634 324.618 499.449 324.921 499.201 325.168C498.952 325.411 498.649 325.595 498.29 325.721C497.931 325.847 497.517 325.91 497.052 325.91ZM500.931 325.748L505.032 316.04H506.247L510.329 325.748H509.035L505.639 317.308L502.229 325.748H500.931ZM503.034 322.566V321.568H508.225V322.566H503.034ZM511.571 325.748V316.04H513.255L518.456 324.717L518.244 324.757V316.04H519.417V325.748H517.867L512.533 317.025L512.745 316.978V325.748H511.571ZM528.29 325.91C527.112 325.91 526.219 325.478 525.607 324.615C525 323.752 524.696 322.578 524.696 321.09C524.696 320.362 524.77 319.683 524.917 319.054C525.069 318.42 525.29 317.867 525.593 317.396C525.897 316.919 526.279 316.548 526.739 316.283C527.195 316.014 527.738 315.879 528.355 315.879C528.994 315.879 529.546 316.011 530.016 316.276C530.485 316.537 530.858 316.865 531.13 317.261C531.397 317.656 531.553 318.058 531.599 318.468L530.366 318.784C530.338 318.205 530.149 317.737 529.8 317.382C529.454 317.027 528.98 316.849 528.378 316.849C527.922 316.849 527.545 316.948 527.245 317.146C526.942 317.344 526.702 317.605 526.518 317.928C526.334 318.252 526.201 318.607 526.104 318.993C526.017 319.375 525.952 319.755 525.925 320.133C525.897 320.51 525.883 320.849 525.883 321.15L525.773 321.043C525.962 320.602 526.274 320.211 526.712 319.87C527.153 319.528 527.724 319.358 528.433 319.358C528.999 319.358 529.519 319.485 529.993 319.741C530.476 319.993 530.858 320.364 531.148 320.854C531.433 321.339 531.581 321.932 531.581 322.634C531.581 323.299 531.443 323.879 531.166 324.373C530.895 324.862 530.508 325.243 530.016 325.512C529.519 325.777 528.944 325.91 528.29 325.91ZM528.29 324.939C528.948 324.939 529.459 324.732 529.818 324.319C530.182 323.901 530.366 323.332 530.366 322.613C530.366 321.89 530.186 321.328 529.827 320.928C529.468 320.528 528.967 320.328 528.332 320.328C527.673 320.328 527.144 320.537 526.739 320.955C526.339 321.369 526.141 321.935 526.141 322.654C526.141 323.355 526.334 323.912 526.716 324.325C527.107 324.734 527.632 324.939 528.29 324.939Z" fill="#302D27"/>
<path opacity="0.5" d="M572.985 325.91C572.386 325.91 571.866 325.811 571.425 325.613C570.992 325.411 570.638 325.121 570.366 324.744C570.104 324.366 569.929 323.915 569.842 323.389L571.13 323.011C571.204 323.636 571.379 324.11 571.664 324.434C571.945 324.753 572.391 324.912 573.003 324.912C573.555 324.912 573.974 324.766 574.25 324.474C574.536 324.177 574.674 323.688 574.674 323.004V317.038H571.135V316.041H575.889V323.004C575.889 323.476 575.824 323.894 575.695 324.258C575.566 324.618 575.382 324.921 575.134 325.168C574.885 325.411 574.582 325.595 574.223 325.721C573.864 325.847 573.449 325.91 572.985 325.91ZM576.864 325.748L580.965 316.041H582.179L586.261 325.748H584.968L581.572 317.308L578.162 325.748H576.864ZM578.967 322.566V321.568H584.158V322.566H578.967ZM587.504 325.748V316.041H589.188L594.389 324.717L594.177 324.757V316.041H595.35V325.748H593.799L588.466 317.025L588.677 316.978V325.748H587.504ZM601.646 325.748C602 324.076 602.52 322.541 603.197 321.144C603.878 319.741 604.715 318.387 605.719 317.079H600.325V316.041H606.92V316.951C606.46 317.638 606.027 318.328 605.617 319.02C605.212 319.712 604.844 320.418 604.504 321.137C604.172 321.851 603.887 322.591 603.643 323.355C603.399 324.119 603.211 324.917 603.077 325.748H601.646Z" fill="#302D27"/>
<path opacity="0.5" d="M60.2847 105.482C59.454 105.482 58.7421 105.318 58.1489 104.991C57.5617 104.657 57.101 104.242 56.7678 103.745C56.4402 103.248 56.2483 102.745 56.1917 102.237L57.7425 101.83C57.7761 102.57 57.9993 103.16 58.4117 103.601C58.824 104.042 59.4512 104.262 60.2929 104.262C60.8466 104.262 61.304 104.137 61.6657 103.889C62.027 103.64 62.3123 103.313 62.5217 102.906C62.7361 102.499 62.8945 102.056 62.9962 101.576C63.0979 101.09 63.1655 100.609 63.1996 100.135C63.2332 99.6605 63.253 99.2339 63.2589 98.8556L63.3942 99.0926C63.1572 99.6407 62.7615 100.132 62.2078 100.567C61.6602 100.996 60.9483 101.211 60.0725 101.211C59.3551 101.211 58.6942 101.048 58.09 100.72C57.4908 100.387 57.0081 99.909 56.6408 99.2878C56.2791 98.6665 56.0987 97.9177 56.0987 97.0424C56.0987 96.1892 56.2763 95.452 56.6325 94.8307C56.9938 94.2035 57.494 93.7207 58.1323 93.3816C58.7706 93.0429 59.5051 92.873 60.3353 92.873C61.1655 92.873 61.8632 93.0369 62.4283 93.3645C62.9934 93.6867 63.4453 94.1358 63.784 94.712C64.1287 95.2826 64.3745 95.9407 64.5213 96.6863C64.6736 97.4322 64.75 98.2256 64.75 99.0673C64.75 99.909 64.6681 100.714 64.5042 101.482C64.3464 102.251 64.0891 102.937 63.7334 103.541C63.3832 104.141 62.9225 104.615 62.3519 104.965C61.7872 105.31 61.0978 105.482 60.2847 105.482ZM60.2589 99.991C61.0836 99.991 61.7476 99.7199 62.2502 99.1778C62.7532 98.6352 63.0044 97.8952 63.0044 96.9573C63.0044 96.0705 62.7674 95.3728 62.2925 94.8643C61.824 94.3503 61.177 94.0935 60.3523 94.0935C59.5161 94.0935 58.8636 94.359 58.3946 94.8901C57.9261 95.4152 57.6914 96.1382 57.6914 97.059C57.6914 97.9629 57.9174 98.6775 58.3693 99.2031C58.8268 99.7282 59.4568 99.991 60.2589 99.991ZM71.3 105.482C69.8881 105.482 68.7919 104.931 68.0123 103.829C67.2328 102.722 66.843 101.172 66.843 99.1778C66.843 97.1833 67.2328 95.6356 68.0123 94.5339C68.7919 93.4267 69.8881 92.873 71.3 92.873C72.7183 92.873 73.8141 93.4267 74.5881 94.5339C75.3677 95.6356 75.7575 97.1833 75.7575 99.1778C75.7575 101.172 75.3677 102.722 74.5881 103.829C73.8141 104.931 72.7183 105.482 71.3 105.482ZM71.3 104.262C72.2379 104.262 72.947 103.829 73.427 102.965C73.9075 102.101 74.1472 100.839 74.1472 99.1778C74.1472 97.5169 73.9075 96.2541 73.427 95.3899C72.947 94.5256 72.2379 94.0935 71.3 94.0935C70.3626 94.0935 69.6534 94.5256 69.1734 95.3899C68.693 96.2541 68.4532 97.5169 68.4532 99.1778C68.4532 100.839 68.693 102.101 69.1734 102.965C69.6534 103.829 70.3626 104.262 71.3 104.262Z" fill="#302D27"/>
<path opacity="0.5" d="M60.2056 233.451C59.4486 233.451 58.7482 233.305 58.1043 233.011C57.466 232.717 56.9405 232.291 56.5281 231.731C56.1158 231.166 55.8728 230.477 55.7992 229.664L57.3418 229.181C57.4039 230.09 57.6805 230.827 58.172 231.392C58.6635 231.952 59.3331 232.231 60.1803 232.231C60.9428 232.231 61.5756 232.011 62.0782 231.57C62.5867 231.124 62.8412 230.483 62.8412 229.647C62.8412 229.319 62.7703 228.972 62.629 228.605C62.4937 228.232 62.248 227.915 61.8918 227.656C61.536 227.396 61.0303 227.266 60.375 227.266H58.6975V225.978H60.2397C60.9571 225.978 61.5047 225.789 61.8835 225.41C62.2678 225.026 62.4597 224.593 62.4597 224.113C62.4597 223.548 62.2618 223.066 61.8665 222.664C61.4711 222.263 60.912 222.063 60.1886 222.063C59.2963 222.063 58.6409 222.317 58.2226 222.825C57.8103 223.334 57.5733 224.04 57.5111 224.944L55.969 224.461C56.0026 223.879 56.1977 223.311 56.5535 222.758C56.9092 222.204 57.4007 221.747 58.0279 221.385C58.6552 221.023 59.392 220.843 60.2397 220.843C60.9346 220.843 61.5641 220.978 62.1292 221.249C62.6999 221.521 63.1518 221.893 63.485 222.368C63.8182 222.837 63.9848 223.379 63.9848 223.995C63.9848 224.401 63.9001 224.777 63.7307 225.122C63.5614 225.461 63.3069 225.752 62.9682 225.995C62.629 226.238 62.1996 226.418 61.6801 226.537C62.5388 226.69 63.2139 227.054 63.7054 227.63C64.2024 228.2 64.4509 228.861 64.4509 229.613C64.4509 230.291 64.3294 230.872 64.0865 231.358C63.8495 231.844 63.5273 232.242 63.1205 232.553C62.7137 232.858 62.259 233.084 61.7565 233.231C61.2535 233.378 60.7367 233.451 60.2056 233.451ZM70.8399 233.451C69.428 233.451 68.3318 232.9 67.5522 231.799C66.7726 230.692 66.3829 229.141 66.3829 227.147C66.3829 225.153 66.7726 223.605 67.5522 222.504C68.3318 221.396 69.428 220.843 70.8399 220.843C72.2582 220.843 73.354 221.396 74.128 222.504C74.9076 223.605 75.2974 225.153 75.2974 227.147C75.2974 229.141 74.9076 230.692 74.128 231.799C73.354 232.9 72.2582 233.451 70.8399 233.451ZM70.8399 232.231C71.7778 232.231 72.4869 231.799 72.9669 230.934C73.4474 230.07 73.6871 228.808 73.6871 227.147C73.6871 225.486 73.4474 224.223 72.9669 223.359C72.4869 222.495 71.7778 222.063 70.8399 222.063C69.9025 222.063 69.1933 222.495 68.7133 223.359C68.2328 224.223 67.9931 225.486 67.9931 227.147C67.9931 228.808 68.2328 230.07 68.7133 230.934C69.1933 231.799 69.9025 232.231 70.8399 232.231Z" fill="#302D27"/>
<path opacity="0.5" d="M60.6574 169.484C59.1774 169.484 58.0532 168.942 57.2846 167.857C56.5221 166.773 56.1411 165.295 56.1411 163.426C56.1411 162.51 56.234 161.657 56.4204 160.866C56.6068 160.07 56.8893 159.375 57.2676 158.782C57.6519 158.183 58.1323 157.717 58.7085 157.384C59.2847 157.045 59.9625 156.875 60.7421 156.875C61.5442 156.875 62.2391 157.042 62.8264 157.375C63.4196 157.703 63.8857 158.115 64.2249 158.612C64.5636 159.109 64.7615 159.615 64.8176 160.129L63.2672 160.528C63.2332 159.799 62.9962 159.211 62.5553 158.765C62.1204 158.319 61.5245 158.095 60.7674 158.095C60.1968 158.095 59.7223 158.22 59.344 158.468C58.9653 158.717 58.6602 159.044 58.4287 159.451C58.2027 159.858 58.0306 160.304 57.9119 160.79C57.7987 161.27 57.7228 161.748 57.6832 162.222C57.6491 162.697 57.6321 163.123 57.6321 163.502L57.4968 163.366C57.7338 162.813 58.1263 162.321 58.6744 161.892C59.2281 161.462 59.9483 161.248 60.8351 161.248C61.547 161.248 62.2023 161.409 62.8011 161.731C63.4058 162.047 63.8885 162.513 64.2502 163.129C64.6115 163.739 64.7923 164.484 64.7923 165.366C64.7923 166.202 64.6202 166.931 64.2755 167.552C63.9308 168.168 63.4481 168.645 62.8264 168.984C62.2051 169.317 61.4821 169.484 60.6574 169.484ZM60.6574 168.264C61.4876 168.264 62.1287 168.004 62.5806 167.484C63.0385 166.959 63.2672 166.244 63.2672 165.34C63.2672 164.431 63.0413 163.725 62.5894 163.222C62.1374 162.719 61.5102 162.468 60.7081 162.468C59.8834 162.468 59.2166 162.731 58.7085 163.256C58.2055 163.776 57.9542 164.488 57.9542 165.391C57.9542 166.273 58.1972 166.973 58.6827 167.493C59.1742 168.007 59.8328 168.264 60.6574 168.264ZM71.3 169.484C69.8881 169.484 68.7919 168.933 68.0123 167.832C67.2328 166.725 66.843 165.174 66.843 163.18C66.843 161.186 67.2328 159.638 68.0123 158.536C68.7919 157.429 69.8881 156.875 71.3 156.875C72.7183 156.875 73.8141 157.429 74.5881 158.536C75.3677 159.638 75.7575 161.186 75.7575 163.18C75.7575 165.174 75.3677 166.725 74.5881 167.832C73.8141 168.933 72.7183 169.484 71.3 169.484ZM71.3 168.264C72.2379 168.264 72.9471 167.832 73.427 166.967C73.9075 166.103 74.1473 164.841 74.1473 163.18C74.1473 161.519 73.9075 160.256 73.427 159.392C72.9471 158.528 72.2379 158.095 71.3 158.095C70.3626 158.095 69.6534 158.528 69.1734 159.392C68.693 160.256 68.4532 161.519 68.4532 163.18C68.4532 164.841 68.693 166.103 69.1734 166.967C69.6534 167.832 70.3626 168.264 71.3 168.264Z" fill="#302D27"/>
<path opacity="0.5" d="M71.248 297.419C69.8357 297.419 68.74 296.868 67.9604 295.767C67.1808 294.66 66.791 293.109 66.791 291.115C66.791 289.121 67.1808 287.573 67.9604 286.471C68.74 285.364 69.8357 284.811 71.248 284.811C72.6659 284.811 73.7621 285.364 74.5357 286.471C75.3153 287.573 75.7051 289.121 75.7051 291.115C75.7051 293.109 75.3153 294.66 74.5357 295.767C73.7621 296.868 72.6659 297.419 71.248 297.419ZM71.248 296.199C72.1859 296.199 72.8946 295.767 73.3751 294.902C73.8551 294.038 74.0953 292.776 74.0953 291.115C74.0953 289.454 73.8551 288.191 73.3751 287.327C72.8946 286.463 72.1859 286.031 71.248 286.031C70.3102 286.031 69.6015 286.463 69.1215 287.327C68.641 288.191 68.4008 289.454 68.4008 291.115C68.4008 292.776 68.641 294.038 69.1215 294.902C69.6015 295.767 70.3102 296.199 71.248 296.199Z" fill="#302D27"/>
<path opacity="0.5" d="M610.956 290.492H103.282" stroke="#302D27" stroke-width="1.00729" stroke-linecap="round"/>
<path d="M609.055 99.3301H151.617" stroke="#EA8541" stroke-width="1.00729"/>
<path d="M609.055 227.266H151.617" stroke="#EA8541" stroke-width="1.00729"/>
<path d="M102.019 104.392L102.61 93.7686H106.313L108.46 102.858H108.194L110.356 93.7686H114.059L114.65 104.392H112.429L111.957 95.3917H111.979L109.729 104.392H106.94L104.69 95.3917H104.712L104.24 104.392H102.019ZM118.247 104.392L122.32 93.7686H125.219L129.277 104.392H126.828L123.759 95.4211L120.697 104.392H118.247ZM120.91 101.486V99.6632H126.592V101.486H120.91ZM132.402 104.392L136.224 98.874L132.461 93.7686H135.294L137.699 97.3024L139.935 93.7686H142.709L139.109 98.9476L143.107 104.392H140.23L137.641 100.571L135.206 104.392H132.402Z" fill="#EA8541"/>
<path d="M102.019 232.328L102.61 221.704H106.313L108.46 230.793H108.194L110.356 221.704H114.059L114.65 232.328H112.429L111.957 223.327H111.979L109.729 232.328H106.94L104.69 223.327H104.712L104.24 232.328H102.019ZM118.734 232.328V230.447H120.202V223.585H118.734V221.704H123.95V223.585H122.482V230.447H123.95V232.328H118.734ZM128.367 232.328V221.704H131.635L136.393 231.199L135.685 231.244V221.704H137.862V232.328H134.675L129.798 222.781L130.543 222.729V232.328H128.367Z" fill="#EA8541"/>
<path d="M58.9731 16.4602V0.281426H65.8154C67.7252 0.281426 69.156 0.67812 70.1072 1.47242C71.0658 2.26627 71.5453 3.43471 71.5453 4.97775C71.5453 6.49825 71.0474 7.66302 70.0511 8.47205C69.0621 9.27325 67.5605 9.67409 65.5457 9.67409H61.883V16.4602H58.9731ZM61.883 7.38183H65.6805C66.6391 7.38183 67.3695 7.17245 67.8711 6.75275C68.3732 6.32614 68.624 5.74169 68.624 5.00031C68.624 4.31875 68.392 3.74534 67.9277 3.281C67.4629 2.8093 66.7027 2.57322 65.6465 2.57322H61.883V7.38183ZM78.1027 16.4602V0.281426H85.1585C88.9708 0.281426 90.8774 1.78674 90.8774 4.79782C90.8774 7.82409 88.8847 9.33676 84.8998 9.33676H81.0125V16.4602H78.1027ZM87.754 16.4602L83.2371 8.53923H86.4843L91.0343 16.4602H87.754ZM81.0125 7.03392H85.0347C85.9712 7.03392 86.69 6.84663 87.1921 6.47202C87.7015 6.09006 87.956 5.53966 87.956 4.82037C87.956 4.10154 87.6974 3.54699 87.1806 3.15767C86.6716 2.76788 85.9449 2.57322 85.0011 2.57322H81.0125V7.03392ZM97.7491 16.4602V0.281426H108.872V2.71956H100.659V6.73019H107.715V9.10114H100.659V14.022H109.029V16.4602H97.7491ZM115.688 16.4602V0.281426H121.362C123.287 0.281426 124.86 0.599425 126.081 1.23634C127.309 1.8728 128.215 2.79043 128.8 3.98879C129.391 5.1876 129.687 6.62159 129.687 8.29211C129.687 10.1122 129.358 11.629 128.698 12.8426C128.047 14.0483 127.092 14.9549 125.834 15.5614C124.583 16.1606 123.058 16.4602 121.261 16.4602H115.688ZM118.598 14.022H120.957C124.718 14.022 126.598 12.1385 126.598 8.3708C126.598 7.19499 126.403 6.18716 126.013 5.34822C125.631 4.50191 125.032 3.85395 124.216 3.40479C123.407 2.94782 122.354 2.71956 121.059 2.71956H118.598V14.022ZM135.503 16.4602V14.0897H137.705V2.65191H135.503V0.281426H142.817V2.65191H140.615V14.0897H142.817V16.4602H135.503ZM156.419 16.7409C154.839 16.7409 153.461 16.3889 152.284 15.6847C151.116 14.9806 150.21 13.9958 149.566 12.7303C148.921 11.4643 148.599 9.99255 148.599 8.31466C148.599 6.67405 148.91 5.23224 149.532 3.98879C150.161 2.73796 151.06 1.7605 152.228 1.0564C153.397 0.352296 154.786 0.000244141 156.397 0.000244141C158.149 0.000244141 159.651 0.442494 160.902 1.32608C162.16 2.21012 162.988 3.5134 163.385 5.23593L160.396 5.93267C160.134 4.75686 159.648 3.88018 158.936 3.30355C158.232 2.72692 157.378 2.43838 156.374 2.43838C155.385 2.43838 154.539 2.68919 153.835 3.19127C153.139 3.68552 152.603 4.37858 152.228 5.26999C151.862 6.15357 151.678 7.18349 151.678 8.3593C151.678 9.55029 151.865 10.5954 152.24 11.4942C152.622 12.3856 153.157 13.0782 153.846 13.5729C154.543 14.0598 155.367 14.3028 156.318 14.3028C157.352 14.3028 158.232 14.0032 158.958 13.404C159.685 12.7975 160.164 11.9475 160.396 10.8536L163.464 11.5393C163.022 13.2167 162.176 14.5053 160.925 15.404C159.674 16.2954 158.172 16.7409 156.419 16.7409ZM173.999 16.4602V2.71956H168.257V0.281426H182.672V2.71956H176.908V16.4602H173.999ZM188.398 16.4602V14.0897H190.6V2.65191H188.398V0.281426H195.712V2.65191H193.51V14.0897H195.712V16.4602H188.398ZM202.528 16.4602V0.281426H206.663L214.46 14.7413L213.662 14.8085V0.281426H216.449V16.4602H212.471L204.483 1.92158L205.315 1.84288V16.4602H202.528ZM231.298 16.7409C229.515 16.7409 228.021 16.3889 226.815 15.6847C225.609 14.9806 224.699 14.0032 224.085 12.7524C223.478 11.5015 223.174 10.0597 223.174 8.42695C223.174 6.76425 223.478 5.2999 224.085 4.03389C224.699 2.76788 225.586 1.77937 226.747 1.0679C227.916 0.355974 229.32 0.000244141 230.961 0.000244141C232.077 0.000244141 233.103 0.180181 234.039 0.539596C234.975 0.899472 235.777 1.44619 236.443 2.18021C237.118 2.9064 237.601 3.82772 237.893 4.94416L234.87 5.66299C234.631 4.54701 234.166 3.73062 233.477 3.21381C232.788 2.69701 231.953 2.43838 230.972 2.43838C229.976 2.43838 229.126 2.68919 228.422 3.19127C227.718 3.68552 227.178 4.38594 226.804 5.29207C226.436 6.19866 226.253 7.26955 226.253 8.50564C226.253 9.58435 226.414 10.5655 226.736 11.4491C227.058 12.3258 227.583 13.022 228.309 13.5388C229.036 14.0483 230.006 14.3028 231.219 14.3028C231.901 14.3028 232.593 14.1983 233.297 13.9885C234.002 13.7786 234.609 13.3819 235.118 12.7975V9.4716L236.129 10.236H230.163V7.8425H237.882V13.9434C237.245 14.7372 236.534 15.3368 235.747 15.7409C234.961 16.1454 234.174 16.4114 233.388 16.5389C232.609 16.6737 231.912 16.7409 231.298 16.7409ZM254.21 16.4602V0.281426H259.884C261.809 0.281426 263.382 0.599425 264.602 1.23634C265.831 1.8728 266.737 2.79043 267.321 3.98879C267.913 5.1876 268.209 6.62159 268.209 8.29211C268.209 10.1122 267.879 11.629 267.22 12.8426C266.568 14.0483 265.614 14.9549 264.355 15.5614C263.104 16.1606 261.58 16.4602 259.782 16.4602H254.21ZM257.12 14.022H259.479C263.239 14.022 265.119 12.1385 265.119 8.3708C265.119 7.19499 264.925 6.18716 264.535 5.34822C264.153 4.50191 263.554 3.85395 262.737 3.40479C261.928 2.94782 260.876 2.71956 259.58 2.71956H257.12V14.022ZM272.912 16.4602L279.362 0.281426H282.844L289.271 16.4602H286.148L281.092 2.64086L276.036 16.4602H272.912ZM276.755 11.6962V9.34827H285.406V11.6962H276.755ZM297.413 16.4602V10.1458L291.795 0.281426H294.873L299.154 8.25851H298.592L302.873 0.281426H305.94L300.323 10.1347V16.4602H297.413ZM317.306 16.7409C316.085 16.7409 314.985 16.5499 314.003 16.168C313.022 15.7786 312.213 15.1979 311.576 14.4266C310.947 13.6553 310.539 12.6999 310.352 11.5614L313.509 10.9212C313.561 12.0598 313.906 12.9212 314.542 13.5052C315.179 14.0819 316.074 14.3704 317.228 14.3704C317.969 14.3704 318.572 14.2655 319.037 14.0556C319.508 13.8384 319.857 13.5467 320.081 13.1794C320.314 12.8048 320.43 12.3819 320.43 11.9097C320.43 11.2208 320.198 10.7003 319.733 10.3483C319.276 9.9884 318.666 9.73023 317.902 9.57284L316.082 9.20192C315.587 9.10482 315.055 8.96999 314.486 8.79787C313.924 8.61793 313.393 8.36712 312.891 8.04498C312.389 7.71548 311.977 7.28105 311.655 6.7417C311.34 6.19498 311.183 5.50929 311.183 4.68553C311.183 3.63674 311.453 2.76788 311.992 2.07896C312.531 1.38222 313.254 0.861737 314.16 0.517048C315.067 0.172819 316.067 0.000244141 317.16 0.000244141C318.306 0.000244141 319.314 0.176498 320.183 0.52855C321.051 0.880603 321.763 1.39005 322.317 2.05641C322.879 2.71542 323.253 3.51708 323.441 4.46095L320.34 5.10109C320.28 4.53182 320.13 4.04493 319.89 3.64088C319.658 3.22854 319.325 2.91422 318.89 2.69701C318.456 2.4798 317.891 2.37119 317.194 2.37119C316.602 2.37119 316.082 2.45356 315.632 2.61831C315.183 2.78307 314.831 3.02651 314.576 3.34865C314.321 3.66297 314.194 4.04907 314.194 4.50559C314.194 5.08268 314.437 5.53552 314.924 5.86548C315.411 6.18716 316.131 6.44947 317.082 6.65196L318.935 7.04497C319.707 7.20236 320.441 7.45685 321.137 7.8089C321.842 8.15359 322.415 8.64416 322.857 9.28062C323.306 9.91017 323.531 10.7376 323.531 11.7639C323.531 12.8274 323.269 13.734 322.744 14.4827C322.227 15.2241 321.501 15.786 320.565 16.168C319.636 16.5499 318.55 16.7409 317.306 16.7409ZM346.735 16.7409C345.095 16.7409 343.675 16.404 342.476 15.7298C341.286 15.0483 340.368 14.0819 339.724 12.8311C339.08 11.5802 338.758 10.0933 338.758 8.3708C338.758 6.64782 339.08 5.16138 339.724 3.9101C340.368 2.65928 341.286 1.697 342.476 1.02281C343.675 0.341252 345.095 0.000244141 346.735 0.000244141C348.375 0.000244141 349.791 0.341252 350.982 1.02281C352.18 1.697 353.102 2.65928 353.746 3.9101C354.39 5.16138 354.712 6.64782 354.712 8.3708C354.712 10.0933 354.39 11.5802 353.746 12.8311C353.102 14.0819 352.18 15.0483 350.982 15.7298C349.791 16.404 348.375 16.7409 346.735 16.7409ZM346.735 14.3028C347.754 14.3028 348.626 14.0671 349.353 13.595C350.087 13.1159 350.649 12.4344 351.038 11.5503C351.427 10.6589 351.622 9.59907 351.622 8.3708C351.622 7.13471 351.427 6.07487 351.038 5.19129C350.649 4.30725 350.087 3.62937 349.353 3.15767C348.626 2.67814 347.754 2.43838 346.735 2.43838C345.724 2.43838 344.851 2.67814 344.117 3.15767C343.383 3.62937 342.821 4.30725 342.432 5.19129C342.042 6.07487 341.847 7.13471 341.847 8.3708C341.847 9.59907 342.042 10.6589 342.432 11.5503C342.821 12.4344 343.383 13.1159 344.117 13.595C344.851 14.0671 345.724 14.3028 346.735 14.3028ZM361.415 16.4602V0.281426H372.348V2.71956H364.325V6.78634H371.426V9.23598H364.325V16.4602H361.415ZM387.395 16.4602V14.0897H389.597V2.65191H387.395V0.281426H394.709V2.65191H392.507V14.0897H394.709V16.4602H387.395ZM401.525 16.4602V0.281426H405.659L413.457 14.7413L412.66 14.8085V0.281426H415.445V16.4602H411.469L403.479 1.92158L404.311 1.84288V16.4602H401.525ZM427.566 16.4602L421.713 0.281426H424.833L429.554 14.584H429.182L433.866 0.281426H436.991L431.16 16.4602H427.566ZM443.245 16.4602V0.281426H454.368V2.71956H446.154V6.73019H453.209V9.10114H446.154V14.022H454.525V16.4602H443.245ZM461.184 16.4602V0.281426H465.316L473.117 14.7413L472.316 14.8085V0.281426H475.105V16.4602H471.129L463.14 1.92158L463.968 1.84288V16.4602H461.184ZM487.144 16.4602V2.71956H481.405V0.281426H495.818V2.71956H490.052V16.4602H487.144ZM508.386 16.7409C506.744 16.7409 505.326 16.404 504.13 15.7298C502.938 15.0483 502.017 14.0819 501.373 12.8311C500.729 11.5802 500.411 10.0933 500.411 8.3708C500.411 6.64782 500.729 5.16138 501.373 3.9101C502.017 2.65928 502.938 1.697 504.13 1.02281C505.326 0.341252 506.744 0.000244141 508.386 0.000244141C510.025 0.000244141 511.442 0.341252 512.634 1.02281C513.831 1.697 514.751 2.65928 515.395 3.9101C516.04 5.16138 516.362 6.64782 516.362 8.3708C516.362 10.0933 516.04 11.5802 515.395 12.8311C514.751 14.0819 513.831 15.0483 512.634 15.7298C511.442 16.404 510.025 16.7409 508.386 16.7409ZM508.386 14.3028C509.404 14.3028 510.278 14.0671 511.005 13.595C511.737 13.1159 512.298 12.4344 512.689 11.5503C513.081 10.6589 513.274 9.59907 513.274 8.3708C513.274 7.13471 513.081 6.07487 512.689 5.19129C512.298 4.30725 511.737 3.62937 511.005 3.15767C510.278 2.67814 509.404 2.43838 508.386 2.43838C507.374 2.43838 506.504 2.67814 505.768 3.15767C505.036 3.62937 504.47 4.30725 504.084 5.19129C503.692 6.07487 503.499 7.13471 503.499 8.3708C503.499 9.59907 503.692 10.6589 504.084 11.5503C504.47 12.4344 505.036 13.1159 505.768 13.595C506.504 14.0671 507.374 14.3028 508.386 14.3028ZM523.067 16.4602V0.281426H530.122C533.937 0.281426 535.842 1.78674 535.842 4.79782C535.842 7.82409 533.849 9.33676 529.864 9.33676H525.975V16.4602H523.067ZM532.717 16.4602L528.203 8.53923H531.447L535.998 16.4602H532.717ZM525.975 7.03392H529.997C530.936 7.03392 531.654 6.84663 532.156 6.47202C532.667 6.09006 532.92 5.5392 532.92 4.82037C532.92 4.10108 532.662 3.54699 532.147 3.15767C531.636 2.76788 530.909 2.57322 529.965 2.57322H525.975V7.03392ZM546.532 16.4602V10.1458L540.913 0.281426H543.992L548.277 8.25851H547.715L551.995 0.281426H555.06L549.441 10.1347V16.4602H546.532Z" fill="#302D27"/>
<path d="M131.829 178.602L210.293 122.8L286.225 203.071L361.928 153.967L438.091 178.602L515.635 122.8L592.258 178.602" stroke="#302D27" stroke-width="1.44617" stroke-linecap="round" stroke-dasharray="4.34 4.34"/>
<path opacity="0.25" d="M9.87593 289.185H0.168493V285.781C0.168493 284.626 0.359476 283.682 0.741442 282.95C1.12341 282.213 1.67426 281.669 2.39309 281.318C3.11239 280.963 3.97296 280.786 4.97527 280.786C6.06732 280.786 6.97714 280.984 7.70517 281.379C8.42861 281.77 8.97256 282.343 9.33658 283.098C9.69599 283.848 9.87593 284.763 9.87593 285.842V289.185ZM8.41296 287.439V286.024C8.41296 283.768 7.28271 282.639 5.02221 282.639C4.31673 282.639 3.71203 282.756 3.20903 282.99C2.70097 283.219 2.3121 283.579 2.04288 284.069C1.7686 284.554 1.63147 285.186 1.63147 285.963V287.439H8.41296ZM9.87593 276.997L0.168493 273.128V271.038L9.87593 267.182V269.056L1.58407 272.09L9.87593 275.123V276.997ZM7.01764 274.692H5.60896V269.501H7.01764V274.692ZM9.87593 261.331H6.08757L0.168493 264.701V262.854L4.95502 260.286V260.623L0.168493 258.055V256.214L6.08067 259.585H9.87593V261.331ZM10.0444 248.428C10.0444 249.16 9.92978 249.821 9.7006 250.41C9.46682 250.999 9.11844 251.484 8.65594 251.866C8.19298 252.244 7.62004 252.489 6.93664 252.601L6.55237 250.707C7.23577 250.675 7.75257 250.468 8.10279 250.086C8.44886 249.704 8.62189 249.167 8.62189 248.475C8.62189 248.03 8.5593 247.669 8.43321 247.39C8.30297 247.107 8.12764 246.898 7.90766 246.763C7.68263 246.624 7.42905 246.554 7.14557 246.554C6.73231 246.554 6.41984 246.693 6.2086 246.972C5.99277 247.246 5.83815 247.612 5.74381 248.071L5.52107 249.163C5.46262 249.46 5.38163 249.779 5.27854 250.12C5.1704 250.457 5.01991 250.776 4.82663 251.077C4.6292 251.379 4.36827 251.626 4.04475 251.819C3.71663 252.008 3.30567 252.102 2.81096 252.102C2.18187 252.102 1.66046 251.94 1.2472 251.617C0.829339 251.293 0.516863 250.86 0.310233 250.316C0.103604 249.772 6.10352e-05 249.172 6.10352e-05 248.516C6.10352e-05 247.828 0.105905 247.223 0.317136 246.703C0.527907 246.181 0.833942 245.754 1.23385 245.421C1.62917 245.084 2.11007 244.86 2.67612 244.747L3.06038 246.608C2.71892 246.644 2.42669 246.734 2.18417 246.877C1.93704 247.017 1.74836 247.217 1.61812 247.478C1.48742 247.738 1.42253 248.078 1.42253 248.495C1.42253 248.851 1.47178 249.163 1.57072 249.432C1.66966 249.702 1.81555 249.913 2.00883 250.066C2.19751 250.219 2.42899 250.295 2.70327 250.295C3.04934 250.295 3.32132 250.149 3.5192 249.857C3.71202 249.565 3.86941 249.134 3.99091 248.563L4.22699 247.451C4.32133 246.988 4.47412 246.547 4.68535 246.129C4.89198 245.707 5.1865 245.363 5.56847 245.098C5.94583 244.828 6.44239 244.693 7.05813 244.693C7.69643 244.693 8.23992 244.851 8.68954 245.165C9.13455 245.476 9.47142 245.911 9.7006 246.473C9.92978 247.03 10.0444 247.682 10.0444 248.428ZM10.0444 228.838C10.0444 229.822 9.84234 230.674 9.43782 231.393C9.02871 232.108 8.44885 232.658 7.69873 233.045C6.94814 233.431 6.05582 233.625 5.02221 233.625C3.98861 233.625 3.09674 233.431 2.34616 233.045C1.59557 232.658 1.01802 232.108 0.613506 231.393C0.204389 230.674 6.10352e-05 229.822 6.10352e-05 228.838C6.10352e-05 227.854 0.204389 227.005 0.613506 226.29C1.01802 225.571 1.59557 225.018 2.34616 224.632C3.09674 224.245 3.98861 224.052 5.02221 224.052C6.05582 224.052 6.94814 224.245 7.69873 224.632C8.44885 225.018 9.02871 225.571 9.43782 226.29C9.84234 227.005 10.0444 227.854 10.0444 228.838ZM8.58139 228.838C8.58139 228.227 8.44011 227.703 8.15709 227.267C7.86946 226.827 7.46035 226.49 6.9302 226.256C6.39545 226.023 5.75945 225.906 5.02221 225.906C4.28083 225.906 3.64484 226.023 3.11469 226.256C2.58408 226.49 2.17726 226.827 1.89424 227.267C1.60661 227.703 1.46303 228.227 1.46303 228.838C1.46303 229.445 1.60661 229.968 1.89424 230.409C2.17726 230.849 2.58408 231.186 3.11469 231.42C3.64484 231.654 4.28083 231.77 5.02221 231.77C5.75945 231.77 6.39545 231.654 6.9302 231.42C7.46035 231.186 7.86946 230.849 8.15709 230.409C8.44011 229.968 8.58139 229.445 8.58139 228.838ZM9.87593 219.063H0.168493V212.504H1.63147V217.317H4.0719V213.057H5.54132V217.317H9.87593V219.063ZM9.87593 201.543H8.45345V200.222H1.59097V201.543H0.168493V197.155H1.59097V198.476H8.45345V197.155H9.87593V201.543ZM9.87593 192.099H0.168493V189.618L8.84463 184.94L8.88512 185.418H0.168493V183.746H9.87593V186.133L1.15286 190.926L1.10546 190.427H9.87593V192.099ZM9.87593 175.508L0.168493 179.021V177.147L8.75029 174.316V174.538L0.168493 171.727V169.853L9.87593 173.351V175.508ZM9.87593 165.134H0.168493V158.46H1.63147V163.388H4.03785V159.154H5.46032V163.388H8.41296V158.366H9.87593V165.134ZM9.87593 153.404H0.168493V150.924L8.84463 146.245L8.88512 146.724H0.168493V145.052H9.87593V147.438L1.15286 152.231L1.10546 151.732H9.87593V153.404ZM9.87593 136.861H1.63147V140.306H0.168493V131.657H1.63147V135.115H9.87593V136.861ZM10.0444 123.15C10.0444 124.134 9.84234 124.985 9.43782 125.705C9.02871 126.419 8.44885 126.97 7.69873 127.356C6.94814 127.742 6.05582 127.936 5.02221 127.936C3.98861 127.936 3.09674 127.742 2.34616 127.356C1.59557 126.97 1.01802 126.419 0.613506 125.705C0.204389 124.985 6.10352e-05 124.134 6.10352e-05 123.15C6.10352e-05 122.165 0.204389 121.316 0.613506 120.602C1.01802 119.882 1.59557 119.33 2.34616 118.943C3.09674 118.557 3.98861 118.364 5.02221 118.364C6.05582 118.364 6.94814 118.557 7.69873 118.943C8.44885 119.33 9.02871 119.882 9.43782 120.602C9.84234 121.316 10.0444 122.165 10.0444 123.15ZM8.58139 123.15C8.58139 122.539 8.44011 122.015 8.15709 121.579C7.86946 121.139 7.46035 120.801 6.9302 120.568C6.39545 120.334 5.75945 120.217 5.02221 120.217C4.28083 120.217 3.64484 120.334 3.11469 120.568C2.58408 120.801 2.17726 121.139 1.89424 121.579C1.60661 122.015 1.46303 122.539 1.46303 123.15C1.46303 123.756 1.60661 124.28 1.89424 124.72C2.17726 125.161 2.58408 125.498 3.11469 125.731C3.64484 125.965 4.28083 126.082 5.02221 126.082C5.75945 126.082 6.39545 125.965 6.9302 125.731C7.46035 125.498 7.86946 125.161 8.15709 124.72C8.44011 124.28 8.58139 123.756 8.58139 123.15ZM9.87593 113.375H0.168493V109.142C0.168493 106.854 1.07186 105.71 2.8786 105.71C4.69409 105.71 5.60206 106.906 5.60206 109.296V111.629H9.87593V113.375ZM9.87593 107.584L5.12345 110.294V108.346L9.87593 105.616V107.584ZM4.22009 111.629V109.216C4.22009 108.654 4.1078 108.222 3.88322 107.921C3.65358 107.616 3.32362 107.463 2.89195 107.463C2.46074 107.463 2.12802 107.618 1.89424 107.928C1.66046 108.234 1.54403 108.67 1.54403 109.236V111.629H4.22009ZM9.87593 98.3284H6.08757L0.168493 101.699V99.8521L4.95502 97.2838V97.6206L0.168493 95.0522V93.2119L6.08067 96.5824H9.87593V98.3284Z" fill="#302D27"/>
</svg>
