<svg width="105" height="105" viewBox="0 0 105 105" fill="none" xmlns="http://www.w3.org/2000/svg">
<path d="M51.9608 0L50.5122 1.85025L50.6224 10.0071L52.5198 11.6605L54.4329 9.99925L54.5274 1.866L53.0394 0H51.9608Z" fill="white"/>
<path d="M52.0631 105L50.6145 103.15L50.7247 95.0008L52.6221 93.3395L54.5352 95.0087L54.6297 103.134L53.1417 105H52.0631Z" fill="white"/>
<path d="M89.0811 14.9516L86.7508 15.235L81.0587 21.0771L81.2319 23.5887L83.7591 23.762L89.5692 18.0773L89.8448 15.7153L89.0811 14.9516Z" fill="white"/>
<path d="M15.9425 14.9516L18.2729 15.235L23.9649 21.0771L23.7917 23.5887L21.2645 23.762L15.4465 18.0773L15.1788 15.7153L15.9425 14.9516Z" fill="white"/>
<path d="M89.1204 89.7572L86.7901 89.4659L81.098 83.6238L81.2712 81.1201L83.7984 80.939L89.6164 86.6236L89.8841 88.9935L89.1204 89.7572Z" fill="white"/>
<path d="M15.9819 89.7572L18.3123 89.4659L24.0043 83.6238L23.839 81.1201L21.3039 80.939L15.4938 86.6236L15.2183 88.9935L15.9819 89.7572Z" fill="white"/>
<path d="M0 52.9568L1.85012 54.4055L10.0064 54.2952L11.6597 52.3977L9.99851 50.4845L1.86586 50.39L0 51.8781V52.9568Z" fill="white"/>
<path d="M105 52.8543L103.15 54.303L94.9936 54.1928L93.3403 52.2953L95.0015 50.3821L103.134 50.2876L105 51.7757V52.8543Z" fill="white"/>
<path d="M69.5168 70H66.124L65.1523 69.5113L53.5003 58.0544C53.2135 57.6778 52.6481 57.6778 52.3534 58.0544L40.7013 69.5113L39.7297 70H36.3368L35.851 69.5113V64.6321L47.949 52.6704C48.1641 52.398 48.1561 52.0135 47.9331 51.7491L35.9226 41.2216V36.3424L36.4085 35.8536H39.8013L40.773 36.3424L52.3693 46.4052C52.656 46.7497 53.1896 46.7497 53.4764 46.4052L65.1443 36.3424L66.116 35.8536H69.5089L69.9947 36.3424V41.2216L57.9126 51.7491C57.6896 52.0135 57.6816 52.398 57.8967 52.6704L69.9947 64.6321V69.5113L69.5089 70H69.5168Z" fill="white"/>
</svg>
