<svg width="199" height="199" viewBox="0 0 199 199" fill="none" xmlns="http://www.w3.org/2000/svg">
<g id="Frame 427320288">
<g id="Group">
<path id="Vector" d="M99.7767 7.50884L100.01 0L105.064 0.175304L105.034 1.11026L101.12 0.993388L101.062 3.12625L104.479 3.24312L104.45 4.14885L101.033 4.03198L100.945 6.63232L104.947 6.77841L104.917 7.71336L99.7767 7.50884Z" fill="white"/>
<path id="Vector_2" d="M105.735 7.68413L107.021 0.262939L108.831 0.46746L110 7.39196L109.795 7.36274L112.541 0.90572L114.352 1.11024L113.914 8.6483L112.833 8.53143L113.271 1.84067H113.3L110.496 8.23926L109.211 8.09317L107.955 1.19789H107.984L106.845 7.801L105.735 7.68413Z" fill="white"/>
<path id="Vector_3" d="M115.199 8.94048L116.718 1.57773L119.58 2.16207C120.457 2.33738 121.041 2.65877 121.42 3.09703C121.771 3.53529 121.888 4.11963 121.742 4.79163C121.596 5.46363 121.274 5.9311 120.778 6.19406C120.281 6.45701 119.551 6.51545 118.675 6.31093L116.981 5.96032L116.309 9.145L115.199 8.94048ZM117.127 5.0838L118.85 5.43441C119.347 5.52206 119.726 5.49284 120.018 5.34676C120.31 5.20067 120.515 4.93772 120.573 4.55789C120.632 4.2365 120.573 3.91511 120.398 3.62294C120.223 3.33076 119.843 3.12624 119.317 3.00937L117.594 2.65877L117.127 5.0838Z" fill="white"/>
<path id="Vector_4" d="M124.838 11.3655C124.108 11.161 123.523 10.8104 123.085 10.3722C122.647 9.90467 122.355 9.37876 122.238 8.73598C122.121 8.0932 122.18 7.39199 122.384 6.63234C122.618 5.87269 122.939 5.22991 123.407 4.76243C123.845 4.29496 124.4 3.97357 125.013 3.82748C125.626 3.68139 126.298 3.71061 127.028 3.91513C127.759 4.11965 128.343 4.47026 128.781 4.90852C129.219 5.376 129.511 5.93112 129.628 6.54469C129.745 7.15825 129.686 7.88868 129.482 8.64833C129.248 9.40798 128.927 10.0215 128.46 10.5182C128.022 10.9857 127.467 11.3071 126.853 11.4532C126.24 11.6285 125.568 11.5993 124.838 11.3655ZM125.101 10.489C125.597 10.6351 126.035 10.6351 126.474 10.5182C126.912 10.4014 127.262 10.1384 127.583 9.78781C127.905 9.40798 128.138 8.9405 128.314 8.35616C128.489 7.77181 128.547 7.2459 128.46 6.74921C128.401 6.28173 128.226 5.87269 127.934 5.52208C127.642 5.20069 127.262 4.93774 126.766 4.79165C126.269 4.64556 125.831 4.64556 125.393 4.76243C124.984 4.8793 124.604 5.14226 124.283 5.49286C123.962 5.87269 123.728 6.34017 123.553 6.92451C123.377 7.50886 123.319 8.03477 123.407 8.53146C123.465 8.99894 123.64 9.40798 123.932 9.75859C124.224 10.1092 124.633 10.3429 125.101 10.489Z" fill="white"/>
<path id="Vector_5" d="M130.387 13.0017L131.731 5.43442L132.783 5.87268L131.468 12.6219L131.41 12.5927L135.587 7.01215L136.784 7.50884L135.879 14.4333L135.82 14.4041L139.617 8.64832L140.669 9.08658L136.346 15.4559L134.856 14.8424L135.791 8.03476L135.966 8.09319L131.906 13.6445L130.387 13.0017Z" fill="white"/>
<path id="Vector_6" d="M138.683 16.537L142.129 9.84622L146.628 12.1544L146.189 12.9725L142.684 11.1902L141.72 13.0893L144.758 14.6379L144.349 15.4559L141.312 13.9074L140.114 16.2156L143.677 18.0563L143.239 18.8744L138.683 16.537Z" fill="white"/>
<path id="Vector_7" d="M144.174 19.4003L148.088 12.9725L150.687 14.5502C152.177 15.4559 152.586 16.5078 151.885 17.6472C151.184 18.8159 150.045 18.9328 148.526 17.9978L146.92 17.0337L145.138 19.9846L144.174 19.4003ZM147.387 16.274L149.023 17.2674C149.432 17.5304 149.811 17.6472 150.133 17.618C150.454 17.5888 150.717 17.4135 150.921 17.1213C151.126 16.7999 151.155 16.5078 151.009 16.1864C150.892 15.8942 150.6 15.602 150.191 15.3391L148.584 14.3457L147.387 16.274ZM147.971 21.7084L148.176 17.4427L149.256 18.1147L149.052 22.3804L147.971 21.7084Z" fill="white"/>
<path id="Vector_8" d="M154.514 26.4709C153.93 26.0326 153.55 25.5067 153.316 24.9224C153.083 24.338 153.024 23.7244 153.141 23.0524C153.258 22.4097 153.55 21.7669 154.017 21.1533C154.485 20.569 154.981 20.1015 155.565 19.8385C156.15 19.5464 156.734 19.4295 157.376 19.4879C157.99 19.5464 158.603 19.8093 159.216 20.2476C159.83 20.7151 160.239 21.2994 160.472 21.9422C160.677 22.6142 160.618 23.3154 160.297 24.0458L159.187 23.5491C159.421 22.994 159.509 22.4973 159.392 22.0591C159.275 21.6208 159.041 21.241 158.662 20.9488C158.253 20.6566 157.844 20.4813 157.406 20.4813C156.967 20.4813 156.558 20.569 156.12 20.8319C155.711 21.0657 155.332 21.4163 154.981 21.8838C154.631 22.3512 154.397 22.8187 154.28 23.2862C154.163 23.7537 154.163 24.1919 154.28 24.601C154.397 25.01 154.66 25.3606 155.04 25.6528C155.449 25.9742 155.887 26.1203 156.383 26.091C156.851 26.0618 157.318 25.8865 157.727 25.5067L158.515 26.4709C157.873 26.9676 157.201 27.2013 156.5 27.1721C155.799 27.2013 155.127 26.9383 154.514 26.4709Z" fill="white"/>
<path id="Vector_9" d="M157.902 28.9835L162.897 23.3738L165.087 25.3022C165.759 25.8865 166.11 26.4708 166.197 27.026C166.285 27.5811 166.11 28.1362 165.642 28.6621C165.175 29.1588 164.679 29.4218 164.094 29.3926C163.51 29.3634 162.897 29.0712 162.196 28.4576L160.911 27.3181L158.749 29.7432L157.902 28.9835ZM161.524 26.6169L162.838 27.7856C163.218 28.107 163.569 28.2823 163.919 28.3115C164.27 28.3407 164.562 28.1947 164.795 27.9025C165.029 27.6395 165.117 27.3474 165.117 26.9968C165.117 26.6461 164.883 26.2955 164.474 25.9449L163.16 24.7762L161.524 26.6169Z" fill="white"/>
<path id="Vector_10" d="M165.117 35.9957C164.532 35.4113 164.182 34.7978 164.036 34.155C163.89 33.5122 163.919 32.8987 164.153 32.3143C164.386 31.7007 164.766 31.1456 165.321 30.6197C165.876 30.0938 166.46 29.714 167.074 29.5094C167.687 29.3049 168.3 29.2757 168.914 29.451C169.527 29.5971 170.082 29.9477 170.608 30.5028C170.958 30.8827 171.221 31.2625 171.396 31.7007C171.572 32.139 171.63 32.5773 171.601 33.0155C171.572 33.4538 171.396 33.9213 171.104 34.3595L170.082 33.6875C170.403 33.22 170.549 32.7526 170.491 32.3143C170.433 31.876 170.257 31.4962 169.907 31.1164C169.556 30.7658 169.177 30.5321 168.738 30.4444C168.3 30.3567 167.862 30.4152 167.424 30.5905C166.986 30.7658 166.519 31.058 166.08 31.4962C165.701 31.876 165.409 32.2559 165.204 32.6941C165 33.1032 164.941 33.5414 165 33.9797C165.058 34.418 165.292 34.8562 165.73 35.2945C165.964 35.5574 166.256 35.7619 166.577 35.9373C166.898 36.1126 167.249 36.2002 167.658 36.171L168.884 35.0023L168.914 35.4698L166.986 33.4538L167.658 32.811L170.082 35.3237L168.125 37.1936C167.658 37.252 167.249 37.2228 166.84 37.1059C166.46 36.9891 166.11 36.8138 165.847 36.6092C165.555 36.4047 165.321 36.2002 165.117 35.9957Z" fill="white"/>
<path id="Vector_11" d="M171.221 43.0955C170.871 42.6572 170.637 42.1898 170.52 41.7223C170.403 41.2548 170.403 40.8165 170.52 40.3491C170.637 39.8816 170.871 39.5018 171.221 39.0927L172.214 39.94C171.776 40.3198 171.542 40.7289 171.484 41.1671C171.426 41.6054 171.601 42.0437 171.951 42.5111C172.156 42.8033 172.389 42.9786 172.623 43.0955C172.857 43.2124 173.09 43.2708 173.324 43.2416C173.558 43.2124 173.762 43.1247 173.967 42.9494C174.259 42.7157 174.405 42.4819 174.405 42.1897C174.405 41.8976 174.317 41.6054 174.171 41.2548L173.762 40.4075C173.675 40.2322 173.587 39.9985 173.499 39.7647C173.412 39.531 173.353 39.268 173.324 39.0051C173.295 38.7421 173.353 38.4792 173.441 38.187C173.558 37.924 173.762 37.6611 174.054 37.4273C174.434 37.1352 174.843 36.9891 175.223 36.9891C175.632 36.9891 176.011 37.1059 176.362 37.3397C176.742 37.5734 177.063 37.8656 177.355 38.2454C177.676 38.6545 177.881 39.0635 177.998 39.4725C178.114 39.8816 178.114 40.2614 178.027 40.6412C177.939 41.0211 177.735 41.3717 177.443 41.6931L176.479 40.875C176.712 40.6705 176.858 40.4659 176.946 40.2322C177.034 39.9985 177.063 39.7939 177.004 39.531C176.946 39.268 176.829 39.0343 176.625 38.7713C176.449 38.5376 176.274 38.3623 176.07 38.2454C175.865 38.1285 175.661 38.0409 175.427 38.0409C175.223 38.0409 175.018 38.0993 174.814 38.2746C174.58 38.4499 174.463 38.6837 174.463 38.9466C174.463 39.2096 174.58 39.5602 174.785 39.9985L175.194 40.875C175.34 41.1964 175.456 41.547 175.544 41.8976C175.602 42.2482 175.602 42.5988 175.486 42.9202C175.369 43.2416 175.135 43.563 174.755 43.8551C174.376 44.1473 173.996 44.3226 173.587 44.3518C173.178 44.381 172.769 44.2934 172.389 44.0597C171.951 43.8551 171.572 43.5337 171.221 43.0955Z" fill="white"/>
<path id="Vector_12" d="M174.755 47.7118L180.218 44.0597L178.728 41.8391L179.517 41.3132L183.138 46.7184L182.35 47.2443L180.86 45.0238L175.398 48.676L174.755 47.7118Z" fill="white"/>
<path id="Vector_13" d="M176.391 50.0784L184.453 48.9974L185.066 50.0784L180.101 56.5062L179.487 55.4544L183.839 50.0492L176.975 51.1302L176.391 50.0784ZM179.283 50.3706L180.071 49.9031L182.087 53.38L181.298 53.8474L179.283 50.3706Z" fill="white"/>
<path id="Vector_14" d="M180.422 57.2075L187.198 53.9644L188.513 56.7108C189.272 58.2885 189.038 59.3696 187.812 59.9539C186.585 60.5382 185.592 60.0123 184.803 58.4054L183.985 56.7108L180.889 58.2009L180.422 57.2075ZM182.35 61.2102L184.862 57.7626L185.417 58.9021L182.905 62.3789L182.35 61.2102ZM184.832 56.3602L185.65 58.084C185.855 58.5223 186.118 58.8144 186.41 58.9897C186.702 59.1358 186.994 59.1358 187.344 58.9897C187.666 58.8436 187.87 58.5807 187.929 58.2593C187.987 57.9379 187.928 57.5581 187.695 57.1198L186.877 55.396L184.832 56.3602Z" fill="white"/>
<path id="Vector_15" d="M184.015 65.1838L190.148 62.7879L189.185 60.3045L190.061 59.9539L192.427 66.0018L191.55 66.3524L190.557 63.8398L184.424 66.2356L184.015 65.1838Z" fill="white"/>
<path id="Vector_16" d="M186.41 72.4005C186.234 71.8161 186.176 71.2902 186.264 70.7935C186.351 70.2968 186.556 69.8878 186.877 69.5372C187.198 69.1866 187.636 68.9236 188.191 68.7483L192.865 67.3167L193.186 68.3977L188.6 69.8001C188.045 69.9754 187.636 70.2676 187.403 70.6766C187.169 71.0857 187.14 71.5824 187.315 72.1083C187.49 72.6634 187.782 73.0432 188.191 73.2478C188.6 73.4523 189.126 73.4815 189.681 73.3062L194.267 71.9038L194.588 72.9848L189.915 74.4165C189.36 74.5918 188.863 74.621 188.396 74.5041C187.929 74.3872 187.52 74.1535 187.169 73.8029C186.848 73.4815 186.585 72.9848 186.41 72.4005Z" fill="white"/>
<path id="Vector_17" d="M187.753 76.6661L195.085 75.03L195.727 77.8933C195.932 78.7406 195.873 79.4418 195.61 79.9385C195.348 80.4352 194.88 80.7858 194.208 80.9319C193.537 81.0779 192.982 80.9611 192.514 80.6105C192.047 80.2599 191.726 79.6171 191.521 78.7406L191.142 77.046L187.958 77.7472L187.753 76.6661ZM192.047 76.8414L192.427 78.5653C192.544 79.062 192.719 79.4126 192.982 79.6171C193.245 79.8216 193.566 79.88 193.946 79.8216C194.267 79.734 194.53 79.5586 194.734 79.2957C194.939 79.0327 194.968 78.5945 194.822 78.0686L194.442 76.3447L192.047 76.8414Z" fill="white"/>
<path id="Vector_18" d="M189.389 85.7527C189.301 85.1976 189.331 84.6717 189.447 84.2042C189.564 83.7367 189.798 83.3569 190.119 83.0063C190.441 82.6849 190.85 82.4219 191.346 82.2759L191.784 83.503C191.229 83.6198 190.791 83.8536 190.557 84.2042C190.295 84.5548 190.207 85.0223 190.295 85.6066C190.353 85.9572 190.441 86.2494 190.587 86.4539C190.733 86.6877 190.908 86.8337 191.112 86.9214C191.317 87.0091 191.551 87.0383 191.813 87.009C192.164 86.9506 192.427 86.8045 192.573 86.5708C192.719 86.3371 192.806 86.0157 192.836 85.6358L192.894 84.7009C192.894 84.4964 192.923 84.2626 192.982 83.9997C193.04 83.7367 193.099 83.503 193.215 83.24C193.332 83.0063 193.508 82.7725 193.712 82.5972C193.946 82.4219 194.238 82.3051 194.617 82.2466C195.114 82.1882 195.523 82.2466 195.844 82.4512C196.165 82.6557 196.458 82.9479 196.662 83.3277C196.866 83.7075 197.013 84.1458 197.071 84.6132C197.159 85.1391 197.129 85.5774 197.013 85.9864C196.896 86.3955 196.72 86.7461 196.458 87.009C196.195 87.3012 195.844 87.5057 195.435 87.6518L194.997 86.4539C195.289 86.3955 195.523 86.2786 195.727 86.1325C195.932 85.9864 196.049 85.7819 196.136 85.5482C196.224 85.3144 196.224 85.0223 196.195 84.7009C196.165 84.4379 196.078 84.175 195.961 83.9705C195.844 83.7659 195.698 83.5906 195.523 83.4738C195.348 83.3569 195.114 83.3277 194.88 83.3569C194.588 83.3861 194.384 83.5322 194.267 83.7659C194.121 83.9997 194.062 84.3503 194.004 84.847L193.916 85.8111C193.887 86.1618 193.829 86.5124 193.712 86.863C193.595 87.2136 193.42 87.5057 193.157 87.7395C192.894 87.9732 192.544 88.1193 192.076 88.207C191.609 88.2654 191.171 88.2362 190.82 88.0609C190.47 87.8856 190.149 87.6226 189.915 87.2136C189.681 86.8045 189.448 86.3078 189.389 85.7527Z" fill="white"/>
<path id="Vector_19" d="M190.353 94.2257L196.925 93.9336L196.808 91.2456L197.743 91.2164L198.035 97.7026L197.1 97.7318L196.983 95.0438L190.411 95.336L190.353 94.2257Z" fill="white"/>
<path id="Vector_20" d="M190.294 101.793C190.324 101.033 190.499 100.391 190.82 99.8355C191.141 99.2804 191.609 98.8713 192.193 98.6084C192.777 98.3454 193.478 98.1993 194.267 98.2285C195.055 98.2578 195.756 98.4331 196.311 98.7252C196.896 99.0466 197.305 99.4849 197.626 100.04C197.918 100.595 198.064 101.267 198.035 101.998C198.006 102.757 197.83 103.4 197.509 103.926C197.188 104.452 196.72 104.89 196.136 105.153C195.552 105.445 194.851 105.562 194.062 105.533C193.274 105.504 192.573 105.328 192.018 105.036C191.463 104.744 190.995 104.277 190.703 103.721C190.411 103.195 190.265 102.553 190.294 101.793ZM191.229 101.822C191.2 102.348 191.317 102.786 191.55 103.166C191.784 103.546 192.105 103.838 192.544 104.043C192.982 104.247 193.507 104.364 194.121 104.393C194.734 104.423 195.26 104.335 195.698 104.13C196.136 103.926 196.487 103.663 196.75 103.312C197.012 102.962 197.129 102.523 197.158 101.998C197.188 101.501 197.071 101.063 196.837 100.683C196.604 100.303 196.282 100.011 195.844 99.8063C195.406 99.6018 194.88 99.4849 194.267 99.4557C193.653 99.4264 193.128 99.5141 192.69 99.7186C192.251 99.8939 191.901 100.186 191.638 100.537C191.375 100.887 191.258 101.296 191.229 101.822Z" fill="white"/>
<path id="Vector_21" d="M189.477 111.698C189.564 111.143 189.71 110.646 189.973 110.237C190.207 109.828 190.528 109.506 190.937 109.273C191.346 109.039 191.784 108.922 192.339 108.922L192.427 110.208C191.843 110.149 191.404 110.266 191.054 110.529C190.703 110.792 190.499 111.23 190.411 111.785C190.353 112.136 190.382 112.428 190.44 112.691C190.528 112.954 190.645 113.129 190.82 113.275C190.995 113.421 191.229 113.509 191.463 113.538C191.813 113.597 192.105 113.509 192.31 113.334C192.514 113.129 192.69 112.866 192.806 112.516L193.128 111.639C193.186 111.435 193.274 111.23 193.391 110.996C193.507 110.763 193.653 110.529 193.829 110.324C194.004 110.12 194.238 109.945 194.501 109.857C194.763 109.74 195.085 109.711 195.464 109.769C195.961 109.828 196.311 110.003 196.604 110.295C196.896 110.587 197.071 110.938 197.158 111.376C197.246 111.815 197.275 112.253 197.188 112.72C197.129 113.246 196.983 113.684 196.75 114.035C196.516 114.386 196.253 114.678 195.932 114.882C195.61 115.087 195.202 115.204 194.763 115.204L194.676 113.918C194.968 113.918 195.231 113.889 195.464 113.801C195.698 113.714 195.873 113.568 195.99 113.363C196.136 113.159 196.224 112.896 196.282 112.545C196.311 112.282 196.311 112.019 196.253 111.785C196.195 111.552 196.107 111.347 195.961 111.201C195.815 111.055 195.61 110.938 195.377 110.909C195.085 110.88 194.851 110.938 194.647 111.143C194.442 111.347 194.267 111.639 194.121 112.107L193.77 113.012C193.653 113.363 193.478 113.655 193.274 113.977C193.069 114.269 192.806 114.502 192.485 114.649C192.164 114.795 191.784 114.853 191.317 114.795C190.849 114.736 190.44 114.561 190.148 114.298C189.856 114.035 189.623 113.684 189.506 113.246C189.418 112.749 189.389 112.253 189.477 111.698Z" fill="white"/>
<path id="Vector_22" d="M188.191 118.797C188.337 118.096 188.629 117.512 189.068 117.044C189.506 116.577 190.031 116.285 190.674 116.109C191.317 115.934 192.018 115.934 192.777 116.109C193.507 116.256 194.121 116.548 194.646 116.957C195.143 117.366 195.523 117.862 195.727 118.447C195.932 119.031 195.961 119.703 195.815 120.434C195.64 121.193 195.318 121.807 194.793 122.274C194.267 122.742 193.624 122.976 192.806 123.005L192.777 121.836C193.39 121.836 193.858 121.69 194.208 121.398C194.559 121.106 194.793 120.726 194.88 120.258C194.997 119.762 194.968 119.323 194.793 118.914C194.617 118.505 194.325 118.184 193.945 117.892C193.566 117.629 193.069 117.424 192.514 117.307C191.93 117.19 191.404 117.161 190.937 117.249C190.47 117.337 190.061 117.541 189.739 117.804C189.418 118.096 189.214 118.476 189.126 118.944C189.009 119.44 189.068 119.908 189.301 120.346C189.535 120.784 189.885 121.106 190.411 121.31L189.856 122.42C189.155 122.041 188.659 121.544 188.367 120.901C188.075 120.288 188.016 119.586 188.191 118.797Z" fill="white"/>
<path id="Vector_23" d="M187.578 122.216L193.858 127.358L193.507 128.556L185.417 129.316L185.767 128.176L192.69 127.68L187.228 123.355L187.578 122.216ZM189.331 124.524L190.207 124.787L189.039 128.644L188.162 128.381L189.331 124.524Z" fill="white"/>
<path id="Vector_24" d="M185.125 130.017L192.135 132.734L191.726 133.786L185.592 131.419L184.248 134.896L183.372 134.546L185.125 130.017Z" fill="white"/>
<path id="Vector_25" d="M183.051 135.247L189.886 138.402L187.753 142.989L186.906 142.61L188.542 139.045L186.585 138.139L185.154 141.236L184.336 140.857L185.767 137.76L183.401 136.678L181.736 140.301L180.889 139.922L183.051 135.247Z" fill="white"/>
<path id="Vector_26" d="M178.728 144.012L185.972 146.583L185.387 147.547L178.962 145.151L178.991 145.093L183.81 150.148L183.138 151.258L176.45 149.242L176.479 149.183L181.561 153.829L180.977 154.793L175.398 149.505L176.245 148.132L182.817 150.177L182.729 150.352L177.881 145.385L178.728 144.012Z" fill="white"/>
<path id="Vector_27" d="M174.084 151.316L174.814 151.842L174.23 152.66L178.874 156.02L179.458 155.202L180.188 155.728L178.348 158.27L177.618 157.744L178.202 156.926L173.558 153.566L172.974 154.384L172.244 153.858L174.084 151.316Z" fill="white"/>
<path id="Vector_28" d="M170.199 156.459L175.281 160.637L176.975 158.562L177.706 159.147L173.587 164.172L172.857 163.588L174.551 161.513L169.469 157.335L170.199 156.459Z" fill="white"/>
<path id="Vector_29" d="M167.22 160.052L172.652 165.253L171.864 166.071L169.556 163.85L166.869 166.655L169.177 168.876L168.417 169.694L162.955 164.493L163.714 163.675L166.168 166.013L168.855 163.208L166.402 160.87L167.22 160.052Z" fill="white"/>
<path id="Vector_30" d="M159.333 167.62C159.888 167.123 160.502 166.801 161.115 166.685C161.728 166.568 162.342 166.626 162.955 166.86C163.569 167.094 164.124 167.532 164.649 168.116C165.175 168.73 165.526 169.343 165.672 169.957C165.847 170.6 165.818 171.213 165.613 171.798C165.409 172.382 165.029 172.937 164.445 173.434C163.89 173.93 163.277 174.252 162.663 174.369C162.05 174.486 161.436 174.427 160.823 174.193C160.21 173.96 159.655 173.521 159.129 172.937C158.603 172.353 158.253 171.71 158.107 171.096C157.961 170.483 157.961 169.84 158.165 169.256C158.369 168.671 158.778 168.116 159.333 167.62ZM159.947 168.321C159.567 168.671 159.304 169.051 159.187 169.46C159.07 169.869 159.07 170.337 159.216 170.804C159.363 171.272 159.625 171.739 160.034 172.177C160.443 172.645 160.852 172.966 161.29 173.171C161.728 173.375 162.167 173.434 162.605 173.375C163.043 173.317 163.452 173.112 163.831 172.762C164.211 172.44 164.474 172.061 164.591 171.622C164.708 171.184 164.708 170.746 164.562 170.278C164.416 169.811 164.153 169.343 163.744 168.905C163.335 168.438 162.926 168.116 162.488 167.912C162.05 167.707 161.612 167.649 161.173 167.707C160.735 167.795 160.326 167.97 159.947 168.321Z" fill="white"/>
<path id="Vector_31" d="M153.346 172.47C153.842 172.119 154.309 171.885 154.806 171.798C155.303 171.71 155.77 171.768 156.208 171.944C156.646 172.119 157.026 172.47 157.376 172.908L160.268 176.823L159.363 177.495L156.5 173.638C156.15 173.171 155.741 172.879 155.273 172.82C154.806 172.762 154.339 172.879 153.871 173.2C153.404 173.551 153.141 173.96 153.083 174.427C153.024 174.895 153.17 175.362 153.521 175.859L156.354 179.716L155.449 180.388L152.557 176.472C152.206 176.005 152.031 175.537 151.973 175.07C151.914 174.603 152.002 174.135 152.236 173.697C152.498 173.229 152.849 172.82 153.346 172.47Z" fill="white"/>
<path id="Vector_32" d="M148.088 176.239L151.593 181.819L153.871 180.388L154.368 181.176L148.877 184.624L148.38 183.835L150.658 182.403L147.153 176.823L148.088 176.239Z" fill="white"/>
<path id="Vector_33" d="M141.808 179.949L145.109 186.698L144.086 187.195L142.684 184.332L139.179 186.056L140.581 188.919L139.588 189.416L136.288 182.666L137.281 182.17L138.77 185.208L142.275 183.485L140.786 180.446L141.808 179.949Z" fill="white"/>
<path id="Vector_34" d="M135.587 182.988L135.411 191.11L134.243 191.549L128.635 185.647L129.745 185.208L134.418 190.351V183.397L135.587 182.988ZM134.856 185.793L135.178 186.64L131.439 188.101L131.118 187.254L134.856 185.793Z" fill="white"/>
<path id="Vector_35" d="M126.736 186.231L131.643 192.571L130.504 192.922L126.269 187.137L126.444 187.078L126.211 194.236L125.072 194.587L125.51 186.582L126.736 186.231Z" fill="white"/>
<path id="Vector_36" d="M122.267 187.546L122.472 188.422L121.479 188.656L122.822 194.237L123.816 194.003L124.02 194.879L120.953 195.61L120.749 194.733L121.742 194.499L120.398 188.919L119.405 189.153L119.201 188.276L122.267 187.546Z" fill="white"/>
<path id="Vector_37" d="M118.091 188.568L119.405 195.96L117.857 196.223L112.891 190.263L113.125 190.175L114.294 196.837L113.242 197.012L111.928 189.62L113.388 189.357L118.441 195.318L118.178 195.405L117.01 188.714L118.091 188.568Z" fill="white"/>
<path id="Vector_38" d="M107.079 190.029C107.897 189.942 108.598 190.058 109.182 190.321C109.766 190.614 110.234 191.023 110.555 191.578C110.876 192.133 111.081 192.776 111.168 193.535C111.227 194.295 111.168 194.996 110.935 195.61C110.701 196.223 110.35 196.72 109.854 197.1C109.357 197.48 108.715 197.713 107.984 197.772C107.488 197.83 106.991 197.772 106.553 197.655C106.115 197.538 105.735 197.304 105.385 196.983C105.034 196.662 104.801 196.252 104.625 195.756L105.794 195.376C105.969 195.931 106.232 196.34 106.612 196.574C106.991 196.808 107.4 196.895 107.897 196.866C108.393 196.808 108.802 196.662 109.124 196.369C109.445 196.077 109.679 195.727 109.825 195.259C109.971 194.792 110.029 194.266 109.971 193.652C109.912 193.126 109.795 192.63 109.591 192.221C109.386 191.811 109.094 191.461 108.715 191.256C108.335 191.023 107.838 190.935 107.225 190.993C106.875 191.023 106.524 191.11 106.174 191.256C105.823 191.402 105.56 191.636 105.326 191.958L105.472 193.652L105.093 193.389L107.868 193.126L107.955 194.061L104.479 194.383L104.246 191.665C104.479 191.256 104.771 190.964 105.122 190.73C105.443 190.497 105.794 190.351 106.144 190.263C106.495 190.117 106.816 190.058 107.079 190.029Z" fill="white"/>
<path id="Vector_39" d="M98.258 190.497L98.1412 197.071L100.828 197.1L100.799 198.035L94.3148 197.918L94.344 196.983L97.0312 197.012L97.1481 190.438L98.258 190.497Z" fill="white"/>
<path id="Vector_40" d="M90.7221 190C91.4815 190.058 92.1241 190.292 92.6206 190.643C93.1172 190.993 93.5261 191.49 93.7598 192.104C93.9935 192.717 94.0811 193.418 94.0227 194.207C93.9642 194.996 93.7306 195.668 93.4093 196.223C93.0588 196.778 92.5914 197.187 92.0365 197.45C91.4523 197.713 90.8097 197.83 90.0503 197.743C89.2909 197.684 88.6775 197.45 88.1517 197.1C87.626 196.749 87.2462 196.252 87.0126 195.639C86.7789 195.025 86.6913 194.324 86.7497 193.535C86.8081 192.746 87.0418 192.074 87.3631 191.519C87.7136 190.964 88.1809 190.555 88.7359 190.292C89.3201 190.029 89.9627 189.942 90.7221 190ZM90.6345 190.935C90.1379 190.876 89.6706 190.964 89.2909 191.169C88.9111 191.373 88.5898 191.695 88.3562 192.104C88.1225 192.542 87.9765 193.039 87.918 193.652C87.8596 194.266 87.918 194.792 88.0641 195.259C88.2101 195.727 88.473 196.077 88.8235 196.34C89.174 196.603 89.5829 196.778 90.1087 196.808C90.6052 196.866 91.0434 196.778 91.4523 196.574C91.8612 196.369 92.1533 196.048 92.387 195.639C92.6206 195.23 92.7667 194.704 92.8251 194.09C92.8835 193.477 92.8251 192.951 92.6791 192.483C92.533 192.016 92.2701 191.665 91.9196 191.373C91.5691 191.139 91.1602 190.993 90.6345 190.935Z" fill="white"/>
<path id="Vector_41" d="M83.4492 189.24L81.9596 196.603L79.0387 196.019C78.2793 195.873 77.7243 195.61 77.3446 195.201C76.9649 194.821 76.848 194.324 76.9649 193.769C77.0233 193.418 77.1693 193.126 77.3738 192.951C77.5783 192.746 77.8119 192.63 78.0748 192.542C78.3377 192.454 78.6006 192.454 78.8634 192.454L78.8342 192.483C78.3085 192.279 77.9288 191.987 77.6367 191.578C77.3738 191.169 77.2862 190.672 77.403 190.088C77.4906 189.591 77.6951 189.24 77.9872 188.977C78.2793 188.744 78.6298 188.598 79.0387 188.539C79.4476 188.481 79.8857 188.51 80.3239 188.598L83.4492 189.24ZM81.463 193.418L79.7105 193.068C79.3308 192.98 78.9803 193.009 78.6882 193.126C78.3961 193.243 78.2208 193.477 78.1332 193.857C78.0748 194.149 78.1332 194.412 78.2793 194.646C78.4545 194.879 78.7758 195.055 79.2431 195.142L81.0541 195.522L81.463 193.418ZM82.164 189.883L80.2363 189.503C79.8565 189.416 79.5352 189.416 79.3016 189.503C79.0679 189.591 78.8634 189.708 78.7466 189.912C78.6298 190.117 78.5421 190.292 78.4837 190.526C78.4253 190.818 78.4545 191.081 78.5421 191.315C78.6298 191.549 78.805 191.724 79.0387 191.899C79.2724 192.045 79.5937 192.162 79.9442 192.25L81.6091 192.571L82.164 189.883Z" fill="white"/>
<path id="Vector_42" d="M73.898 186.874C74.4821 187.049 74.9495 187.283 75.3292 187.633C75.6797 187.984 75.9426 188.364 76.0594 188.831C76.1762 189.299 76.147 189.795 76.001 190.351L74.6574 195.055L73.5767 194.733L74.8911 190.117C75.0663 189.562 75.0371 189.065 74.8034 188.627C74.5698 188.218 74.1901 187.926 73.6351 187.75C73.0801 187.604 72.6128 187.633 72.2039 187.867C71.7949 188.101 71.5029 188.51 71.3276 189.094L70.0132 193.681L68.9325 193.389L70.2761 188.685C70.4221 188.13 70.685 187.692 71.0355 187.37C71.386 187.049 71.7949 186.815 72.2915 186.728C72.788 186.64 73.3138 186.728 73.898 186.874Z" fill="white"/>
<path id="Vector_43" d="M69.9548 185.822L69.6627 186.669L68.6988 186.319L66.8002 191.724L67.7641 192.074L67.472 192.922L64.522 191.87L64.8141 191.023L65.7779 191.373L67.6765 185.968L66.7126 185.617L67.0047 184.77L69.9548 185.822Z" fill="white"/>
<path id="Vector_44" d="M65.8947 184.361L63.0031 191.315L61.9808 190.877L64.5219 184.799L61.0753 183.368L61.4258 182.491L65.8947 184.361Z" fill="white"/>
<path id="Vector_45" d="M60.7248 182.17L57.3658 188.89L55.2043 187.809C54.4157 187.4 53.8315 186.961 53.4518 186.435C53.0721 185.91 52.8969 185.354 52.8969 184.712C52.8969 184.098 53.0721 183.426 53.4226 182.754C53.8023 181.994 54.2697 181.439 54.7954 181.059C55.3212 180.68 55.9053 180.534 56.5771 180.534C57.2197 180.563 57.9207 180.738 58.6217 181.089L60.7248 182.17ZM59.2935 182.52L58.2712 182.024C56.5771 181.176 55.3212 181.585 54.4741 183.28C54.2112 183.806 54.0652 184.303 54.0652 184.741C54.036 185.208 54.1528 185.617 54.4157 186.026C54.6786 186.406 55.0875 186.757 55.6717 187.049L56.7524 187.575L59.2935 182.52Z" fill="white"/>
<path id="Vector_46" d="M52.5463 177.933L45.8575 182.55L44.806 181.878L46.2957 173.901L47.318 174.544L45.916 181.352L51.5532 177.261L52.5463 177.933ZM49.8299 178.985L49.3334 179.745L45.9452 177.553L46.4417 176.794L49.8299 178.985Z" fill="white"/>
<path id="Vector_47" d="M45.7115 173.434L41.0966 179.394L39.8406 178.43L40.8921 170.746L41.0966 170.863L36.9782 176.209L36.1311 175.537L40.7169 169.577L41.8852 170.483L40.8921 178.255L40.6584 178.138L44.8061 172.762L45.7115 173.434Z" fill="white"/>
<path id="Vector_48" d="M39.6069 168.642L34.5538 174.193L32.7428 172.557C32.1003 171.973 31.6621 171.359 31.4285 170.746C31.1948 170.132 31.1948 169.548 31.37 168.934C31.5453 168.321 31.8958 167.766 32.4216 167.181C33.0057 166.539 33.5899 166.129 34.2033 165.925C34.8167 165.72 35.43 165.72 36.0434 165.896C36.6568 166.071 37.2702 166.451 37.8836 167.006L39.6069 168.642ZM38.1465 168.584L37.2994 167.824C35.8974 166.568 34.583 166.626 33.2978 167.999C32.9181 168.438 32.626 168.876 32.48 169.314C32.3339 169.752 32.3339 170.191 32.48 170.629C32.626 171.067 32.9473 171.505 33.4146 171.944L34.2909 172.762L38.1465 168.584Z" fill="white"/>
<path id="Vector_49" d="M30.3186 159.234C30.8151 159.789 31.1364 160.403 31.2532 161.016C31.3701 161.63 31.3117 162.244 31.078 162.857C30.8443 163.471 30.4062 164.026 29.822 164.552C29.2086 165.078 28.5952 165.428 27.9819 165.574C27.3393 165.72 26.7259 165.72 26.1417 165.516C25.5283 165.311 25.0026 164.932 24.506 164.347C24.0095 163.792 23.6882 163.179 23.5714 162.565C23.4545 161.951 23.5129 161.338 23.7466 160.724C23.9803 160.111 24.4184 159.556 25.0026 159.03C25.616 158.504 26.2293 158.153 26.8427 158.007C27.4853 157.832 28.0987 157.861 28.6829 158.066C29.267 158.27 29.822 158.65 30.3186 159.234ZM29.6176 159.848C29.267 159.468 28.8873 159.205 28.4784 159.088C28.0695 158.971 27.6022 158.971 27.1348 159.117C26.6675 159.263 26.2001 159.526 25.762 159.935C25.2947 160.344 24.9734 160.754 24.7689 161.192C24.5645 161.63 24.506 162.068 24.5645 162.507C24.6229 162.945 24.8273 163.354 25.1778 163.734C25.4991 164.113 25.8788 164.376 26.317 164.493C26.7551 164.61 27.1932 164.61 27.6606 164.464C28.1279 164.318 28.5952 164.055 29.0334 163.646C29.5007 163.237 29.822 162.828 30.0265 162.39C30.2309 161.951 30.2894 161.513 30.2309 161.075C30.1433 160.637 29.9388 160.228 29.6176 159.848Z" fill="white"/>
<path id="Vector_50" d="M27.1349 155.64L21.1179 160.14L19.3654 157.803C18.8396 157.101 18.5767 156.459 18.606 155.874C18.6352 155.29 18.9272 154.822 19.4822 154.384C20.0372 153.975 20.5921 153.829 21.1471 153.975C21.7021 154.121 22.257 154.559 22.812 155.29L23.8343 156.692L26.4339 154.764L27.1349 155.64ZM23.1333 157.218L22.0818 155.787C21.7897 155.377 21.4684 155.144 21.1471 155.056C20.8258 154.968 20.5045 155.056 20.1832 155.261C19.9203 155.465 19.7451 155.728 19.6867 156.079C19.6283 156.429 19.7743 156.809 20.0956 157.247L21.1471 158.65L23.1333 157.218Z" fill="white"/>
<path id="Vector_51" d="M23.2209 150.294L16.8827 154.355L14.1663 150.118L14.9549 149.622L17.0871 152.923L18.8981 151.755L17.0579 148.891L17.8173 148.395L19.6575 151.258L21.8481 149.855L19.6867 146.495L20.4753 145.999L23.2209 150.294Z" fill="white"/>
<path id="Vector_52" d="M19.9204 145.064L13.3192 148.658L11.8588 145.97C11.0117 144.421 11.187 143.34 12.3845 142.697C13.5821 142.054 14.6044 142.493 15.4807 144.07L16.3861 145.707L19.3946 144.07L19.9204 145.064ZM15.5683 146.145L14.6628 144.479C14.4291 144.041 14.1663 143.778 13.8742 143.632C13.5821 143.486 13.2608 143.515 12.9395 143.691C12.6182 143.866 12.443 144.129 12.3845 144.45C12.3261 144.772 12.443 145.151 12.6766 145.59L13.5821 147.255L15.5683 146.145ZM17.7881 141.149L15.4807 144.742L14.8673 143.632L17.1748 140.038L17.7881 141.149Z" fill="white"/>
<path id="Vector_53" d="M16.9995 139.746L8.87948 139.98L8.38293 138.841L13.991 132.968L14.4875 134.078L9.58049 139.016L16.5322 138.665L16.9995 139.746ZM14.1663 139.162L13.3192 139.542L11.6835 135.86L12.5306 135.481L14.1663 139.162Z" fill="white"/>
<path id="Vector_54" d="M13.4068 131.302L7.24375 133.581L8.17843 136.094L7.30217 136.415L5.0531 130.338L5.92936 130.017L6.86404 132.53L13.0271 130.251L13.4068 131.302Z" fill="white"/>
<path id="Vector_55" d="M11.8296 126.891L4.61503 128.994L3.21301 124.144L4.11848 123.881L5.22841 127.65L7.27302 127.066L6.30913 123.794L7.18539 123.531L8.14928 126.803L10.632 126.073L9.52208 122.245L10.4276 121.982L11.8296 126.891Z" fill="white"/>
<path id="Vector_56" d="M9.20066 116.372L2.71634 117.57L3.21289 120.2L2.27821 120.375L1.10986 114.006L2.01533 113.831L2.51188 116.46L8.9962 115.262L9.20066 116.372Z" fill="white"/>
<path id="Vector_57" d="M8.38283 111.727L0.905408 112.516L0.788573 111.406L3.97232 111.084L3.5634 107.198L0.379652 107.52L0.262817 106.409L7.74024 105.62L7.85707 106.731L4.49807 107.081L4.907 110.967L8.26599 110.617L8.38283 111.727Z" fill="white"/>
<path id="Vector_58" d="M7.65267 104.101L0.146043 104.335L0 99.2803L0.934677 99.2511L1.05151 103.166L3.18374 103.108L3.09612 99.6894L4.00159 99.6601L4.08921 103.079L6.68878 102.991L6.57195 98.9881L7.50663 98.9589L7.65267 104.101Z" fill="white"/>
<path id="Vector_59" d="M7.53584 98.1993L6.63037 98.1701L6.65958 97.1475L0.934677 97.0014L0.905469 98.024L0 97.9948L0.087626 94.8393L0.993095 94.8685L0.963886 95.8619L6.68878 96.008L6.71799 95.0146L7.62346 95.0438L7.53584 98.1993Z" fill="white"/>
<path id="Vector_60" d="M7.65271 93.9043L0.175293 93.2616L0.438171 90.223C0.584214 88.4699 1.34364 87.6518 2.68724 87.7687C4.06005 87.8856 4.64422 88.8498 4.49818 90.632L4.35213 92.5019L7.76955 92.7941L7.65271 93.9043ZM3.41745 92.4143L3.5635 90.5151C3.59271 90.0184 3.53429 89.6386 3.35904 89.3757C3.18379 89.1127 2.92091 88.9374 2.5704 88.9082C2.19069 88.879 1.8986 88.9958 1.69414 89.2296C1.48968 89.4633 1.34364 89.8431 1.31443 90.3398L1.16839 92.2097L3.41745 92.4143ZM8.03242 89.4633L4.11846 91.1871L4.2353 89.9308L8.14926 88.207L8.03242 89.4633Z" fill="white"/>
<path id="Vector_61" d="M9.37603 81.3994C9.22998 82.1298 8.9379 82.7433 8.52898 83.24C8.12006 83.7367 7.5943 84.0581 6.95171 84.2334C6.30912 84.4087 5.60811 84.4379 4.84868 84.2626C4.06005 84.1166 3.41746 83.8244 2.8917 83.4446C2.36595 83.0355 2.01544 82.5388 1.81098 81.9545C1.60652 81.3701 1.57731 80.6689 1.72336 79.9385C1.8694 79.2081 2.16149 78.5945 2.57041 78.127C2.97933 77.6595 3.50509 77.3089 4.11847 77.1336C4.73185 76.9583 5.46207 76.9291 6.22149 77.1044C7.01013 77.2505 7.65272 77.5427 8.17847 77.9225C8.70423 78.3315 9.05473 78.8282 9.25919 79.4126C9.49286 79.9969 9.52207 80.6689 9.37603 81.3994ZM8.47056 81.2533C8.55819 80.7566 8.52898 80.2891 8.38293 79.8801C8.23689 79.471 7.9448 79.1204 7.53588 78.8574C7.12696 78.5945 6.63041 78.39 6.04624 78.2731C5.46207 78.1562 4.9071 78.1562 4.43976 78.2731C3.97242 78.39 3.59271 78.5945 3.27142 78.9159C2.97933 79.2373 2.77487 79.6463 2.65803 80.143C2.57041 80.6397 2.59962 81.078 2.74566 81.487C2.92091 81.896 3.18379 82.2467 3.59271 82.5096C4.00163 82.8018 4.49818 82.9771 5.08235 83.094C5.66653 83.2108 6.22149 83.2108 6.68883 83.094C7.15617 82.9771 7.56509 82.7726 7.85718 82.4512C8.14926 82.1298 8.35372 81.7207 8.47056 81.2533Z" fill="white"/>
<path id="Vector_62" d="M10.4859 75.7312L2.83325 75.0884L3.15455 74.0074L9.98938 74.7086L9.96017 74.767L4.0016 71.1148L4.38131 69.8585L11.3622 70.0922L11.333 70.1507L5.25757 66.966L5.57887 65.8849L12.3261 69.5955L11.8587 71.1441L4.99469 70.8519L5.05311 70.6766L10.9533 74.2119L10.4859 75.7312Z" fill="white"/>
<path id="Vector_63" d="M13.2023 67.1413L6.25061 64.278L6.86399 62.8171L14.5459 61.8238L14.4875 62.0575L8.2368 59.4864L8.64572 58.493L15.5974 61.3563L15.0424 62.7295L7.30212 63.8105L7.36054 63.5476L13.6404 66.1187L13.2023 67.1413Z" fill="white"/>
<path id="Vector_64" d="M18.6936 55.4836C18.4307 55.9803 18.1094 56.3894 17.7297 56.6815C17.35 56.9737 16.9411 57.1782 16.5029 57.2367C16.0648 57.2951 15.5682 57.2659 15.0717 57.0906L15.4514 55.8634C15.9772 56.1264 16.4445 56.1848 16.8534 56.0387C17.2623 55.8927 17.6129 55.5713 17.9049 55.0746C18.0802 54.7532 18.1678 54.4902 18.1678 54.2273C18.1678 53.9643 18.1386 53.7306 18.0218 53.5261C17.9049 53.3215 17.7297 53.1755 17.496 53.0294C17.1747 52.8541 16.8826 52.8248 16.6198 52.9417C16.3569 53.0586 16.094 53.2631 15.8603 53.5553L15.2469 54.2565C15.1009 54.4026 14.9549 54.5779 14.7796 54.7532C14.6044 54.9285 14.3707 55.1038 14.137 55.2207C13.9034 55.3375 13.6405 55.4252 13.3484 55.4252C13.0563 55.4252 12.735 55.3668 12.4137 55.1622C11.9756 54.9285 11.6835 54.6363 11.5374 54.2565C11.3914 53.8767 11.333 53.4968 11.3914 53.0586C11.4498 52.6203 11.5959 52.2113 11.8295 51.773C12.0924 51.3055 12.3553 50.9549 12.7058 50.692C13.0271 50.429 13.3776 50.2537 13.7865 50.1953C14.1662 50.1369 14.5751 50.1661 14.9841 50.2829L14.6044 51.5101C14.3415 51.3932 14.0786 51.3348 13.8449 51.3348C13.6113 51.3348 13.3776 51.4224 13.1731 51.5685C12.9687 51.7146 12.7934 51.9191 12.6182 52.2113C12.4721 52.445 12.4137 52.708 12.3553 52.9417C12.3261 53.1755 12.3261 53.4092 12.4137 53.6137C12.5013 53.8182 12.6474 53.9643 12.8518 54.0812C13.1147 54.2273 13.3484 54.2273 13.6113 54.1104C13.8741 53.9935 14.137 53.7598 14.4583 53.4092L15.1009 52.6788C15.3346 52.4158 15.5975 52.1529 15.8895 51.9483C16.1816 51.7438 16.5029 51.6269 16.8534 51.5977C17.2039 51.5685 17.5836 51.6562 17.9926 51.8899C18.4015 52.1236 18.7228 52.4158 18.9272 52.7664C19.1317 53.117 19.1901 53.5261 19.1609 53.9643C19.1317 54.4026 18.9857 54.9869 18.6936 55.4836Z" fill="white"/>
<path id="Vector_65" d="M22.1986 49.5817C21.8773 50.1077 21.4976 50.4875 21.0595 50.7212C20.6214 50.9842 20.1832 51.0718 19.6867 51.0718C19.2194 51.0426 18.7228 50.8965 18.2555 50.5751L14.1663 47.9456L14.7796 47.0106L18.8104 49.611C19.307 49.9323 19.7743 50.0492 20.2417 49.9616C20.709 49.8739 21.0887 49.5817 21.41 49.1143C21.7313 48.6176 21.8189 48.1501 21.7021 47.6826C21.5853 47.2151 21.2932 46.8353 20.7674 46.5139L16.7366 43.9136L17.35 42.9786L21.4392 45.6082C21.9066 45.9296 22.2571 46.2802 22.4907 46.7184C22.6952 47.1567 22.7828 47.595 22.7536 48.0917C22.7244 48.5591 22.5199 49.085 22.1986 49.5817Z" fill="white"/>
<path id="Vector_66" d="M24.5644 45.8127L18.5767 41.2548L20.3292 38.9174C20.8549 38.2162 21.4099 37.8072 21.9649 37.6611C22.5198 37.5442 23.0748 37.6611 23.6298 38.0993C24.1847 38.5084 24.4476 39.0051 24.4768 39.5894C24.506 40.1738 24.2431 40.8165 23.6882 41.547L22.6367 42.9202L25.2362 44.8777L24.5644 45.8127ZM21.9357 42.3943L23.0164 40.9918C23.3085 40.5828 23.4545 40.2322 23.4545 39.8816C23.4545 39.531 23.2793 39.268 22.9872 39.0343C22.7243 38.8298 22.403 38.7421 22.0817 38.8006C21.7312 38.8298 21.4099 39.0927 21.0594 39.531L20.0079 40.9334L21.9357 42.3943Z" fill="white"/>
<path id="Vector_67" d="M28.6245 40.5536L22.9872 35.5867L24.915 33.3954C25.4991 32.7234 26.0833 32.3435 26.6383 32.2559C27.1932 32.1682 27.7482 32.3435 28.274 32.811C28.7997 33.2493 29.0334 33.7752 29.0042 34.3595C28.975 34.9439 28.6829 35.5574 28.0695 36.2586L26.9304 37.5734L29.3839 39.7355L28.6245 40.5536ZM26.2293 36.9891L27.3977 35.6743C27.719 35.2945 27.8942 34.9439 27.8942 34.5933C27.8942 34.2427 27.7774 33.9505 27.4853 33.7167C27.2224 33.483 26.9304 33.3954 26.5798 33.3954C26.2293 33.4246 25.8788 33.6291 25.5283 34.0381L24.36 35.3529L26.2293 36.9891Z" fill="white"/>
<path id="Vector_68" d="M33.0349 35.6159L27.7482 30.2983L28.5368 29.5095L33.181 34.1842L35.8098 31.5547L36.4816 32.2267L33.0349 35.6159Z" fill="white"/>
<path id="Vector_69" d="M37.6792 31.1456L35.6638 28.8959L30.7275 27.2889L31.6038 26.5001L35.7222 27.8733L35.5178 28.0486L34.5831 23.8121L35.4593 23.0232L36.4816 28.107L38.497 30.386L37.6792 31.1456Z" fill="white"/>
<path id="Vector_70" d="M45.8284 24.747C45.2442 25.1561 44.6308 25.3898 44.0175 25.4483C43.3749 25.5067 42.7907 25.3606 42.1773 25.0684C41.5931 24.7763 41.0674 24.3088 40.6293 23.666C40.1911 23.0524 39.9282 22.4389 39.8114 21.7961C39.6946 21.1533 39.7822 20.5398 40.0159 19.9554C40.2495 19.3711 40.6877 18.8744 41.2718 18.4361C41.9144 17.9686 42.557 17.7349 43.258 17.7349C43.959 17.7349 44.6016 17.9978 45.215 18.5238L44.4264 19.4295C43.959 19.0205 43.5209 18.8159 43.0536 18.8159C42.6154 18.7867 42.1773 18.9328 41.7976 19.1958C41.3887 19.4879 41.1258 19.8385 40.9798 20.2476C40.8337 20.6566 40.8337 21.0949 40.9213 21.5624C41.009 22.0298 41.2426 22.4973 41.5931 22.9648C41.9436 23.4323 42.3234 23.8121 42.7323 24.0458C43.1412 24.3088 43.5793 24.4257 43.9883 24.4257C44.4264 24.4257 44.8353 24.2796 45.215 24.0166C45.6239 23.7244 45.916 23.3446 46.0329 22.8771C46.1497 22.4097 46.0913 21.913 45.8576 21.4163L46.9967 20.9488C47.2888 21.7084 47.318 22.4097 47.0844 23.0817C46.9091 23.7244 46.471 24.2796 45.8284 24.747Z" fill="white"/>
<path id="Vector_71" d="M49.2167 22.2343L45.3319 15.8065L46.2958 15.2222L47.9607 17.9686L51.2905 15.9526L49.6256 13.2062L50.5895 12.6219L54.4742 19.0497L53.5103 19.634L51.7578 16.7415L48.428 18.7575L50.1806 21.65L49.2167 22.2343Z" fill="white"/>
<path id="Vector_72" d="M55.1167 18.6406L54.5618 10.5182L55.6717 9.9631L61.7763 15.3391L60.6956 15.865L55.5841 11.161L56.2267 18.0855L55.1167 18.6406ZM55.6133 15.7773L55.2044 14.9593L58.797 13.177L59.2059 13.9951L55.6133 15.7773Z" fill="white"/>
<path id="Vector_73" d="M62.2144 15.2222L61.8639 14.4041L62.7986 14.0243L60.5788 8.73597L59.6441 9.1158L59.2936 8.29771L62.1852 7.07059L62.5357 7.88867L61.6011 8.2685L63.8209 13.5568L64.7556 13.177L65.1353 14.0243L62.2144 15.2222Z" fill="white"/>
<path id="Vector_74" d="M66.1868 13.5568L63.7333 6.45701L65.2229 5.9311L71.0647 11.0149L70.831 11.1318L68.6403 4.76241L69.6626 4.4118L72.1162 11.5116L70.7142 12.0083L64.7848 6.92449L65.0185 6.80762L67.2383 13.2354L66.1868 13.5568Z" fill="white"/>
<path id="Vector_75" d="M74.3068 11.0441C74.0732 11.1026 73.8395 11.1026 73.635 10.9857C73.4306 10.8688 73.2845 10.6935 73.2261 10.4598C73.1677 10.2261 73.1677 9.99232 73.2845 9.7878C73.4014 9.58328 73.5766 9.43719 73.8103 9.37876C74.044 9.32032 74.2776 9.34954 74.4821 9.43719C74.6866 9.55406 74.8326 9.72937 74.891 9.9631C74.9494 10.1968 74.9494 10.4306 74.8326 10.6351C74.7158 10.8396 74.5405 10.9857 74.3068 11.0441Z" fill="white"/>
</g>
</g>
</svg>
