<svg width="120" height="60" viewBox="0 0 120 60" fill="none" xmlns="http://www.w3.org/2000/svg">
<path d="M99.699 39.0053H97.814L97.2742 38.7338L90.8004 32.369C90.6411 32.1598 90.327 32.1598 90.1632 32.369L83.6895 38.7338L83.1497 39.0053H81.2646L80.9947 38.7338V36.0232L87.7162 29.378C87.8357 29.2267 87.8313 29.013 87.7074 28.8662L81.0345 23.0176V20.307L81.3045 20.0355H83.1895L83.7293 20.307L90.1721 25.8974C90.3314 26.0888 90.6279 26.0888 90.7872 25.8974L97.2697 20.307L97.8096 20.0355H99.6946L99.9645 20.307V23.0176L93.2519 28.8662C93.128 29.013 93.1235 29.2267 93.243 29.378L99.9645 36.0232V38.7338L99.6946 39.0053H99.699Z" fill="white"/>
<path d="M0 29.6157C0 24.395 2.61032 19.9202 8.57678 19.9202C14.5432 19.9202 17.1536 24.395 17.1536 29.6157V30.7344L16.7807 31.1073H4.47484L4.10194 31.4802C4.10194 32.226 4.47484 35.955 8.94968 35.955C10.4413 35.955 11.9329 35.5821 12.6787 33.7176L13.0516 33.3447H16.0348L16.4078 33.7176C16.0349 36.7008 13.4245 39.3111 8.94968 39.3111C2.98323 39.3111 0 35.2092 0 29.6157ZM13.0516 27.7511C13.0516 26.6324 12.6787 23.2763 8.57678 23.2763C4.47484 23.2763 4.10194 26.6324 4.10194 27.7511L4.47484 28.124H12.6787L13.0516 27.7511Z" fill="white"/>
<path d="M29.4595 38.5654L29.0866 38.9383H25.7305L25.3576 38.5654L19.0182 23.2763V20.666L19.3911 20.2931H21.6285L22.0014 20.666L27.2221 33.7176H27.595L32.8156 20.666L33.1885 20.2931H35.426L35.7989 20.666V23.2763L29.4595 38.5654Z" fill="white"/>
<path d="M37.6633 29.6157C37.6633 24.395 40.2736 19.9202 46.2401 19.9202C52.2066 19.9202 54.8169 24.395 54.8169 29.6157V30.7344L54.444 31.1073H42.1382L41.7653 31.4802C41.7653 32.226 42.1382 35.955 46.613 35.955C48.1046 35.955 49.5962 35.5821 50.342 33.7176L50.7149 33.3447H53.6982L54.0711 33.7176C53.6982 36.7008 51.0878 39.3111 46.613 39.3111C40.6465 39.3111 37.6633 35.2092 37.6633 29.6157ZM50.7149 27.7511C50.7149 26.6324 50.342 23.2763 46.2401 23.2763C42.1382 23.2763 41.7653 26.6324 41.7653 27.7511L42.1382 28.124H50.342L50.7149 27.7511Z" fill="white"/>
<path d="M68.6145 23.6492H66.75C63.7668 23.6492 61.9023 24.768 61.9023 29.2428V38.5654L61.5294 38.9383H58.5461L58.1732 38.5654V20.666L58.5461 20.2931H61.1564L61.5294 20.666L61.9023 22.1576H62.2752C63.3939 21.0389 64.5126 20.2931 67.1229 20.2931H68.6145L68.9874 20.666V23.2763L68.6145 23.6492Z" fill="white"/>
<path d="M90.0687 0L89.2512 1.04407L89.3135 5.64685L90.3842 6.57985L91.4638 5.64241L91.5171 1.05295L90.6774 0H90.0687Z" fill="white"/>
<path d="M90.1281 59.2435L89.3106 58.1994L89.3728 53.6011L90.4435 52.6636L91.5232 53.6055L91.5765 58.1905L90.7368 59.2435H90.1281Z" fill="white"/>
<path d="M111.016 8.43696L109.701 8.59688L106.489 11.893L106.587 13.31L108.013 13.4078L111.291 10.2005L111.447 8.86785L111.016 8.43696Z" fill="white"/>
<path d="M69.7427 8.43696L71.0576 8.59688L74.2692 11.893L74.1715 13.31L72.7456 13.4078L69.4628 10.2005L69.3118 8.86785L69.7427 8.43696Z" fill="white"/>
<path d="M111.038 50.6477L109.724 50.4833L106.512 47.1872L106.61 45.7746L108.036 45.6724L111.318 48.8797L111.469 50.2168L111.038 50.6477Z" fill="white"/>
<path d="M69.7649 50.6477L71.0797 50.4833L74.2914 47.1872L74.1981 45.7746L72.7678 45.6724L69.4895 48.8797L69.334 50.2168L69.7649 50.6477Z" fill="white"/>
<path d="M120 29.8247L118.956 30.6422L114.353 30.58L113.42 29.5093L114.358 28.4297L118.947 28.3763L120 29.216V29.8247Z" fill="white"/>
</svg>
