<svg width="20" height="17" viewBox="0 0 20 17" fill="none" xmlns="http://www.w3.org/2000/svg">
<g id="Group 1538232268">
<path id="Vector" d="M1.84107 2.70227e-05L18.3493 2.84659e-05C19.2517 2.85448e-05 20.0001 0.748402 20.0001 1.65085C20.0001 2.5533 19.2517 3.30167 18.3493 3.30167L1.84107 3.30167C0.938623 3.30167 0.19025 2.5533 0.190251 1.65085C0.190251 0.7484 0.938624 2.69438e-05 1.84107 2.70227e-05Z" fill="white"/>
<path id="Vector_2" d="M18.1592 16.6033H1.65094C0.748495 16.6033 0.00012207 15.8549 0.00012207 14.9525C0.00012207 14.05 0.748495 13.3017 1.65094 13.3017L18.1592 13.3017C19.0616 13.3017 19.81 14.05 19.81 14.9525C19.81 15.8549 19.0616 16.6033 18.1592 16.6033Z" fill="white"/>
</g>
</svg>
