<svg width="74" height="29" viewBox="0 0 74 29" fill="none" xmlns="http://www.w3.org/2000/svg">
<path d="M34.2266 25.0582H36.1406V17.8382H34.2266V25.0582ZM34.2266 16.7123H36.1406V14.9952H34.2266V16.7123Z" fill="white"/>
<path d="M37.3738 27.4228H39.2879V24.242H39.3161C39.7242 24.8612 40.3857 25.2694 41.399 25.2694C43.2568 25.2694 44.5234 23.7916 44.5234 21.4553C44.5234 19.2034 43.299 17.6412 41.3849 17.6412C40.3997 17.6412 39.7242 18.1057 39.2597 18.739H39.2175V17.8383H37.3738V27.4228ZM40.9909 23.679C39.8509 23.679 39.2456 22.8205 39.2456 21.5116C39.2456 20.2168 39.7242 19.1894 40.9205 19.1894C42.1027 19.1894 42.5812 20.1464 42.5812 21.5116C42.5812 22.8768 41.962 23.679 40.9909 23.679Z" fill="white"/>
<path d="M48.3417 25.2694C50.1432 25.2694 51.3817 24.3968 51.3817 22.9472C51.3817 21.2583 50.0447 20.9205 48.8343 20.6672C47.8068 20.4561 46.8498 20.3997 46.8498 19.7805C46.8498 19.2598 47.3424 18.9782 48.0884 18.9782C48.9047 18.9782 49.3972 19.2598 49.4817 20.0338H51.2128C51.0721 18.5842 50.0165 17.6412 48.1165 17.6412C46.4698 17.6412 45.175 18.3872 45.175 19.9493C45.175 21.5257 46.4417 21.8776 47.7365 22.1309C48.7217 22.3279 49.6365 22.3983 49.6365 23.0879C49.6365 23.5946 49.158 23.9183 48.3135 23.9183C47.455 23.9183 46.8639 23.5524 46.7372 22.722H44.9639C45.0765 24.2561 46.2447 25.2694 48.3417 25.2694Z" fill="white"/>
<path d="M58.649 25.0583V17.8383H56.7349V22.0042C56.7349 22.9612 56.186 23.6368 55.2853 23.6368C54.469 23.6368 54.089 23.1723 54.089 22.3278V17.8383H52.189V22.6516C52.189 24.2279 53.0897 25.2553 54.6942 25.2553C55.7075 25.2553 56.2705 24.8753 56.7631 24.2138H56.8053V25.0583H58.649Z" fill="white"/>
<path d="M59.887 25.0583H61.8011V20.8642C61.8011 19.9071 62.3218 19.2879 63.0959 19.2879C63.7996 19.2879 64.2078 19.7101 64.2078 20.5264V25.0583H66.1219V20.8642C66.1219 19.9071 66.6145 19.2879 67.4167 19.2879C68.1204 19.2879 68.5285 19.7101 68.5285 20.5264V25.0583H70.4426V20.2027C70.4426 18.6264 69.5841 17.6412 68.0641 17.6412C67.1493 17.6412 66.3893 18.1198 65.8967 18.9079H65.8685C65.5166 18.1479 64.7848 17.6412 63.87 17.6412C62.8707 17.6412 62.167 18.1479 61.7729 18.8094H61.7307V17.8383H59.887V25.0583Z" fill="white"/>
<path d="M34.2546 12.692H36.1687V2.62903H34.2546V12.692Z" fill="white"/>
<path d="M40.8488 12.9031C43.0866 12.9031 44.6207 11.2423 44.6207 9.08899C44.6207 6.93565 43.0866 5.2749 40.8488 5.2749C38.611 5.2749 37.0769 6.93565 37.0769 9.08899C37.0769 11.2423 38.611 12.9031 40.8488 12.9031ZM40.8488 11.4394C39.6666 11.4394 39.0192 10.4964 39.0192 9.08899C39.0192 7.68157 39.6666 6.72454 40.8488 6.72454C42.0169 6.72454 42.6784 7.68157 42.6784 9.08899C42.6784 10.4964 42.0169 11.4394 40.8488 11.4394Z" fill="white"/>
<path d="M48.6913 15.155C49.761 15.155 50.6899 14.9016 51.295 14.3386C51.8298 13.846 52.1536 13.1564 52.1536 12.1431V5.47194H50.3099V6.23194H50.2817C49.8454 5.62675 49.1839 5.2749 48.2831 5.2749C46.4536 5.2749 45.1587 6.65417 45.1587 8.80752C45.1587 10.989 46.735 12.2556 48.3395 12.2556C49.2543 12.2556 49.8032 11.8898 50.2254 11.4112H50.2676V12.1994C50.2676 13.1845 49.7469 13.7053 48.6632 13.7053C47.7765 13.7053 47.3684 13.3535 47.2135 12.9031H45.3135C45.5106 14.3105 46.721 15.155 48.6913 15.155ZM48.6632 10.7216C47.678 10.7216 47.0306 10.0038 47.0306 8.77938C47.0306 7.56901 47.678 6.80898 48.6491 6.80898C49.8032 6.80898 50.3661 7.70971 50.3661 8.76531C50.3661 9.83491 49.8735 10.7216 48.6632 10.7216Z" fill="white"/>
<path d="M56.8061 12.9031C59.0438 12.9031 60.5779 11.2423 60.5779 9.08899C60.5779 6.93565 59.0438 5.2749 56.8061 5.2749C54.5683 5.2749 53.0342 6.93565 53.0342 9.08899C53.0342 11.2423 54.5683 12.9031 56.8061 12.9031ZM56.8061 11.4394C55.6238 11.4394 54.9764 10.4964 54.9764 9.08899C54.9764 7.68157 55.6238 6.72454 56.8061 6.72454C57.9742 6.72454 58.6357 7.68157 58.6357 9.08899C58.6357 10.4964 57.9742 11.4394 56.8061 11.4394Z" fill="white"/>
<path d="M62.2559 9.93379H70.5313V8.28711H62.2559V9.93379Z" fill="white"/>
<path d="M71.1382 16.6118C71.1382 16.288 71.4007 16.0254 71.7248 16.0254H72.8973C73.2214 16.0254 73.4839 16.288 73.4839 16.6118C73.4839 16.9357 73.2214 17.1982 72.8973 17.1982H71.7248C71.4007 17.1982 71.1382 16.9357 71.1382 16.6118Z" fill="white"/>
<path fill-rule="evenodd" clip-rule="evenodd" d="M14.8965 0.391602C22.6285 0.391602 28.8965 6.65961 28.8965 14.3916C28.8965 22.1236 22.6285 28.3916 14.8965 28.3916C7.1645 28.3916 0.896484 22.1236 0.896484 14.3916C0.896484 6.65961 7.1645 0.391602 14.8965 0.391602ZM14.3904 1.43921C12.7933 1.66398 11.2725 2.94736 10.092 5.09378C9.74952 5.71638 9.44054 6.40422 9.17125 7.14691C10.7765 6.74352 12.5399 6.5057 14.3904 6.46891V1.43921ZM7.98804 7.48316C8.32285 6.43231 8.73249 5.46548 9.2052 4.60606C9.7904 3.54201 10.4849 2.62317 11.2675 1.91744C7.01224 3.15326 3.65814 6.50735 2.42233 10.7626C3.12805 9.98006 4.0469 9.28552 5.11094 8.70032C5.97037 8.22761 6.93719 7.81797 7.98804 7.48316ZM7.65176 8.66637C7.2484 10.2716 7.01058 12.035 6.9738 13.8856H1.94409C2.16887 12.2884 3.45224 10.7676 5.59867 9.58708C6.22127 9.24464 6.90911 8.93566 7.65176 8.66637ZM7.98608 13.8856C8.02787 11.866 8.31858 9.96998 8.79962 8.29474C10.4749 7.8137 12.3709 7.52292 14.3904 7.48113V9.66716C13.637 11.5959 12.1004 13.1324 10.1715 13.8856H7.98608ZM6.9738 14.8976H1.94409C2.16887 16.4948 3.45224 18.0156 5.59867 19.1961C6.22127 19.5386 6.90911 19.8475 7.65176 20.1168C7.2484 18.5116 7.01058 16.7482 6.9738 14.8976ZM8.79962 20.4885C8.31858 18.8132 8.02787 16.9172 7.98608 14.8976H10.1715C12.1004 15.6508 13.6371 17.1873 14.3904 19.116V21.3021C12.3709 21.2603 10.4749 20.9695 8.79962 20.4885ZM7.98804 21.3C6.93719 20.9652 5.97037 20.5556 5.11094 20.0829C4.0469 19.4977 3.12805 18.8031 2.42233 18.0206C3.65814 22.2758 7.01224 25.63 11.2675 26.8657C10.4849 26.16 9.7904 25.2412 9.2052 24.1771C8.73249 23.3177 8.32285 22.3509 7.98804 21.3ZM14.3904 27.344C12.7933 27.1192 11.2725 25.8358 10.092 23.6894C9.74952 23.0668 9.44054 22.379 9.17125 21.6363C10.7765 22.0397 12.5399 22.2775 14.3904 22.3143V27.344ZM18.5255 26.8657C19.308 26.16 20.0026 25.2412 20.5878 24.1771C21.0605 23.3177 21.4701 22.3509 21.8049 21.3C22.8558 20.9652 23.8226 20.5556 24.6821 20.0829C25.7461 19.4977 26.6649 18.8031 27.3706 18.0206C26.1348 22.2758 22.7807 25.63 18.5255 26.8657ZM20.6217 21.6363C20.3524 22.379 20.0434 23.0668 19.701 23.6894C18.5205 25.8358 16.9997 27.1192 15.4025 27.344V22.3143C17.2531 22.2775 19.0165 22.0397 20.6217 21.6363ZM22.1412 20.1168C22.8838 19.8475 23.5717 19.5386 24.1943 19.1961C26.3407 18.0156 27.6241 16.4948 27.8489 14.8976H22.8192C22.7824 16.7482 22.5445 18.5116 22.1412 20.1168ZM21.8069 14.8976C21.7652 16.9172 21.4744 18.8132 20.9933 20.4885C19.3181 20.9695 17.4221 21.2603 15.4025 21.3021V19.1177C16.1556 17.1882 17.6926 15.651 19.622 14.8976H21.8069ZM22.8192 13.8856H27.8489C27.6241 12.2884 26.3407 10.7676 24.1943 9.58708C23.5717 9.24464 22.8838 8.93566 22.1412 8.66637C22.5445 10.2716 22.7824 12.035 22.8192 13.8856ZM20.9933 8.29474C21.4744 9.96998 21.7652 11.866 21.8069 13.8856H19.622C17.6926 13.1322 16.1556 11.595 15.4025 9.66555V7.48113C17.4221 7.52292 19.3181 7.8137 20.9933 8.29474ZM21.8049 7.48316C22.8558 7.81797 23.8226 8.22761 24.6821 8.70032C25.7461 9.28552 26.6649 9.98006 27.3706 10.7626C26.1348 6.50735 22.7807 3.15326 18.5255 1.91744C19.308 2.62317 20.0026 3.54201 20.5878 4.60606C21.0605 5.46548 21.4701 6.43231 21.8049 7.48316ZM15.4025 1.43921C16.9997 1.66398 18.5205 2.94736 19.701 5.09378C20.0434 5.71639 20.3524 6.40422 20.6217 7.14691C19.0165 6.74352 17.2531 6.5057 15.4025 6.46891V1.43921Z" fill="white"/>
</svg>
