<svg width="153" height="29" viewBox="0 0 153 29" fill="none" xmlns="http://www.w3.org/2000/svg">
<path d="M85.9519 21.0583H89.216V8.74629H85.9519V21.0583ZM85.9519 6.82632H89.216V3.89832H85.9519V6.82632Z" fill="white"/>
<path d="M91.3196 25.0903H94.5837V19.6663H94.6313C95.3271 20.7223 96.4555 21.4183 98.1831 21.4183C101.351 21.4183 103.511 18.8983 103.511 14.9143C103.511 11.0743 101.423 8.41028 98.1593 8.41028C96.4793 8.41028 95.3271 9.20233 94.5354 10.2823H94.4633V8.74628H91.3196V25.0903ZM97.4873 18.7063C95.5434 18.7063 94.5116 17.2423 94.5116 15.0103C94.5116 12.8023 95.3271 11.0503 97.3676 11.0503C99.3836 11.0503 100.199 12.6823 100.199 15.0103C100.199 17.3383 99.1435 18.7063 97.4873 18.7063Z" fill="white"/>
<path d="M110.022 21.4183C113.094 21.4183 115.206 19.9303 115.206 17.4583C115.206 14.5783 112.926 14.0023 110.862 13.5703C109.11 13.2103 107.478 13.1143 107.478 12.0583C107.478 11.1703 108.318 10.6903 109.59 10.6903C110.982 10.6903 111.822 11.1703 111.966 12.4903H114.918C114.678 10.0183 112.878 8.41028 109.638 8.41028C106.83 8.41028 104.622 9.68232 104.622 12.3463C104.622 15.0343 106.782 15.6343 108.99 16.0663C110.67 16.4023 112.23 16.5223 112.23 17.6983C112.23 18.5623 111.414 19.1143 109.974 19.1143C108.51 19.1143 107.502 18.4903 107.286 17.0743H104.262C104.454 19.6903 106.446 21.4183 110.022 21.4183Z" fill="white"/>
<path d="M127.598 21.0582V8.74622H124.334V15.8502C124.334 17.4822 123.398 18.6342 121.863 18.6342C120.47 18.6342 119.823 17.8422 119.823 16.4023V8.74622H116.583V16.9542C116.583 19.6422 118.118 21.3942 120.855 21.3942C122.583 21.3942 123.543 20.7462 124.383 19.6183H124.455V21.0582H127.598Z" fill="white"/>
<path d="M129.71 21.0583H132.974V13.9063C132.974 12.2743 133.862 11.2183 135.182 11.2183C136.382 11.2183 137.078 11.9383 137.078 13.3303V21.0583H140.342V13.9063C140.342 12.2743 141.182 11.2183 142.55 11.2183C143.75 11.2183 144.446 11.9383 144.446 13.3303V21.0583H147.71V12.7783C147.71 10.0903 146.246 8.41028 143.654 8.41028C142.094 8.41028 140.798 9.22627 139.958 10.5703H139.91C139.31 9.27429 138.062 8.41028 136.502 8.41028C134.798 8.41028 133.598 9.27429 132.926 10.4023H132.854V8.74628H129.71V21.0583Z" fill="white"/>
<path d="M0.880371 21.0583H4.14437V3.89832H0.880371V21.0583Z" fill="white"/>
<path d="M12.1254 21.4183C15.9414 21.4183 18.5573 18.5863 18.5573 14.9143C18.5573 11.2423 15.9414 8.41028 12.1254 8.41028C8.30934 8.41028 5.69336 11.2423 5.69336 14.9143C5.69336 18.5863 8.30934 21.4183 12.1254 21.4183ZM12.1254 18.9223C10.1094 18.9223 9.00535 17.3143 9.00535 14.9143C9.00535 12.5143 10.1094 10.8823 12.1254 10.8823C14.1174 10.8823 15.2454 12.5143 15.2454 14.9143C15.2454 17.3143 14.1174 18.9223 12.1254 18.9223Z" fill="white"/>
<path d="M25.4986 25.2583C27.3226 25.2583 28.9066 24.8263 29.9386 23.8663C30.8506 23.0263 31.4026 21.8503 31.4026 20.1223V8.74628H28.2586V10.0423H28.2106C27.4666 9.01032 26.3386 8.41028 24.8026 8.41028C21.6826 8.41028 19.4746 10.7623 19.4746 14.4343C19.4746 18.1543 22.1626 20.3143 24.8986 20.3143C26.4586 20.3143 27.3946 19.6903 28.1146 18.8743H28.1866V20.2183C28.1866 21.8983 27.2986 22.7863 25.4506 22.7863C23.9386 22.7863 23.2426 22.1863 22.9786 21.4183H19.7386C20.0746 23.8183 22.1386 25.2583 25.4986 25.2583ZM25.4506 17.6983C23.7706 17.6983 22.6666 16.4743 22.6666 14.3863C22.6666 12.3223 23.7706 11.0263 25.4266 11.0263C27.3946 11.0263 28.3546 12.5623 28.3546 14.3623C28.3546 16.1863 27.5146 17.6983 25.4506 17.6983Z" fill="white"/>
<path d="M39.3363 21.4183C43.1523 21.4183 45.7683 18.5863 45.7683 14.9143C45.7683 11.2423 43.1523 8.41028 39.3363 8.41028C35.5203 8.41028 32.9043 11.2423 32.9043 14.9143C32.9043 18.5863 35.5203 21.4183 39.3363 21.4183ZM39.3363 18.9223C37.3203 18.9223 36.2163 17.3143 36.2163 14.9143C36.2163 12.5143 37.3203 10.8823 39.3363 10.8823C41.3283 10.8823 42.4564 12.5143 42.4564 14.9143C42.4564 17.3143 41.3283 18.9223 39.3363 18.9223Z" fill="white"/>
<path d="M148.896 6.72497C148.896 6.17269 149.344 5.72498 149.896 5.72498H151.896C152.449 5.72498 152.897 6.17269 152.897 6.72497C152.897 7.27726 152.449 7.72498 151.896 7.72498H149.896C149.344 7.72498 148.896 7.27726 148.896 6.72497Z" fill="white"/>
<path fill-rule="evenodd" clip-rule="evenodd" d="M65.5627 0.391602C73.2945 0.391602 79.563 6.65962 79.563 14.3916C79.563 22.1236 73.2945 28.3916 65.5627 28.3916C57.8308 28.3916 51.5627 22.1236 51.5627 14.3916C51.5627 6.65962 57.8308 0.391602 65.5627 0.391602ZM65.0567 1.43921C63.4595 1.66398 61.9387 2.94736 60.7582 5.09378C60.4157 5.71638 60.1067 6.40422 59.8375 7.14691C61.4428 6.74352 63.2061 6.5057 65.0567 6.46891V1.43921ZM58.6542 7.48316C58.9891 6.43231 59.3987 5.46548 59.8714 4.60606C60.4566 3.54201 61.1511 2.62317 61.9337 1.91744C57.6784 3.15326 54.3244 6.50735 53.0885 10.7626C53.7943 9.98006 54.7131 9.28552 55.7772 8.70032C56.6366 8.22761 57.6034 7.81797 58.6542 7.48316ZM58.318 8.66637C57.9146 10.2716 57.6768 12.035 57.64 13.8856H52.6103C52.8351 12.2884 54.1184 10.7676 56.2649 9.58708C56.8875 9.24464 57.5753 8.93566 58.318 8.66637ZM58.6523 13.8856C58.6941 11.866 58.9848 9.96998 59.4659 8.29474C61.1411 7.8137 63.0371 7.52292 65.0567 7.48113V9.66716C64.3033 11.5959 62.7667 13.1324 60.8378 13.8856H58.6523ZM57.64 14.8976H52.6103C52.8351 16.4948 54.1184 18.0156 56.2649 19.1961C56.8875 19.5386 57.5753 19.8475 58.318 20.1168C57.9146 18.5116 57.6768 16.7482 57.64 14.8976ZM59.4659 20.4885C58.9848 18.8132 58.6941 16.9172 58.6523 14.8976H60.8378C62.7667 15.6508 64.3033 17.1873 65.0567 19.116V21.3021C63.0371 21.2603 61.1411 20.9695 59.4659 20.4885ZM58.6542 21.3C57.6034 20.9652 56.6366 20.5556 55.7772 20.0829C54.7131 19.4977 53.7943 18.8031 53.0885 18.0206C54.3244 22.2758 57.6784 25.63 61.9337 26.8657C61.1511 26.16 60.4566 25.2412 59.8714 24.1771C59.3987 23.3177 58.9891 22.3509 58.6542 21.3ZM65.0567 27.344C63.4595 27.1192 61.9387 25.8358 60.7582 23.6894C60.4157 23.0668 60.1067 22.379 59.8375 21.6363C61.4428 22.0397 63.2061 22.2775 65.0567 22.3143V27.344ZM69.1918 26.8657C69.9743 26.16 70.6688 25.2412 71.254 24.1771C71.7265 23.3177 72.1367 22.3509 72.4713 21.3C73.522 20.9652 74.4887 20.5556 75.3483 20.0829C76.4123 19.4977 77.3314 18.8031 78.037 18.0206C76.8008 22.2758 73.4471 25.63 69.1918 26.8657ZM71.2883 21.6363C71.0188 22.379 70.7094 23.0668 70.3671 23.6894C69.1867 25.8358 67.6659 27.1192 66.0687 27.344V22.3143C67.9193 22.2775 69.6827 22.0397 71.2883 21.6363ZM72.8073 20.1168C73.55 19.8475 74.2381 19.5386 74.8604 19.1961C77.0073 18.0156 78.2904 16.4948 78.5151 14.8976H73.4856C73.4485 16.7482 73.2105 18.5116 72.8073 20.1168ZM72.4734 14.8976C72.4314 16.9172 72.1409 18.8132 71.6593 20.4885C69.9843 20.9695 68.0883 21.2603 66.0687 21.3021V19.1177C66.8219 17.1882 68.3589 15.651 70.2882 14.8976H72.4734ZM73.4856 13.8856H78.5151C78.2904 12.2884 77.0073 10.7676 74.8604 9.58708C74.2381 9.24464 73.55 8.93566 72.8073 8.66637C73.2105 10.2716 73.4485 12.035 73.4856 13.8856ZM71.6593 8.29474C72.1409 9.96998 72.4314 11.866 72.4734 13.8856H70.2883C68.3589 13.1322 66.8219 11.595 66.0687 9.66555V7.48113C68.0883 7.52292 69.9843 7.8137 71.6593 8.29474ZM72.4713 7.48316C73.522 7.81797 74.4887 8.22761 75.3483 8.70032C76.4123 9.28552 77.3314 9.98006 78.037 10.7626C76.8008 6.50735 73.4471 3.15326 69.1918 1.91744C69.9743 2.62317 70.6688 3.54201 71.254 4.60606C71.7265 5.46548 72.1367 6.43231 72.4713 7.48316ZM66.0687 1.43921C67.6659 1.66398 69.1867 2.94736 70.3671 5.09378C70.7094 5.71639 71.0188 6.40422 71.2883 7.14691C69.6827 6.74352 67.9193 6.5057 66.0687 6.46891V1.43921Z" fill="white"/>
</svg>
