<svg width="120" height="29" viewBox="0 0 120 29" fill="none" xmlns="http://www.w3.org/2000/svg">
<g style="mix-blend-mode:luminosity">
<g style="mix-blend-mode:luminosity">
<path d="M36.6221 20.0373H45.0573V17.4966H39.6201V7.92651H36.6221V20.0373Z" fill="white"/>
</g>
<g style="mix-blend-mode:luminosity">
<path d="M50.0548 18.3437C48.8522 18.3437 48.2255 17.2935 48.2255 15.7182C48.2255 14.143 48.8522 13.0759 50.0548 13.0759C51.2574 13.0759 51.901 14.143 51.901 15.7182C51.901 17.2935 51.2574 18.3437 50.0548 18.3437ZM50.0717 20.3085C52.8665 20.3085 54.6958 18.3267 54.6958 15.7182C54.6958 13.1098 52.8665 11.128 50.0717 11.128C47.2939 11.128 45.4307 13.1098 45.4307 15.7182C45.4307 18.3267 47.2939 20.3085 50.0717 20.3085Z" fill="white"/>
</g>
<g style="mix-blend-mode:luminosity">
<path d="M59.5335 23.0354C60.8208 23.0354 61.9556 22.7474 62.7179 22.0699C63.4123 21.4432 63.8696 20.4947 63.8696 19.1904V11.365H61.2273V12.2966H61.1934C60.6853 11.5682 59.9061 11.1109 58.7543 11.1109C56.6032 11.1109 55.1126 12.9063 55.1126 15.4471C55.1126 18.1064 56.925 19.5631 58.8729 19.5631C59.9231 19.5631 60.5836 19.1396 61.0918 18.5637H61.1595V19.4275C61.1595 20.4777 60.6683 21.0875 59.4996 21.0875C58.5849 21.0875 58.1276 20.6979 57.9752 20.2406H55.2989C55.5699 22.053 57.1452 23.0354 59.5335 23.0354ZM59.5165 17.5135C58.4833 17.5135 57.8058 16.6666 57.8058 15.3624C57.8058 14.0412 58.4833 13.1943 59.5165 13.1943C60.6683 13.1943 61.2781 14.1767 61.2781 15.3454C61.2781 16.565 60.7191 17.5135 59.5165 17.5135Z" fill="white"/>
</g>
<g style="mix-blend-mode:luminosity">
<path d="M69.3028 18.3437C68.1002 18.3437 67.4735 17.2935 67.4735 15.7182C67.4735 14.143 68.1002 13.0759 69.3028 13.0759C70.5054 13.0759 71.1491 14.143 71.1491 15.7182C71.1491 17.2935 70.5054 18.3437 69.3028 18.3437ZM69.3198 20.3085C72.1146 20.3085 73.9439 18.3267 73.9439 15.7182C73.9439 13.1098 72.1146 11.128 69.3198 11.128C66.5419 11.128 64.6787 13.1098 64.6787 15.7182C64.6787 18.3267 66.5419 20.3085 69.3198 20.3085Z" fill="white"/>
</g>
<g style="mix-blend-mode:luminosity">
<path d="M74.7499 20.0373H77.5108V11.365H74.7499V20.0373ZM74.7499 10.1624H77.5108V7.92651H74.7499V10.1624Z" fill="white"/>
</g>
<g style="mix-blend-mode:luminosity">
<path d="M78.7091 22.8999H81.47V19.1396H81.5039C82.0459 19.8679 82.842 20.3083 83.9599 20.3083C86.2297 20.3083 87.7372 18.5129 87.7372 15.7011C87.7372 13.0927 86.3313 11.1109 84.0277 11.1109C82.842 11.1109 81.9951 11.636 81.4023 12.4151H81.3515V11.365H78.7091V22.8999ZM83.2485 18.1741C82.0629 18.1741 81.3853 17.2086 81.3853 15.8028C81.3853 14.3969 81.9951 13.3298 83.1977 13.3298C84.3834 13.3298 84.9424 14.3122 84.9424 15.8028C84.9424 17.2764 84.2987 18.1741 83.2485 18.1741Z" fill="white"/>
</g>
<g style="mix-blend-mode:luminosity">
<path d="M92.2321 20.3083C94.5018 20.3083 96.1787 19.3259 96.1787 17.4288C96.1787 15.2099 94.3833 14.8204 92.8588 14.5663C91.7579 14.363 90.7755 14.2783 90.7755 13.6686C90.7755 13.1265 91.3005 12.8725 91.9781 12.8725C92.7403 12.8725 93.2654 13.1096 93.367 13.8888H95.9077C95.7722 12.178 94.451 11.1109 91.995 11.1109C89.9455 11.1109 88.2517 12.0594 88.2517 13.8888C88.2517 15.9213 89.8608 16.3279 91.3683 16.5819C92.5201 16.7852 93.5702 16.8699 93.5702 17.649C93.5702 18.208 93.0452 18.5129 92.2152 18.5129C91.3005 18.5129 90.7246 18.0894 90.623 17.2256H88.0145C88.0992 19.1396 89.6914 20.3083 92.2321 20.3083Z" fill="white"/>
</g>
<g style="mix-blend-mode:luminosity">
<path d="M99.9291 20.2915C101.132 20.2915 101.894 19.8172 102.521 18.9703H102.571V20.0374H105.214V11.3651H102.453V16.2094C102.453 17.2426 101.877 17.954 100.928 17.954C100.048 17.954 99.6242 17.4289 99.6242 16.4804V11.3651H96.8802V17.0563C96.8802 18.9872 97.9304 20.2915 99.9291 20.2915Z" fill="white"/>
</g>
<g style="mix-blend-mode:luminosity">
<path d="M106.414 20.0373H109.175V15.1761C109.175 14.1428 109.683 13.4145 110.547 13.4145C111.377 13.4145 111.767 13.9565 111.767 14.8881V20.0373H114.528V15.1761C114.528 14.1428 115.019 13.4145 115.9 13.4145C116.73 13.4145 117.119 13.9565 117.119 14.8881V20.0373H119.88V14.3969C119.88 12.449 118.898 11.1109 116.933 11.1109C115.815 11.1109 114.883 11.5852 114.206 12.6353H114.172C113.732 11.7037 112.868 11.1109 111.733 11.1109C110.479 11.1109 109.649 11.7037 109.107 12.6015H109.057V11.365H106.414V20.0373Z" fill="white"/>
</g>
<g style="mix-blend-mode:luminosity">
<path fill-rule="evenodd" clip-rule="evenodd" d="M15.3252 0C23.2733 0 29.7165 6.44319 29.7165 14.3913C29.7165 22.3395 23.2733 28.7827 15.3252 28.7827C7.37704 28.7827 0.933838 22.3395 0.933838 14.3913C0.933838 6.44319 7.37704 0 15.3252 0ZM29.1641 14.3913C29.1641 6.74829 22.9682 0.552341 15.3252 0.552341C14.7086 0.552341 14.1016 0.592653 13.5064 0.670788C13.8909 0.637165 14.2801 0.620001 14.6733 0.620001C21.9767 0.620001 27.8972 6.54051 27.8972 13.8438C27.8972 21.1471 21.9767 27.0676 14.6733 27.0676C7.75908 27.0676 2.08422 21.7611 1.49926 14.9985C1.81703 22.3598 7.88551 28.2303 15.3252 28.2303C22.9682 28.2303 29.1641 22.0344 29.1641 14.3913ZM27.3448 13.8438C27.3448 6.84554 21.6716 1.17235 14.6733 1.17235C14.1051 1.17235 13.5456 1.20975 12.9972 1.28223C13.3349 1.25381 13.6765 1.23932 14.0216 1.23932C20.6801 1.23932 26.0779 6.63713 26.0779 13.2956C26.0779 19.9541 20.6801 25.3519 14.0216 25.3519C7.72579 25.3519 2.5571 20.5262 2.0127 14.3718C2.28949 21.1252 7.85199 26.5153 14.6733 26.5153C21.6716 26.5153 27.3448 20.8421 27.3448 13.8438ZM14.0216 1.79166C20.375 1.79166 25.5256 6.94216 25.5256 13.2956C25.5256 19.649 20.375 24.7995 14.0216 24.7995C7.81536 24.7995 2.75693 19.8849 2.5259 13.7351C3.0247 19.2859 7.68925 23.6361 13.3699 23.6361C19.3831 23.6361 24.258 18.7614 24.258 12.7481C24.258 6.73474 19.3831 1.86001 13.3699 1.86001C13.0588 1.86001 12.7507 1.87306 12.4463 1.89863C12.9613 1.8281 13.4872 1.79166 14.0216 1.79166ZM23.7056 12.7481C23.7056 7.03984 19.0781 2.41236 13.3699 2.41236C12.8876 2.41236 12.4129 2.44539 11.9483 2.50931C12.202 2.48945 12.4585 2.47934 12.7173 2.47934C18.0859 2.47934 22.4379 6.83136 22.4379 12.1999C22.4379 17.5684 18.0859 21.9205 12.7173 21.9205C7.66438 21.9205 3.51191 18.065 3.04123 13.1353C3.24486 18.6642 7.79123 23.0838 13.3699 23.0838C19.0781 23.0838 23.7056 18.4564 23.7056 12.7481ZM12.7173 3.03168C17.7808 3.03168 21.8856 7.13646 21.8856 12.1999C21.8856 17.2634 17.7808 21.3681 12.7173 21.3681C7.75364 21.3681 3.71124 17.4235 3.5539 12.498C3.97886 16.8245 7.62747 20.2048 12.0656 20.2048C16.7893 20.2048 20.6186 16.3754 20.6186 11.6517C20.6186 6.92798 16.7893 3.09865 12.0656 3.09865C11.849 3.09865 11.6342 3.1067 11.4216 3.12253C11.845 3.06265 12.2775 3.03168 12.7173 3.03168ZM20.0663 11.6517C20.0663 7.233 16.4843 3.651 12.0656 3.651C11.6622 3.651 11.2659 3.68084 10.8786 3.73845C11.0554 3.72579 11.2338 3.71934 11.4139 3.71934C15.4924 3.71934 18.7987 7.02565 18.7987 11.1042C18.7987 15.1827 15.4924 18.489 11.4139 18.489C7.59204 18.489 4.44831 15.5859 4.06768 11.8645C4.18052 16.1848 7.71812 19.6524 12.0656 19.6524C16.4843 19.6524 20.0663 16.0704 20.0663 11.6517ZM11.4139 4.27169C15.1874 4.27169 18.2463 7.33068 18.2463 11.1042C18.2463 14.8777 15.1874 17.9367 11.4139 17.9367C7.68838 17.9367 4.65933 14.955 4.58283 11.2479C4.92698 14.356 7.56224 16.7733 10.7621 16.7733C14.1958 16.7733 16.9794 13.9897 16.9794 10.556C16.9794 7.12227 14.1958 4.33866 10.7621 4.33866C10.6308 4.33866 10.5004 4.34273 10.3711 4.35075C10.7111 4.29869 11.0593 4.27169 11.4139 4.27169ZM16.4271 10.556C16.4271 7.4273 13.8908 4.89101 10.7621 4.89101C10.4479 4.89101 10.1397 4.91658 9.8394 4.96577C9.92889 4.96105 10.0189 4.95867 10.1096 4.95867C12.8985 4.95867 15.1594 7.21952 15.1594 10.0085C15.1594 12.7974 12.8985 15.0583 10.1096 15.0583C7.53082 15.0583 5.40351 13.1252 5.09758 10.6291C5.13674 13.7241 7.65784 16.221 10.7621 16.221C13.8908 16.221 16.4271 13.6847 16.4271 10.556ZM10.1096 5.51101C12.5935 5.51101 14.6071 7.52455 14.6071 10.0085C14.6071 12.4924 12.5935 14.5059 10.1096 14.5059C7.62573 14.5059 5.61215 12.4924 5.61215 10.0085C5.61215 10.0025 5.61216 9.99654 5.61219 9.99061C5.87079 11.8835 7.494 13.3419 9.45787 13.3419C11.6016 13.3419 13.3395 11.604 13.3395 9.4603C13.3395 7.3165 11.6016 5.57868 9.45787 5.57868C9.40939 5.57868 9.36111 5.57956 9.31305 5.58133C9.57157 5.53512 9.83778 5.51101 10.1096 5.51101ZM12.7871 9.4603C12.7871 7.62159 11.2966 6.13102 9.45787 6.13102C7.61916 6.13102 6.1286 7.62159 6.1286 9.4603C6.1286 11.2989 7.61916 12.7895 9.45787 12.7895C11.2966 12.7895 12.7871 11.2989 12.7871 9.4603Z" fill="white"/>
</g>
</g>
</svg>
