<svg width="101" height="24" viewBox="0 0 101 24" fill="none" xmlns="http://www.w3.org/2000/svg">
<g id="Group 1538232139">
<path id="Vector" d="M97.8519 5.29849L100.237 7.71501C100.32 7.78177 100.382 7.87187 100.414 7.97393C100.463 8.56871 100.015 8.60126 99.5582 8.63449C99.3605 8.64887 99.161 8.66342 98.9993 8.72368C98.197 8.94212 97.4816 9.4035 96.9496 10.0452C96.417 10.6869 96.0942 11.4779 96.0239 12.3107C95.9725 12.4069 95.8948 12.4861 95.7993 12.5387C95.7045 12.5914 95.5965 12.6152 95.4879 12.6074C95.3622 12.5962 95.2445 12.5408 95.1553 12.4509L94.3725 11.6578C94.3782 11.7121 94.3782 11.7658 94.3782 11.8091V12.3323C94.3782 12.3653 94.3793 12.3972 94.3753 12.429C94.3702 12.4646 94.3582 12.5002 94.3302 12.5372V12.5858C94.3302 12.6106 94.333 12.6336 94.3359 12.657C94.3416 12.7049 94.3479 12.7543 94.3302 12.8231C94.313 12.8874 94.3113 12.9623 94.309 13.0292C94.3085 13.0689 94.3073 13.1058 94.3033 13.1359C94.2976 13.1777 94.2976 13.2224 94.2942 13.2669C94.2907 13.3087 94.2839 13.3504 94.2656 13.3895C94.2405 13.4442 94.2319 13.4965 94.2296 13.5496C94.2279 13.575 94.2279 13.6006 94.2279 13.6268L94.1959 13.794L92.9793 19.6303L92.8827 20.0672L92.845 20.7037L92.309 23.4601L92.2233 23.8916H48.8409L48.6318 23.6812L48.5943 23.8646H43.9521L41.3683 21.2486L41.6149 20.0672H40.1569L39.251 19.1449C38.1267 19.9687 36.7658 20.4005 35.3753 20.3747C33.8806 20.4339 32.4234 19.8947 31.3228 18.8752L29.913 17.4458L29.6074 18.8805C29.5699 19.0855 29.5217 19.2798 29.4681 19.4685L29.4198 19.6465L29.3394 19.9054C29.3328 19.9279 29.3238 19.9496 29.3126 19.9702C29.2328 20.208 29.1379 20.4404 29.0285 20.666C29.0314 20.6747 29.0314 20.6842 29.0285 20.6929C29.0145 20.7228 28.9983 20.7516 28.9802 20.7792C28.8993 20.9404 28.8099 21.097 28.7122 21.2486C28.6941 21.2761 28.678 21.305 28.664 21.3349L28.605 21.3996C28.474 21.5887 28.3307 21.7688 28.1762 21.939C28.1338 21.9816 28.0914 22.0217 28.0483 22.061C28.0043 22.1013 27.9596 22.1408 27.9135 22.1817L27.7956 22.2949C27.7213 22.3571 27.6452 22.4171 27.5675 22.4749C27.5035 22.5225 27.4383 22.5686 27.3721 22.6132C26.2674 23.2719 24.993 23.5854 23.7109 23.514C21.9419 23.514 20.5267 22.9962 19.6315 22.09L17.1121 19.5386C16.1058 20.1117 14.9663 20.4058 13.8101 20.3909C12.3198 20.4373 10.8714 19.8908 9.77897 18.8698L8.3692 17.4404L7.91354 19.6465L7.8224 20.0834H3.07838L0.483887 17.4511L0.617899 16.8147L3.46969 3.033L3.55544 2.60149H8.31554L8.43886 2.72018V2.60149H40.5107L40.6286 2.72018V2.60149H45.2708L47.8653 5.23376L47.7366 5.86485L47.5973 6.55529H48.932L49.1411 6.76569C49.7284 6.41933 50.3955 6.23338 51.0762 6.22627C51.5768 6.21633 52.0739 6.312 52.5355 6.5071C52.9971 6.70221 53.413 6.99235 53.7565 7.35897L53.6867 7.27807L54.9465 8.55647C55.713 7.10551 57.4337 6.22627 59.7707 6.22627C61.5827 6.22627 62.9176 6.69013 63.7267 7.53159L64.6382 8.454L64.9439 6.97062L65.0347 6.5391H69.6822L71.0119 7.88222L71.1993 6.97602L71.2907 6.5445H80.4359L80.6822 6.79265C81.3016 6.42486 82.0107 6.23806 82.7302 6.25323C83.1628 6.23624 83.5936 6.31595 83.9925 6.48662C84.3907 6.6573 84.7467 6.91473 85.0348 7.24035C85.0199 7.22339 85.0056 7.20642 84.9913 7.18975C84.9656 7.15881 84.9399 7.12863 84.9125 7.10068L85.3782 7.56936C85.7839 7.14657 86.2719 6.81174 86.8108 6.58545C87.3502 6.35914 87.9296 6.24606 88.5136 6.25323C88.8239 6.23404 89.1336 6.26061 89.4342 6.33129L88.9267 5.81632C88.8576 5.74189 88.8107 5.64927 88.7919 5.54922C88.773 5.44917 88.7828 5.34573 88.8193 5.25095C88.8565 5.15613 88.9193 5.07382 89.001 5.01351C89.0827 4.9532 89.1793 4.91734 89.2805 4.91013H89.6879C89.7976 4.8996 89.9067 4.8834 90.0147 4.86157C90.5845 4.74108 91.1205 4.49469 91.5839 4.14018C92.0479 3.78571 92.4273 3.33201 92.6953 2.81187C92.7187 2.77163 92.7399 2.73025 92.7593 2.68781V2.66085C92.9439 2.26134 93.0559 1.83219 93.0919 1.39324C93.101 1.25684 93.1622 1.12914 93.2616 1.03603C93.361 0.942896 93.4919 0.891274 93.6279 0.891603H93.6707C93.7519 0.899373 93.8307 0.925777 93.9005 0.968773C93.9702 1.0118 94.029 1.07027 94.073 1.13974C94.4587 1.51732 96.6027 3.71265 96.6027 3.71265C96.7816 3.90597 96.7685 4.15694 96.7547 4.41087C96.7462 4.56788 96.7376 4.72603 96.7742 4.87237C96.8719 4.88998 96.9707 4.90332 97.069 4.91234C97.1639 4.92093 97.2588 4.92561 97.3536 4.9263C97.4645 4.92864 97.5725 4.96571 97.6616 5.03241C97.7507 5.09908 97.8176 5.19208 97.8519 5.29849Z" fill="#0D0D0D"/>
<path id="Vector_2" d="M25.0189 7.07296H28.4067L26.5091 16.1294C26.1607 17.8447 25.496 18.8265 24.4882 19.5223C23.4689 20.1175 22.2984 20.3988 21.1219 20.3314C18.8812 20.3314 16.7316 19.3874 16.5172 17.095H19.9264C20.0336 17.6344 20.5268 17.9418 21.2773 17.9418C22.2904 17.9418 22.7568 17.3269 22.9659 16.3614L23.1695 15.3635H23.0945C22.7954 15.6944 22.4325 15.9606 22.028 16.1461C21.6234 16.3315 21.1857 16.4323 20.7412 16.4423C18.7686 16.4423 17.2033 14.8618 17.2355 12.5478C17.2784 9.85084 19.0259 6.78707 21.9581 6.78707C22.5138 6.7494 23.0685 6.87263 23.5568 7.14219C24.0451 7.41169 24.4464 7.81632 24.7134 8.30817H24.7723L25.0189 7.07296ZM22.1082 13.9125C23.4108 13.9125 24.1344 12.4022 24.1559 11.1023C24.1559 10.2338 23.8182 9.3438 22.8211 9.3438C21.4595 9.3438 20.768 10.8703 20.7466 12.181C20.7466 13.0657 21.0843 13.9125 22.0814 13.9125M60.1411 14.2038C60.1411 14.7809 59.6474 15.0129 58.9988 15.0129C57.9268 15.0129 57.5678 14.4735 57.5624 13.7183H54.1907C54.1318 16.534 56.6298 17.2298 58.8491 17.2298C61.6846 17.2298 63.5234 15.9946 63.5611 13.5296C63.5611 11.5607 61.8937 10.962 60.2537 10.579C58.9937 10.2878 58.4417 10.0774 58.4468 9.59732C58.4526 9.11725 59.0154 8.92308 59.5674 8.92308C60.2588 8.92308 60.7303 9.17119 60.7788 9.80771H64.0543C64.0166 7.45591 61.9097 6.7655 59.7657 6.7655C57.1604 6.7655 55.1288 7.95754 55.0966 10.2122C55.0966 11.9868 56.2867 12.6395 58.0823 13.1034C59.2348 13.4109 60.1514 13.508 60.1411 14.2038ZM85.1903 8.53472H85.1314C84.9857 8.00354 84.6634 7.53853 84.2188 7.21671C83.7743 6.89494 83.2337 6.73572 82.6868 6.7655C81.2291 6.7655 80.3394 7.49368 79.4977 8.59406H79.4389L79.7497 7.07296H76.34L74.2977 16.9008H77.8628L78.9348 11.5985C79.1811 10.4442 79.7657 9.6351 80.6503 9.6351C81.5348 9.6351 81.6526 10.3471 81.4703 11.2155L80.2908 16.9008H83.8554L84.928 11.5985C85.1743 10.3687 85.7588 9.6351 86.6428 9.6351C87.5274 9.6351 87.6457 10.3093 87.4634 11.2155L86.284 16.9008H89.8486L91.1246 11.0591C91.6606 8.59406 90.8406 6.74388 88.4874 6.74388C87.8326 6.74118 87.188 6.90368 86.612 7.21653C86.036 7.52939 85.5474 7.98261 85.1903 8.53472ZM1.13794 16.9008H4.8206L7.66702 3.11914H3.98972L1.13794 16.9008ZM12.2234 6.78166C14.7107 6.78166 17.0854 8.15171 17.0479 11.2533C17.0157 14.6461 14.7214 17.1867 11.2156 17.1867C8.80342 17.1867 6.39125 15.8382 6.4341 12.7528C6.49308 9.44092 8.75519 6.78166 12.2234 6.78166ZM11.3175 14.7809C12.8882 14.7809 13.4617 12.4885 13.4617 11.14C13.4617 10.1745 13.1669 9.23053 12.1323 9.23053C10.5778 9.23053 10.0471 11.6578 10.0471 12.9093C10.0471 13.9125 10.3258 14.7809 11.339 14.7809M8.89456 3.11914L8.3585 5.87547H39.2832L39.8192 3.11914H8.89456ZM33.7672 6.78166C36.2545 6.78166 38.6292 8.15171 38.5917 11.2533C38.5595 14.6461 36.2599 17.1867 32.7541 17.1867C30.3419 17.1867 27.9296 15.8382 27.9779 12.7528C28.053 9.44092 30.3151 6.78166 33.7672 6.78166ZM32.8774 14.7809C34.448 14.7809 35.0216 12.4885 35.0216 11.14C35.0216 10.1745 34.7214 9.23053 33.6868 9.23053C32.1376 9.23053 31.6016 11.6578 31.6016 12.9093C31.6016 13.9125 31.8803 14.7809 32.8988 14.7809M41.0843 3.11914L40.5483 5.87547H44.1076L44.6437 3.11914H41.0843ZM38.2326 16.9008H41.7972L43.8396 7.07296H40.2534L38.2326 16.9008ZM49.6075 17.2298C49.0402 17.2704 48.4728 17.151 47.969 16.8852C47.4653 16.6194 47.0451 16.2176 46.7557 15.7249H46.6967L45.6247 20.6982H42.017L44.9117 7.07296H48.2995L48.0315 8.38367C48.3853 7.89952 48.8436 7.50237 49.3719 7.22205C49.9002 6.9418 50.4847 6.78569 51.0816 6.7655C53.2258 6.7655 54.4855 8.61562 54.448 11.0214C54.3998 14.0474 52.8399 17.2298 49.586 17.2298H49.6075ZM49.4681 9.54879C48.0905 9.54879 47.2435 11.3234 47.2221 12.6881C47.2221 13.6374 47.5544 14.6946 48.6855 14.6946C50.1596 14.6946 50.7654 12.7312 50.7814 11.4205C50.7814 10.5305 50.5242 9.54879 49.4681 9.54879ZM70.0794 15.3527H70.1383L69.8274 16.9116H73.2148L75.2577 7.08371H71.6983L70.5617 12.5748C70.3314 13.7129 69.6343 14.3117 68.7554 14.3117C67.876 14.3117 67.6828 13.481 67.86 12.6126L69.0126 7.08371H65.4531L64.1931 13.152C63.6571 15.795 64.8794 17.2191 66.9274 17.2191C67.5703 17.2127 68.2006 17.0359 68.7537 16.7063C69.3068 16.3767 69.7646 15.9061 70.0794 15.3419V15.3527ZM89.2 20.7467L89.736 17.9904H47.4633L46.9272 20.7467H89.2Z" fill="white"/>
<path id="Vector_3" d="M93.0325 9.76989C92.9977 9.76719 92.9634 9.75747 92.932 9.74132C92.9 9.72522 92.872 9.70296 92.8491 9.67588C92.8263 9.6488 92.8091 9.61746 92.7983 9.58359C92.7874 9.54973 92.7834 9.51408 92.7863 9.4786C92.8308 8.99824 92.7743 8.51375 92.62 8.05697C92.4657 7.60019 92.2171 7.1813 91.8903 6.82791C91.564 6.47449 91.1668 6.19445 90.7257 6.00614C90.284 5.81783 89.808 5.7255 89.3285 5.73519C89.2577 5.73519 89.1897 5.70678 89.1394 5.6562C89.0891 5.60562 89.0605 5.53702 89.0605 5.46549C89.0605 5.39396 89.0891 5.32537 89.1394 5.27479C89.1897 5.22421 89.2577 5.19579 89.3285 5.19579C89.4571 5.20415 89.5863 5.20415 89.7148 5.19579C90.6668 5.09372 91.5537 4.66087 92.2228 3.97171C92.8925 3.28256 93.3017 2.38021 93.3811 1.42C93.3868 1.35227 93.4171 1.2891 93.4668 1.2431C93.5165 1.19709 93.5817 1.17166 93.6491 1.17188C93.6845 1.1746 93.7188 1.18431 93.7503 1.20044C93.7817 1.21658 93.8097 1.23882 93.8325 1.26589C93.856 1.29297 93.8731 1.32433 93.884 1.35818C93.8948 1.39204 93.8988 1.42771 93.896 1.46315C93.8514 1.94308 93.908 2.42709 94.0617 2.88351C94.216 3.33993 94.464 3.75849 94.7897 4.11182C95.116 4.46516 95.512 4.74531 95.9525 4.93396C96.3937 5.12261 96.8691 5.21551 97.348 5.20658C97.4188 5.20658 97.4874 5.235 97.5377 5.28558C97.588 5.33615 97.616 5.40475 97.616 5.47628C97.616 5.54781 97.588 5.61642 97.5377 5.66699C97.4874 5.71757 97.4188 5.74598 97.348 5.74598C96.3297 5.76291 95.3531 6.15767 94.6063 6.85453C93.8594 7.55137 93.3943 8.50121 93.3011 9.52178C93.2954 9.58952 93.2651 9.65271 93.2154 9.69871C93.1657 9.74471 93.1005 9.77012 93.0325 9.76989Z" fill="white"/>
</g>
</svg>
