<svg width="71" height="29" viewBox="0 0 71 29" fill="none" xmlns="http://www.w3.org/2000/svg">
<g id="Group 1538232133">
<g id="Group 8" style="mix-blend-mode:luminosity">
<g id="Vector" style="mix-blend-mode:luminosity">
<path d="M4.27289 3.3561C4.45489 2.4923 5.31589 1.7916 6.19299 1.7916H10.9614L6.99589 20.5677H2.22749C1.34969 20.5677 0.785494 19.8677 0.968194 19.0032L4.27289 3.3561ZM20.1678 3.3561C20.3505 2.4923 21.2108 1.7916 22.0879 1.7916H26.8563L22.8908 20.5677H18.1224C17.2446 20.5677 16.6804 19.8677 16.8631 19.0032L20.1678 3.3561ZM51.9583 3.3561C52.1403 2.4923 52.9999 1.7916 53.8784 1.7916H58.6468L54.6813 20.5677H49.9122C49.0344 20.5677 48.4709 19.8677 48.6536 19.0032L51.9583 3.3561ZM28.446 1.7916H33.2144C34.0922 1.7916 34.6564 2.4916 34.4737 3.3561L31.169 19.0032C30.987 19.8677 30.1267 20.5677 29.2489 20.5677H24.4805L28.446 1.7916ZM60.2365 1.7916H65.0049C65.8827 1.7916 66.4469 2.4916 66.2642 3.3561L62.9588 19.0032C62.7768 19.8677 61.9172 20.5677 61.0394 20.5677H56.2703L60.2365 1.7916ZM36.0634 3.3561C36.2454 2.4923 37.105 1.7916 37.9828 1.7916H42.7519L38.7857 20.5677H34.0173C33.1395 20.5677 32.5753 19.8677 32.7587 19.0032L36.0627 3.3561H36.0634ZM44.3409 1.7916H49.11C49.9878 1.7916 50.5513 2.4916 50.3686 3.3561L45.4119 26.8271C45.2285 27.6909 44.3689 28.3916 43.4911 28.3916H38.722L44.3409 1.7916ZM9.9072 14.309H16.2653L15.2741 19.0032C15.0914 19.8677 14.2311 20.5677 13.354 20.5677H8.58489L9.90649 14.3097L9.9072 14.309ZM32.0979 22.1329H38.4553L37.1337 28.3916H32.3653C31.4868 28.3916 30.9233 27.6916 31.106 26.8271L32.0979 22.1329ZM49.3557 23.5882L48.5507 27.4004C48.5157 27.5642 48.4611 27.609 48.2945 27.609H47.9284C47.7618 27.609 47.7254 27.5642 47.7604 27.4004L48.5654 23.5882C48.6004 23.4251 48.655 23.3796 48.8216 23.3796H49.1877C49.3543 23.3796 49.3907 23.4251 49.3557 23.5882ZM50.4141 26.16H50.3392C50.2594 26.16 50.2314 26.1824 50.2153 26.2615L49.9745 27.4004C49.9395 27.5642 49.8842 27.609 49.7183 27.609H49.3515C49.1856 27.609 49.1492 27.5642 49.1835 27.4004L49.9885 23.5882C50.0235 23.4251 50.0795 23.3796 50.2454 23.3796H51.0014C51.8722 23.3796 52.2019 23.6897 52.0409 24.4506L51.9065 25.0883C51.7455 25.8499 51.2849 26.16 50.4141 26.16ZM50.6353 24.2707L50.4253 25.2689C50.4078 25.348 50.426 25.3704 50.5065 25.3704H50.6269C50.9069 25.3704 51.0574 25.2577 51.1183 24.97L51.2023 24.5696C51.2632 24.2826 51.161 24.1692 50.8803 24.1692H50.7599C50.6801 24.1692 50.6521 24.1916 50.6353 24.2707ZM53.2519 24.8853L53.8469 25.5398C54.1591 25.8779 54.2025 26.0809 54.1227 26.4589L54.1017 26.5604C53.9512 27.2709 53.5928 27.6657 52.7619 27.6657C51.9317 27.6657 51.7266 27.3332 51.9184 26.4246L51.9422 26.3126C51.9772 26.1488 52.0325 26.1033 52.1984 26.1033H52.5876C52.7542 26.1033 52.7906 26.1488 52.7556 26.3119L52.7031 26.5604C52.6555 26.7858 52.7283 26.8761 52.9285 26.8761C53.1294 26.8761 53.2386 26.7921 53.282 26.5891L53.3044 26.4813C53.338 26.3231 53.3198 26.2447 53.1476 26.0585L52.5876 25.4551C52.274 25.1226 52.2341 24.9301 52.3139 24.5521L52.3398 24.4289C52.4903 23.7184 52.8487 23.3229 53.6789 23.3229C54.5098 23.3229 54.7149 23.6561 54.5231 24.564L54.4993 24.6767C54.4643 24.8405 54.409 24.8853 54.2431 24.8853H53.8532C53.6873 24.8853 53.6509 24.8405 53.6852 24.6767L53.7377 24.4289C53.7853 24.2028 53.7132 24.1132 53.5123 24.1132C53.3121 24.1132 53.2022 24.1972 53.1595 24.4002L53.1392 24.4961C53.1042 24.6599 53.1224 24.739 53.2519 24.8853ZM56.6063 23.5882C56.6413 23.4251 56.6959 23.3796 56.8625 23.3796H57.2286C57.3952 23.3796 57.4316 23.4251 57.3966 23.5882L56.7974 26.4253C56.6056 27.3332 56.2605 27.6657 55.4296 27.6657C54.5994 27.6657 54.3943 27.3332 54.5861 26.4246L55.1853 23.5882C55.2203 23.4251 55.2756 23.3796 55.4415 23.3796H55.8083C55.9742 23.3796 56.0106 23.4251 55.9763 23.5882L55.3484 26.5604C55.3008 26.7858 55.3792 26.8761 55.5969 26.8761C55.8083 26.8761 55.9308 26.7858 55.9784 26.5604L56.6063 23.5882ZM58.9905 25.8835C58.9926 25.929 59.0073 25.9395 59.036 25.9395C59.064 25.9395 59.0843 25.929 59.1053 25.8835L60.0951 23.5266C60.1434 23.4076 60.2008 23.3796 60.3443 23.3796H60.9001C61.066 23.3796 61.1024 23.4251 61.0681 23.5882L60.2631 27.4004C60.2281 27.5642 60.1721 27.609 60.0062 27.609H59.743C59.5771 27.609 59.54 27.5642 59.575 27.4004L59.9614 25.5734C59.9719 25.523 59.9628 25.5111 59.9285 25.5111C59.9054 25.5111 59.8795 25.523 59.8655 25.5622L59.0661 27.4235C59.0087 27.5586 58.9352 27.609 58.7693 27.609H58.6139C58.4417 27.609 58.3899 27.5586 58.3899 27.4235L58.3703 25.5615C58.3668 25.5223 58.3577 25.5111 58.329 25.5111C58.2947 25.5111 58.2807 25.523 58.2702 25.5734L57.8845 27.4004C57.8495 27.5642 57.7949 27.609 57.6283 27.609H57.3651C57.1985 27.609 57.1621 27.5642 57.1971 27.4004L58.0021 23.5882C58.0371 23.4251 58.0924 23.3796 58.2583 23.3796H58.7343C58.9345 23.3796 58.9989 23.4251 58.9975 23.6225L58.9898 25.8835H58.9905ZM70.9339 1.7916C70.9339 2.5651 70.3109 3.1916 69.543 3.1916C69.3597 3.19105 69.1784 3.1544 69.0093 3.08373C68.8402 3.01307 68.6867 2.90978 68.5575 2.77977C68.4283 2.64976 68.326 2.49557 68.2565 2.32602C68.1869 2.15647 68.1515 1.97487 68.1521 1.7916C68.1521 1.0181 68.7751 0.391602 69.543 0.391602C70.3109 0.391602 70.9339 1.0181 70.9339 1.7916Z" fill="white"/>
</g>
</g>
</g>
</svg>
