<svg width="512" height="512" viewBox="0 0 512 512" fill="none" xmlns="http://www.w3.org/2000/svg">
<path d="M400 184H448C461.232 184 472 173.232 472 160V32C472 18.768 461.232 8 448 8H400C386.768 8 376 18.768 376 32V56H352C347.576 56 344 59.584 344 64V72H168V64C168 59.584 164.424 56 160 56H136V32C136 18.768 125.232 8 112 8H64C50.768 8 40 18.768 40 32V160C40 173.232 50.768 184 64 184H112C125.232 184 136 173.232 136 160V136H160C164.424 136 168 132.416 168 128V120H180.688L232 171.312V248H224C219.576 248 216 251.584 216 256V312H192C187.576 312 184 315.576 184 320V392H168V384C168 379.576 164.424 376 160 376H136V352C136 338.768 125.232 328 112 328H64C50.768 328 40 338.768 40 352V480C40 493.232 50.768 504 64 504H112C125.232 504 136 493.232 136 480V456H160C164.424 456 168 452.424 168 448V440H344V448C344 452.424 347.576 456 352 456H376V480C376 493.232 386.768 504 400 504H448C461.232 504 472 493.232 472 480V352C472 338.768 461.232 328 448 328H400C386.768 328 376 338.768 376 352V376H352C347.576 376 344 379.576 344 384V392H328V320C328 315.576 324.424 312 320 312H296V256C296 251.584 292.424 248 288 248H280V171.312L331.312 120H344V128C344 132.416 347.576 136 352 136H376V160C376 173.232 386.768 184 400 184ZM112 168H64C59.584 168 56 164.408 56 160V139.312L66.344 149.656L77.656 138.344L56 116.688V99.312L66.344 109.656L77.656 98.344L56 76.688V59.312L66.344 69.656L77.656 58.344L56 36.688V32C56 27.592 59.584 24 64 24H112C116.416 24 120 27.592 120 32V36.688L98.344 58.344L109.656 69.656L120 59.312V76.688L98.344 98.344L109.656 109.656L120 99.312V116.688L98.344 138.344L109.656 149.656L120 139.312V160C120 164.408 116.416 168 112 168ZM152 120H136V72H152V120ZM112 488H64C59.584 488 56 484.416 56 480V459.312L66.344 469.656L77.656 458.344L56 436.688V419.312L66.344 429.656L77.656 418.344L56 396.688V379.312L66.344 389.656L77.656 378.344L56 356.688V352C56 347.584 59.584 344 64 344H112C116.416 344 120 347.584 120 352V356.688L98.344 378.344L109.656 389.656L120 379.312V396.688L98.344 418.344L109.656 429.656L120 419.312V436.688L98.344 458.344L109.656 469.656L120 459.312V480C120 484.416 116.416 488 112 488ZM152 440H136V392H152V440ZM400 344H448C452.416 344 456 347.584 456 352V356.688L434.344 378.344L445.656 389.656L456 379.312V396.688L434.344 418.344L445.656 429.656L456 419.312V436.688L434.344 458.344L445.656 469.656L456 459.312V480C456 484.416 452.416 488 448 488H400C395.584 488 392 484.416 392 480V459.312L402.344 469.656L413.656 458.344L392 436.688V419.312L402.344 429.656L413.656 418.344L392 396.688V379.312L402.344 389.656L413.656 378.344L392 356.688V352C392 347.584 395.584 344 400 344ZM360 392H376V440H360V392ZM203.312 120H232V148.688L203.312 120ZM232 264H280V344H232V264ZM248 392V360H264V392H248ZM200 328H216V352C216 356.424 219.576 360 224 360H232V392H200V328ZM344 424H168V408H344V424ZM296 352V328H312V392H280V360H288C292.424 360 296 356.424 296 352ZM248 248V120H264V248H248ZM280 148.688V120H308.688L280 148.688ZM168 104V88H344V104H168ZM400 24H448C452.416 24 456 27.592 456 32V36.688L434.344 58.344L445.656 69.656L456 59.312V76.688L434.344 98.344L445.656 109.656L456 99.312V116.688L434.344 138.344L445.656 149.656L456 139.312V160C456 164.408 452.416 168 448 168H400C395.584 168 392 164.408 392 160V139.312L402.344 149.656L413.656 138.344L392 116.688V99.312L402.344 109.656L413.656 98.344L392 76.688V59.312L402.344 69.656L413.656 58.344L392 36.688V32C392 27.592 395.584 24 400 24ZM360 120V72H376V120H360Z" fill="#90AF03"/>
</svg>
