<svg width="132" height="51" viewBox="0 0 132 51" fill="none" xmlns="http://www.w3.org/2000/svg">
<path d="M14.4531 29.2257L21.782 25.9531L26.0004 28.4074L26.8525 36.4593L21.6542 36.4164L22.4211 30.8186L21.5263 30.3019L17.1375 33.7467L14.4531 29.2257Z" fill="black"/>
<path d="M26.4688 28.0631L32.9455 32.8425L35.5021 28.2354L30.3035 26.1255V25.0921L35.5021 22.9392L32.9455 18.375L26.4688 23.1545V28.0631Z" fill="black"/>
<path d="M26.0004 22.7707L26.8525 14.7188L21.6542 14.8049L22.4211 20.4024L21.5263 20.9191L17.0949 17.4745L14.4531 21.9525L21.782 25.225L26.0004 22.7707Z" fill="black"/>
<path d="M52.847 24.6247V32.1683H55.6447V22.5547H51.5703V24.6247H52.847Z" fill="black"/>
<path d="M52.7577 21.1981C53.0142 21.4671 53.4047 21.6015 53.9293 21.6015C54.4541 21.6015 54.8385 21.4671 55.0832 21.1981C55.34 20.9173 55.4679 20.5664 55.4679 20.1455C55.4679 19.7127 55.34 19.3619 55.0832 19.0929C54.8385 18.8123 54.4541 18.6719 53.9293 18.6719C53.4047 18.6719 53.0142 18.8123 52.7577 19.0929C52.5131 19.3619 52.3906 19.7127 52.3906 20.1455C52.3906 20.5664 52.5131 20.9173 52.7577 21.1981Z" fill="black"/>
<path d="M43.1086 31.9583C43.9012 32.3208 44.8745 32.5022 46.0285 32.5022C47.1128 32.5022 48.0451 32.3324 48.8265 31.9934C49.6075 31.6544 50.2077 31.1806 50.6274 30.5723C51.0589 29.9525 51.2744 29.2333 51.2744 28.4146C51.2744 27.6194 51.0707 26.9469 50.6626 26.3972C50.266 25.8359 49.7126 25.3973 49.0012 25.0816C48.2901 24.754 47.4683 24.5494 46.5357 24.4676L45.5565 24.3799C44.9736 24.333 44.5539 24.1752 44.2974 23.9061C44.041 23.6372 43.9127 23.3214 43.9127 22.9589C43.9127 22.6781 43.9829 22.4209 44.1224 22.187C44.2625 21.9414 44.4722 21.7484 44.7521 21.608C45.0435 21.4678 45.3991 21.3976 45.8188 21.3976C46.2616 21.3976 46.629 21.4793 46.9204 21.6432C46.9845 21.6778 47.0455 21.7148 47.1027 21.7541L47.1165 21.7638C47.1379 21.7786 47.159 21.7941 47.1795 21.8096C47.3565 21.9453 47.4975 22.1062 47.6024 22.2922C47.7537 22.5496 47.83 22.836 47.83 23.1519H50.6274C50.6274 22.3097 50.435 21.5788 50.0506 20.959C49.6658 20.3275 49.1121 19.8421 48.3894 19.5028C47.678 19.152 46.8213 18.9766 45.8188 18.9766C44.8627 18.9766 44.0352 19.1404 43.3356 19.4678C42.6363 19.7837 42.0884 20.2397 41.6921 20.8361C41.3071 21.4326 41.1147 22.1402 41.1147 22.9589C41.1147 24.0933 41.494 25.0055 42.2516 25.6956C43.0092 26.3856 44.0236 26.7832 45.2942 26.8884L46.2561 26.9761C47.0368 27.0464 47.6024 27.2043 47.9521 27.4497C48.3016 27.6837 48.4767 28.0053 48.4767 28.4146C48.4767 28.6028 48.4461 28.7792 48.3845 28.944C48.3389 29.0664 48.2765 29.1823 48.1971 29.2918C48.0102 29.5373 47.7364 29.7303 47.375 29.8708C47.0137 30.011 46.5648 30.0812 46.0285 30.0812C45.434 30.0812 44.9502 29.9995 44.5773 29.8354C44.2041 29.6601 43.9245 29.4321 43.7377 29.1516C43.5629 28.8707 43.4757 28.5667 43.4757 28.2392H40.6953C40.6953 29.0696 40.8992 29.8065 41.3071 30.4495C41.7152 31.0812 42.3157 31.5842 43.1086 31.9583Z" fill="black"/>
<path d="M61.8832 32.2856C60.9156 32.2856 60.1345 32.1688 59.5401 31.9347C58.9454 31.6892 58.5084 31.2856 58.2285 30.7243C57.9604 30.1511 57.8264 29.3795 57.8264 28.4086V24.6019H56.375V22.5494H57.8264V19.9531H60.4318V22.5494H63.2298V24.6019H60.4318V28.514C60.4318 28.9701 60.5485 29.3209 60.7815 29.5664C61.0262 29.8005 61.3702 29.9173 61.8133 29.9173H63.2298V32.2856H61.8832Z" fill="black"/>
<path fill-rule="evenodd" clip-rule="evenodd" d="M66.6044 32.0779C67.2338 32.3584 67.9567 32.499 68.7727 32.499C69.5768 32.499 70.2883 32.3584 70.9061 32.0779C71.5239 31.7971 72.0369 31.4054 72.4447 30.9026C72.8529 30.3996 73.127 29.8264 73.2665 29.1834H70.6961C70.5797 29.4758 70.3582 29.7212 70.0318 29.92C69.7054 30.1188 69.2854 30.2184 68.7727 30.2184C68.455 30.2184 68.1711 30.1805 67.9209 30.1051C67.7306 30.0478 67.5599 29.9687 67.4088 29.8675C67.059 29.6337 66.8025 29.306 66.6393 28.8851C66.594 28.7652 66.5553 28.6397 66.5226 28.5091C66.4894 28.3767 66.4626 28.239 66.4424 28.0957H73.4415V27.1483C73.4415 26.2712 73.2549 25.4642 72.882 24.7275C72.5089 23.9789 71.9667 23.3766 71.2559 22.9205C70.5563 22.4527 69.6935 22.2188 68.6676 22.2188C67.8866 22.2188 67.187 22.3591 66.5691 22.6398C65.9635 22.9088 65.4563 23.2771 65.0481 23.745C64.6403 24.2128 64.3254 24.745 64.1036 25.3415C63.8939 25.9261 63.7891 26.5401 63.7891 27.1833V27.5342C63.7891 28.1541 63.8939 28.7622 64.1036 29.3587C64.3254 29.9435 64.6403 30.4755 65.0481 30.9551C65.4678 31.423 65.9863 31.7971 66.6044 32.0779ZM66.4906 26.361C66.4984 26.3238 66.5065 26.2873 66.5154 26.2513C66.5397 26.1521 66.5677 26.057 66.5995 25.9662C66.6174 25.9145 66.6365 25.8641 66.657 25.8151C66.8317 25.3823 67.0882 25.0549 67.4261 24.8327C67.5527 24.7496 67.6896 24.6821 67.8366 24.6302C68.0838 24.543 68.3611 24.4993 68.6676 24.4993C69.1459 24.4993 69.5419 24.6105 69.8567 24.8327C70.1831 25.0432 70.4281 25.353 70.5913 25.7624C70.6045 25.7954 70.617 25.8291 70.6291 25.8631C70.6484 25.9173 70.6664 25.973 70.6831 26.03C70.7077 26.1149 70.7293 26.2028 70.7484 26.2936C70.7622 26.3606 70.7741 26.4291 70.7848 26.4993H66.4637C66.4718 26.4524 66.4808 26.4063 66.4906 26.361Z" fill="black"/>
<path d="M74.5938 32.1696V22.556H76.8147V24.9773C76.8447 24.8333 76.8791 24.6952 76.9175 24.5627C76.9504 24.4511 76.9856 24.3435 77.0243 24.2401C77.2693 23.5851 77.6364 23.094 78.126 22.7665C78.6156 22.4273 79.2158 22.2578 79.9272 22.2578H80.0494C80.7723 22.2578 81.3725 22.4273 81.8506 22.7665C82.3402 23.094 82.7076 23.5851 82.9522 24.2401L82.9716 24.2895L82.988 24.3347C82.999 24.3028 83.0106 24.2713 83.0221 24.2401C83.2786 23.5851 83.6518 23.094 84.1414 22.7665C84.631 22.4273 85.2315 22.2578 85.9426 22.2578H86.065C86.7874 22.2578 87.3937 22.4273 87.8833 22.7665C88.3847 23.094 88.7637 23.5851 89.0199 24.2401C89.2764 24.8951 89.4049 25.7137 89.4049 26.6961V32.1696H86.6069V26.5382C86.6069 26.0119 86.4671 25.585 86.1872 25.2576C85.9192 24.9301 85.5344 24.7664 85.0333 24.7664C84.5319 24.7664 84.1356 24.936 83.8441 25.2752C83.5527 25.6026 83.4069 26.0411 83.4069 26.5909V32.1696H80.5915V26.5382C80.5915 26.0119 80.4517 25.585 80.1718 25.2576C79.9038 24.9301 79.5248 24.7664 79.0355 24.7664C78.5223 24.7664 78.1202 24.936 77.8288 25.2752C77.5373 25.6026 77.3915 26.0411 77.3915 26.5909V32.1696H74.5938Z" fill="black"/>
<path fill-rule="evenodd" clip-rule="evenodd" d="M96.8739 30.3175V32.17H99.0945V26.2754C99.0945 25.3865 98.9197 24.6615 98.5699 24.1001C98.2201 23.527 97.7075 23.1002 97.0313 22.8195C96.367 22.5388 95.5449 22.3984 94.5657 22.3984C94.3534 22.3984 94.1319 22.4007 93.9008 22.4054C93.7645 22.4082 93.6244 22.4117 93.4814 22.416C93.0967 22.4277 92.7235 22.4452 92.3625 22.4686L92.0863 22.4873C91.9445 22.4972 91.8114 22.5069 91.686 22.5168C91.5918 22.5241 91.5026 22.5315 91.4182 22.5388V24.9071C91.7796 24.8837 92.1817 24.8603 92.6247 24.837C92.7486 24.8304 92.8714 24.8244 92.9933 24.8187C93.1695 24.8105 93.3431 24.8035 93.5149 24.7973C93.6507 24.7923 93.7853 24.7879 93.9187 24.7843C94.3381 24.7725 94.6764 24.7667 94.9329 24.7667C95.4458 24.7667 95.8187 24.8895 96.0521 25.1351C96.2852 25.3807 96.4016 25.7491 96.4016 26.2404V26.2754H94.6706C93.8197 26.2754 93.0678 26.3866 92.4148 26.6088C91.762 26.8192 91.2548 27.1526 90.8937 27.6087C90.5321 28.0532 90.3516 28.6262 90.3516 29.3279C90.3516 29.9712 90.4971 30.5267 90.7886 30.9947C91.08 31.4505 91.4821 31.8014 91.9951 32.0468C92.5199 32.2926 93.1262 32.4154 93.8136 32.4154C94.4782 32.4154 95.0377 32.2926 95.4926 32.0468C95.9588 31.8014 96.3202 31.4505 96.5766 30.9947C96.6217 30.9176 96.6639 30.8379 96.7032 30.755C96.7586 30.638 96.808 30.5148 96.8516 30.3856L96.8739 30.3175ZM96.4016 28.6087V27.8368H94.653C94.1634 27.8368 93.7847 27.9595 93.5167 28.2052C93.2602 28.4391 93.1316 28.7607 93.1316 29.17C93.1316 29.3627 93.1637 29.5377 93.2275 29.6956C93.292 29.8538 93.3881 29.9944 93.5167 30.1172C93.7847 30.3514 94.1634 30.4681 94.653 30.4681C94.7463 30.4681 94.8364 30.4635 94.9233 30.4545C94.9944 30.447 95.0634 30.4363 95.1301 30.4227C95.2584 30.3966 95.3794 30.3589 95.4926 30.3102C95.7491 30.1934 95.9588 30.0005 96.1217 29.7313C96.2852 29.4623 96.3785 29.088 96.4016 28.6087Z" fill="black"/>
<path d="M100.773 32.166V22.5524H102.994V25.7256C103.101 24.8197 103.369 24.0894 103.799 23.5348C104.382 22.7981 105.221 22.4297 106.317 22.4297H106.684V24.8505H105.984C105.215 24.8505 104.621 25.061 104.201 25.4821C103.781 25.8914 103.571 26.4879 103.571 27.2714V32.166H100.773Z" fill="black"/>
<path d="M110.227 27.6746H111.154L114.179 32.1658H117.327L113.491 26.6502L116.645 22.5521H113.707L110.227 27.1232V19.3594H107.43V32.1658H110.227V27.6746Z" fill="black"/>
</svg>
