<svg width="139" height="51" viewBox="0 0 139 51" fill="none" xmlns="http://www.w3.org/2000/svg">
<path d="M50.1084 33.3922C48.5485 33.3922 47.1696 33.0846 45.9716 32.4702C44.7737 31.8415 43.8475 30.9544 43.1929 29.8091C42.5383 28.6636 42.2109 27.3156 42.2109 25.7651C42.2109 24.2146 42.5383 22.8666 43.1929 21.7212C43.8475 20.5617 44.7737 19.6747 45.9716 19.0601C47.1696 18.4315 48.5485 18.1172 50.1084 18.1172C51.167 18.1172 52.1003 18.229 52.9081 18.4525C53.7301 18.662 54.4821 18.9972 55.1644 19.4582V22.4964C54.5517 21.9935 53.8484 21.6303 53.0545 21.4068C52.2744 21.1694 51.3831 21.0506 50.3802 21.0506C49.4469 21.0506 48.604 21.2462 47.852 21.6373C47.1138 22.0145 46.5289 22.5593 46.0971 23.2717C45.6653 23.9841 45.4492 24.8152 45.4492 25.7651C45.4492 26.729 45.6443 27.5741 46.0342 28.3004C46.4383 29.0129 47.0023 29.5646 47.7266 29.9557C48.4508 30.3469 49.2867 30.5424 50.2338 30.5424C51.0974 30.5424 51.8494 30.3888 52.4902 30.0814V27.2528H50.1293V24.906H55.5614V31.9673C54.1825 32.9171 52.365 33.3922 50.1084 33.3922Z" fill="black"/>
<path d="M56.2969 23.0238H59.3472V24.4695C59.7512 23.9807 60.3152 23.6105 61.0395 23.359C61.7638 23.0936 62.5858 22.9609 63.5048 22.9609V25.3705C62.5439 25.3705 61.6941 25.5172 60.956 25.8106C60.2317 26.1039 59.7303 26.5509 59.4516 27.1516V33.0814H56.2969V23.0238Z" fill="black"/>
<path d="M69.5672 33.3972C67.645 33.3972 66.1335 32.936 65.0332 32.014C63.933 31.0784 63.3828 29.7721 63.3828 28.0959C63.3828 26.4336 63.8704 25.1205 64.8452 24.1567C65.8343 23.1928 67.2409 22.7109 69.0658 22.7109C70.2635 22.7109 71.2802 22.9344 72.1161 23.3814C72.9516 23.8284 73.5856 24.45 74.0174 25.2463C74.4492 26.0285 74.6649 26.9155 74.6649 27.9073V29.1855H66.3915C66.6143 30.4706 67.812 31.1133 69.9849 31.1133C70.6256 31.1133 71.2873 31.0574 71.9697 30.9455C72.6524 30.8338 73.2444 30.6801 73.7459 30.4845V32.7057C73.2583 32.915 72.6314 33.0828 71.8652 33.2086C71.0993 33.3341 70.3331 33.3972 69.5672 33.3972ZM71.6772 27.132C71.6356 26.4615 71.3847 25.9447 70.9252 25.5815C70.4656 25.2043 69.8317 25.0158 69.0239 25.0158C68.2299 25.0158 67.603 25.2043 67.1435 25.5815C66.684 25.9587 66.4331 26.4755 66.3915 27.132H71.6772Z" fill="black"/>
<path d="M81.1297 33.3972C79.2078 33.3972 77.6963 32.936 76.5961 32.014C75.4958 31.0784 74.9453 29.7721 74.9453 28.0959C74.9453 26.4336 75.4329 25.1205 76.408 24.1567C77.3968 23.1928 78.8037 22.7109 80.6283 22.7109C81.8263 22.7109 82.843 22.9344 83.6789 23.3814C84.5144 23.8284 85.1481 24.45 85.5799 25.2463C86.0117 26.0285 86.2277 26.9155 86.2277 27.9073V29.1855H77.954C78.1768 30.4706 79.3748 31.1133 81.5477 31.1133C82.1884 31.1133 82.8501 31.0574 83.5325 30.9455C84.2149 30.8338 84.8069 30.6801 85.3084 30.4845V32.7057C84.8208 32.915 84.1942 33.0828 83.428 33.2086C82.6618 33.3341 81.8959 33.3972 81.1297 33.3972ZM83.24 27.132C83.1981 26.4615 82.9475 25.9447 82.488 25.5815C82.0281 25.2043 81.3945 25.0158 80.5867 25.0158C79.7927 25.0158 79.1659 25.2043 78.7063 25.5815C78.2465 25.9587 77.9959 26.4755 77.954 27.132H83.24Z" fill="black"/>
<path d="M86.9297 23.0252H89.98V24.2615C90.4398 23.7446 90.9829 23.3605 91.6098 23.109C92.2505 22.8436 92.919 22.7109 93.6156 22.7109C94.9806 22.7109 95.9974 23.0811 96.6659 23.8214C97.3482 24.5478 97.6897 25.5326 97.6897 26.7759V33.0828H94.5346V27.132C94.5346 25.8329 93.9358 25.1834 92.7378 25.1834C92.2086 25.1834 91.7143 25.3161 91.2544 25.5815C90.7949 25.8329 90.405 26.2101 90.0845 26.713V33.0828H86.9297V23.0252Z" fill="black"/>
<path d="M100.476 21.4725C99.9889 21.4725 99.578 21.3119 99.2436 20.9906C98.9092 20.6693 98.7422 20.2642 98.7422 19.7753C98.7422 19.3004 98.9092 18.9023 99.2436 18.581C99.578 18.2457 99.9889 18.0781 100.476 18.0781C100.964 18.0781 101.375 18.2457 101.709 18.581C102.043 18.9023 102.21 19.3004 102.21 19.7753C102.21 20.2642 102.043 20.6693 101.709 20.9906C101.375 21.3119 100.964 21.4725 100.476 21.4725ZM98.8883 23.0231H102.064V33.0807H98.8883V23.0231Z" fill="black"/>
<path d="M107.44 33.3972C106.688 33.3972 105.88 33.3131 105.017 33.1456C104.167 32.9919 103.498 32.7685 103.011 32.4751V30.0026C103.568 30.3379 104.236 30.6103 105.017 30.8198C105.797 31.0292 106.521 31.134 107.189 31.134C107.76 31.134 108.178 31.0852 108.443 30.9875C108.708 30.8896 108.84 30.708 108.84 30.4427C108.84 30.2331 108.763 30.0655 108.61 29.9398C108.457 29.8001 108.22 29.6813 107.9 29.5836C107.593 29.4718 107.078 29.3112 106.354 29.1016C105.504 28.8502 104.835 28.5988 104.348 28.3473C103.874 28.0819 103.512 27.7537 103.262 27.3625C103.025 26.9714 102.906 26.4685 102.906 25.8539C102.906 24.8062 103.317 24.024 104.139 23.5072C104.975 22.9763 106.103 22.7109 107.524 22.7109C108.22 22.7109 108.938 22.7877 109.676 22.9414C110.428 23.0811 111.006 23.2697 111.41 23.5072V25.9168C111.006 25.6513 110.477 25.4348 109.822 25.2672C109.181 25.0996 108.554 25.0158 107.941 25.0158C107.37 25.0158 106.925 25.0717 106.604 25.1834C106.298 25.2952 106.145 25.5047 106.145 25.812C106.145 26.0774 106.291 26.2799 106.583 26.4197C106.89 26.5593 107.454 26.7339 108.276 26.9435L108.694 27.0482C109.571 27.2857 110.254 27.5511 110.741 27.8445C111.229 28.1238 111.57 28.4661 111.765 28.8712C111.974 29.2623 112.078 29.7582 112.078 30.3588C112.078 31.2808 111.681 32.0211 110.888 32.5799C110.094 33.1245 108.944 33.3972 107.44 33.3972Z" fill="black"/>
<path d="M112.812 17.5938H115.967V24.1731C116.441 23.6841 116.977 23.321 117.576 23.0835C118.175 22.832 118.816 22.7063 119.498 22.7063C120.863 22.7063 121.88 23.0765 122.549 23.8168C123.231 24.5432 123.573 25.528 123.573 26.7712V33.0782H120.418V27.1274C120.418 25.8283 119.819 25.1788 118.621 25.1788C118.091 25.1788 117.597 25.3115 117.138 25.5769C116.678 25.8283 116.288 26.2055 115.967 26.7084V33.0782H112.812V17.5938Z" fill="black"/>
<path fill-rule="evenodd" clip-rule="evenodd" d="M31.4398 20.5614C31.4398 23.223 29.2885 25.3806 26.6346 25.3806C23.9806 25.3806 21.8291 23.223 21.8291 20.5614C21.8291 17.8998 23.9806 15.7422 26.6346 15.7422C29.2885 15.7422 31.4398 17.8998 31.4398 20.5614ZM15.4568 25.0304C20.6922 24.6765 25.2549 28.6075 25.68 33.8691C25.724 34.4143 25.7219 34.9524 25.6769 35.4801C20.4415 35.834 15.8788 31.9029 15.4537 26.6414C15.4097 26.0962 15.4118 25.5579 15.4568 25.0304ZM29.0643 35.2958C34.3107 34.8696 38.2305 30.2937 37.8776 25.0433C37.3515 24.9982 36.8149 24.9961 36.2712 25.0403C31.0246 25.4665 27.105 30.0424 27.4579 35.2927C27.9839 35.3379 28.5206 35.34 29.0643 35.2958Z" fill="black"/>
</svg>
