<svg width="121" height="51" viewBox="0 0 121 51" fill="none" xmlns="http://www.w3.org/2000/svg">
<path d="M33.6296 32.7581C33.7635 34.3564 33.2222 36.0012 32.0037 37.2296C30.7851 38.4584 29.144 39.0136 27.5434 38.8937C27.4094 37.2955 27.9507 35.6507 29.1693 34.4223C30.3878 33.1938 32.0289 32.6384 33.6296 32.7581Z" fill="black"/>
<path d="M30.732 30.5417C29.1345 32.2488 26.8268 33.2722 24.3073 33.1572C21.7881 33.0422 19.5835 31.8131 18.1484 29.968C19.7459 28.2609 22.0536 27.2375 24.5731 27.3525C27.0923 27.4675 29.2969 28.6966 30.732 30.5417Z" fill="black"/>
<path d="M17.2109 25.044C17.5446 21.0467 19.5628 17.2151 23.0781 14.6911C26.5933 12.1673 30.871 11.4785 34.7684 12.4376C34.4348 16.4349 32.4166 20.2666 28.9013 22.7905C25.3861 25.3144 21.1083 26.0032 17.2109 25.044Z" fill="black"/>
<path d="M82.0078 20.1487V22.5828H83.4693V35.3081H86.0674V22.5828H89.4777V20.1487H86.0674V17.6579C86.0674 16.9439 86.1323 16.3706 86.2624 15.9378C86.3922 15.5051 86.5656 15.2022 86.7819 15.029C87.0202 14.8344 87.3017 14.737 87.6265 14.737C87.8861 14.737 88.1568 14.7911 88.4384 14.8992C88.7416 14.9858 89.0011 15.213 89.2178 15.5808L90.6468 13.4388C90.4954 13.2224 90.2787 13.0169 89.9972 12.8222C89.7376 12.6274 89.4236 12.4651 89.0556 12.3353C88.6875 12.2055 88.265 12.1406 87.7888 12.1406C86.8792 12.1406 86.0998 12.3353 85.4502 12.7248C84.8226 13.0926 84.3352 13.6551 83.9888 14.4124C83.6423 15.1697 83.4693 16.1433 83.4693 17.3333V20.1487H82.0078Z" fill="black"/>
<path d="M41.2031 15.1797V35.3016H52.8952V32.7052H43.9638V15.1797H41.2031Z" fill="black"/>
<path fill-rule="evenodd" clip-rule="evenodd" d="M59.8224 35.6329C61.4248 35.6329 62.8105 35.3192 63.9796 34.6916C65.1704 34.0428 66.1556 33.0906 66.935 31.8358L64.8239 30.5051C64.2828 31.4138 63.6224 32.0954 62.843 32.5497C62.0636 32.9824 61.1649 33.1988 60.1472 33.1988C59.1295 33.1988 58.2636 32.9824 57.5491 32.5497C56.8346 32.117 56.2931 31.4896 55.925 30.6674C55.6455 30.0426 55.4718 29.3177 55.4049 28.4929H67.1625V28.2008C67.1841 28.0277 67.1949 27.8654 67.1949 27.714C67.1949 26.1345 66.9134 24.7715 66.3506 23.6247C65.7875 22.4779 64.9757 21.6017 63.9147 20.9958C62.8754 20.3684 61.6195 20.0547 60.1472 20.0547C58.6749 20.0547 57.3757 20.3792 56.2498 21.0283C55.1456 21.6774 54.2797 22.5861 53.6517 23.7545C53.0454 24.9229 52.7422 26.286 52.7422 27.8438C52.7422 29.3801 53.0345 30.7323 53.6193 31.9006C54.2253 33.069 55.0591 33.9888 56.12 34.6592C57.2026 35.3083 58.4366 35.6329 59.8224 35.6329ZM55.9575 24.7931C55.75 25.2323 55.5975 25.7299 55.5002 26.286H64.3548C64.3048 25.5749 64.1257 24.9476 63.8171 24.4036C63.4706 23.7545 62.9836 23.2461 62.3556 22.8783C61.728 22.5104 60.9915 22.3265 60.1472 22.3265C59.1511 22.3265 58.296 22.5429 57.5815 22.9756C56.8886 23.3867 56.3472 23.9925 55.9575 24.7931Z" fill="black"/>
<path fill-rule="evenodd" clip-rule="evenodd" d="M77.7723 27.1232C77.364 26.8556 76.8442 26.6198 76.2135 26.4158C75.499 26.1561 74.6003 26.0263 73.5177 26.0263C71.6774 26.0263 70.2376 26.4699 69.1982 27.357C68.1806 28.2224 67.6719 29.3801 67.6719 30.8297C67.6719 31.8465 67.9098 32.712 68.386 33.426C68.8626 34.1401 69.4906 34.6916 70.27 35.081C71.071 35.4492 71.9265 35.6329 72.8357 35.6329C73.6583 35.6329 74.4813 35.4816 75.304 35.1787C76.1486 34.8757 76.8523 34.4106 77.4151 33.7831C77.5496 33.6386 77.6686 33.4855 77.7723 33.3239V35.3083H80.3705V24.5983C80.3705 23.6247 80.1217 22.8025 79.6235 22.1318C79.1473 21.4611 78.4652 20.9526 77.5777 20.6064C76.7114 20.2386 75.6937 20.0547 74.5246 20.0547C73.1388 20.0547 71.9481 20.2602 70.9521 20.6713C69.9776 21.0824 69.209 21.4935 68.646 21.9046L69.9127 23.8194C70.1507 23.6463 70.4758 23.4408 70.8872 23.2028C71.2985 22.9647 71.7964 22.7592 72.3811 22.5861C72.9874 22.4131 73.6583 22.3265 74.3948 22.3265C74.8494 22.3265 75.2824 22.3697 75.6937 22.4563C76.105 22.5429 76.4623 22.6835 76.7655 22.8783C77.0903 23.0729 77.3394 23.3434 77.5124 23.6896C77.6858 24.0142 77.7723 24.4361 77.7723 24.9554V27.1232ZM70.6921 29.3043C70.4322 29.6938 70.3024 30.159 70.3024 30.6999C70.3024 31.2624 70.4322 31.7492 70.6921 32.1603C70.9737 32.5714 71.3526 32.8851 71.8288 33.1015C72.327 33.2962 72.8897 33.3936 73.5177 33.3936C74.3188 33.3936 75.0333 33.2313 75.6613 32.9067C76.3109 32.5822 76.8195 32.1278 77.1876 31.5436C77.5777 30.9378 77.7723 30.2454 77.7723 29.4665V28.905C77.3563 28.7027 76.9341 28.5437 76.5056 28.428C75.7045 28.19 74.8494 28.071 73.9399 28.071C73.0956 28.071 72.4027 28.1792 71.8612 28.3956C71.3418 28.6119 70.9521 28.9149 70.6921 29.3043Z" fill="black"/>
<path fill-rule="evenodd" clip-rule="evenodd" d="M100.753 34.6916C99.5836 35.3192 98.1979 35.6329 96.5958 35.6329C95.2101 35.6329 93.9757 35.3083 92.8931 34.6592C91.8322 33.9888 90.9987 33.069 90.3924 31.9006C89.8076 30.7323 89.5156 29.3801 89.5156 27.8438C89.5156 26.286 89.8188 24.9229 90.4248 23.7545C91.0528 22.5861 91.9187 21.6774 93.0229 21.0283C94.1491 20.3792 95.448 20.0547 96.9206 20.0547C98.3929 20.0547 99.6485 20.3684 100.688 20.9958C101.749 21.6017 102.561 22.4779 103.124 23.6247C103.687 24.7715 103.968 26.1345 103.968 27.714C103.968 27.8654 103.957 28.0277 103.936 28.2008V28.4929H92.178C92.2452 29.3177 92.4186 30.0426 92.6985 30.6674C93.0665 31.4896 93.6076 32.117 94.3222 32.5497C95.0367 32.9824 95.9029 33.1988 96.9206 33.1988C97.938 33.1988 98.8367 32.9824 99.6161 32.5497C100.395 32.0954 101.056 31.4138 101.597 30.5051L103.708 31.8358C102.929 33.0906 101.944 34.0428 100.753 34.6916ZM92.2736 26.286C92.371 25.7299 92.5234 25.2323 92.7309 24.7931C93.1206 23.9925 93.6617 23.3867 94.3546 22.9756C95.0691 22.5429 95.9246 22.3265 96.9206 22.3265C97.7649 22.3265 98.5011 22.5104 99.129 22.8783C99.7567 23.2461 100.244 23.7545 100.591 24.4036C100.899 24.9476 101.078 25.5749 101.128 26.286H92.2736Z" fill="black"/>
</svg>
