<svg width="150" height="51" viewBox="0 0 150 51" fill="none" xmlns="http://www.w3.org/2000/svg">
<path d="M28.5476 16.1077H19.9609V13.4375H28.5476C31.5116 13.4375 33.9143 15.8284 33.9143 18.7778V27.3224H31.2309V18.7778C31.2309 17.3031 30.0296 16.1077 28.5476 16.1077Z" fill="black"/>
<path d="M18.8902 31.0585H27.4768V33.7287H18.8902C15.9262 33.7287 13.5234 31.3375 13.5234 28.3884V19.8438H16.2068V28.3884C16.2068 29.8628 17.4082 31.0585 18.8902 31.0585Z" fill="black"/>
<path fill-rule="evenodd" clip-rule="evenodd" d="M29.0849 23.5825C29.0849 26.5319 26.6823 28.9229 23.7183 28.9229C20.7543 28.9229 18.3516 26.5319 18.3516 23.5825C18.3516 20.6331 20.7543 18.2422 23.7183 18.2422C26.6823 18.2422 29.0849 20.6331 29.0849 23.5825ZM26.4017 23.5825C26.4017 25.0572 25.2003 26.2527 23.7183 26.2527C22.2363 26.2527 21.0349 25.0572 21.0349 23.5825C21.0349 22.1078 22.2363 20.9123 23.7183 20.9123C25.2003 20.9123 26.4017 22.1078 26.4017 23.5825Z" fill="black"/>
<path d="M45.3657 32.0343C44.3495 32.0343 43.4347 31.861 42.6214 31.5142C41.8083 31.1529 41.1694 30.6472 40.7049 29.997C40.2402 29.3468 40.0078 28.5882 40.0078 27.7215H42.6651C42.7231 28.3717 42.9772 28.9062 43.4275 29.3252C43.892 29.7441 44.5381 29.9537 45.3657 29.9537C46.2225 29.9537 46.8904 29.7513 47.3696 29.3468C47.8486 28.9279 48.0882 28.3933 48.0882 27.7431C48.0882 27.2374 47.9358 26.8256 47.631 26.5078C47.3404 26.1899 46.9703 25.9442 46.5201 25.7709C46.0846 25.5975 45.4746 25.4097 44.6905 25.2074C43.7033 24.9473 42.8975 24.6872 42.2731 24.4272C41.6632 24.1527 41.1405 23.7337 40.7049 23.1701C40.2692 22.6067 40.0515 21.8553 40.0515 20.9162C40.0515 20.0493 40.2692 19.2908 40.7049 18.6406C41.1405 17.9904 41.7504 17.4919 42.5345 17.1451C43.3185 16.7984 44.2261 16.625 45.257 16.625C46.7235 16.625 47.9213 16.9934 48.8506 17.7303C49.7943 18.4527 50.317 19.4497 50.4187 20.7211H47.6744C47.631 20.1721 47.3696 19.7025 46.8904 19.3124C46.4111 18.9223 45.7797 18.7272 44.9956 18.7272C44.284 18.7272 43.7033 18.9079 43.2531 19.2691C42.8031 19.6303 42.5779 20.1504 42.5779 20.8295C42.5779 21.2918 42.7159 21.6747 42.9917 21.9782C43.2821 22.2671 43.6451 22.4983 44.0809 22.6717C44.5164 22.8451 45.1116 23.0329 45.8667 23.2352C46.8686 23.5097 47.6817 23.7842 48.3061 24.0587C48.945 24.3333 49.4822 24.7595 49.9177 25.3374C50.368 25.9009 50.5929 26.6595 50.5929 27.6131C50.5929 28.3789 50.3825 29.1011 49.9615 29.7804C49.5547 30.4595 48.9523 31.0084 48.1537 31.4274C47.3696 31.8319 46.4404 32.0343 45.3657 32.0343Z" fill="black"/>
<path d="M58.4922 19.7422C59.4363 19.7422 60.2783 19.9372 61.0189 20.3273C61.7737 20.7174 62.3619 21.2954 62.7829 22.0612C63.204 22.8269 63.4146 23.7516 63.4146 24.8352V31.879H60.9534V25.2037C60.9534 24.1345 60.6848 23.3182 60.1476 22.7547C59.6104 22.1767 58.877 21.8878 57.9478 21.8878C57.0185 21.8878 56.2779 22.1767 55.7262 22.7547C55.189 23.3182 54.9204 24.1345 54.9204 25.2037V31.879H52.4375V19.9372H54.9204V21.3026C55.3269 20.8114 55.8424 20.4285 56.4668 20.154C57.1057 19.8794 57.7809 19.7422 58.4922 19.7422Z" fill="black"/>
<path d="M64.6641 25.8539C64.6641 24.6546 64.9109 23.5927 65.4047 22.668C65.9129 21.7433 66.5953 21.0281 67.4518 20.5224C68.3231 20.0023 69.2813 19.7422 70.3268 19.7422C71.2708 19.7422 72.0911 19.93 72.7879 20.3057C73.4996 20.6669 74.0658 21.122 74.4868 21.6711V19.9372H76.9914V31.879H74.4868V30.1017C74.0658 30.6651 73.4921 31.1348 72.7662 31.5105C72.0401 31.8862 71.2125 32.0739 70.2833 32.0739C69.2523 32.0739 68.3086 31.8138 67.4518 31.2937C66.5953 30.7591 65.9129 30.0221 65.4047 29.083C64.9109 28.1295 64.6641 27.0532 64.6641 25.8539ZM74.4868 25.8972C74.4868 25.0737 74.3126 24.3585 73.9641 23.7516C73.6302 23.1448 73.1872 22.6824 72.6355 22.3646C72.0838 22.0467 71.4884 21.8878 70.8495 21.8878C70.2106 21.8878 69.6154 22.0467 69.0637 22.3646C68.5117 22.668 68.0617 23.1231 67.7132 23.73C67.3794 24.3223 67.2125 25.0303 67.2125 25.8539C67.2125 26.6774 67.3794 27.3998 67.7132 28.0211C68.0617 28.6425 68.5117 29.1194 69.0637 29.4515C69.6299 29.7695 70.2253 29.9284 70.8495 29.9284C71.4884 29.9284 72.0838 29.7695 72.6355 29.4515C73.1872 29.1338 73.6302 28.6713 73.9641 28.0644C74.3126 27.4433 74.4868 26.7207 74.4868 25.8972Z" fill="black"/>
<path d="M81.647 21.6927C82.068 21.1437 82.6417 20.6813 83.3675 20.3057C84.0937 19.93 84.914 19.7422 85.8287 19.7422C86.8742 19.7422 87.8252 20.0023 88.682 20.5224C89.5532 21.0281 90.2356 21.7433 90.7294 22.668C91.2228 23.5927 91.4697 24.6546 91.4697 25.8539C91.4697 27.0532 91.2228 28.1295 90.7294 29.083C90.2356 30.0221 89.5532 30.7591 88.682 31.2937C87.8252 31.8138 86.8742 32.0739 85.8287 32.0739C84.914 32.0739 84.1009 31.8934 83.3895 31.5321C82.6779 31.1564 82.0972 30.6942 81.647 30.145V37.557H79.1641V19.9372H81.647V21.6927ZM88.9433 25.8539C88.9433 25.0303 88.7692 24.3223 88.4206 23.73C88.0865 23.1231 87.6365 22.668 87.0703 22.3646C86.5184 22.0467 85.9232 21.8878 85.2843 21.8878C84.6599 21.8878 84.0647 22.0467 83.4982 22.3646C82.9465 22.6824 82.4965 23.1448 82.148 23.7516C81.8142 24.3585 81.647 25.0737 81.647 25.8972C81.647 26.7208 81.8142 27.4433 82.148 28.0644C82.4965 28.6713 82.9465 29.1338 83.4982 29.4515C84.0647 29.7695 84.6599 29.9284 85.2843 29.9284C85.9232 29.9284 86.5184 29.7695 87.0703 29.4515C87.6365 29.1194 88.0865 28.6425 88.4206 28.0211C88.7692 27.3998 88.9433 26.6774 88.9433 25.8539Z" fill="black"/>
<path d="M97.8188 32.0343C96.8026 32.0343 95.8879 31.861 95.0745 31.5142C94.2615 31.1529 93.6226 30.6472 93.1581 29.997C92.6933 29.3468 92.4609 28.5882 92.4609 27.7215H95.1183C95.1762 28.3717 95.4304 28.9062 95.8804 29.3252C96.3451 29.7441 96.9913 29.9537 97.8188 29.9537C98.6756 29.9537 99.3435 29.7513 99.8227 29.3468C100.302 28.9279 100.541 28.3933 100.541 27.7431C100.541 27.2374 100.389 26.8256 100.084 26.5078C99.7935 26.1899 99.4235 25.9442 98.9732 25.7709C98.5377 25.5975 97.9278 25.4097 97.1437 25.2074C96.1565 24.9473 95.3504 24.6872 94.7262 24.4272C94.1163 24.1527 93.5936 23.7337 93.1581 23.1701C92.7223 22.6067 92.5047 21.8553 92.5047 20.9162C92.5047 20.0493 92.7223 19.2908 93.1581 18.6406C93.5936 17.9904 94.2035 17.4919 94.9876 17.1451C95.7717 16.7984 96.6792 16.625 97.7099 16.625C99.1766 16.625 100.374 16.9934 101.304 17.7303C102.247 18.4527 102.77 19.4497 102.872 20.7211H100.128C100.084 20.1721 99.8227 19.7025 99.3435 19.3124C98.8643 18.9223 98.2326 18.7272 97.4485 18.7272C96.7371 18.7272 96.1565 18.9079 95.7062 19.2691C95.2562 19.6303 95.0311 20.1504 95.0311 20.8295C95.0311 21.2918 95.169 21.6747 95.4448 21.9782C95.7352 22.2671 96.0982 22.4983 96.5337 22.6717C96.9695 22.8451 97.5647 23.0329 98.3198 23.2352C99.3218 23.5097 100.135 23.7842 100.759 24.0587C101.398 24.3333 101.935 24.7595 102.371 25.3374C102.821 25.9009 103.046 26.6595 103.046 27.6131C103.046 28.3789 102.836 29.1011 102.414 29.7804C102.008 30.4595 101.405 31.0084 100.607 31.4274C99.8227 31.8319 98.8932 32.0343 97.8188 32.0343Z" fill="black"/>
<path d="M111.098 19.7448C112.013 19.7448 112.826 19.9399 113.537 20.33C114.263 20.7201 114.83 21.2981 115.236 22.0638C115.657 22.8296 115.868 23.7543 115.868 24.8379V31.8816H113.407V25.2064C113.407 24.1372 113.138 23.3208 112.601 22.7573C112.064 22.1794 111.33 21.8904 110.401 21.8904C109.472 21.8904 108.731 22.1794 108.179 22.7573C107.642 23.3208 107.374 24.1372 107.374 25.2064V31.8816H104.891V15.8438H107.374V21.3269C107.795 20.8212 108.325 20.4311 108.963 20.1566C109.617 19.8821 110.328 19.7448 111.098 19.7448Z" fill="black"/>
<path d="M123.152 32.0739C122.019 32.0739 120.996 31.821 120.081 31.3153C119.166 30.7951 118.447 30.0729 117.925 29.1482C117.402 28.2091 117.141 27.1253 117.141 25.8972C117.141 24.6836 117.409 23.6071 117.946 22.668C118.484 21.7288 119.217 21.0064 120.146 20.5007C121.076 19.995 122.114 19.7422 123.261 19.7422C124.408 19.7422 125.446 19.995 126.375 20.5007C127.305 21.0064 128.038 21.7288 128.575 22.668C129.112 23.6071 129.381 24.6836 129.381 25.8972C129.381 27.1109 129.105 28.1872 128.553 29.1266C128.002 30.0657 127.246 30.7951 126.288 31.3153C125.344 31.821 124.299 32.0739 123.152 32.0739ZM123.152 29.9284C123.791 29.9284 124.386 29.7767 124.938 29.4731C125.504 29.1698 125.961 28.7146 126.31 28.1079C126.659 27.501 126.833 26.764 126.833 25.8972C126.833 25.0303 126.666 24.3007 126.332 23.7083C125.998 23.1014 125.555 22.6463 125.003 22.3429C124.451 22.0395 123.856 21.8878 123.217 21.8878C122.578 21.8878 121.983 22.0395 121.431 22.3429C120.894 22.6463 120.466 23.1014 120.146 23.7083C119.827 24.3007 119.667 25.0303 119.667 25.8972C119.667 27.1832 119.994 28.18 120.647 28.8881C121.315 29.5816 122.15 29.9284 123.152 29.9284Z" fill="black"/>
<path d="M133.639 21.9535V28.5636C133.639 29.0116 133.741 29.3366 133.944 29.539C134.162 29.7267 134.525 29.8207 135.033 29.8207H136.558V31.8796H134.597C133.479 31.8796 132.623 31.6196 132.027 31.0994C131.432 30.5793 131.134 29.7339 131.134 28.5636V21.9535H129.719V19.9379H131.134V16.9688H133.639V19.9379H136.558V21.9535H133.639Z" fill="black"/>
</svg>
