<svg width="142" height="51" viewBox="0 0 142 51" fill="none" xmlns="http://www.w3.org/2000/svg">
<path d="M106.938 14.7266V35.9993H110.043V14.7266H106.938Z" fill="black"/>
<path fill-rule="evenodd" clip-rule="evenodd" d="M78.8552 36.343C77.6297 36.343 76.606 36.0569 75.7839 35.4845C75.6939 35.422 75.6066 35.3568 75.5214 35.2892V35.9996H72.7812V15.0703H75.9096V24.0364C76.677 23.5417 77.6054 23.2943 78.6952 23.2943C79.875 23.2943 80.9024 23.5767 81.7778 24.1414C82.6532 24.706 83.3306 25.4806 83.8099 26.465C84.2971 27.4417 84.5406 28.5596 84.5406 29.8186C84.5406 31.0548 84.3009 32.1651 83.8213 33.1497C83.3496 34.1339 82.6872 34.9123 81.835 35.4845C80.9824 36.0569 79.9892 36.343 78.8552 36.343ZM75.7954 27.85C75.6125 28.4146 75.5214 29.0707 75.5214 29.8186C75.5214 30.5664 75.6125 31.2228 75.7954 31.7874C75.9779 32.3522 76.2749 32.7907 76.6857 33.1038C77.1044 33.4167 77.6601 33.5729 78.3527 33.5729C79.0225 33.5729 79.5706 33.4052 79.9969 33.0695C80.4231 32.7337 80.739 32.2835 80.9443 31.7186C81.15 31.1465 81.2526 30.5132 81.2526 29.8186C81.2526 29.1318 81.1462 28.5062 80.9329 27.9416C80.7199 27.3692 80.3889 26.9152 79.9397 26.5794C79.4982 26.236 78.931 26.0643 78.2385 26.0643C77.5916 26.0643 77.0663 26.2208 76.6631 26.5336C76.2673 26.8465 75.9779 27.2852 75.7954 27.85Z" fill="black"/>
<path d="M67.8727 28.7004V36.0033H70.9779V27.8765C70.9779 26.5258 70.6164 25.4346 69.8933 24.6028C69.1779 23.7635 68.1161 23.3438 66.7081 23.3438C65.886 23.3438 65.1363 23.5269 64.4589 23.8932C63.8387 24.2253 63.3327 24.6816 62.941 25.2624C62.6489 24.7353 62.2452 24.3018 61.7302 23.9618C61.1138 23.5498 60.3222 23.3438 59.3557 23.3438C58.5107 23.3438 57.7458 23.5307 57.0608 23.9046C56.5431 24.1903 56.1054 24.5541 55.7477 24.9957V23.6413H53.0078V36.0033H56.1359V28.5174C56.1359 27.8078 56.3301 27.2316 56.7183 26.7891C57.1141 26.3388 57.6353 26.1137 58.2822 26.1137C58.9598 26.1137 59.4887 26.3427 59.8692 26.8005C60.2574 27.2507 60.4517 27.8842 60.4517 28.7004V36.0033H63.5569V28.5174C63.5569 28.0443 63.6445 27.6284 63.8197 27.2698C64.0022 26.9035 64.2533 26.6212 64.5732 26.4228C64.8928 26.2167 65.2696 26.1137 65.7035 26.1137C66.3808 26.1137 66.9097 26.3427 67.2902 26.8005C67.6784 27.2507 67.8727 27.8842 67.8727 28.7004Z" fill="black"/>
<path d="M41.8842 35.8765C42.493 36.2046 43.2808 36.3688 44.2476 36.3688C45.4576 36.3688 46.4587 36.1056 47.2503 35.579C47.626 35.3316 47.957 35.0477 48.2435 34.7278V36.0025H50.9836V23.6406H47.8553V29.9131C47.8553 30.6762 47.7677 31.2942 47.5928 31.7674C47.4252 32.2329 47.2084 32.5877 46.9418 32.8318C46.6755 33.0685 46.3901 33.2286 46.0857 33.3126C45.7813 33.3966 45.4957 33.4386 45.2294 33.4386C44.5673 33.4386 44.0534 33.2897 43.6881 32.9922C43.3303 32.6946 43.0716 32.3245 42.9117 31.8819C42.752 31.4393 42.6568 31.0004 42.6263 30.5654C42.5959 30.1231 42.5806 29.7606 42.5806 29.4781V23.6406H39.4297V30.5769C39.4297 30.7831 39.4447 31.1112 39.4751 31.5614C39.5056 32.0117 39.5932 32.5114 39.7379 33.0609C39.8823 33.6025 40.1223 34.1254 40.4571 34.6291C40.7996 35.1325 41.2754 35.5484 41.8842 35.8765Z" fill="black"/>
<path d="M85.9141 23.635V35.9969H89.0421V29.6786C89.0421 29.2054 89.1069 28.7819 89.2364 28.408C89.3659 28.0264 89.556 27.6983 89.8071 27.4237C90.0585 27.1413 90.3667 26.9162 90.732 26.7483C91.0973 26.5728 91.5046 26.4698 91.9537 26.4393C92.4102 26.4011 92.8098 26.4355 93.1523 26.5423V23.635C92.7793 23.5892 92.4063 23.5815 92.0334 23.6121C91.6604 23.635 91.2989 23.6998 90.9488 23.8066C90.5987 23.9059 90.2753 24.047 89.9785 24.2302C89.5903 24.4591 89.263 24.7491 88.9967 25.1001C88.8705 25.2663 88.7562 25.441 88.654 25.6242V23.635H85.9141Z" fill="black"/>
<path fill-rule="evenodd" clip-rule="evenodd" d="M99.6898 36.3455C98.4262 36.3455 97.3112 36.0747 96.3447 35.5328C95.3855 34.9835 94.632 34.2319 94.0841 33.2779C93.5436 32.3165 93.2734 31.2177 93.2734 29.9814C93.2734 28.6309 93.5398 27.4557 94.0727 26.456C94.6053 25.4564 95.3398 24.6819 96.2761 24.1325C97.2122 23.5754 98.2894 23.2969 99.507 23.2969C100.801 23.2969 101.901 23.6021 102.806 24.2126C103.712 24.823 104.382 25.6815 104.816 26.788C105.25 27.8945 105.402 29.1954 105.273 30.6911H96.6148C96.7116 31.4332 96.9415 32.0359 97.3036 32.4995C97.806 33.1254 98.5405 33.4383 99.507 33.4383C100.116 33.4383 100.637 33.3046 101.071 33.0376C101.505 32.7706 101.836 32.3853 102.064 31.8815L105.17 32.7744C104.706 33.9038 103.971 34.7812 102.966 35.4068C101.969 36.0327 100.877 36.3455 99.6898 36.3455ZM101.596 26.8338C101.862 27.1952 102.04 27.7104 102.131 28.3789H96.6964C96.8175 27.8081 97.0198 27.3387 97.3036 26.9711C97.806 26.3225 98.5862 25.9982 99.6441 25.9982C100.55 25.9982 101.201 26.2767 101.596 26.8338Z" fill="black"/>
<path d="M112.555 35.9993V14.7266H115.66V35.9993H112.555Z" fill="black"/>
<path fill-rule="evenodd" clip-rule="evenodd" d="M119.111 35.8418C119.728 36.1775 120.477 36.3455 121.36 36.3455C122.426 36.3455 123.305 36.1623 123.997 35.796C124.55 35.5012 125.071 35.0643 125.562 34.4847V36.0022H128.279V28.4476C128.279 27.8831 128.256 27.3717 128.21 26.9139C128.165 26.456 128.02 25.9982 127.776 25.5403C127.343 24.7162 126.703 24.1363 125.858 23.8005C125.013 23.4648 124.047 23.2969 122.959 23.2969C121.474 23.2969 120.302 23.6174 119.442 24.2584C118.582 24.8993 117.996 25.7311 117.684 26.7536L120.493 27.6464C120.69 27.0818 121.037 26.6888 121.531 26.4675C122.026 26.2462 122.502 26.1355 122.959 26.1355C123.781 26.1355 124.367 26.3072 124.717 26.6506C124.992 26.9203 125.159 27.3098 125.218 27.8195C124.692 27.8994 124.194 27.9753 123.724 28.047C122.924 28.1615 122.209 28.2837 121.577 28.4133C120.945 28.5431 120.401 28.692 119.944 28.8597C119.282 29.1038 118.753 29.4093 118.357 29.7755C117.969 30.1342 117.688 30.5498 117.513 31.023C117.338 31.4962 117.25 32.019 117.25 32.5912C117.25 33.2779 117.406 33.9074 117.718 34.4798C118.038 35.0444 118.502 35.4984 119.111 35.8418ZM123.461 33.5984C123.073 33.7969 122.593 33.8962 122.022 33.8962C121.665 33.8962 121.356 33.8427 121.098 33.7358C120.839 33.6289 120.637 33.4764 120.493 33.2779C120.355 33.072 120.287 32.8276 120.287 32.5454C120.287 32.3394 120.329 32.1524 120.413 31.9846C120.504 31.8166 120.641 31.6642 120.824 31.5267C121.014 31.3816 121.261 31.2483 121.566 31.1261C121.832 31.0268 122.14 30.9352 122.49 30.8514C122.84 30.7674 123.301 30.6758 123.872 30.5765C124.239 30.5081 124.678 30.4298 125.189 30.3423C125.182 30.5599 125.169 30.8059 125.151 31.0803C125.128 31.5229 125.036 31.9121 124.877 32.2478C124.793 32.4232 124.633 32.6408 124.397 32.9002C124.169 33.1595 123.857 33.3924 123.461 33.5984Z" fill="black"/>
<path fill-rule="evenodd" clip-rule="evenodd" d="M22.2923 23.7237H13.8594V27.4055C13.8594 32.9032 18.3048 37.3601 23.7885 37.3601C29.2722 37.3601 33.7177 32.9032 33.7177 27.4055V23.7237H25.0126V17.8601C25.0126 15.5254 23.1248 13.6328 20.7962 13.6328C18.4675 13.6328 16.5797 15.5254 16.5797 17.8601H19.3C19.3 17.0316 19.9699 16.3601 20.7962 16.3601C21.6225 16.3601 22.2923 17.0316 22.2923 17.8601V23.7237ZM22.2923 26.451V31.6328H25.0126V26.451H30.9974V27.4055C30.9974 31.3972 27.7698 34.6328 23.7885 34.6328C19.8072 34.6328 16.5797 31.3972 16.5797 27.4055V26.451H22.2923Z" fill="black"/>
</svg>
