<svg width="341" height="435" viewBox="0 0 341 435" fill="none" xmlns="http://www.w3.org/2000/svg">
<path d="M-118.656 0L-118.656 436M-65.9479 0L-65.9479 436M-13.2395 0L-13.2395 436M39.4688 0L39.4688 436M92.1772 0L92.1772 436M144.886 0L144.886 436M197.594 0L197.594 436M250.302 0L250.302 436M303.011 0L303.011 436M355.719 0V436M408.427 0V436M461.136 0V436M516 33.778H-174M516 86.4813H-174M516 139.185H-174M516 191.888H-174M516 244.591H-174M516 297.295H-174M516 349.998H-174M516 402.701H-174" stroke="url(#paint0_radial_4218_1751)"/>
<defs>
<radialGradient id="paint0_radial_4218_1751" cx="0" cy="0" r="1" gradientUnits="userSpaceOnUse" gradientTransform="translate(171 218) rotate(90) scale(218 345)">
<stop stop-color="#4F43BF" stop-opacity="0.06"/>
<stop offset="0.63611" stop-color="#5A50D8" stop-opacity="0.02"/>
<stop offset="1" stop-color="#5A50D8" stop-opacity="0.01"/>
</radialGradient>
</defs>
</svg>
