<svg width="341" height="279" viewBox="0 0 341 279" fill="none" xmlns="http://www.w3.org/2000/svg">
<path d="M-14.5479 0L-14.5479 279M19.216 0L19.216 279M52.9799 0L52.9799 279M86.7438 0L86.7438 279M120.508 0L120.508 279M154.272 0L154.272 279M188.035 0L188.036 279M221.799 0L221.799 279M255.563 0L255.563 279M289.327 0V279M323.091 0V279M356.855 0V279M392 21.6148H-50M392 55.3401H-50M392 89.0654H-50M392 122.791H-50M392 156.516H-50M392 190.241H-50M392 223.966H-50M392 257.692H-50" stroke="url(#paint0_radial_4218_2917)"/>
<defs>
<radialGradient id="paint0_radial_4218_2917" cx="0" cy="0" r="1" gradientUnits="userSpaceOnUse" gradientTransform="translate(171 139.5) rotate(90) scale(139.5 221)">
<stop stop-color="#4F43BF" stop-opacity="0.06"/>
<stop offset="0.63611" stop-color="#5A50D8" stop-opacity="0.02"/>
<stop offset="1" stop-color="#5A50D8" stop-opacity="0.01"/>
</radialGradient>
</defs>
</svg>
