<svg width="26" height="40" viewBox="0 0 26 40" fill="none" xmlns="http://www.w3.org/2000/svg">
<path d="M14.8579 1.8079V14.5386H24.1477C24.4644 14.5395 24.7756 14.6197 25.0517 14.7715C25.3279 14.9233 25.5598 15.1417 25.7255 15.4059C25.8912 15.6701 25.9851 15.9714 25.9984 16.2811C26.0116 16.5909 25.9438 16.8988 25.8012 17.1757L14.6536 38.9997C14.4992 39.2997 14.263 39.5519 13.9711 39.7284C13.6792 39.905 13.3431 39.999 13 40C12.8558 39.9998 12.7121 39.9814 12.5727 39.9454C12.1664 39.8515 11.8043 39.6263 11.5448 39.3063C11.2853 38.9862 11.1434 38.5899 11.1421 38.1813V25.4506H1.85232C1.53561 25.4497 1.2244 25.3695 0.948245 25.2177C0.672092 25.0659 0.440163 24.8475 0.274485 24.5833C0.108808 24.3191 0.0148834 24.0178 0.00162816 23.7081C-0.0116271 23.3983 0.0562297 23.0904 0.198753 22.8135L11.3464 0.989493C11.5361 0.627037 11.8446 0.337389 12.2224 0.166947C12.6003 -0.00349584 13.0256 -0.0448688 13.4304 0.0494576C13.8351 0.143784 14.1958 0.368352 14.4546 0.687183C14.7134 1.00601 14.8555 1.40066 14.8579 1.8079Z" fill="#5A50D8"/>
</svg>
