<svg width="50" height="50" viewBox="0 0 50 50" fill="none" xmlns="http://www.w3.org/2000/svg">
<circle cx="25" cy="25" r="20" fill="#5A50D8"/>
<path d="M35.9922 37.1161C35.8365 37.3447 35.6373 37.5404 35.4059 37.6919C35.1745 37.8435 34.9156 37.948 34.6438 37.9994C34.3721 38.0509 34.0928 38.0483 33.8221 37.9918C33.5513 37.9353 33.2944 37.826 33.0659 37.6701L22.9175 30.7272C22.6347 30.534 22.4033 30.2746 22.2434 29.9716C22.0835 29.6687 22 29.3313 22.0001 28.9888V13.1052C22.0001 12.5469 22.2219 12.0114 22.6167 11.6166C23.0115 11.2218 23.547 11 24.1053 11C24.6636 11 25.1991 11.2218 25.5939 11.6166C25.9887 12.0114 26.2105 12.5469 26.2105 13.1052V27.8785L35.4426 34.1942C35.9023 34.5093 36.2183 34.9939 36.3213 35.5416C36.4243 36.0893 36.306 36.6555 35.9922 37.1161Z" fill="white"/>
</svg>
