<svg width="40" height="31" viewBox="0 0 40 31" fill="none" xmlns="http://www.w3.org/2000/svg">
<path d="M11.0701 0H37.786C39.0089 0 40 0.986542 40 2.20379V28.7962C40 30.0135 39.0089 31 37.786 31H30.9963C30.9963 26.1385 27.0243 22.1848 22.1402 22.1848C17.2561 22.1848 13.2841 26.1385 13.2841 31H8.85609V23.9926C8.85609 23.2695 8.49919 22.594 7.90244 22.1808C7.31031 21.7716 6.54924 21.6729 5.8637 21.9289C3.16305 22.9384 0 20.7237 0 17.7773C0 14.8354 3.10482 12.6144 5.87004 13.6279C6.54924 13.8799 7.3057 13.7852 7.90475 13.372C8.5015 12.9588 8.85609 12.2827 8.85609 11.5619V2.20379C8.85609 0.986542 9.84721 0 11.0701 0Z" fill="#5A50D8"/>
</svg>
