<svg width="328" height="231" viewBox="0 0 328 231" fill="none" xmlns="http://www.w3.org/2000/svg">
<g clip-path="url(#clip0_4218_1674)">
<path d="M3.34205 68.179C1.80759 59.4767 7.61829 51.1782 16.3206 49.6437L280.249 3.10604C288.951 1.57159 297.25 7.38228 298.784 16.0846L324.658 162.821C326.192 171.523 320.382 179.822 311.679 181.356L47.7509 227.894C39.0486 229.428 30.7501 223.618 29.2156 214.915L3.34205 68.179Z" fill="white"/>
<rect x="23.7328" y="68.6453" width="40" height="40" rx="8" transform="rotate(-10 23.7328 68.6453)" fill="#EFF3FE"/>
<path d="M43.9088 84.2487C43.8086 84.2562 43.6904 84.2771 43.5838 84.306C41.2261 84.6405 39.0262 83.0483 38.6095 80.6848C38.184 78.272 39.7884 75.9684 42.211 75.5413C44.6238 75.1158 46.9291 76.73 47.3545 79.1428C47.7615 81.5081 46.2388 83.7567 43.9088 84.2487Z" stroke="#5A50D8" stroke-width="1.5" stroke-linecap="round" stroke-linejoin="round"/>
<path d="M49.8557 76.2241C51.7663 75.8873 53.5752 77.1625 53.9103 79.0632C54.2385 80.9245 53.0287 82.7016 51.1993 83.0952C51.1188 83.0993 51.0301 83.1149 50.9432 83.1404" stroke="#5A50D8" stroke-width="1.5" stroke-linecap="round" stroke-linejoin="round"/>
<path d="M39.6256 88.751C37.5236 90.7666 37.9821 93.3665 40.6449 94.5318C43.6726 95.8663 48.1141 95.0831 50.5028 92.7936C52.6047 90.7779 52.1463 88.178 49.4835 87.0127C46.4673 85.6863 42.0259 86.4695 39.6256 88.751Z" stroke="#5A50D8" stroke-width="1.5" stroke-linecap="round" stroke-linejoin="round"/>
<path d="M54.5348 91.646C55.2178 91.3733 55.8371 90.9696 56.3139 90.4489C57.6471 89.0258 57.3119 87.1251 55.5724 86.2438C54.9579 85.9257 54.2494 85.7663 53.5224 85.732" stroke="#5A50D8" stroke-width="1.5" stroke-linecap="round" stroke-linejoin="round"/>
<path d="M76.4478 84.7359L74.5029 73.7061L81.6408 72.4475L81.9103 73.9759L76.6632 74.9011L77.2217 78.0682L81.996 77.2264L82.26 78.7233L77.4856 79.5651L78.0691 82.8741L83.3161 81.9489L83.5856 83.4773L76.4478 84.7359ZM85.2976 83.1754L83.9029 75.2655L85.5731 74.971L85.9038 76.0174C86.0874 75.5843 86.3698 75.2204 86.7511 74.9257C87.1306 74.6205 87.5882 74.4207 88.1239 74.3262C88.5231 74.2558 88.8895 74.2454 89.2231 74.2949C89.5673 74.3425 89.8787 74.45 90.1574 74.6175C90.4465 74.7832 90.6977 75.0097 90.9108 75.297C91.1253 74.7935 91.4476 74.3792 91.8777 74.0543C92.3165 73.7169 92.809 73.5001 93.3552 73.4038C94.0275 73.2853 94.6188 73.3218 95.1292 73.5134C95.6377 73.6945 96.059 74.0264 96.3933 74.509C96.7256 74.9812 96.9594 75.6006 97.0946 76.3675L97.9031 80.9527L96.0281 81.2834L95.2501 76.8714C95.1316 76.1991 94.9043 75.7085 94.5682 75.3995C94.2302 75.08 93.7934 74.9675 93.2576 75.0619C92.89 75.1268 92.581 75.2787 92.3307 75.5178C92.0891 75.7446 91.9201 76.0451 91.8236 76.4196C91.7253 76.7835 91.7197 77.2123 91.8067 77.7061L92.5458 81.8974L90.655 82.2308L89.877 77.8189C89.7585 77.1466 89.5312 76.6559 89.1951 76.3469C88.8571 76.0274 88.415 75.9158 87.8688 76.0121C87.5221 76.0733 87.2237 76.2234 86.9734 76.4625C86.7317 76.6892 86.5627 76.9898 86.4663 77.3642C86.368 77.7282 86.3623 78.157 86.4494 78.6507L87.1884 82.842L85.2976 83.1754ZM100.315 84.1018L98.3088 72.7253L99.9947 72.428L100.402 73.5422C100.528 73.2709 100.689 73.0151 100.884 72.7748C101.089 72.5221 101.349 72.3083 101.665 72.1335C101.989 71.9463 102.372 71.8139 102.813 71.7361C103.559 71.6046 104.248 71.6726 104.88 71.9403C105.521 72.1955 106.06 72.6096 106.497 73.1825C106.931 73.7448 107.219 74.4252 107.36 75.2235C107.499 76.0114 107.456 76.7501 107.231 77.4396C107.015 78.1168 106.649 78.6849 106.134 79.144C105.63 79.6011 105.01 79.8946 104.275 80.0242C103.676 80.1298 103.131 80.1121 102.641 79.9711C102.159 79.8178 101.744 79.5552 101.397 79.1831L102.206 83.7684L100.315 84.1018ZM103.592 78.4549C104.033 78.3772 104.409 78.2026 104.718 77.9314C105.028 77.6602 105.244 77.3189 105.366 76.9073C105.499 76.494 105.522 76.0404 105.435 75.5467C105.348 75.053 105.172 74.6399 104.908 74.3075C104.652 73.9626 104.332 73.7157 103.949 73.5668C103.563 73.4073 103.15 73.3665 102.708 73.4442C102.257 73.5239 101.877 73.7046 101.569 73.9863C101.27 74.2557 101.054 74.597 100.921 75.0104C100.797 75.4114 100.778 75.8587 100.865 76.3525C100.952 76.8462 101.124 77.2654 101.38 77.6103C101.646 77.9532 101.966 78.2001 102.339 78.351C102.723 78.4999 103.14 78.5346 103.592 78.4549ZM109.709 78.8711L107.708 67.5262L109.599 67.1927L111.599 78.5377L109.709 78.8711ZM117.233 77.7394C116.487 77.8709 115.779 77.817 115.108 77.5778C114.449 77.3367 113.891 76.9369 113.435 76.3782C112.977 75.8091 112.676 75.1148 112.531 74.2954C112.387 73.4761 112.433 72.726 112.671 72.0451C112.917 71.3518 113.309 70.7791 113.846 70.3268C114.394 69.8728 115.047 69.579 115.803 69.4457C116.559 69.3123 117.267 69.3662 117.927 69.6072C118.587 69.8483 119.145 70.2482 119.601 70.8068C120.057 71.3655 120.358 72.0597 120.504 72.8896C120.649 73.7089 120.603 74.4643 120.368 75.1557C120.13 75.8366 119.738 76.4041 119.19 76.8582C118.652 77.3104 118 77.6042 117.233 77.7394ZM116.962 76.1136C117.341 76.0469 117.665 75.8922 117.937 75.6494C118.218 75.4048 118.421 75.0819 118.546 74.6809C118.668 74.2694 118.68 73.7853 118.582 73.2286C118.484 72.6718 118.308 72.2263 118.054 71.892C117.809 71.5453 117.512 71.3052 117.163 71.1717C116.825 71.0363 116.467 71.002 116.089 71.0686C115.721 71.1335 115.397 71.2882 115.115 71.5328C114.833 71.7775 114.631 72.1056 114.509 72.5171C114.384 72.9181 114.371 73.397 114.469 73.9537C114.566 74.4999 114.742 74.9455 114.998 75.2903C115.253 75.6351 115.55 75.8752 115.888 76.0106C116.237 76.1441 116.595 76.1785 116.962 76.1136ZM123.736 79.9721L124.907 75.2814L124.434 75.3648L120.028 68.8956L122.076 68.5345L125.403 73.488L126.693 67.7204L128.694 67.3675L125.737 79.6192L123.736 79.9721ZM134.32 74.7264C133.543 74.8635 132.82 74.8177 132.151 74.589C131.491 74.3479 130.934 73.9533 130.48 73.4051C130.035 72.8446 129.74 72.1547 129.595 71.3353C129.449 70.5055 129.489 69.751 129.716 69.072C129.941 68.3824 130.322 67.8063 130.857 67.3436C131.404 66.879 132.076 66.5763 132.874 66.4355C133.652 66.2985 134.36 66.3523 134.999 66.5971C135.636 66.8314 136.164 67.2148 136.582 67.7475C136.999 68.2697 137.271 68.888 137.397 69.6023C137.415 69.7073 137.436 69.8229 137.458 69.9489C137.48 70.075 137.499 70.2125 137.515 70.3614L131.038 71.5033L130.824 70.29L135.426 69.4787C135.292 68.9065 135.013 68.49 134.588 68.2292C134.163 67.9684 133.677 67.8862 133.131 67.9825C132.742 68.051 132.401 68.2033 132.107 68.4393C131.812 68.6753 131.596 68.9842 131.458 69.366C131.33 69.746 131.313 70.2039 131.407 70.7396L131.488 71.1966C131.575 71.6903 131.745 72.0991 131.997 72.4229C132.247 72.7362 132.546 72.9596 132.895 73.0931C133.252 73.2143 133.63 73.2397 134.029 73.1693C134.47 73.0915 134.816 72.933 135.066 72.694C135.327 72.453 135.503 72.162 135.595 71.8209L137.501 71.4847C137.441 72.0044 137.278 72.4882 137.01 72.9361C136.742 73.3841 136.382 73.7671 135.929 74.0853C135.476 74.4034 134.94 74.6172 134.32 74.7264ZM143.448 73.1169C142.671 73.254 141.948 73.2082 141.279 72.9795C140.619 72.7384 140.062 72.3438 139.608 71.7956C139.163 71.2351 138.868 70.5452 138.723 69.7258C138.577 68.896 138.617 68.1415 138.844 67.4625C139.069 66.7729 139.449 66.1968 139.985 65.7341C140.532 65.2695 141.204 64.9668 142.002 64.826C142.78 64.689 143.488 64.7428 144.127 64.9876C144.764 65.2219 145.292 65.6053 145.71 66.138C146.127 66.6602 146.399 67.2785 146.525 67.9928C146.543 68.0978 146.564 68.2134 146.586 68.3394C146.608 68.4655 146.627 68.603 146.642 68.7519L140.166 69.8938L139.952 68.6805L144.553 67.8692C144.42 67.297 144.141 66.8805 143.716 66.6197C143.291 66.3589 142.805 66.2767 142.259 66.373C141.87 66.4415 141.529 66.5938 141.235 66.8298C140.94 67.0658 140.724 67.3747 140.586 67.7565C140.458 68.1365 140.441 68.5944 140.535 69.1301L140.616 69.5871C140.703 70.0808 140.873 70.4896 141.125 70.8134C141.375 71.1267 141.674 71.3501 142.023 71.4836C142.38 71.6048 142.758 71.6302 143.157 71.5598C143.598 71.482 143.944 71.3235 144.194 71.0845C144.455 70.8435 144.631 70.5525 144.723 70.2114L146.629 69.8752C146.569 70.3949 146.405 70.8787 146.138 71.3266C145.87 71.7746 145.51 72.1576 145.057 72.4758C144.604 72.7939 144.068 73.0077 143.448 73.1169ZM152.024 71.6047C151.331 71.7269 150.702 71.7241 150.138 71.5961C149.572 71.4576 149.102 71.2156 148.727 70.8702C148.36 70.5123 148.105 70.0754 147.959 69.5595L149.85 69.2261C149.942 69.4374 150.072 69.6256 150.242 69.7906C150.421 69.9432 150.635 70.0517 150.885 70.116C151.134 70.1803 151.422 70.1837 151.747 70.1263C152.052 70.0726 152.297 69.9861 152.482 69.8669C152.664 69.7372 152.79 69.5904 152.859 69.4267C152.938 69.2611 152.963 69.0943 152.933 68.9262C152.889 68.6741 152.787 68.497 152.628 68.3951C152.468 68.2826 152.249 68.2127 151.974 68.1855C151.707 68.1459 151.383 68.1218 151.003 68.1131C150.632 68.1025 150.259 68.0762 149.884 68.0341C149.517 67.9797 149.177 67.8935 148.863 67.7754C148.561 67.6555 148.303 67.4843 148.09 67.2618C147.876 67.0288 147.735 66.718 147.666 66.3293C147.585 65.8671 147.632 65.4309 147.809 65.0206C147.996 64.6085 148.302 64.2567 148.728 63.9651C149.163 63.6716 149.707 63.4675 150.358 63.3527C151.272 63.1915 152.04 63.2781 152.662 63.6125C153.293 63.9345 153.722 64.4654 153.95 65.205L152.154 65.5217C152.05 65.2369 151.863 65.037 151.593 64.922C151.333 64.7947 151.003 64.7662 150.603 64.8366C150.194 64.9088 149.893 65.0432 149.7 65.2396C149.517 65.4343 149.448 65.6524 149.49 65.894C149.52 66.062 149.609 66.198 149.757 66.3018C149.916 66.4038 150.13 66.4798 150.398 66.5299C150.676 66.5677 151 66.5918 151.37 66.6024C151.97 66.6265 152.509 66.6776 152.989 66.7555C153.468 66.8334 153.866 67.0016 154.183 67.2599C154.508 67.5059 154.72 67.9125 154.82 68.4797C154.907 68.9734 154.854 69.4378 154.66 69.8728C154.466 70.3077 154.146 70.6781 153.702 70.9839C153.256 71.2792 152.697 71.4861 152.024 71.6047Z" fill="#020202"/>
<path d="M52.1034 162.614C50.3622 162.921 48.7205 162.894 47.1783 162.532C45.6315 162.145 44.31 161.388 43.2137 160.261C42.1385 159.104 41.4014 157.545 41.0026 155.582L45.5347 154.783C45.7183 155.675 46.0676 156.458 46.5826 157.133C47.1187 157.777 47.7964 158.252 48.6157 158.556C49.4305 158.835 50.3628 158.882 51.4126 158.697C52.4112 158.521 53.2223 158.18 53.8459 157.674C54.4951 157.163 54.9403 156.544 55.1813 155.815C55.4224 155.086 55.4707 154.312 55.3263 153.492C55.1502 152.494 54.7625 151.717 54.1631 151.163C53.5592 150.583 52.8054 150.201 51.9018 150.017C50.9981 149.833 50.0086 149.836 48.9332 150.026L46.936 150.378L46.2655 146.575L48.2627 146.223C49.671 145.975 50.7668 145.452 51.5501 144.654C52.3289 143.83 52.6077 142.791 52.3864 141.536C52.2013 140.486 51.7067 139.702 50.9025 139.184C50.1239 138.661 49.1072 138.51 47.8526 138.732C46.5467 138.962 45.5775 139.529 44.9448 140.432C44.3377 141.332 44.095 142.351 44.2169 143.491L39.6848 144.29C39.4772 142.664 39.6408 141.196 40.1756 139.887C40.7316 138.548 41.6061 137.444 42.799 136.573C43.992 135.703 45.4591 135.114 47.2002 134.807C49.0182 134.487 50.6109 134.536 51.9784 134.955C53.346 135.374 54.4446 136.064 55.2743 137.027C56.1297 137.985 56.6702 139.104 56.896 140.384C57.0721 141.383 57.0403 142.326 56.8007 143.213C56.5611 144.1 56.1581 144.884 55.5917 145.565C55.0464 146.215 54.361 146.745 53.5356 147.155C54.5703 147.184 55.5237 147.425 56.3956 147.878C57.2932 148.327 58.041 148.974 58.6388 149.819C59.2577 150.634 59.6732 151.643 59.8854 152.847C60.1428 154.306 60.0236 155.726 59.5279 157.107C59.0533 158.458 58.1901 159.627 56.9383 160.613C55.7122 161.595 54.1005 162.262 52.1034 162.614ZM76.9719 157.754L76.0712 152.646L62.7438 154.996L62.0936 151.309L71.5784 130.984L76.8018 130.063L79.9306 147.807L83.5793 147.164L84.2904 151.197L80.6417 151.84L81.5424 156.948L76.9719 157.754ZM66.9872 150.09L75.6289 148.566L73.3941 135.891L66.9872 150.09ZM98.4334 154.445C96.001 154.874 93.8126 154.666 91.8683 153.821C89.9194 152.95 88.2885 151.561 86.9754 149.654C85.6834 147.717 84.7936 145.366 84.306 142.6C83.8184 139.835 83.8526 137.334 84.4087 135.098C84.9859 132.831 86.0434 130.968 87.5814 129.509C89.1149 128.024 91.0978 127.067 93.5303 126.638C95.9372 126.214 98.1022 126.439 100.025 127.315C101.97 128.16 103.588 129.551 104.88 131.488C106.193 133.395 107.093 135.731 107.581 138.496C108.069 141.262 108.024 143.778 107.447 146.044C106.891 148.281 105.846 150.142 104.312 151.626C102.8 153.081 100.84 154.021 98.4334 154.445ZM97.6636 150.304C99.0207 150.065 100.156 149.468 101.071 148.515C101.981 147.536 102.589 146.267 102.894 144.709C103.226 143.145 103.213 141.352 102.857 139.329C102.5 137.307 101.899 135.617 101.052 134.262C100.232 132.902 99.2288 131.93 98.0436 131.347C96.8538 130.738 95.5804 130.554 94.2233 130.793C92.8662 131.032 91.7328 131.641 90.8229 132.62C89.9086 133.573 89.2856 134.832 88.954 136.395C88.6481 137.954 88.6734 139.745 89.0301 141.767C89.3868 143.79 89.9755 145.482 90.7961 146.842C91.6424 148.197 92.6604 149.18 93.8502 149.788C95.0354 150.371 96.3066 150.543 97.6636 150.304Z" fill="#221F47"/>
<path d="M52.3208 194.587L57.9567 193.594L58.9505 199.23M51.4562 202.877L57.8917 193.686" stroke="#02C519" stroke-width="1.5" stroke-miterlimit="10" stroke-linecap="round" stroke-linejoin="round"/>
<path d="M70.8848 198.566C70.2009 198.686 69.5835 198.624 69.0325 198.38C68.4801 198.129 68.0191 197.729 67.6494 197.18C67.2783 196.624 67.0228 195.948 66.8828 195.154C66.7428 194.36 66.7526 193.642 66.9123 193C67.0707 192.35 67.367 191.816 67.8014 191.398C68.2344 190.973 68.7928 190.7 69.4767 190.58C70.1605 190.459 70.7749 190.525 71.3199 190.778C71.8709 191.022 72.3282 191.423 72.6919 191.98C73.0617 192.529 73.3165 193.201 73.4566 193.995C73.5966 194.789 73.5874 195.511 73.429 196.161C73.2767 196.802 72.984 197.335 72.551 197.76C72.124 198.176 71.5686 198.445 70.8848 198.566ZM70.7117 197.584C71.1234 197.511 71.4697 197.325 71.7505 197.025C72.0386 196.724 72.235 196.333 72.3397 195.852C72.4445 195.371 72.4417 194.818 72.3315 194.193C72.2213 193.568 72.0348 193.048 71.7718 192.632C71.5089 192.216 71.1913 191.919 70.8189 191.742C70.4525 191.556 70.0635 191.5 69.6517 191.573C69.2326 191.647 68.879 191.834 68.5908 192.135C68.3014 192.429 68.1044 192.816 67.9996 193.297C67.8949 193.778 67.8976 194.331 68.0078 194.956C68.118 195.581 68.3046 196.101 68.5675 196.518C68.8304 196.934 69.1488 197.234 69.5224 197.418C69.8961 197.603 70.2925 197.658 70.7117 197.584ZM75.8773 197.549L77.6282 190.257L73.5471 190.977L73.3799 190.028L78.597 189.108L78.7389 189.913L77.0244 197.346L75.8773 197.549ZM80.7916 196.739C80.5783 196.777 80.3902 196.742 80.2271 196.634C80.0701 196.518 79.9748 196.364 79.9411 196.173C79.9061 195.974 79.9431 195.797 80.0521 195.641C80.1672 195.477 80.3313 195.376 80.5446 195.338C80.7578 195.301 80.9429 195.34 81.0999 195.456C81.2556 195.565 81.351 195.719 81.386 195.918C81.4197 196.109 81.3827 196.286 81.275 196.449C81.1659 196.605 81.0048 196.701 80.7916 196.739ZM85.3485 196.015C84.8044 196.111 84.3206 196.098 83.8972 195.975C83.4724 195.846 83.1169 195.635 82.8306 195.345C82.543 195.047 82.3366 194.692 82.2112 194.282L83.2921 194.092C83.4318 194.454 83.6701 194.73 84.007 194.921C84.3426 195.105 84.7347 195.157 85.1832 195.078C85.5215 195.018 85.7977 194.886 86.0118 194.681C86.2259 194.477 86.3752 194.227 86.4596 193.931C86.544 193.636 86.557 193.323 86.4986 192.992C86.4364 192.639 86.3127 192.346 86.1276 192.113C85.9486 191.872 85.7248 191.699 85.4562 191.595C85.195 191.489 84.9063 191.464 84.5901 191.52C84.2077 191.588 83.8924 191.734 83.6441 191.96C83.4018 192.177 83.2415 192.429 83.1632 192.716L82.0933 192.904L81.9784 188.512L86.1367 187.779L86.3059 188.738L82.9969 189.322L82.97 191.556C83.1115 191.326 83.3183 191.123 83.5903 190.946C83.8698 190.768 84.2007 190.645 84.5831 190.577C84.9728 190.509 85.3344 190.517 85.6678 190.602C86 190.68 86.2941 190.822 86.5502 191.027C86.8135 191.23 87.0289 191.484 87.1963 191.789C87.371 192.091 87.4901 192.423 87.5536 192.783C87.6223 193.173 87.6234 193.544 87.5567 193.897C87.49 194.25 87.3617 194.576 87.1718 194.875C86.988 195.165 86.7392 195.41 86.4256 195.609C86.1193 195.807 85.7603 195.943 85.3485 196.015ZM92.3782 194.776C91.6943 194.896 91.0769 194.835 90.5259 194.59C89.9736 194.339 89.5126 193.939 89.1428 193.39C88.7718 192.834 88.5162 192.159 88.3762 191.364C88.2362 190.57 88.246 189.852 88.4057 189.21C88.5641 188.56 88.8605 188.026 89.2948 187.609C89.7278 187.183 90.2862 186.911 90.9701 186.79C91.654 186.669 92.2684 186.736 92.8133 186.988C93.3643 187.232 93.8217 187.633 94.1854 188.191C94.5551 188.74 94.81 189.411 94.95 190.205C95.09 190.999 95.0808 191.721 94.9225 192.371C94.7701 193.012 94.4774 193.545 94.0444 193.97C93.6174 194.387 93.062 194.655 92.3782 194.776ZM92.2051 193.794C92.6169 193.721 92.9631 193.535 93.2439 193.236C93.532 192.935 93.7284 192.544 93.8332 192.063C93.9379 191.582 93.9352 191.029 93.825 190.404C93.7147 189.779 93.5282 189.258 93.2653 188.842C93.0023 188.426 92.6847 188.129 92.3123 187.952C91.946 187.767 91.5569 187.71 91.1451 187.783C90.726 187.857 90.3724 188.044 90.0843 188.345C89.7949 188.639 89.5978 189.026 89.4931 189.507C89.3883 189.988 89.3911 190.541 89.5013 191.166C89.6115 191.791 89.798 192.312 90.061 192.728C90.3239 193.144 90.6422 193.444 91.0159 193.628C91.3895 193.813 91.786 193.868 92.2051 193.794ZM97.7981 193.684L100.871 185.181L101.963 184.988L98.89 193.491L97.7981 193.684ZM102.895 192.921C102.55 192.982 102.227 192.959 101.928 192.853C101.629 192.747 101.373 192.568 101.162 192.317C100.95 192.059 100.81 191.738 100.743 191.356C100.673 190.959 100.694 190.606 100.806 190.298C100.919 189.991 101.098 189.735 101.342 189.533C101.587 189.331 101.879 189.2 102.217 189.14C102.57 189.078 102.892 189.1 103.184 189.208C103.484 189.315 103.735 189.494 103.939 189.746C104.15 189.997 104.29 190.321 104.36 190.718C104.428 191.1 104.406 191.449 104.295 191.765C104.19 192.071 104.015 192.326 103.77 192.528C103.525 192.731 103.233 192.862 102.895 192.921ZM102.729 192.109C102.898 192.079 103.042 192.012 103.16 191.908C103.285 191.802 103.375 191.665 103.429 191.497C103.488 191.319 103.497 191.109 103.454 190.867C103.411 190.624 103.336 190.432 103.228 190.292C103.118 190.145 102.987 190.043 102.833 189.987C102.686 189.929 102.528 189.915 102.359 189.945C102.205 189.972 102.065 190.039 101.939 190.144C101.814 190.25 101.721 190.391 101.661 190.569C101.608 190.737 101.602 190.943 101.645 191.186C101.688 191.428 101.764 191.623 101.873 191.771C101.989 191.91 102.12 192.008 102.267 192.065C102.421 192.122 102.575 192.136 102.729 192.109ZM97.6118 189.531C97.2736 189.591 96.9548 189.567 96.6555 189.461C96.3562 189.355 96.0973 189.176 95.8789 188.927C95.6666 188.669 95.5261 188.345 95.4574 187.955C95.3886 187.565 95.4105 187.216 95.523 186.908C95.6429 186.599 95.8252 186.343 96.0701 186.141C96.3223 185.937 96.6175 185.806 96.9557 185.746C97.294 185.686 97.6128 185.71 97.9121 185.816C98.2114 185.923 98.4629 186.102 98.6665 186.354C98.8776 186.605 99.0175 186.925 99.0862 187.315C99.1549 187.705 99.1337 188.057 99.0225 188.373C98.9173 188.679 98.7386 188.934 98.4864 189.138C98.2416 189.341 97.9501 189.472 97.6118 189.531ZM97.4679 188.715C97.6297 188.686 97.7696 188.62 97.8877 188.516C98.0131 188.41 98.1027 188.273 98.1563 188.105C98.2087 187.929 98.2135 187.719 98.1707 187.477C98.1279 187.234 98.0518 187.039 97.9424 186.891C97.833 186.744 97.7013 186.642 97.5473 186.586C97.4007 186.528 97.2502 186.513 97.0958 186.54C96.934 186.569 96.7867 186.636 96.6539 186.743C96.5285 186.849 96.4359 186.99 96.3762 187.167C96.3238 187.343 96.319 187.553 96.3618 187.795C96.4033 188.031 96.4788 188.222 96.5882 188.37C96.7049 188.516 96.8403 188.617 96.9943 188.673C97.1482 188.73 97.3061 188.743 97.4679 188.715Z" fill="#02C519"/>
<path d="M114.136 190.803L112.775 183.082L113.878 182.887L115.086 189.737L118.615 189.115L118.769 189.986L114.136 190.803ZM121.772 189.593C121.316 189.673 120.924 189.663 120.595 189.561C120.267 189.46 120.006 189.294 119.814 189.062C119.62 188.824 119.496 188.554 119.443 188.252C119.378 187.884 119.419 187.555 119.565 187.264C119.709 186.966 119.946 186.715 120.274 186.513C120.602 186.311 121.013 186.167 121.505 186.08L122.95 185.825C122.893 185.502 122.798 185.242 122.665 185.045C122.532 184.849 122.36 184.716 122.151 184.647C121.948 184.569 121.703 184.556 121.416 184.606C121.085 184.664 120.816 184.795 120.61 184.998C120.401 185.194 120.295 185.452 120.291 185.771L119.188 185.966C119.163 185.568 119.237 185.214 119.41 184.903C119.589 184.583 119.841 184.319 120.168 184.11C120.494 183.893 120.856 183.75 121.253 183.68C121.775 183.588 122.228 183.602 122.614 183.724C122.999 183.845 123.31 184.06 123.546 184.367C123.788 184.665 123.95 185.046 124.032 185.51L124.639 188.951L123.679 189.12L123.426 188.198C123.371 188.359 123.3 188.516 123.213 188.668C123.126 188.82 123.013 188.957 122.876 189.08C122.746 189.201 122.586 189.305 122.396 189.392C122.216 189.484 122.007 189.551 121.772 189.593ZM121.824 188.662C122.06 188.621 122.264 188.536 122.439 188.406C122.613 188.277 122.752 188.12 122.856 187.935C122.966 187.741 123.036 187.535 123.066 187.318C123.101 187.091 123.104 186.867 123.072 186.645L123.066 186.612L121.754 186.844C121.438 186.9 121.187 186.985 121.003 187.101C120.825 187.209 120.703 187.336 120.638 187.484C120.573 187.632 120.557 187.794 120.588 187.971C120.62 188.154 120.688 188.305 120.793 188.424C120.903 188.533 121.045 188.61 121.22 188.655C121.395 188.7 121.596 188.703 121.824 188.662ZM128.122 188.473C127.652 188.556 127.226 188.551 126.846 188.459C126.466 188.367 126.148 188.199 125.893 187.956C125.638 187.713 125.455 187.408 125.345 187.041L126.47 186.842C126.538 187.012 126.636 187.162 126.765 187.291C126.901 187.418 127.069 187.51 127.268 187.566C127.475 187.621 127.707 187.625 127.965 187.58C128.207 187.537 128.4 187.469 128.543 187.375C128.692 187.273 128.792 187.157 128.845 187.026C128.897 186.888 128.91 186.75 128.885 186.61C128.849 186.404 128.77 186.259 128.649 186.174C128.534 186.08 128.372 186.022 128.163 185.998C127.961 185.965 127.719 185.947 127.437 185.944C127.172 185.945 126.912 185.931 126.656 185.9C126.407 185.86 126.176 185.799 125.964 185.715C125.759 185.63 125.586 185.508 125.445 185.351C125.302 185.187 125.208 184.972 125.161 184.708C125.105 184.392 125.14 184.094 125.265 183.814C125.389 183.527 125.593 183.286 125.877 183.092C126.167 182.889 126.525 182.75 126.952 182.675C127.57 182.566 128.092 182.625 128.519 182.853C128.946 183.081 129.239 183.458 129.4 183.983L128.33 184.172C128.257 183.927 128.113 183.755 127.898 183.656C127.683 183.55 127.417 183.525 127.1 183.581C126.784 183.637 126.553 183.742 126.405 183.897C126.258 184.052 126.203 184.232 126.239 184.438C126.263 184.57 126.331 184.68 126.445 184.766C126.559 184.852 126.714 184.915 126.911 184.956C127.114 184.989 127.356 185.011 127.639 185.021C128.041 185.026 128.407 185.057 128.735 185.112C129.063 185.168 129.338 185.287 129.56 185.467C129.781 185.648 129.927 185.937 129.997 186.334C130.065 186.679 130.031 186.999 129.894 187.296C129.764 187.592 129.546 187.843 129.241 188.048C128.944 188.252 128.571 188.394 128.122 188.473ZM133.551 187.379C133.198 187.442 132.883 187.44 132.606 187.375C132.33 187.31 132.099 187.162 131.913 186.929C131.728 186.696 131.597 186.359 131.519 185.918L131.015 183.061L130.056 183.23L129.891 182.293L130.85 182.124L130.737 180.711L131.708 180.54L131.953 181.929L133.53 181.651L133.696 182.589L132.118 182.867L132.624 185.735C132.68 186.051 132.784 186.256 132.937 186.35C133.089 186.437 133.327 186.452 133.65 186.395L134.29 186.282L134.455 187.22L133.551 187.379ZM141.243 186.16C140.677 186.259 140.181 186.241 139.755 186.104C139.335 185.958 138.976 185.729 138.678 185.418C138.38 185.099 138.137 184.732 137.95 184.318C137.769 183.895 137.638 183.452 137.556 182.988C137.406 182.135 137.392 181.368 137.515 180.687C137.644 180.005 137.902 179.444 138.287 179.004C138.672 178.565 139.181 178.289 139.813 178.178C140.32 178.088 140.768 178.112 141.156 178.248C141.55 178.376 141.875 178.584 142.13 178.872C142.393 179.16 142.581 179.494 142.694 179.876L141.668 180.057C141.535 179.686 141.317 179.421 141.016 179.262C140.721 179.094 140.372 179.046 139.967 179.117C139.607 179.181 139.303 179.352 139.057 179.63C138.809 179.902 138.641 180.28 138.552 180.766C138.471 181.25 138.48 181.844 138.582 182.546C138.583 182.553 138.585 182.564 138.587 182.579C138.59 182.594 138.593 182.609 138.595 182.623C138.667 182.383 138.789 182.153 138.962 181.933C139.136 181.713 139.353 181.527 139.615 181.374C139.882 181.214 140.181 181.104 140.512 181.046C140.946 180.969 141.368 181.001 141.78 181.141C142.197 181.272 142.556 181.504 142.858 181.837C143.159 182.171 143.354 182.588 143.442 183.088C143.521 183.536 143.486 183.979 143.335 184.415C143.192 184.849 142.944 185.227 142.591 185.547C142.236 185.859 141.787 186.064 141.243 186.16ZM140.997 185.214C141.313 185.158 141.581 185.042 141.8 184.867C142.025 184.683 142.186 184.458 142.283 184.191C142.388 183.922 142.413 183.633 142.358 183.324C142.302 183.008 142.18 182.745 141.992 182.536C141.809 182.318 141.581 182.165 141.308 182.077C141.042 181.987 140.751 181.97 140.435 182.026C140.118 182.082 139.848 182.205 139.624 182.396C139.399 182.58 139.234 182.806 139.13 183.075C139.024 183.336 138.998 183.617 139.051 183.919C139.106 184.228 139.228 184.491 139.418 184.707C139.606 184.917 139.838 185.069 140.112 185.165C140.393 185.252 140.688 185.268 140.997 185.214ZM150.419 184.542C149.889 184.635 149.4 184.592 148.952 184.414C148.502 184.228 148.125 183.938 147.82 183.544C147.522 183.142 147.323 182.661 147.225 182.102C147.125 181.536 147.147 181.017 147.291 180.544C147.443 180.07 147.699 179.672 148.059 179.351C148.425 179.021 148.873 178.809 149.403 178.716C149.837 178.639 150.235 178.66 150.597 178.778C150.957 178.889 151.257 179.086 151.497 179.37L150.925 176.127L152.028 175.933L153.429 183.874L152.436 184.049L152.174 183.209C152.093 183.397 151.978 183.584 151.829 183.77C151.679 183.948 151.487 184.107 151.254 184.247C151.021 184.386 150.742 184.485 150.419 184.542ZM150.426 183.551C150.772 183.49 151.062 183.355 151.299 183.147C151.535 182.938 151.697 182.675 151.785 182.356C151.88 182.036 151.893 181.681 151.824 181.291C151.756 180.902 151.623 180.576 151.425 180.316C151.233 180.046 150.991 179.854 150.698 179.739C150.403 179.616 150.083 179.585 149.737 179.646C149.407 179.705 149.124 179.842 148.889 180.058C148.653 180.266 148.487 180.53 148.392 180.85C148.295 181.163 148.281 181.514 148.35 181.904C148.419 182.294 148.553 182.623 148.751 182.891C148.95 183.159 149.196 183.351 149.49 183.466C149.783 183.581 150.095 183.609 150.426 183.551ZM156.704 183.433C156.248 183.514 155.855 183.503 155.527 183.402C155.198 183.301 154.937 183.135 154.745 182.903C154.551 182.664 154.428 182.394 154.375 182.093C154.31 181.725 154.35 181.396 154.496 181.105C154.641 180.806 154.877 180.556 155.205 180.354C155.534 180.152 155.944 180.008 156.437 179.921L157.882 179.666C157.825 179.342 157.73 179.083 157.596 178.886C157.463 178.69 157.292 178.557 157.083 178.488C156.879 178.41 156.634 178.396 156.347 178.447C156.017 178.505 155.748 178.636 155.541 178.839C155.333 179.035 155.227 179.293 155.222 179.612L154.119 179.806C154.095 179.409 154.169 179.055 154.341 178.744C154.52 178.424 154.773 178.16 155.1 177.95C155.426 177.734 155.787 177.59 156.184 177.52C156.706 177.428 157.16 177.443 157.545 177.565C157.931 177.686 158.241 177.9 158.478 178.208C158.72 178.506 158.882 178.887 158.963 179.35L159.57 182.792L158.61 182.961L158.357 182.039C158.302 182.2 158.231 182.357 158.144 182.508C158.057 182.66 157.945 182.798 157.807 182.92C157.677 183.042 157.517 183.146 157.328 183.232C157.147 183.325 156.939 183.392 156.704 183.433ZM156.756 182.503C156.991 182.462 157.196 182.376 157.37 182.247C157.544 182.118 157.683 181.96 157.787 181.775C157.897 181.581 157.967 181.376 157.997 181.158C158.033 180.932 158.035 180.708 158.004 180.486L157.998 180.453L156.685 180.684C156.369 180.74 156.119 180.826 155.934 180.942C155.756 181.049 155.635 181.177 155.57 181.325C155.505 181.473 155.488 181.635 155.519 181.811C155.552 181.995 155.62 182.146 155.724 182.264C155.834 182.374 155.977 182.451 156.152 182.496C156.326 182.541 156.528 182.543 156.756 182.503ZM161.775 184.905L162.595 181.621L162.275 181.678L159.209 177.123L160.4 176.913L162.854 180.643L163.896 176.297L165.054 176.093L162.933 184.701L161.775 184.905ZM168.782 181.304C168.312 181.387 167.886 181.382 167.506 181.29C167.126 181.198 166.808 181.03 166.553 180.787C166.298 180.544 166.115 180.239 166.005 179.871L167.13 179.673C167.198 179.843 167.296 179.992 167.425 180.121C167.562 180.249 167.729 180.341 167.929 180.396C168.135 180.451 168.368 180.456 168.625 180.41C168.868 180.367 169.06 180.299 169.203 180.206C169.352 180.104 169.453 179.988 169.505 179.857C169.557 179.719 169.57 179.58 169.546 179.44C169.509 179.234 169.431 179.089 169.31 179.004C169.195 178.911 169.033 178.852 168.824 178.828C168.621 178.796 168.379 178.778 168.098 178.775C167.833 178.776 167.572 178.761 167.317 178.73C167.067 178.691 166.836 178.629 166.624 178.545C166.42 178.46 166.247 178.339 166.105 178.182C165.963 178.017 165.868 177.803 165.821 177.538C165.765 177.222 165.8 176.924 165.925 176.644C166.049 176.357 166.253 176.116 166.537 175.922C166.827 175.719 167.186 175.58 167.612 175.505C168.23 175.396 168.752 175.456 169.179 175.684C169.606 175.912 169.9 176.288 170.061 176.813L168.991 177.002C168.917 176.757 168.773 176.586 168.559 176.487C168.343 176.381 168.077 176.356 167.761 176.412C167.444 176.467 167.213 176.573 167.066 176.727C166.919 176.882 166.863 177.063 166.9 177.268C166.923 177.401 166.991 177.51 167.105 177.596C167.219 177.682 167.374 177.746 167.571 177.787C167.774 177.819 168.016 177.841 168.299 177.852C168.702 177.857 169.067 177.887 169.395 177.943C169.724 177.999 169.999 178.117 170.22 178.298C170.441 178.479 170.587 178.768 170.657 179.165C170.725 179.509 170.691 179.83 170.554 180.127C170.424 180.423 170.207 180.673 169.902 180.879C169.604 181.083 169.231 181.225 168.782 181.304Z" fill="#B0B0B0"/>
<path d="M198.831 128.756C194.201 129.37 190.142 133.228 185.166 131.878L189.801 158.168L300.1 138.719L283.777 46.1474L282.452 52.0731C281.128 57.9988 278.479 69.8503 274.473 74.0078C270.468 78.1653 265.105 74.6289 261.097 78.7722C257.089 82.9156 254.435 94.7387 250.927 101.719C247.42 108.698 243.058 110.835 237.527 106.345C231.997 101.854 225.298 90.7375 221.16 94.1421C217.021 97.5467 215.443 115.473 212.053 123.121C208.663 130.77 203.461 128.141 198.831 128.756Z" fill="url(#paint0_linear_4218_1674)"/>
<path d="M185.166 131.878C190.142 133.228 194.201 129.37 198.831 128.756C203.461 128.141 208.663 130.77 212.053 123.121C215.443 115.473 217.021 97.5467 221.16 94.1421C225.298 90.7375 231.997 101.854 237.527 106.345C243.058 110.835 247.42 108.698 250.927 101.719C254.435 94.7387 257.089 82.9156 261.097 78.7722C265.105 74.6289 270.468 78.1653 274.473 74.0078C278.479 69.8503 281.128 57.9988 282.452 52.0731L283.777 46.1474" stroke="#5A50D8" stroke-linecap="round"/>
</g>
<path d="M16.4074 50.1362L280.336 3.59844C288.766 2.11194 296.805 7.74105 298.292 16.1714L324.166 162.908C325.652 171.338 320.023 179.377 311.593 180.864L47.6641 227.402C39.2337 228.888 31.1945 223.259 29.708 214.829L3.83445 68.0922C2.34795 59.6619 7.97706 51.6227 16.4074 50.1362Z" stroke="#EFF3FE"/>
<defs>
<linearGradient id="paint0_linear_4218_1674" x1="228.627" y1="55.8716" x2="244.95" y2="148.444" gradientUnits="userSpaceOnUse">
<stop stop-color="#C8C5F2"/>
<stop offset="1" stop-color="#FAFBFF"/>
</linearGradient>
<clipPath id="clip0_4218_1674">
<path d="M3.34205 68.179C1.80759 59.4767 7.61829 51.1782 16.3206 49.6437L280.249 3.10604C288.951 1.57159 297.25 7.38228 298.784 16.0846L324.658 162.821C326.192 171.523 320.382 179.822 311.679 181.356L47.7509 227.894C39.0486 229.428 30.7501 223.618 29.2156 214.915L3.34205 68.179Z" fill="white"/>
</clipPath>
</defs>
</svg>
