<svg width="518" height="138" viewBox="0 0 518 138" fill="none" xmlns="http://www.w3.org/2000/svg">
<path d="M84.1752 88.1562H49.8557V104.087C49.8557 122.816 65.0426 138 83.7772 138H84.1762H84.5751C103.31 138 118.497 122.817 118.497 104.087V88.1562H84.1752Z" fill="#41399A"/>
<path opacity="0.54" d="M56.8188 104.087V88.1562H49.8546V104.087C49.8546 122.816 65.0416 138 83.7762 138H84.1752H84.5741C85.6138 138 86.6415 137.946 87.6573 137.854C70.3692 136.295 56.8188 121.776 56.8188 104.087Z" fill="#4F43BF"/>
<path d="M49.8547 104.086V88.156V33.9136C49.8547 0 49.8547 0 15.9341 0H0V88.156V104.086C0 122.816 15.1869 138 33.9216 138H49.8547H83.7762C65.0426 137.999 49.8547 122.816 49.8547 104.086Z" fill="#5A50D8"/>
<path d="M472.861 116.388L486.621 86.4802L489.019 82.6407L504.031 44.1445H518L486.204 116.388H472.861ZM484.641 95.1696L463.061 44.1445H477.343L495.378 90.4207L484.641 95.1696Z" fill="white"/>
<path d="M435.741 95.674V39.3949C435.741 33.7367 437.339 29.4257 440.536 26.4618C443.803 23.4306 448.668 21.915 455.131 21.915C456.59 21.915 457.807 21.9824 458.78 22.1171C459.753 22.2518 460.691 22.4539 461.594 22.7234V32.6252C461.108 32.4232 460.482 32.2884 459.718 32.2211C458.953 32.0864 458.085 32.019 457.112 32.019C454.332 32.019 452.247 32.6926 450.857 34.0398C449.536 35.3196 448.876 37.2057 448.876 39.698V95.674H435.741ZM426.15 54.1467V44.1438H460.448V54.1467H426.15Z" fill="white"/>
<path d="M405.834 95.6744V44.1442H418.969V95.6744H405.834ZM405.208 35.6568V21.6123H419.49V35.6568H405.208Z" fill="white"/>
<path d="M343.243 95.6744V22.9258H356.378V95.6744H343.243ZM380.564 95.6744V63.1396C380.564 59.9737 379.73 57.5824 378.062 55.9658C376.394 54.3491 373.962 53.5408 370.765 53.5408C367.985 53.5408 365.483 54.147 363.259 55.3595C361.104 56.572 359.402 58.256 358.151 60.4115C356.969 62.567 356.378 65.0593 356.378 67.8885L355.023 55.5616C356.83 51.7895 359.471 48.7919 362.946 46.5691C366.421 44.2788 370.591 43.1337 375.456 43.1337C381.224 43.1337 385.707 44.7167 388.904 47.8826C392.17 51.0485 393.804 55.2585 393.804 60.5126V95.6744H380.564Z" fill="white"/>
<path d="M312.892 96.6848C305.525 96.6848 299.653 95.2029 295.274 92.2391C290.896 89.2079 288.498 85.0316 288.081 79.7102H300.07C300.417 82.3372 301.703 84.3243 303.927 85.6715C306.151 87.0187 309.139 87.6923 312.892 87.6923C316.298 87.6923 318.834 87.1871 320.502 86.1767C322.24 85.0989 323.108 83.5833 323.108 81.6299C323.108 80.2154 322.622 79.0702 321.649 78.1946C320.676 77.2515 318.834 76.4769 316.124 75.8707L307.575 73.9509C301.738 72.7384 297.394 70.8523 294.544 68.2927C291.764 65.6656 290.374 62.3987 290.374 58.4918C290.374 53.7093 292.251 49.9708 296.004 47.2764C299.826 44.5147 305.073 43.1338 311.745 43.1338C318.348 43.1338 323.63 44.5147 327.591 47.2764C331.622 49.9708 333.846 53.7093 334.263 58.4918H322.274C321.927 56.4037 320.815 54.8207 318.939 53.743C317.132 52.6652 314.63 52.1263 311.433 52.1263C308.444 52.1263 306.185 52.5978 304.656 53.5409C303.128 54.4166 302.363 55.7301 302.363 57.4814C302.363 58.8286 302.954 59.9737 304.135 60.9168C305.317 61.7925 307.297 62.5671 310.077 63.2407L319.251 65.2615C324.464 66.4066 328.39 68.3937 331.031 71.2228C333.742 74.0519 335.097 77.3862 335.097 81.2257C335.097 86.143 333.151 89.9488 329.259 92.6432C325.367 95.3376 319.912 96.6848 312.892 96.6848Z" fill="white"/>
<path d="M269.436 95.6744C269.089 94.3272 268.811 92.8453 268.602 91.2287C268.463 89.612 268.394 87.6586 268.394 85.3684H267.977V60.9168C267.977 58.2224 267.177 56.2016 265.579 54.8544C264.05 53.4398 261.687 52.7326 258.49 52.7326C255.363 52.7326 252.861 53.3051 250.984 54.4502C249.177 55.528 248.065 57.1109 247.648 59.1991H235.034C235.59 54.4166 237.953 50.5434 242.123 47.5795C246.293 44.6157 251.888 43.1338 258.907 43.1338C266.204 43.1338 271.729 44.7504 275.482 47.9837C279.235 51.1496 281.112 55.8311 281.112 62.0282V85.3684C281.112 86.985 281.216 88.6353 281.425 90.3193C281.703 92.0033 282.085 93.7884 282.571 95.6744H269.436ZM250.984 96.6848C245.633 96.6848 241.358 95.405 238.162 92.8453C235.034 90.2183 233.47 86.7156 233.47 82.3372C233.47 77.622 235.243 73.8835 238.787 71.1218C242.331 68.36 247.335 66.5076 253.799 65.5646L270.374 63.1396V71.2228L255.988 73.3447C252.861 73.8162 250.498 74.6582 248.899 75.8707C247.37 77.0831 246.606 78.7671 246.606 80.9226C246.606 82.8761 247.335 84.3917 248.795 85.4694C250.254 86.4798 252.27 86.985 254.841 86.985C258.594 86.985 261.722 86.0757 264.224 84.2569C266.726 82.4382 267.977 80.2154 267.977 77.5883L269.436 85.3684C268.046 89.0732 265.753 91.9023 262.556 93.8557C259.428 95.7418 255.571 96.6848 250.984 96.6848Z" fill="#5A50D8"/>
<path d="M167.36 95.6744V85.1662H186.75C192.449 85.1662 197.314 84.0548 201.345 81.8319C205.376 79.6091 208.434 76.5105 210.519 72.5363C212.673 68.562 213.75 64.0153 213.75 58.8959C213.75 53.8439 212.673 49.3982 210.519 45.5587C208.434 41.7192 205.376 38.7553 201.345 36.6672C197.383 34.5117 192.518 33.4339 186.75 33.4339H167.568V22.9258H186.75C194.951 22.9258 202.109 24.4077 208.225 27.3715C214.341 30.3354 219.067 34.5454 222.403 40.0015C225.808 45.3903 227.511 51.7558 227.511 59.098C227.511 66.4402 225.808 72.8731 222.403 78.3966C218.997 83.8527 214.237 88.0964 208.121 91.1276C202.074 94.1588 194.986 95.6744 186.854 95.6744H167.36ZM159.124 95.6744V22.9258H172.676V95.6744H159.124Z" fill="#5A50D8"/>
</svg>
