<svg width="1064" height="263" viewBox="0 0 1064 263" fill="none" xmlns="http://www.w3.org/2000/svg">
<path d="M85.3417 -204L85.3417 468M166.62 -204L166.62 468M247.897 -204L247.897 468M329.175 -204L329.175 468M410.453 -204L410.453 468M491.731 -204L491.731 468M573.009 -204L573.009 468M654.286 -204L654.286 468M735.564 -204L735.564 468M816.842 -204V468M898.12 -204V468M979.398 -204V468M1064 -151.938H0M1064 -70.7077H0M1064 10.5231H0M1064 91.7539H0M1064 172.985H0M1064 254.215H0M1064 335.446H0M1064 416.677H0" stroke="url(#paint0_radial_4218_2769)"/>
<defs>
<radialGradient id="paint0_radial_4218_2769" cx="0" cy="0" r="1" gradientUnits="userSpaceOnUse" gradientTransform="translate(6.40182e-05 139.5) rotate(-0.107698) scale(1064 1684.67)">
<stop stop-color="white" stop-opacity="0"/>
<stop offset="0.5" stop-color="white" stop-opacity="0.03"/>
<stop offset="1" stop-color="white" stop-opacity="0"/>
</radialGradient>
</defs>
</svg>
