<svg width="40" height="40" viewBox="0 0 40 40" fill="none" xmlns="http://www.w3.org/2000/svg">
<g clip-path="url(#clip0_4218_2934)">
<path d="M27.0101 29.2402C22.2457 28.259 17.2112 28.2951 12.4648 29.3659C12.0938 26.7231 11.8997 24.0568 11.8472 21.3889H28.215C28.1625 24.0568 27.9684 26.7231 27.597 29.3659C27.402 29.322 27.2061 29.2805 27.0101 29.2402C27.1301 29.2649 26.9509 29.228 27.0101 29.2402Z" fill="#5A50D8"/>
<path d="M13.052 10.7595C17.8173 11.7394 22.85 11.7053 27.5973 10.6338C27.9684 13.2769 28.1625 15.9432 28.215 18.6111H11.8472C11.8997 15.9429 12.0938 13.2769 12.4651 10.6338C12.6602 10.678 12.8561 10.7192 13.052 10.7595C13.1112 10.7717 12.9318 10.7348 13.052 10.7595Z" fill="#5A50D8"/>
<path d="M30.9929 18.6111C30.9404 15.6967 30.7201 12.7822 30.2983 9.89771C32.1593 9.29834 33.9687 8.51007 35.6423 7.49658C38.192 10.6762 39.703 14.5468 39.9843 18.6111H30.9929Z" fill="#5A50D8"/>
<path d="M33.7087 5.40711C32.4733 6.10169 31.1666 6.66932 29.8256 7.12678C29.4762 5.35065 29.0389 3.58826 28.4795 1.86646C30.3933 2.7591 32.1587 3.95325 33.7087 5.40711C33.698 5.41321 32.1587 3.95325 33.7087 5.40711Z" fill="#5A50D8"/>
<path d="M25.0761 0.642014C26.0313 2.96715 26.6715 5.42199 27.1433 7.88751C22.5043 8.95868 17.5577 8.95868 12.9185 7.88751C13.39 5.42199 14.0308 2.96715 14.9857 0.642014C18.2783 -0.214005 21.7835 -0.214005 25.0761 0.642014C25.1133 0.732041 23.4339 0.215073 25.0761 0.642014Z" fill="#5A50D8"/>
<path d="M11.5348 2.01935C10.9986 3.69263 10.5756 5.40284 10.2366 7.12678C8.89563 6.66932 7.58917 6.10199 6.35352 5.40711C7.90351 3.95325 9.66864 2.7591 11.583 1.86646C11.5665 1.91681 11.551 1.96869 11.5348 2.01935C11.551 1.96869 11.5009 2.12494 11.5348 2.01935Z" fill="#5A50D8"/>
<path d="M4.41987 7.49658C6.09345 8.51007 7.90284 9.29834 9.76381 9.89771C9.34205 12.7822 9.12171 15.6967 9.06922 18.6111H0.078125C0.359192 14.5468 1.87042 10.6762 4.41987 7.49658C4.44245 7.51031 1.87042 10.6762 4.41987 7.49658Z" fill="#5A50D8"/>
<path d="M9.06922 21.3889C9.12171 24.303 9.34205 27.2175 9.76381 30.1023C7.90254 30.7023 6.09467 31.4906 4.41987 32.5031C1.87042 29.3235 0.359192 25.4533 0.078125 21.3889H9.06922Z" fill="#5A50D8"/>
<path d="M6.35352 34.593C7.58917 33.8984 8.89563 33.3311 10.2366 32.8733C10.586 34.6494 11.0233 36.4118 11.583 38.1336C9.66895 37.2407 7.90351 36.0465 6.35352 34.593C7.90351 36.0465 6.36481 34.5865 6.35352 34.593Z" fill="#5A50D8"/>
<path d="M14.9857 39.358C14.0308 37.0328 13.3903 34.578 12.9185 32.1125C17.5577 31.0413 22.5043 31.0413 27.1433 32.1125C26.6718 34.578 26.0313 37.0328 25.0761 39.358C21.7835 40.214 18.2783 40.214 14.9857 39.358C16.6279 39.7849 14.9488 39.2676 14.9857 39.358Z" fill="#5A50D8"/>
<path d="M28.5277 37.9807C29.0636 36.3071 29.4863 34.5972 29.8256 32.8733C31.1666 33.3311 32.473 33.8984 33.7087 34.593C32.1587 36.0465 30.3933 37.241 28.4795 38.1336C28.4957 38.0833 28.5115 38.0314 28.5277 37.9807C28.5613 37.8751 28.5115 38.0314 28.5277 37.9807Z" fill="#5A50D8"/>
<path d="M35.6423 32.5031C33.9675 31.4906 32.1596 30.7023 30.2983 30.1023C30.7201 27.2175 30.9404 24.303 30.9929 21.3889H39.984C39.703 25.4533 38.192 29.3235 35.6423 32.5031C38.192 29.3235 35.6194 32.4894 35.6423 32.5031Z" fill="#5A50D8"/>
</g>
<defs>
<clipPath id="clip0_4218_2934">
<rect width="40" height="40" fill="white"/>
</clipPath>
</defs>
</svg>
