<svg width="40" height="40" viewBox="0 0 40 40" fill="none" xmlns="http://www.w3.org/2000/svg">
<g clip-path="url(#clip0_4218_2959)">
<path d="M20 20.625C22.33 20.625 24.2188 18.7362 24.2188 16.4062C24.2188 14.0763 22.33 12.1875 20 12.1875C17.67 12.1875 15.7812 14.0763 15.7812 16.4062C15.7812 18.7362 17.67 20.625 20 20.625Z" fill="#5A50D8"/>
<path d="M32.1875 23.5938C34.2586 23.5938 35.9375 21.9148 35.9375 19.8438C35.9375 17.7727 34.2586 16.0938 32.1875 16.0938C30.1164 16.0938 28.4375 17.7727 28.4375 19.8438C28.4375 21.9148 30.1164 23.5938 32.1875 23.5938Z" fill="#5A50D8"/>
<path d="M7.8125 23.5938C9.88357 23.5938 11.5625 21.9148 11.5625 19.8438C11.5625 17.7727 9.88357 16.0938 7.8125 16.0938C5.74143 16.0938 4.0625 17.7727 4.0625 19.8438C4.0625 21.9148 5.74143 23.5938 7.8125 23.5938Z" fill="#5A50D8"/>
<path d="M10.0909 5.95943C7.77697 7.59495 5.901 9.77463 4.62835 12.3063C4.07835 13.2532 4.90335 14.6126 5.98773 14.5751C6.28309 14.5796 6.57379 14.5011 6.8268 14.3486C7.0798 14.1962 7.28497 13.9758 7.41898 13.7126C8.4613 11.6374 9.99813 9.85051 11.894 8.50943C12.2163 8.26424 12.4308 7.90348 12.4923 7.50321C12.5538 7.10294 12.4575 6.69442 12.2237 6.36376C11.9899 6.03311 11.6369 5.80614 11.239 5.73072C10.8411 5.65529 10.4295 5.73729 10.0909 5.95943Z" fill="#5A50D8"/>
<path d="M28.1062 8.50943C30.0021 9.85051 31.5389 11.6374 32.5812 13.7126C32.7152 13.9758 32.9204 14.1962 33.1734 14.3486C33.4264 14.5011 33.7171 14.5796 34.0125 14.5751C35.0968 14.6126 35.9218 13.2532 35.3718 12.3063C34.0992 9.77463 32.2232 7.59495 29.9093 5.95943C29.5707 5.73729 29.1591 5.65529 28.7612 5.73072C28.3633 5.80614 28.0103 6.03311 27.7765 6.36376C27.5427 6.69442 27.4464 7.10294 27.5079 7.50321C27.5694 7.90348 27.7839 8.26424 28.1062 8.50943Z" fill="#5A50D8"/>
<path d="M24.7781 7.18125C25.027 7.17352 25.2629 7.06889 25.4357 6.88967C25.6085 6.71045 25.7045 6.47083 25.7031 6.22188V5.18438C25.7039 4.9356 25.6078 4.69629 25.4351 4.51719C25.2624 4.33809 25.0268 4.23329 24.7781 4.22501H24.7563C24.6661 3.93496 24.55 3.65361 24.4094 3.38438L24.4219 3.36875C24.5932 3.18815 24.6869 2.94757 24.6828 2.69866C24.6787 2.44976 24.5772 2.21238 24.4 2.0375L23.6656 1.30313C23.4908 1.12596 23.2534 1.02443 23.0045 1.02034C22.7556 1.01625 22.515 1.10993 22.3344 1.28125L22.3188 1.29375C22.0495 1.15315 21.7682 1.03705 21.4781 0.94688V0.925005C21.4699 0.676358 21.365 0.440714 21.186 0.268034C21.0069 0.0953542 20.7675 -0.000783217 20.5188 4.80646e-06H19.4813C19.2325 -0.000783217 18.9932 0.0953542 18.8141 0.268034C18.635 0.440714 18.5302 0.676358 18.5219 0.925005V0.94688C18.2318 1.03705 17.9505 1.15315 17.6813 1.29375L17.6656 1.28125C17.485 1.10993 17.2445 1.01625 16.9955 1.02034C16.7466 1.02443 16.5093 1.12596 16.3344 1.30313L15.6 2.0375C15.4235 2.21274 15.3224 2.44999 15.3183 2.69868C15.3143 2.94737 15.4075 3.18782 15.5781 3.36875L15.5906 3.38438C15.45 3.65361 15.3339 3.93496 15.2438 4.22501H15.2219C14.9731 4.23274 14.7371 4.33737 14.5643 4.51659C14.3915 4.69581 14.2955 4.93543 14.2969 5.18438V6.22188C14.2955 6.47083 14.3915 6.71045 14.5643 6.88967C14.7371 7.06889 14.9731 7.17352 15.2219 7.18125H15.2438C15.3339 7.4713 15.45 7.75264 15.5906 8.02188L15.5781 8.0375C15.4075 8.21844 15.3143 8.45889 15.3183 8.70758C15.3224 8.95627 15.4235 9.19352 15.6 9.36875L16.3344 10.1031C16.5096 10.2796 16.7469 10.3807 16.9956 10.3848C17.2443 10.3889 17.4847 10.2957 17.6656 10.125L17.6813 10.1125C17.9505 10.2531 18.2318 10.3692 18.5219 10.4594V10.4813C18.5302 10.7299 18.635 10.9655 18.8141 11.1382C18.9932 11.3109 19.2325 11.407 19.4813 11.4063H20.5188C20.7677 11.4076 21.0073 11.3116 21.1866 11.1388C21.3658 10.9661 21.4704 10.7301 21.4781 10.4813V10.4594C21.7682 10.3692 22.0495 10.2531 22.3188 10.1125L22.3344 10.125C22.5153 10.2957 22.7558 10.3889 23.0045 10.3848C23.2532 10.3807 23.4904 10.2796 23.6656 10.1031L24.4 9.36875C24.5765 9.19352 24.6776 8.95627 24.6817 8.70758C24.6858 8.45889 24.5925 8.21844 24.4219 8.0375L24.4094 8.02188C24.55 7.75264 24.6661 7.4713 24.7563 7.18125H24.7781ZM20 8.15282C19.5155 8.15282 19.0419 8.00915 18.639 7.73997C18.2362 7.4708 17.9222 7.08821 17.7368 6.64058C17.5514 6.19296 17.5029 5.70041 17.5974 5.22522C17.6919 4.75003 17.9252 4.31353 18.2678 3.97094C18.6104 3.62834 19.0469 3.39503 19.5221 3.30051C19.9973 3.20599 20.4898 3.2545 20.9375 3.43991C21.3851 3.62532 21.7677 3.93931 22.0369 4.34216C22.306 4.74501 22.4497 5.21863 22.4497 5.70313C22.4497 6.02484 22.3864 6.34341 22.2633 6.64063C22.1402 6.93786 21.9598 7.20793 21.7323 7.43541C21.5048 7.66289 21.2347 7.84334 20.9375 7.96643C20.6403 8.08952 20.3217 8.15286 20 8.15282Z" fill="#5A50D8"/>
<path d="M9.78511 31.5082C5.97042 31.0145 3.2323 30.0395 1.86667 28.6863C1.81157 28.6326 1.74416 28.5932 1.67033 28.5716C1.5965 28.5499 1.51849 28.5466 1.44311 28.562C1.36772 28.5775 1.29726 28.6111 1.23785 28.66C1.17844 28.7089 1.13191 28.7716 1.1023 28.8426C-0.216138 32.1067 0.3523 36.0798 0.809487 38.1576C0.921356 38.681 1.21008 39.15 1.62708 39.4855C2.04408 39.8211 2.56393 40.0028 3.09917 40.0001H10.8604C10.9421 39.999 11.0221 39.9767 11.0926 39.9354C11.1631 39.8941 11.2217 39.8353 11.2626 39.7646C11.3035 39.6939 11.3254 39.6138 11.3261 39.5321C11.3269 39.4504 11.3064 39.3699 11.2667 39.2985C11.106 39.0197 10.9872 38.7188 10.9139 38.4054C10.4156 36.3013 10.1735 34.1448 10.1929 31.9826C10.1953 31.8672 10.155 31.755 10.0797 31.6674C10.0045 31.5799 9.89957 31.5232 9.78511 31.5082Z" fill="#5A50D8"/>
<path d="M38.1331 28.6875C36.7678 30.0397 34.0297 31.0156 30.215 31.5094C30.1004 31.5242 29.9954 31.5809 29.92 31.6684C29.8446 31.756 29.8042 31.8683 29.8066 31.9838C29.8258 34.1458 29.5838 36.3023 29.0856 38.4063C29.0124 38.7194 28.8935 39.0201 28.7328 39.2988C28.6931 39.3702 28.6726 39.4506 28.6734 39.5323C28.6741 39.614 28.696 39.6941 28.7369 39.7648C28.7778 39.8355 28.8364 39.8944 28.9069 39.9356C28.9774 39.9769 29.0574 39.9992 29.1391 40.0003H36.9006C37.4356 40.003 37.9553 39.8214 38.3722 39.4861C38.7891 39.1508 39.0779 38.6822 39.19 38.1591C39.6466 36.0813 40.2156 32.1081 38.8972 28.8441C38.8675 28.7731 38.821 28.7105 38.7616 28.6617C38.7023 28.6128 38.6319 28.5792 38.5566 28.5638C38.4812 28.5484 38.4033 28.5516 38.3295 28.5731C38.2557 28.5947 38.1883 28.634 38.1331 28.6875Z" fill="#5A50D8"/>
<path d="M34.206 23.8201C31.1832 24.5263 28.2532 24.3826 24.7251 22.5941C21.9998 21.2116 17.9998 21.2119 15.2754 22.5941C11.7423 24.3866 8.81978 24.526 5.79415 23.8201C4.36353 23.5298 3.23322 23.301 2.40634 24.1057C1.66728 24.8244 1.61915 26.0069 1.80259 26.801C2.44384 29.5732 8.64634 30.4701 11.1998 30.7229C11.0321 33.2306 11.2438 35.7493 11.8276 38.1938C11.9462 38.7092 12.2367 39.1689 12.6513 39.4972C13.066 39.8255 13.58 40.0028 14.1088 40.0001H25.8901C26.419 40.0029 26.9331 39.8256 27.3477 39.4973C27.7624 39.169 28.0528 38.7093 28.1713 38.1938C28.7553 35.7493 28.9671 33.2306 28.7995 30.7229C31.3532 30.4701 37.5557 29.5732 38.1967 26.801C38.3801 26.0069 38.332 24.8244 37.5929 24.1057C36.7667 23.301 35.636 23.5313 34.206 23.8201Z" fill="#5A50D8"/>
</g>
<defs>
<clipPath id="clip0_4218_2959">
<rect width="40" height="40" fill="white"/>
</clipPath>
</defs>
</svg>
