<svg width="40" height="40" viewBox="0 0 40 40" fill="none" xmlns="http://www.w3.org/2000/svg">
<g clip-path="url(#clip0_4218_2993)">
<path d="M29.4121 0H10.5879C4.74044 0 0 4.74062 0 10.5883V29.4117C0 35.2594 4.74044 40 10.5879 40H29.4121C35.2596 40 40 35.2594 40 29.4117V10.5883C40 4.74062 35.2596 0 29.4121 0ZM21.5804 30.6117C21.0781 31.0578 20.4883 31.2844 19.8274 31.2844C19.1664 31.2844 18.5477 31.0617 18.0415 30.6219C17.5188 30.168 17.254 29.5352 17.254 28.7398C17.254 28.0305 17.5056 27.4242 18.0032 26.9383C18.4977 26.4547 19.1118 26.2094 19.8274 26.2094C20.5429 26.2094 21.1398 26.4555 21.6257 26.9414C22.1116 27.4273 22.3577 28.0328 22.3577 28.7398C22.3577 29.5234 22.096 30.1539 21.5804 30.6117ZM27.0411 17.1734C26.6935 17.8188 26.2732 18.3852 25.7912 18.857C25.3326 19.3055 24.5029 20.0672 23.3233 21.1219C23.0124 21.4055 22.7585 21.6594 22.5718 21.8734C22.3968 22.0742 22.2663 22.2563 22.1859 22.4148C22.1015 22.5781 22.0359 22.743 21.9905 22.9047C21.9398 23.0852 21.8616 23.4078 21.7593 23.8641C21.5406 25.0453 20.8179 25.6695 19.6688 25.6695C19.0696 25.6695 18.5555 25.4688 18.1423 25.0727C17.7251 24.6727 17.5126 24.0898 17.5126 23.3406C17.5126 22.4859 17.6493 21.7305 17.9173 21.0953C18.1837 20.4672 18.5415 19.9062 18.9829 19.4289C19.4024 18.975 19.9742 18.4305 20.682 17.8102C21.2867 17.2812 21.7288 16.8773 21.9952 16.6102C22.2429 16.3633 22.4538 16.0844 22.6226 15.7812C22.7788 15.5008 22.8546 15.2039 22.8546 14.8742C22.8546 14.2125 22.6147 13.6695 22.1218 13.2133C21.6195 12.7492 20.982 12.5234 20.1726 12.5234C19.2328 12.5234 18.5422 12.7516 18.1212 13.2008C17.6634 13.6898 17.2657 14.432 16.94 15.4086C16.4665 16.975 15.4697 17.3039 14.7158 17.3039C14.0729 17.3039 13.5221 17.0734 13.0792 16.6187C12.6393 16.1672 12.4159 15.6625 12.4159 15.1188C12.4159 14.1375 12.7315 13.1367 13.3526 12.143C13.9705 11.1555 14.8807 10.3281 16.0572 9.68437C17.2329 9.04141 18.6172 8.71562 20.1726 8.71562C21.6163 8.71562 22.9124 8.9875 24.0256 9.52422C25.1498 10.0656 26.0326 10.8164 26.6497 11.7539C27.2692 12.6977 27.5841 13.7375 27.5841 14.8453C27.5841 15.7219 27.4013 16.5055 27.0411 17.1734Z" fill="#5A50D8"/>
</g>
<defs>
<clipPath id="clip0_4218_2993">
<rect width="40" height="40" fill="white"/>
</clipPath>
</defs>
</svg>
