<svg width="40" height="40" viewBox="0 0 40 40" fill="none" xmlns="http://www.w3.org/2000/svg">
<path d="M28.75 30H11.25C10.5625 30 10 30.5625 10 31.25C10 31.9375 10.5625 32.5 11.25 32.5H13.75V35C13.75 37.075 15.425 38.75 17.5 38.75H22.5C24.575 38.75 26.25 37.075 26.25 35V32.5H28.75C29.4375 32.5 30 31.9375 30 31.25C30 30.5625 29.4375 30 28.75 30Z" fill="#5A50D8"/>
<path d="M37.5 13.75H36.25C35.5625 13.75 35 14.3125 35 15C35 15.6875 35.5625 16.25 36.25 16.25H37.5C38.1875 16.25 38.75 15.6875 38.75 15C38.75 14.3125 38.1875 13.75 37.5 13.75Z" fill="#5A50D8"/>
<path d="M35.0001 9.99997C35.1876 9.99997 35.3751 9.96247 35.5626 9.86247L38.0626 8.61247C38.6751 8.29997 38.9251 7.54997 38.6251 6.93747C38.3251 6.32497 37.5626 6.06247 36.9501 6.37497L34.4501 7.62497C33.8376 7.93747 33.5876 8.68747 33.8876 9.29997C34.1126 9.73747 34.5501 9.98747 35.0126 9.98747L35.0001 9.99997Z" fill="#5A50D8"/>
<path d="M38.0625 21.3875L35.5625 20.1375C34.95 19.825 34.2 20.075 33.8875 20.7C33.575 21.3125 33.825 22.0625 34.45 22.375L36.95 23.625C37.125 23.7125 37.325 23.7625 37.5125 23.7625C37.975 23.7625 38.4125 23.5125 38.6375 23.075C38.95 22.4625 38.7 21.7125 38.075 21.4L38.0625 21.3875Z" fill="#5A50D8"/>
<path d="M5.56246 7.63747L3.06246 6.38746C2.43746 6.07496 1.68746 6.32496 1.38746 6.94996C1.07496 7.56246 1.32496 8.31246 1.94996 8.62496L4.44997 9.87496C4.62496 9.96246 4.82497 10.0125 5.01247 10.0125C5.47497 10.0125 5.91246 9.76246 6.13746 9.32496C6.44996 8.71246 6.19997 7.96246 5.57497 7.64996L5.56246 7.63747Z" fill="#5A50D8"/>
<path d="M4.43737 20.1376L1.93737 21.3876C1.32487 21.7001 1.07487 22.4501 1.37487 23.0626C1.59987 23.5001 2.03737 23.7501 2.49987 23.7501C2.68737 23.7501 2.87487 23.7126 3.06237 23.6126L5.56237 22.3626C6.17487 22.0501 6.42487 21.3001 6.12487 20.6876C5.81237 20.0751 5.06237 19.8251 4.44987 20.1251L4.43737 20.1376Z" fill="#5A50D8"/>
<path d="M2.5 16.25H3.75C4.4375 16.25 5 15.6875 5 15C5 14.3125 4.4375 13.75 3.75 13.75H2.5C1.8125 13.75 1.25 14.3125 1.25 15C1.25 15.6875 1.8125 16.25 2.5 16.25Z" fill="#5A50D8"/>
<path d="M20 8.75C16.55 8.75 13.75 11.55 13.75 15C13.75 18.45 16.55 21.25 20 21.25C23.45 21.25 26.25 18.45 26.25 15C26.25 11.55 23.45 8.75 20 8.75ZM24.2125 13.8L20.1 17.95C19.8625 18.1875 19.575 18.3 19.2125 18.325C18.8875 18.325 18.5625 18.2 18.325 17.9625L15.8 15.4375C15.3125 14.95 15.3125 14.1625 15.8 13.675C16.2875 13.1875 17.075 13.1875 17.5625 13.675L19.2 15.3125L22.425 12.0625C22.9125 11.575 23.7 11.5625 24.1875 12.0625C24.675 12.55 24.6875 13.3375 24.1875 13.825L24.2125 13.8Z" fill="#5A50D8"/>
<path d="M29.1624 4.75003C26.2499 2.15003 22.3374 0.900028 18.4249 1.33753C12.1499 2.03753 7.07488 7.08753 6.33738 13.35C5.83738 17.65 7.31238 21.85 10.3999 24.85C11.1249 25.55 11.5999 26.4875 11.7749 27.5H28.1999C28.3749 26.4875 28.8499 25.55 29.5749 24.85C32.2624 22.2375 33.7374 18.7375 33.7374 15C33.7374 11.2625 32.0624 7.36253 29.1499 4.75003H29.1624ZM19.9999 23.75C15.1749 23.75 11.2499 19.825 11.2499 15C11.2499 10.175 15.1749 6.25003 19.9999 6.25003C24.8249 6.25003 28.7499 10.175 28.7499 15C28.7499 19.825 24.8249 23.75 19.9999 23.75Z" fill="#5A50D8"/>
</svg>
