<svg width="40" height="40" viewBox="0 0 40 40" fill="none" xmlns="http://www.w3.org/2000/svg">
<g clip-path="url(#clip0_4218_2975)">
<path d="M24.5443 29.4762C25.6783 28.9297 26.7072 28.2074 27.5724 27.3115L23.3748 24.9702L22.6069 25.7381L24.5443 29.4762Z" fill="#5A50D8"/>
<path d="M9.45312 20C9.45312 20.5779 9.53398 21.1348 9.62375 21.6879L11.5657 19.7459L16.2532 22.0897L17.171 21.1719L15.3125 19.3134V15.3125H20.6866L23.0304 12.9688H27.8038C25.872 10.8267 23.1049 9.45312 20 9.45312C14.1841 9.45312 9.45312 14.1841 9.45312 20Z" fill="#5A50D8"/>
<path d="M12.0282 22.5978L10.3682 24.2578C12.0093 27.9544 15.7016 30.5469 20.0001 30.5469C20.7985 30.5469 21.5694 30.4409 22.3174 30.272L19.7369 25.2941L22.9699 22.0611L28.9985 25.4237C29.9607 23.8335 30.547 21.9905 30.547 20C30.547 18.3083 30.1094 16.731 29.3984 15.3125H24.0009L21.6571 17.6562H17.6564V18.3429L20.4854 21.1719L16.7157 24.9416L12.0282 22.5978Z" fill="#5A50D8"/>
<path d="M3.59375 7.10938C5.53539 7.10938 7.10938 5.53539 7.10938 3.59375C7.10938 1.65211 5.53539 0 3.59375 0C1.65211 0 0 1.65211 0 3.59375C0 5.53539 1.65211 7.10938 3.59375 7.10938Z" fill="#5A50D8"/>
<path d="M3.59375 40C5.53539 40 7.10938 38.3479 7.10938 36.4062C7.10938 34.4646 5.53539 32.8906 3.59375 32.8906C1.65211 32.8906 0 34.4646 0 36.4062C0 38.3479 1.65211 40 3.59375 40Z" fill="#5A50D8"/>
<path d="M36.4062 32.8906C34.4646 32.8906 32.8906 34.4646 32.8906 36.4062C32.8906 38.3479 34.4646 40 36.4062 40C38.3479 40 40 38.3479 40 36.4062C40 34.4646 38.3479 32.8906 36.4062 32.8906Z" fill="#5A50D8"/>
<path d="M36.4062 0C34.4646 0 32.8906 1.65211 32.8906 3.59375C32.8906 5.53539 34.4646 7.10938 36.4062 7.10938C38.3479 7.10938 40 5.53539 40 3.59375C40 1.65211 38.3479 0 36.4062 0Z" fill="#5A50D8"/>
<path d="M36.4062 30.5469C36.5559 30.5469 36.6963 30.5801 36.8433 30.5911C38.5852 27.8309 39.7979 24.6202 40 21.1719H35.175C34.6025 28.6366 28.6366 34.6025 21.1719 35.175V40C24.6202 39.7979 27.8309 38.5852 30.5911 36.8433C30.5801 36.6964 30.5469 36.5559 30.5469 36.4062C30.5469 33.1755 33.1755 30.5469 36.4062 30.5469Z" fill="#5A50D8"/>
<path d="M18.8281 40V35.175C11.3634 34.6025 5.3975 28.6366 4.825 21.1719H0C0.202109 24.6202 1.41477 27.8309 3.15672 30.5911C3.30367 30.5801 3.44414 30.5469 3.59375 30.5469C6.82445 30.5469 9.45312 33.1755 9.45312 36.4062C9.45312 36.5559 9.41992 36.6963 9.40891 36.8433C12.1691 38.5852 15.3798 39.7979 18.8281 40Z" fill="#5A50D8"/>
<path d="M21.1719 0V4.825C28.6366 5.3975 34.6025 11.3634 35.175 18.8281H40C39.7979 15.3798 38.5852 12.1691 36.8433 9.40891C36.6964 9.41992 36.5559 9.45312 36.4062 9.45312C33.1755 9.45312 30.5469 6.82445 30.5469 3.59375C30.5469 3.44414 30.5801 3.30367 30.5911 3.15672C27.8309 1.41477 24.6202 0.202109 21.1719 0Z" fill="#5A50D8"/>
<path d="M3.59375 9.45312C3.44414 9.45312 3.30367 9.41992 3.15672 9.40891C1.41477 12.1691 0.202109 15.3798 0 18.8281H4.825C5.3975 11.3634 11.3634 5.3975 18.8281 4.825V0C15.3798 0.202109 12.1691 1.41477 9.40891 3.15672C9.41992 3.30367 9.45312 3.44414 9.45312 3.59375C9.45312 6.82445 6.82445 9.45312 3.59375 9.45312Z" fill="#5A50D8"/>
</g>
<defs>
<clipPath id="clip0_4218_2975">
<rect width="40" height="40" fill="white"/>
</clipPath>
</defs>
</svg>
