<svg width="40" height="40" viewBox="0 0 40 40" fill="none" xmlns="http://www.w3.org/2000/svg">
<path fill-rule="evenodd" clip-rule="evenodd" d="M22.3689 2.27672L24.7506 4.05953C25.402 4.54711 26.0876 4.79664 26.9 4.84187L29.8704 5.00711C31.6491 5.10602 33.0937 6.31812 33.5 8.05266L34.1785 10.9493C34.3641 11.7415 34.7289 12.3734 35.3222 12.9302L37.4915 14.9662C38.7904 16.1852 39.1178 18.0423 38.3143 19.6322L36.9721 22.2873C36.6051 23.0134 36.4784 23.732 36.575 24.5398L36.9281 27.4939C37.1395 29.2627 36.1966 30.8958 34.5591 31.5971L31.8242 32.7684C31.0763 33.0887 30.5174 33.5577 30.0721 34.2386L28.4437 36.7284C27.4687 38.2193 25.6967 38.8642 23.9915 38.3489L21.1437 37.4883C20.3649 37.2529 19.6353 37.2529 18.8564 37.4883L16.0085 38.3489C14.3034 38.8642 12.5314 38.2193 11.5564 36.7284L9.928 34.2386C9.48261 33.5577 8.9237 33.0887 8.17581 32.7684L5.44081 31.597C3.80331 30.8956 2.86042 29.2626 3.07183 27.4937L3.42495 24.5397C3.52151 23.7318 3.39479 23.0133 3.02776 22.2871L1.68565 19.632C0.882061 18.0423 1.20948 16.1852 2.50839 14.966L4.67769 12.93C5.27097 12.3732 5.63573 11.7413 5.82128 10.9491L6.49987 8.0525C6.90612 6.31805 8.35073 5.10594 10.1294 5.00695L13.0998 4.84172C13.9122 4.79656 14.5978 4.54695 15.2492 4.05938L17.631 2.27656C19.057 1.20922 20.9428 1.20922 22.3689 2.27672ZM18.4806 21.0204L15.8959 18.4357C15.226 17.7658 14.1393 17.7658 13.4695 18.4357C12.7996 19.1056 12.7996 20.1922 13.4695 20.8621L17.2711 24.6637C17.941 25.3335 19.0277 25.3336 19.6975 24.6637C21.9889 22.3722 24.2544 20.055 26.5353 17.753C27.2003 17.0818 27.1982 15.9987 26.5278 15.332C25.8574 14.6652 24.7711 14.6671 24.1053 15.3395L18.4806 21.0204ZM19.9999 7.22305C16.4717 7.22305 13.2774 8.6532 10.9652 10.9654C8.653 13.2777 7.22284 16.4719 7.22284 20.0001C7.22284 23.5283 8.653 26.7226 10.9652 29.0348C13.2774 31.347 16.4717 32.7771 19.9999 32.7771C23.5281 32.7771 26.7224 31.347 29.0346 29.0348C31.3468 26.7226 32.7769 23.5283 32.7769 20.0001C32.7769 16.4719 31.3468 13.2776 29.0346 10.9654C26.7224 8.6532 23.5281 7.22305 19.9999 7.22305ZM28.1507 11.8492C26.0648 9.76328 23.183 8.47305 19.9999 8.47305C16.8167 8.47305 13.935 9.76328 11.849 11.8492C9.76308 13.9352 8.47284 16.817 8.47284 20.0001C8.47284 23.1832 9.76308 26.065 11.849 28.1509C13.935 30.2369 16.8167 31.5271 19.9999 31.5271C23.183 31.5271 26.0648 30.2369 28.1507 28.151C30.2367 26.0651 31.5268 23.1833 31.5268 20.0002C31.5269 16.817 30.2367 13.9352 28.1507 11.8492Z" fill="#5A50D8"/>
</svg>
