<svg width="854" height="539" viewBox="0 0 854 539" fill="none" xmlns="http://www.w3.org/2000/svg">
<path d="M68.498 0L68.498 539M133.734 0L133.734 539M198.97 0L198.97 539M264.206 0L264.206 539M329.442 0L329.443 539M394.679 0L394.679 539M459.915 0L459.915 539M525.151 0L525.151 539M590.387 0L590.387 539M655.623 0V539M720.859 0V539M786.095 0V539M854 41.7577H0M854 106.912H0M854 172.065H0M854 237.219H0M854 302.373H0M854 367.527H0M854 432.681H0M854 497.835H0" stroke="url(#paint0_radial_4218_1943)" style="mix-blend-mode:plus-lighter"/>
<defs>
<radialGradient id="paint0_radial_4218_1943" cx="0" cy="0" r="1" gradientUnits="userSpaceOnUse" gradientTransform="translate(427 269.5) rotate(90) scale(269.5 427)">
<stop stop-color="white" stop-opacity="0.02"/>
<stop offset="1" stop-color="white" stop-opacity="0"/>
</radialGradient>
</defs>
</svg>
