<svg width="21" height="20" viewBox="0 0 21 20" fill="none" xmlns="http://www.w3.org/2000/svg">
<path d="M10.0245 0.463526C10.1741 0.00287056 10.8259 0.00287008 10.9755 0.463525L13.0819 6.9463C13.1488 7.15232 13.3408 7.2918 13.5574 7.2918H20.3738C20.8582 7.2918 21.0596 7.9116 20.6677 8.1963L15.1531 12.2029C14.9779 12.3302 14.9046 12.5559 14.9715 12.7619L17.0779 19.2447C17.2276 19.7053 16.7003 20.0884 16.3085 19.8037L10.7939 15.7971C10.6186 15.6698 10.3814 15.6698 10.2061 15.7971L4.69153 19.8037C4.29967 20.0884 3.77243 19.7053 3.92211 19.2447L6.02849 12.7619C6.09543 12.5559 6.0221 12.3302 5.84685 12.2029L0.332272 8.1963C-0.0595852 7.9116 0.141802 7.2918 0.626164 7.2918H7.44256C7.65917 7.2918 7.85115 7.15232 7.91809 6.9463L10.0245 0.463526Z" fill="#FFCC42"/>
</svg>
