<svg width="13" height="14" viewBox="0 0 13 14" fill="none" xmlns="http://www.w3.org/2000/svg">
<g clip-path="url(#clip0_809_1602)">
<path d="M7.27868 2.98854V1.17186C7.27868 1.0342 7.224 0.902173 7.12666 0.804832C7.02931 0.707491 6.89729 0.652805 6.75963 0.652805H1.05006C0.912397 0.652805 0.780374 0.707491 0.683033 0.804832C0.585692 0.902173 0.531006 1.0342 0.531006 1.17186V12.0719C0.531006 12.2096 0.585692 12.3416 0.683033 12.439C0.780374 12.5363 0.912397 12.591 1.05006 12.591H6.75963C6.89729 12.591 7.02931 12.5363 7.12666 12.439C7.224 12.3416 7.27868 12.2096 7.27868 12.0719V10.2553" stroke="white" stroke-linecap="round" stroke-linejoin="round"/>
<path d="M12.469 6.62183H2.60699" stroke="white" stroke-linecap="round" stroke-linejoin="round"/>
<path d="M9.87378 9.21711L12.469 6.62185L9.87378 4.02658" stroke="white" stroke-linecap="round" stroke-linejoin="round"/>
</g>
<defs>
<clipPath id="clip0_809_1602">
<rect width="13" height="13" fill="white" transform="translate(0 0.121735)"/>
</clipPath>
</defs>
</svg>
